<svg width="171" height="55" viewBox="0 0 171 55" fill="none" xmlns="http://www.w3.org/2000/svg">
<g clip-path="url(#clip0_1986_4026)">
<g clip-path="url(#clip1_1986_4026)">
<g clip-path="url(#clip2_1986_4026)">
<path d="M156.389 0.000396729H14.6114C7.01854 0.000396729 0.863281 6.15565 0.863281 13.7485V39.9548C0.863281 47.5477 7.01854 53.703 14.6114 53.703H156.389C163.982 53.703 170.137 47.5477 170.137 39.9548V13.7485C170.137 6.15565 163.982 0.000396729 156.389 0.000396729Z" fill="white"/>
<path d="M40.8231 25.8439C40.8376 24.7242 41.1358 23.6265 41.6901 22.6527C42.2444 21.6789 43.0366 20.8607 43.9931 20.2742C43.3855 19.4088 42.5839 18.6966 41.6518 18.1941C40.7199 17.6917 39.6833 17.4129 38.6243 17.3799C36.3654 17.1434 34.1755 18.7278 33.0243 18.7278C31.851 18.7278 30.0787 17.4034 28.1703 17.4425C26.9358 17.4823 25.7327 17.8402 24.6783 18.4816C23.6238 19.1228 22.754 20.0256 22.1533 21.1018C19.5518 25.5934 21.4923 32.1946 23.9844 35.8254C25.2313 37.6032 26.6885 39.5891 28.5952 39.5187C30.4611 39.4415 31.1579 38.3322 33.4102 38.3322C35.6416 38.3322 36.2954 39.5187 38.2407 39.4739C40.2429 39.4415 41.5044 37.6881 42.7075 35.8935C43.6034 34.6267 44.2927 33.2266 44.75 31.7451C43.5869 31.2545 42.5942 30.4333 41.8959 29.3839C41.1976 28.3345 40.8245 27.1034 40.8231 25.8439Z" fill="black"/>
<path d="M37.1367 14.9914C38.2284 13.6846 38.7662 12.0049 38.636 10.309C36.9682 10.4837 35.4276 11.2786 34.3212 12.5352C33.7803 13.1492 33.366 13.8634 33.102 14.6371C32.8379 15.4108 32.7295 16.2288 32.7827 17.0443C33.6169 17.0528 34.4422 16.8725 35.1963 16.517C35.9506 16.1613 36.614 15.6397 37.1367 14.9914Z" fill="black"/>
<path d="M63.2104 35.1972H57.0873L55.6169 39.5268H53.0234L58.8231 23.5082H61.5176L67.3172 39.5268H64.6795L63.2104 35.1972ZM57.7215 33.1992H62.575L60.1824 26.1725H60.1154L57.7215 33.1992Z" fill="black"/>
<path d="M79.829 33.6855C79.829 37.3148 77.881 39.6466 74.9414 39.6466C74.1968 39.6854 73.4562 39.5143 72.8045 39.153C72.1528 38.7916 71.6164 38.2546 71.2565 37.6032H71.2009V43.3879H68.7969V27.8454H71.1238V29.7879H71.1681C71.5444 29.1398 72.09 28.6055 72.7466 28.242C73.4033 27.8783 74.1465 27.6991 74.8972 27.7232C77.8697 27.7232 79.829 30.0663 79.829 33.6855ZM77.3581 33.6855C77.3581 31.321 76.1327 29.7665 74.263 29.7665C72.4263 29.7665 71.1909 31.3538 71.1909 33.6855C71.1909 36.0387 72.4263 37.6147 74.263 37.6147C76.1327 37.6147 77.3581 36.0714 77.3581 33.6855Z" fill="black"/>
<path d="M92.7319 33.6855C92.7319 37.3148 90.7831 39.6466 87.8436 39.6466C87.0995 39.6854 86.3588 39.5143 85.7068 39.153C85.0551 38.7916 84.5186 38.2546 84.1588 37.6032H84.1032V43.3879H81.6992V27.8454H84.0261V29.7879H84.0703C84.4467 29.1398 84.9922 28.6055 85.6489 28.242C86.3055 27.8783 87.0488 27.6991 87.7998 27.7232C90.772 27.7232 92.7319 30.0663 92.7319 33.6855ZM90.2607 33.6855C90.2607 31.321 89.0354 29.7665 87.1657 29.7665C85.3286 29.7665 84.0931 31.3538 84.0931 33.6855C84.0931 36.0387 85.3286 37.6147 87.1657 37.6147C89.0354 37.6147 90.2607 36.0714 90.2607 33.6855Z" fill="black"/>
<path d="M101.234 35.0623C101.413 36.6508 102.961 37.6937 105.075 37.6937C107.101 37.6937 108.559 36.6507 108.559 35.2184C108.559 33.975 107.68 33.2306 105.598 32.7203L103.517 32.2203C100.567 31.5097 99.197 30.1341 99.197 27.9019C99.197 25.1381 101.612 23.2396 105.041 23.2396C108.437 23.2396 110.764 25.1381 110.842 27.9019H108.415C108.27 26.3033 106.945 25.3384 105.008 25.3384C103.071 25.3384 101.746 26.3147 101.746 27.7356C101.746 28.8681 102.593 29.5345 104.663 30.0446L106.433 30.478C109.729 31.2552 111.097 32.5755 111.097 34.9185C111.097 37.9154 108.705 39.7924 104.897 39.7924C101.334 39.7924 98.929 37.9595 98.7734 35.0621L101.234 35.0623Z" fill="black"/>
<path d="M116.29 25.0834V27.8473H118.517V29.7456H116.29V36.1841C116.29 37.1843 116.736 37.6505 117.715 37.6505C117.98 37.6458 118.243 37.6274 118.506 37.595V39.4821C118.066 39.564 117.619 39.6012 117.171 39.5929C114.799 39.5929 113.875 38.7048 113.875 36.4398V29.7456H112.172V27.8473H113.875V25.0834H116.29Z" fill="black"/>
<path d="M119.801 33.6871C119.801 30.0126 121.97 27.7035 125.355 27.7035C128.751 27.7035 130.911 30.0125 130.911 33.6871C130.911 37.3719 128.762 39.6708 125.355 39.6708C121.949 39.6708 119.801 37.3719 119.801 33.6871ZM128.461 33.6871C128.461 31.1665 127.303 29.6787 125.355 29.6787C123.407 29.6787 122.249 31.1778 122.249 33.6871C122.249 36.218 123.407 37.6944 125.355 37.6944C127.303 37.6944 128.461 36.218 128.461 33.6871Z" fill="black"/>
<path d="M132.906 27.8453H135.2V29.8331H135.255C135.41 29.2123 135.775 28.6636 136.288 28.2794C136.801 27.8951 137.431 27.6987 138.072 27.7231C138.349 27.7222 138.625 27.7521 138.896 27.8125V30.0549C138.546 29.9482 138.181 29.8993 137.816 29.91C137.466 29.8958 137.118 29.9573 136.795 30.09C136.472 30.2227 136.182 30.4236 135.944 30.6789C135.706 30.9341 135.525 31.2377 135.416 31.5688C135.307 31.9 135.271 32.2506 135.31 32.597V39.5242H132.906V27.8453Z" fill="black"/>
<path d="M149.979 36.0958C149.655 38.2158 147.585 39.6708 144.936 39.6708C141.529 39.6708 139.414 37.3946 139.414 33.7426C139.414 30.0793 141.54 27.7035 144.834 27.7035C148.075 27.7035 150.113 29.9231 150.113 33.4642V34.2855H141.841V34.4304C141.802 34.8602 141.856 35.2932 141.999 35.7006C142.141 36.1081 142.369 36.4806 142.667 36.7934C142.965 37.1063 143.326 37.3524 143.728 37.5153C144.128 37.6783 144.558 37.7543 144.992 37.7384C145.559 37.7915 146.129 37.6603 146.616 37.3643C147.104 37.0684 147.483 36.6235 147.696 36.0957L149.979 36.0958ZM141.852 32.6101H147.707C147.729 32.2236 147.67 31.8369 147.535 31.4741C147.399 31.1114 147.19 30.7805 146.921 30.5021C146.651 30.2238 146.326 30.0041 145.967 29.8567C145.608 29.7094 145.223 29.6377 144.834 29.6459C144.443 29.6436 144.055 29.7186 143.692 29.8667C143.331 30.0146 143.001 30.2327 142.724 30.5083C142.446 30.7839 142.226 31.1115 142.077 31.4723C141.927 31.833 141.851 32.2197 141.852 32.6101Z" fill="black"/>
<path d="M57.4051 11.4486C57.9092 11.4125 58.4149 11.4884 58.8859 11.6709C59.3569 11.8533 59.7815 12.1377 60.1289 12.5036C60.4763 12.8695 60.738 13.3076 60.895 13.7866C61.0521 14.2655 61.1006 14.7732 61.0371 15.2731C61.0371 17.7321 59.7043 19.1456 57.4051 19.1456H54.6172V11.4486H57.4051ZM55.8159 18.057H57.2713C57.6314 18.0785 57.9918 18.0196 58.3263 17.8846C58.6607 17.7497 58.9607 17.5421 59.2046 17.277C59.4484 17.0118 59.6298 16.6957 59.7358 16.3518C59.8417 16.0078 59.8693 15.6447 59.8167 15.2888C59.8655 14.9343 59.835 14.5734 59.7275 14.2319C59.6201 13.8905 59.4381 13.5771 59.1948 13.314C58.9515 13.0509 58.653 12.8448 58.3203 12.7103C57.9878 12.5759 57.6296 12.5164 57.2713 12.5362H55.8159V18.057Z" fill="black"/>
<path d="M62.3958 16.2369C62.3592 15.8552 62.403 15.47 62.5244 15.1062C62.6457 14.7423 62.8421 14.4078 63.1007 14.124C63.3594 13.8402 63.6746 13.6135 64.0263 13.4584C64.3779 13.3032 64.7582 13.223 65.1428 13.223C65.5274 13.223 65.9077 13.3032 66.2593 13.4584C66.611 13.6135 66.9262 13.8402 67.1849 14.124C67.4435 14.4078 67.6398 14.7423 67.7612 15.1062C67.8826 15.47 67.9264 15.8552 67.8897 16.2369C67.9271 16.619 67.8838 17.0047 67.7627 17.3691C67.6417 17.7335 67.4455 18.0687 67.1868 18.3531C66.928 18.6374 66.6125 18.8646 66.2606 19.02C65.9085 19.1755 65.5278 19.2559 65.1428 19.2559C64.7578 19.2559 64.3771 19.1755 64.025 19.02C63.673 18.8646 63.3576 18.6374 63.0988 18.3531C62.8401 18.0687 62.6439 17.7335 62.5229 17.3691C62.4018 17.0047 62.3585 16.619 62.3958 16.2369ZM66.7073 16.2369C66.7073 14.9778 66.1401 14.2415 65.1446 14.2415C64.1454 14.2415 63.5833 14.9778 63.5833 16.2369C63.5833 17.5061 64.1455 18.2367 65.1446 18.2367C66.1402 18.2367 66.7073 17.501 66.7073 16.2369Z" fill="black"/>
<path d="M75.1917 19.1459H73.9991L72.7952 14.8678H72.7043L71.5055 19.1459H70.3244L68.7188 13.3373H69.8848L70.9282 17.7696H71.0141L72.2116 13.3373H73.3145L74.512 17.7696H74.603L75.6414 13.3373H76.791L75.1917 19.1459Z" fill="black"/>
<path d="M78.1484 13.335H79.2551V14.2578H79.3409C79.4866 13.9263 79.7325 13.6486 80.044 13.463C80.3556 13.2775 80.7175 13.1936 81.0792 13.2229C81.3627 13.2017 81.6473 13.2443 81.9119 13.3476C82.1766 13.4509 82.4145 13.6123 82.6082 13.8198C82.8018 14.0272 82.9461 14.2756 83.0304 14.5462C83.1148 14.8169 83.137 15.1029 83.0954 15.3833V19.1436H81.9458V15.6712C81.9458 14.7377 81.5391 14.2736 80.6888 14.2736C80.4965 14.2646 80.3043 14.2973 80.1258 14.3693C79.9471 14.4413 79.7863 14.5509 79.6542 14.6907C79.5221 14.8306 79.4219 14.9972 79.3603 15.1793C79.2989 15.3613 79.2776 15.5545 79.298 15.7455V19.1436H78.1484V13.335Z" fill="black"/>
<path d="M84.9336 11.0688H86.0832V19.1449H84.9336V11.0688Z" fill="black"/>
<path d="M87.6691 16.237C87.633 15.8553 87.6768 15.4701 87.798 15.1063C87.9191 14.7424 88.1159 14.4078 88.3745 14.124C88.6332 13.8402 88.9485 13.6135 89.3 13.4584C89.6523 13.3032 90.032 13.223 90.417 13.223C90.8011 13.223 91.1817 13.3032 91.5332 13.4584C91.8846 13.6135 92.2 13.8402 92.4586 14.124C92.7172 14.4078 92.914 14.7424 93.0352 15.1063C93.1572 15.4701 93.201 15.8553 93.164 16.237C93.201 16.6192 93.158 17.0048 93.0369 17.3693C92.9157 17.7337 92.7198 18.0688 92.4612 18.3531C92.2017 18.6375 91.8863 18.8647 91.5349 19.0202C91.1826 19.1756 90.8019 19.256 90.417 19.256C90.032 19.256 89.6514 19.1756 89.2991 19.0202C88.9468 18.8647 88.6314 18.6375 88.3728 18.3531C88.1142 18.0688 87.9174 17.7337 87.7963 17.3693C87.6751 17.0048 87.6321 16.6192 87.6691 16.237ZM91.9808 16.237C91.9808 14.9779 91.4137 14.2416 90.4187 14.2416C89.4194 14.2416 88.8566 14.9779 88.8566 16.237C88.8566 17.5062 89.4194 18.2368 90.4187 18.2368C91.4137 18.2368 91.9808 17.5011 91.9808 16.237Z" fill="black"/>
<path d="M94.3789 17.5011C94.3789 16.4555 95.16 15.8527 96.546 15.767L98.1236 15.6764V15.175C98.1236 14.5615 97.7171 14.2151 96.9309 14.2151C96.289 14.2151 95.8448 14.45 95.7168 14.8607H94.604C94.7218 13.863 95.6626 13.223 96.9842 13.223C98.4441 13.223 99.2681 13.948 99.2681 15.175V19.1437H98.1614V18.3275H98.0703C97.8855 18.6203 97.6269 18.859 97.3193 19.0192C97.0117 19.1794 96.6671 19.2555 96.3208 19.2395C96.0759 19.2648 95.8293 19.2388 95.5956 19.1631C95.3619 19.0874 95.1462 18.9636 94.9632 18.7999C94.7802 18.6361 94.6341 18.4359 94.5336 18.2121C94.433 17.9885 94.3806 17.7462 94.3789 17.5011ZM98.1236 17.0047V16.5191L96.7015 16.6098C95.8989 16.6633 95.5355 16.9355 95.5355 17.4476C95.5355 17.9703 95.99 18.2745 96.6156 18.2745C96.7986 18.293 96.9833 18.2746 97.1595 18.2203C97.3356 18.166 97.4989 18.077 97.6398 17.9585C97.7799 17.84 97.8959 17.6945 97.9783 17.5307C98.0617 17.3668 98.1115 17.188 98.1236 17.0047Z" fill="black"/>
<path d="M100.781 16.2381C100.781 14.4027 101.727 13.2399 103.199 13.2399C103.564 13.2233 103.924 13.3101 104.241 13.4907C104.558 13.6711 104.815 13.9376 104.986 14.259H105.072V11.0688H106.221V19.1449H105.12V18.2272H105.029C104.846 18.5465 104.578 18.8096 104.256 18.9883C103.933 19.1669 103.568 19.2541 103.199 19.2407C101.718 19.2407 100.781 18.0779 100.781 16.2381ZM101.969 16.2381C101.969 17.4701 102.551 18.2114 103.526 18.2114C104.494 18.2114 105.093 17.4594 105.093 16.2431C105.093 15.0325 104.488 14.2698 103.526 14.2698C102.557 14.2698 101.969 15.0162 101.969 16.2381Z" fill="black"/>
<path d="M110.978 16.2369C110.942 15.8552 110.985 15.47 111.107 15.1062C111.228 14.7423 111.424 14.4078 111.683 14.124C111.942 13.8402 112.256 13.6135 112.609 13.4584C112.96 13.3032 113.341 13.223 113.725 13.223C114.11 13.223 114.489 13.3032 114.841 13.4584C115.193 13.6135 115.509 13.8402 115.767 14.124C116.026 14.4078 116.222 14.7423 116.343 15.1062C116.465 15.47 116.509 15.8552 116.472 16.2369C116.509 16.619 116.466 17.0047 116.345 17.3691C116.223 17.7335 116.028 18.0687 115.769 18.3531C115.51 18.6374 115.195 18.8646 114.843 19.02C114.49 19.1755 114.11 19.2559 113.725 19.2559C113.34 19.2559 112.959 19.1755 112.607 19.02C112.255 18.8646 111.939 18.6374 111.681 18.3531C111.422 18.0687 111.226 17.7335 111.105 17.3691C110.984 17.0047 110.941 16.619 110.978 16.2369ZM115.289 16.2369C115.289 14.9778 114.722 14.2415 113.726 14.2415C112.727 14.2415 112.165 14.9778 112.165 16.2369C112.165 17.5061 112.727 18.2367 113.726 18.2367C114.722 18.2367 115.289 17.501 115.289 16.2369Z" fill="black"/>
<path d="M118.008 13.335H119.115V14.2578H119.2C119.346 13.9263 119.592 13.6486 119.903 13.463C120.215 13.2775 120.577 13.1936 120.939 13.2229C121.222 13.2017 121.507 13.2443 121.771 13.3476C122.036 13.4509 122.274 13.6123 122.467 13.8198C122.662 14.0272 122.806 14.2756 122.89 14.5462C122.974 14.8169 122.997 15.1029 122.955 15.3833V19.1436H121.805V15.6712C121.805 14.7377 121.398 14.2736 120.549 14.2736C120.356 14.2646 120.164 14.2973 119.985 14.3693C119.806 14.4413 119.646 14.5509 119.513 14.6907C119.382 14.8306 119.281 14.9972 119.219 15.1793C119.158 15.3613 119.137 15.5545 119.157 15.7455V19.1436H118.008V13.335Z" fill="black"/>
<path d="M129.459 11.893V13.3656H130.721V14.3312H129.459V17.318C129.459 17.9264 129.711 18.1929 130.282 18.1929C130.429 18.1924 130.575 18.1835 130.721 18.1664V19.1212C130.514 19.1581 130.305 19.1777 130.095 19.1798C128.817 19.1798 128.308 18.7314 128.308 17.6115V14.3311H127.383V13.3656H128.308V11.893H129.459Z" fill="black"/>
<path d="M132.27 11.0688H133.409V14.2698H133.5C133.653 13.9352 133.906 13.6558 134.223 13.4696C134.541 13.2834 134.908 13.1995 135.276 13.2292C135.558 13.2139 135.84 13.2609 136.102 13.3667C136.363 13.4725 136.598 13.6347 136.79 13.8415C136.982 14.0483 137.125 14.2948 137.21 14.5633C137.295 14.8317 137.319 15.1156 137.282 15.3947V19.1449H136.131V15.6775C136.131 14.7497 135.698 14.2798 134.886 14.2798C134.688 14.2637 134.49 14.2907 134.303 14.3592C134.118 14.4276 133.949 14.5358 133.809 14.676C133.669 14.8163 133.562 14.9853 133.495 15.1712C133.428 15.3571 133.402 15.5555 133.419 15.7524V19.1448H132.27V11.0688Z" fill="black"/>
<path d="M144.001 17.5754C143.846 18.1063 143.507 18.5655 143.046 18.8728C142.584 19.1799 142.029 19.3155 141.477 19.2559C141.093 19.266 140.713 19.1927 140.36 19.0411C140.007 18.8895 139.692 18.6632 139.436 18.378C139.18 18.0927 138.989 17.7553 138.877 17.3892C138.765 17.023 138.734 16.637 138.787 16.2578C138.736 15.8774 138.767 15.4905 138.879 15.1233C138.991 14.756 139.181 14.4171 139.435 14.1293C139.69 13.8415 140.004 13.6118 140.355 13.4554C140.707 13.299 141.087 13.2198 141.472 13.2231C143.093 13.2231 144.071 14.3273 144.071 16.1513V16.5513H139.957V16.6156C139.939 16.8287 139.967 17.0432 140.036 17.2455C140.107 17.4477 140.219 17.633 140.365 17.7897C140.51 17.9464 140.688 18.0709 140.885 18.1553C141.082 18.2397 141.294 18.2819 141.509 18.2796C141.784 18.3125 142.063 18.2631 142.309 18.1377C142.556 18.0124 142.76 17.8166 142.895 17.5754L144.001 17.5754ZM139.957 15.7035H142.899C142.914 15.5085 142.887 15.3128 142.822 15.1286C142.756 14.9445 142.652 14.7762 142.517 14.6345C142.382 14.4928 142.219 14.3808 142.038 14.3058C141.856 14.2307 141.662 14.1943 141.466 14.1987C141.267 14.1962 141.07 14.2334 140.885 14.3082C140.702 14.383 140.534 14.4937 140.394 14.6339C140.253 14.7742 140.142 14.941 140.067 15.1248C139.993 15.3085 139.955 15.5052 139.957 15.7035Z" fill="black"/>
</g>
</g>
</g>
<defs>
<clipPath id="clip0_1986_4026">
<rect width="170.133" height="54.1333" fill="white" transform="translate(0.199219)"/>
</clipPath>
<clipPath id="clip1_1986_4026">
<rect width="170.133" height="54.1333" fill="white" transform="translate(0.199219)"/>
</clipPath>
<clipPath id="clip2_1986_4026">
<rect width="170.133" height="54.1333" fill="white" transform="translate(0.199219)"/>
</clipPath>
</defs>
</svg>
