<svg width="206" height="50" viewBox="0 0 206 50" fill="none" xmlns="http://www.w3.org/2000/svg">
<path d="M0.15978 43.6023C0.15978 43.5711 0.199773 43.5487 0.235321 43.5174C0.275314 43.4817 0.315306 43.4459 0.355299 43.4102C0.43084 43.3387 0.510825 43.2716 0.586366 43.2001C0.737449 43.0616 0.888532 42.9186 1.03517 42.7756C1.18181 42.6325 1.32401 42.4806 1.46176 42.3286C1.51064 42.275 1.55952 42.2169 1.60395 42.1633C1.99943 41.6895 2.49712 41.0594 2.65264 40.4471C3.07923 39.3835 3.14588 38.2304 2.97703 37.1042C2.71485 35.3344 1.96833 33.7121 1.364 32.0451C-2.45306 22.1638 2.39936 10.897 12.0287 6.00775C21.4536 1.22127 32.8647 4.09941 38.9347 12.7964C44.6047 20.9258 44.227 31.111 37.9704 38.9008C32.0604 46.2526 22.089 48.6168 13.144 45.1129C10.9 44.2325 8.29158 44.237 5.83427 43.9956C4.35899 43.8526 2.87482 43.9286 1.39955 43.9599C1.29734 43.9599 1.1907 43.9688 1.08849 43.9733C0.986291 43.9778 0.884088 43.9644 0.786329 43.942C0.657464 43.9152 0.537487 43.8705 0.417509 43.8169C0.364186 43.7945 0.310863 43.7677 0.266427 43.7275C0.244209 43.7096 0.221991 43.6873 0.20866 43.6649C0.195329 43.647 0.168667 43.6202 0.168667 43.5979L0.15978 43.6023ZM21.6624 10.325C13.0996 10.3071 6.65633 16.698 6.643 25.2207C6.62967 33.6093 13.2684 40.2952 21.6091 40.2996C29.7986 40.2996 36.4729 33.6451 36.544 25.3905C36.6196 16.9438 30.0964 10.3428 21.6624 10.3205V10.325ZM16.3034 26.0564C16.3034 27.3614 15.2503 28.4206 13.9527 28.4206C12.6552 28.4206 11.6021 27.3614 11.6021 26.0564C11.6021 24.7514 12.6552 23.6922 13.9527 23.6922C15.2503 23.6922 16.3034 24.7514 16.3034 26.0564ZM23.8487 26.0564C23.8487 27.3614 22.7955 28.4206 21.498 28.4206C20.2005 28.4206 19.1473 27.3614 19.1473 26.0564C19.1473 24.7514 20.2005 23.6922 21.498 23.6922C22.7955 23.6922 23.8487 24.7514 23.8487 26.0564ZM31.3939 26.0564C31.3939 27.3614 30.3408 28.4206 29.0432 28.4206C27.7457 28.4206 26.6926 27.3614 26.6926 26.0564C26.6926 24.7514 27.7457 23.6922 29.0432 23.6922C30.3408 23.6922 31.3939 24.7514 31.3939 26.0564Z" fill="url(#paint0_linear_1914_7691)"/>
<path d="M58.7375 16.8583C60.5135 16.8583 62.0655 17.2103 63.3935 17.9143C64.7215 18.6183 65.7455 19.6103 66.4655 20.8903C67.2015 22.1543 67.5695 23.6183 67.5695 25.2823C67.5695 26.9303 67.2015 28.3943 66.4655 29.6743C65.7455 30.9543 64.7135 31.9463 63.3695 32.6503C62.0415 33.3543 60.4975 33.7063 58.7375 33.7063H52.4255V16.8583H58.7375ZM58.4735 30.1543C60.0255 30.1543 61.2335 29.7303 62.0975 28.8823C62.9615 28.0343 63.3935 26.8343 63.3935 25.2823C63.3935 23.7303 62.9615 22.5223 62.0975 21.6583C61.2335 20.7943 60.0255 20.3623 58.4735 20.3623H56.5295V30.1543H58.4735ZM75.959 33.8983C74.647 33.8983 73.463 33.6183 72.407 33.0583C71.367 32.4983 70.543 31.6983 69.935 30.6583C69.343 29.6183 69.047 28.4023 69.047 27.0103C69.047 25.6343 69.351 24.4263 69.959 23.3863C70.567 22.3303 71.399 21.5223 72.455 20.9623C73.511 20.4023 74.695 20.1223 76.007 20.1223C77.319 20.1223 78.503 20.4023 79.559 20.9623C80.615 21.5223 81.447 22.3303 82.055 23.3863C82.663 24.4263 82.967 25.6343 82.967 27.0103C82.967 28.3863 82.655 29.6023 82.031 30.6583C81.423 31.6983 80.583 32.4983 79.511 33.0583C78.455 33.6183 77.271 33.8983 75.959 33.8983ZM75.959 30.3463C76.743 30.3463 77.407 30.0583 77.951 29.4823C78.511 28.9063 78.791 28.0823 78.791 27.0103C78.791 25.9383 78.519 25.1143 77.975 24.5383C77.447 23.9623 76.791 23.6743 76.007 23.6743C75.207 23.6743 74.543 23.9623 74.015 24.5383C73.487 25.0983 73.223 25.9223 73.223 27.0103C73.223 28.0823 73.479 28.9063 73.991 29.4823C74.519 30.0583 75.175 30.3463 75.959 30.3463ZM92.6083 30.2263V33.7063H90.5203C89.0323 33.7063 87.8723 33.3463 87.0403 32.6263C86.2083 31.8903 85.7923 30.6983 85.7923 29.0503V23.7223H84.1603V20.3143H85.7923V17.0503H89.8963V20.3143H92.5843V23.7223H89.8963V29.0983C89.8963 29.4983 89.9923 29.7863 90.1843 29.9623C90.3763 30.1383 90.6963 30.2263 91.1443 30.2263H92.6083ZM94.0783 27.0103C94.0783 25.6183 94.3583 24.4023 94.9183 23.3623C95.4943 22.3223 96.2863 21.5223 97.2943 20.9623C98.3183 20.4023 99.4863 20.1223 100.798 20.1223C102.478 20.1223 103.878 20.5623 104.998 21.4423C106.134 22.3223 106.878 23.5623 107.23 25.1623H102.862C102.494 24.1383 101.782 23.6263 100.726 23.6263C99.9743 23.6263 99.3743 23.9223 98.9263 24.5143C98.4783 25.0903 98.2543 25.9223 98.2543 27.0103C98.2543 28.0983 98.4783 28.9383 98.9263 29.5303C99.3743 30.1063 99.9743 30.3943 100.726 30.3943C101.782 30.3943 102.494 29.8823 102.862 28.8583H107.23C106.878 30.4263 106.134 31.6583 104.998 32.5543C103.862 33.4503 102.462 33.8983 100.798 33.8983C99.4863 33.8983 98.3183 33.6183 97.2943 33.0583C96.2863 32.4983 95.4943 31.6983 94.9183 30.6583C94.3583 29.6183 94.0783 28.4023 94.0783 27.0103ZM117.658 20.1703C119.194 20.1703 120.426 20.6823 121.354 21.7063C122.282 22.7143 122.746 24.1063 122.746 25.8823V33.7063H118.666V26.4343C118.666 25.5383 118.434 24.8423 117.97 24.3463C117.506 23.8503 116.882 23.6023 116.098 23.6023C115.314 23.6023 114.69 23.8503 114.226 24.3463C113.762 24.8423 113.53 25.5383 113.53 26.4343V33.7063H109.426V15.9463H113.53V22.1143C113.946 21.5223 114.514 21.0503 115.234 20.6983C115.954 20.3463 116.762 20.1703 117.658 20.1703ZM124.781 26.9863C124.781 25.6103 125.037 24.4023 125.549 23.3623C126.077 22.3223 126.789 21.5223 127.685 20.9623C128.581 20.4023 129.581 20.1223 130.685 20.1223C131.629 20.1223 132.453 20.3143 133.157 20.6983C133.877 21.0823 134.429 21.5863 134.813 22.2103V20.3143H138.917V33.7063H134.813V31.8103C134.413 32.4343 133.853 32.9383 133.133 33.3223C132.429 33.7063 131.605 33.8983 130.661 33.8983C129.573 33.8983 128.581 33.6183 127.685 33.0583C126.789 32.4823 126.077 31.6743 125.549 30.6343C125.037 29.5783 124.781 28.3623 124.781 26.9863ZM134.813 27.0103C134.813 25.9863 134.525 25.1783 133.949 24.5863C133.389 23.9943 132.701 23.6983 131.885 23.6983C131.069 23.6983 130.373 23.9943 129.797 24.5863C129.237 25.1623 128.957 25.9623 128.957 26.9863C128.957 28.0103 129.237 28.8263 129.797 29.4343C130.373 30.0263 131.069 30.3223 131.885 30.3223C132.701 30.3223 133.389 30.0263 133.949 29.4343C134.525 28.8423 134.813 28.0343 134.813 27.0103ZM149.35 30.2263V33.7063H147.262C145.774 33.7063 144.614 33.3463 143.782 32.6263C142.95 31.8903 142.534 30.6983 142.534 29.0503V23.7223H140.902V20.3143H142.534V17.0503H146.638V20.3143H149.326V23.7223H146.638V29.0983C146.638 29.4983 146.734 29.7863 146.926 29.9623C147.118 30.1383 147.438 30.2263 147.886 30.2263H149.35ZM167.21 30.7303H160.922L159.914 33.7063H155.618L161.714 16.8583H166.466L172.562 33.7063H168.218L167.21 30.7303ZM166.154 27.5623L164.066 21.3943L162.002 27.5623H166.154ZM178.522 22.2103C178.922 21.5863 179.474 21.0823 180.178 20.6983C180.882 20.3143 181.706 20.1223 182.65 20.1223C183.754 20.1223 184.754 20.4023 185.65 20.9623C186.546 21.5223 187.25 22.3223 187.762 23.3623C188.29 24.4023 188.554 25.6103 188.554 26.9863C188.554 28.3623 188.29 29.5783 187.762 30.6343C187.25 31.6743 186.546 32.4823 185.65 33.0583C184.754 33.6183 183.754 33.8983 182.65 33.8983C181.722 33.8983 180.898 33.7063 180.178 33.3223C179.474 32.9383 178.922 32.4423 178.522 31.8343V40.0903H174.418V20.3143H178.522V22.2103ZM184.378 26.9863C184.378 25.9623 184.09 25.1623 183.514 24.5863C182.954 23.9943 182.258 23.6983 181.426 23.6983C180.61 23.6983 179.914 23.9943 179.338 24.5863C178.778 25.1783 178.498 25.9863 178.498 27.0103C178.498 28.0343 178.778 28.8423 179.338 29.4343C179.914 30.0263 180.61 30.3223 181.426 30.3223C182.242 30.3223 182.938 30.0263 183.514 29.4343C184.09 28.8263 184.378 28.0103 184.378 26.9863ZM194.811 22.2103C195.211 21.5863 195.763 21.0823 196.467 20.6983C197.171 20.3143 197.995 20.1223 198.939 20.1223C200.043 20.1223 201.043 20.4023 201.939 20.9623C202.835 21.5223 203.539 22.3223 204.051 23.3623C204.579 24.4023 204.843 25.6103 204.843 26.9863C204.843 28.3623 204.579 29.5783 204.051 30.6343C203.539 31.6743 202.835 32.4823 201.939 33.0583C201.043 33.6183 200.043 33.8983 198.939 33.8983C198.011 33.8983 197.187 33.7063 196.467 33.3223C195.763 32.9383 195.211 32.4423 194.811 31.8343V40.0903H190.707V20.3143H194.811V22.2103ZM200.667 26.9863C200.667 25.9623 200.379 25.1623 199.803 24.5863C199.243 23.9943 198.547 23.6983 197.715 23.6983C196.899 23.6983 196.203 23.9943 195.627 24.5863C195.067 25.1783 194.787 25.9863 194.787 27.0103C194.787 28.0343 195.067 28.8423 195.627 29.4343C196.203 30.0263 196.899 30.3223 197.715 30.3223C198.531 30.3223 199.227 30.0263 199.803 29.4343C200.379 28.8263 200.667 28.0103 200.667 26.9863Z" fill="url(#paint1_linear_1914_7691)"/>
<defs>
<linearGradient id="paint0_linear_1914_7691" x1="-17.3763" y1="25.2086" x2="107.565" y2="25.2086" gradientUnits="userSpaceOnUse">
<stop stop-color="#3372FF"/>
<stop offset="1" stop-color="#24C1FF"/>
</linearGradient>
<linearGradient id="paint1_linear_1914_7691" x1="-12.084" y1="25.2089" x2="439.54" y2="25.2089" gradientUnits="userSpaceOnUse">
<stop stop-color="#3372FF"/>
<stop offset="1" stop-color="#24C1FF"/>
</linearGradient>
</defs>
</svg>
