<svg width="30" height="25" viewBox="0 0 30 25" fill="none" xmlns="http://www.w3.org/2000/svg">
<path fill-rule="evenodd" clip-rule="evenodd" d="M2.9905 15.4894C1.59593 15.416 0.488281 14.2613 0.488281 12.8496C0.488281 11.5981 1.35905 10.5502 2.52675 10.2765C2.43 9.82934 2.37996 9.36546 2.37996 8.89156C2.37996 5.24724 5.33925 2.29041 8.97914 2.29041C12.0018 2.29041 14.5541 4.32949 15.3348 7.10611C15.4482 7.0961 15.5583 7.09276 15.6751 7.09276C17.9938 7.09276 19.8721 8.97499 19.8721 11.2911C19.8721 13.6071 17.9905 15.4894 15.6751 15.4894C15.645 15.4894 15.6117 15.4894 15.5783 15.4894H2.9905Z" fill="#0561E9"/>
<path d="M26.7256 5.5353C23.406 0.803026 17.2839 -0.892317 12.0426 1.36369C13.4505 1.96774 14.6716 2.95892 15.5524 4.22041C15.9794 4.16368 16.4165 4.13364 16.8636 4.13364C21.6812 4.14365 25.4045 7.89477 25.3644 12.6905C25.3211 17.376 21.511 21.1605 16.8335 21.1605C13.7241 21.1605 11.0284 19.5386 9.53374 17.0857H5.5035C5.78708 17.8199 6.07401 18.5574 6.19078 19.3417C6.28753 19.9824 6.24749 20.6365 6.00728 21.2406C5.9539 21.3707 5.9172 21.4942 5.84714 21.6177C5.82712 21.6177 5.70368 21.838 5.68366 21.868C5.63028 21.9414 5.5769 22.0082 5.52352 22.0782C5.40008 22.2318 5.2733 22.3753 5.13651 22.5154C5.04309 22.6089 4.943 22.7023 4.84292 22.7891C4.76952 22.8525 4.61938 22.9293 4.60938 23.0327C4.60938 23.0627 4.61605 23.0961 4.64941 23.1262C4.69612 23.1762 4.76952 23.1896 4.83958 23.1996C5.82712 23.3331 6.83468 23.1595 7.82556 23.253C9.23013 23.3898 10.7215 23.3865 12.0026 23.8871C17.1104 25.8794 22.8055 24.5345 26.1818 20.3629C29.755 15.9376 29.9718 10.1508 26.7323 5.5353H26.7256Z" fill="#0561E9"/>
</svg>
