<svg width="176" height="39" viewBox="0 0 176 39" fill="none" xmlns="http://www.w3.org/2000/svg">
<g clip-path="url(#clip0_1335_325)">
<path d="M71.6737 12.547C73.091 13.2985 74.1834 14.3485 74.9613 15.7077C75.7393 17.0668 76.1229 18.6286 76.1229 20.4035C76.1229 22.1784 75.734 23.7188 74.9613 25.0833C74.1834 26.4477 73.0857 27.5031 71.663 28.2546C70.2403 29.0062 68.5885 29.3793 66.7128 29.3793H59.9883V11.417H66.7128C68.6044 11.417 70.2616 11.7901 71.6737 12.5416V12.547ZM70.2936 24.2358C71.2154 23.3297 71.6737 22.0504 71.6737 20.3981C71.6737 18.7458 71.2154 17.4559 70.2936 16.5338C69.3717 15.6117 68.0876 15.1534 66.4304 15.1534H64.3576V25.5896H66.4304C68.0823 25.5896 69.3717 25.1366 70.2936 24.2358Z" fill="white"/>
<path d="M81.3023 28.6863C80.1834 28.0893 79.3095 27.2365 78.6701 26.1279C78.0306 25.0192 77.7109 23.724 77.7109 22.2369C77.7109 20.7499 78.036 19.476 78.6807 18.362C79.3308 17.2427 80.2153 16.3899 81.3396 15.7929C82.4639 15.1959 83.7268 14.8975 85.1229 14.8975C86.5189 14.8975 87.7818 15.1959 88.9061 15.7929C90.0304 16.3899 90.9203 17.248 91.565 18.362C92.2151 19.4813 92.5348 20.7712 92.5348 22.2369C92.5348 23.7027 92.2044 24.9979 91.549 26.1119C90.8936 27.2312 89.9984 28.084 88.8635 28.681C87.7285 29.2779 86.4656 29.5764 85.0643 29.5764C83.6629 29.5764 82.4107 29.2779 81.2917 28.681L81.3023 28.6863ZM87.2116 24.8753C87.7978 24.2624 88.0962 23.3829 88.0962 22.2423C88.0962 21.1016 87.8084 20.2222 87.2383 19.6092C86.6681 18.9963 85.9648 18.6871 85.1282 18.6871C84.2916 18.6871 83.5669 18.9909 83.0075 19.5932C82.4426 20.2009 82.1656 21.0803 82.1656 22.2423C82.1656 23.4042 82.4426 24.2624 82.9968 24.8753C83.551 25.4883 84.2437 25.7974 85.0802 25.7974C85.9168 25.7974 86.6255 25.4883 87.217 24.8753H87.2116Z" fill="white"/>
<path d="M102.824 25.6701V29.3799H100.597C99.0093 29.3799 97.7731 28.9908 96.8885 28.2179C96.004 27.445 95.5564 26.1765 95.5564 24.4176V18.7357H93.8193V15.1006H95.5564V11.6201H99.9311V15.1006H102.798V18.7357H99.9311V24.4655C99.9311 24.892 100.032 25.2011 100.24 25.3876C100.443 25.5742 100.784 25.6701 101.263 25.6701H102.824Z" fill="white"/>
<path d="M105.291 18.3513C105.898 17.2427 106.74 16.3899 107.822 15.7929C108.903 15.1959 110.145 14.8975 111.541 14.8975C113.331 14.8975 114.829 15.3665 116.028 16.3046C117.232 17.2427 118.02 18.5645 118.393 20.2702H113.736C113.342 19.1775 112.585 18.6338 111.461 18.6338C110.662 18.6338 110.017 18.943 109.543 19.5666C109.063 20.1902 108.829 21.0803 108.829 22.2423C108.829 23.4042 109.069 24.2943 109.543 24.918C110.022 25.5416 110.662 25.8507 111.461 25.8507C112.585 25.8507 113.347 25.3071 113.736 24.2144H118.393C118.02 25.888 117.226 27.1992 116.017 28.1533C114.807 29.1074 113.315 29.5871 111.541 29.5871C110.145 29.5871 108.903 29.2886 107.822 28.6916C106.74 28.0947 105.893 27.2419 105.291 26.1332C104.688 25.0246 104.385 23.7294 104.385 22.2423C104.385 20.7552 104.688 19.46 105.291 18.3513Z" fill="white"/>
<path d="M125.102 10.4473V29.3796H120.728V10.4473H125.102Z" fill="white"/>
<path d="M130.996 28.6863C129.877 28.0893 129.003 27.2365 128.363 26.1279C127.724 25.0192 127.404 23.724 127.404 22.2369C127.404 20.7499 127.729 19.476 128.374 18.362C129.024 17.2427 129.909 16.3899 131.033 15.7929C132.157 15.1959 133.42 14.8975 134.816 14.8975C136.212 14.8975 137.475 15.1959 138.599 15.7929C139.724 16.3899 140.614 17.248 141.258 18.362C141.908 19.4813 142.228 20.7712 142.228 22.2369C142.228 23.7027 141.898 24.9979 141.242 26.1119C140.587 27.2312 139.692 28.084 138.557 28.681C137.422 29.2779 136.159 29.5764 134.758 29.5764C133.356 29.5764 132.104 29.2779 130.985 28.681L130.996 28.6863ZM136.905 24.8753C137.491 24.2624 137.79 23.3829 137.79 22.2423C137.79 21.1016 137.502 20.2222 136.932 19.6092C136.361 18.9963 135.658 18.6871 134.822 18.6871C133.985 18.6871 133.26 18.9909 132.701 19.5932C132.136 20.2009 131.859 21.0803 131.859 22.2423C131.859 23.4042 132.136 24.2624 132.69 24.8753C133.244 25.4883 133.937 25.7974 134.774 25.7974C135.61 25.7974 136.319 25.4883 136.91 24.8753H136.905Z" fill="white"/>
<path d="M158.661 15.1059V29.3798H154.286V27.4343C153.844 28.0633 153.242 28.575 152.485 28.9587C151.729 29.3425 150.887 29.5344 149.965 29.5344C148.873 29.5344 147.908 29.2892 147.077 28.8042C146.24 28.3191 145.596 27.6156 145.132 26.6935C144.674 25.7714 144.439 24.6894 144.439 23.4421V15.1006H148.788V22.8505C148.788 23.8046 149.033 24.5454 149.528 25.0784C150.024 25.6061 150.69 25.8726 151.521 25.8726C152.352 25.8726 153.045 25.6061 153.541 25.0784C154.036 24.5508 154.281 23.8099 154.281 22.8505V15.1006H158.656L158.661 15.1059Z" fill="white"/>
<path d="M161.768 18.3517C162.322 17.2431 163.079 16.3903 164.033 15.7933C164.987 15.1963 166.052 14.8979 167.23 14.8979C168.168 14.8979 169.026 15.0951 169.798 15.4842C170.576 15.8786 171.184 16.4063 171.626 17.0725V10.4473H176.001V29.3796H171.626V27.3329C171.216 28.0151 170.635 28.5588 169.873 28.9692C169.116 29.3796 168.232 29.5822 167.225 29.5822C166.047 29.5822 164.981 29.2783 164.027 28.676C163.074 28.0738 162.317 27.2103 161.763 26.091C161.209 24.9717 160.932 23.6818 160.932 22.216C160.932 20.7503 161.209 19.4604 161.763 18.3517H161.768ZM170.72 19.6576C170.113 19.0287 169.377 18.7088 168.509 18.7088C167.64 18.7088 166.9 19.018 166.297 19.6416C165.69 20.2652 165.392 21.1234 165.392 22.2107C165.392 23.298 165.695 24.1668 166.297 24.8064C166.905 25.446 167.64 25.7658 168.509 25.7658C169.377 25.7658 170.118 25.4514 170.72 24.8171C171.328 24.1881 171.626 23.3247 171.626 22.232C171.626 21.1394 171.322 20.2812 170.72 19.6469V19.6576Z" fill="white"/>
<path fill-rule="evenodd" clip-rule="evenodd" d="M3.99637 24.1399C1.76906 24.0227 0 22.1785 0 19.9239C0 17.9251 1.39074 16.2515 3.25571 15.8144C3.10118 15.1002 3.02125 14.3593 3.02125 13.6024C3.02125 7.782 7.74762 3.05957 13.561 3.05957C18.3886 3.05957 22.4649 6.31623 23.7118 10.7508C23.8929 10.7348 24.0688 10.7295 24.2553 10.7295C27.9586 10.7295 30.9585 13.7357 30.9585 17.4347C30.9585 21.1338 27.9533 24.1399 24.2553 24.1399C24.2073 24.1399 24.154 24.1399 24.1008 24.1399H3.99637Z" fill="white"/>
<path d="M41.8763 8.24026C36.5744 0.682243 26.7966 -2.02542 18.4256 1.57769C20.6742 2.54243 22.6244 4.12546 24.0312 6.14022C24.7132 6.04961 25.4112 6.00164 26.1253 6.00164C33.8196 6.01763 39.7662 12.0086 39.7022 19.6679C39.633 27.1513 33.5478 33.1956 26.0773 33.1956C21.1111 33.1956 16.8057 30.6052 14.4186 26.6876H7.98175C8.43467 27.8602 8.89292 29.0381 9.07942 30.2907C9.23394 31.3141 9.17 32.3587 8.78635 33.3235C8.70109 33.5314 8.64248 33.7286 8.53058 33.9258C8.49861 33.9258 8.30146 34.2776 8.26948 34.3255C8.18423 34.4428 8.09897 34.5494 8.01372 34.6613C7.81656 34.9065 7.61408 35.1357 7.39561 35.3596C7.24641 35.5088 7.08656 35.6581 6.92671 35.7966C6.80948 35.8979 6.5697 36.0205 6.55371 36.1857C6.55371 36.2337 6.56437 36.287 6.61765 36.335C6.69225 36.4149 6.80948 36.4362 6.92138 36.4522C8.49861 36.6654 10.1078 36.3883 11.6904 36.5375C13.9337 36.756 16.3155 36.7507 18.3616 37.5502C26.5196 40.7323 35.6153 38.5843 41.0077 31.9217C46.7145 24.854 47.0609 15.6117 41.8869 8.24026H41.8763Z" fill="white"/>
</g>
<defs>
<clipPath id="clip0_1335_325">
<rect width="176" height="39" fill="white"/>
</clipPath>
</defs>
</svg>
