<svg width="185" height="41" viewBox="0 0 185 41" fill="none" xmlns="http://www.w3.org/2000/svg">
<g clip-path="url(#clip0_1335_323)">
<path d="M67.2234 11.8965C68.7837 12.7076 69.9862 13.8409 70.8427 15.3078C71.6991 16.7691 72.1214 18.4604 72.1214 20.376C72.1214 22.2917 71.6932 23.9543 70.8427 25.427C69.9862 26.8997 68.7779 28.0387 67.2116 28.8499C65.6454 29.661 63.827 30.0637 61.7622 30.0637H54.3594V10.6826H61.7622C63.8446 10.6826 65.6689 11.0853 67.2234 11.8965ZM65.7041 24.518C66.7189 23.5401 67.2234 22.1594 67.2234 20.376C67.2234 18.5927 66.7189 17.2005 65.7041 16.2053C64.6893 15.21 63.2756 14.7153 61.4513 14.7153H59.1694V25.9792H61.4513C63.2697 25.9792 64.6893 25.4903 65.7041 24.518Z" fill="white"/>
<path d="M77.8228 29.322C76.5909 28.6777 75.6289 27.7572 74.925 26.5606C74.2211 25.3641 73.8691 23.9661 73.8691 22.3669C73.8691 20.7676 74.227 19.3869 74.9367 18.1846C75.6524 16.9765 76.6261 16.0561 77.8638 15.4118C79.1016 14.7675 80.4918 14.4453 82.0287 14.4453C83.5655 14.4453 84.9558 14.7675 86.1935 15.4118C87.4312 16.0561 88.4108 16.9823 89.1206 18.1846C89.8362 19.3927 90.1882 20.7849 90.1882 22.3669C90.1882 23.9489 89.8245 25.3468 89.103 26.5491C88.3815 27.7572 87.396 28.6777 86.1466 29.322C84.8971 29.9663 83.5069 30.2884 81.9641 30.2884C80.4214 30.2884 79.0429 29.9663 77.811 29.322H77.8228ZM84.3281 25.2087C84.9734 24.5472 85.3019 23.598 85.3019 22.3669C85.3019 21.1358 84.9851 20.1866 84.3574 19.5193C83.7298 18.8519 82.9555 18.524 82.0345 18.524C81.1136 18.524 80.3158 18.8519 79.6999 19.5078C79.0781 20.1636 78.7731 21.1128 78.7731 22.3669C78.7731 23.621 79.0781 24.5472 79.6882 25.2087C80.2982 25.8703 81.0608 26.204 81.9817 26.204C82.9027 26.204 83.6829 25.8703 84.334 25.2087H84.3281Z" fill="white"/>
<path d="M101.516 26.0657V30.0696H99.064C97.316 30.0696 95.9551 29.6497 94.9813 28.8155C94.0017 27.9756 93.5148 26.6122 93.5148 24.7138V18.5813H91.6025V14.6579H93.5148V10.9014H98.3308V14.6579H101.487V18.5813H98.3308V24.7655C98.3308 25.2258 98.4422 25.5594 98.671 25.7608C98.8939 25.9621 99.2693 26.0657 99.7973 26.0657H101.516Z" fill="white"/>
<path d="M128.898 16.2345C130.053 17.3966 130.628 19.0073 130.628 21.0668V30.0699H125.842V21.7054C125.842 20.7102 125.572 19.9451 125.038 19.3985C124.504 18.852 123.765 18.5816 122.827 18.5816C121.888 18.5816 121.149 18.852 120.615 19.3985C120.081 19.9451 119.811 20.7102 119.811 21.7054V30.0699H115.025V21.7054C115.025 20.7102 114.755 19.9451 114.221 19.3985C113.687 18.852 112.948 18.5816 112.01 18.5816C111.071 18.5816 110.332 18.852 109.798 19.3985C109.264 19.9451 108.995 20.7102 108.995 21.7054V30.0699H104.179V14.664H108.995V16.5969C109.482 15.9526 110.121 15.4406 110.907 15.0667C111.693 14.6928 112.585 14.5029 113.582 14.5029C114.767 14.5029 115.823 14.7503 116.749 15.2508C117.676 15.7513 118.404 16.4589 118.932 17.3793C119.477 16.5337 120.216 15.8433 121.155 15.3083C122.093 14.7733 123.114 14.5087 124.223 14.5087C126.176 14.5087 127.73 15.0897 128.88 16.2518L128.898 16.2345Z" fill="white"/>
<path d="M133.966 18.1672C134.576 16.9707 135.409 16.0502 136.459 15.4059C137.509 14.7616 138.682 14.4395 139.978 14.4395C141.087 14.4395 142.055 14.6581 142.894 15.101C143.733 15.544 144.372 16.125 144.824 16.8384V14.6581H149.64V30.064H144.824V27.8837C144.354 28.6028 143.703 29.1838 142.864 29.621C142.026 30.0582 141.058 30.2826 139.949 30.2826C138.67 30.2826 137.509 29.9547 136.459 29.2989C135.409 28.6488 134.576 27.7169 133.966 26.5088C133.356 25.3007 133.051 23.9085 133.051 22.3265C133.051 20.7445 133.356 19.3523 133.966 18.1557V18.1672ZM143.821 19.5767C143.152 18.8979 142.342 18.5527 141.386 18.5527C140.43 18.5527 139.615 18.8863 138.952 19.5594C138.283 20.2325 137.955 21.1587 137.955 22.3323C137.955 23.5058 138.289 24.4435 138.952 25.1339C139.621 25.8242 140.43 26.1694 141.386 26.1694C142.342 26.1694 143.158 25.8299 143.821 25.1454C144.483 24.4608 144.818 23.5346 144.818 22.3553C144.818 21.1759 144.483 20.2498 143.821 19.5652V19.5767Z" fill="white"/>
<path d="M159.887 15.101C160.715 14.6581 161.677 14.4395 162.785 14.4395C164.082 14.4395 165.255 14.7616 166.305 15.4059C167.355 16.0502 168.188 16.9707 168.798 18.1672C169.408 19.3638 169.713 20.756 169.713 22.338C169.713 23.92 169.408 25.3179 168.798 26.5203C168.188 27.7284 167.355 28.6546 166.305 29.3104C165.255 29.9662 164.082 30.2941 162.785 30.2941C161.694 30.2941 160.732 30.0755 159.899 29.6325C159.066 29.1896 158.409 28.62 157.94 27.9182V37.416H153.124V14.6581H157.94V16.8384C158.409 16.1193 159.054 15.5382 159.882 15.101H159.887ZM163.812 19.5594C163.143 18.8863 162.322 18.5527 161.348 18.5527C160.374 18.5527 159.577 18.8921 158.914 19.5767C158.245 20.2613 157.916 21.1875 157.916 22.3668C157.916 23.5461 158.251 24.4723 158.914 25.1569C159.582 25.8357 160.392 26.1809 161.348 26.1809C162.304 26.1809 163.12 25.8357 163.8 25.1454C164.475 24.455 164.815 23.5231 164.815 22.3438C164.815 21.1644 164.48 20.2382 163.818 19.5709L163.812 19.5594Z" fill="white"/>
<path d="M174.975 29.5981C173.907 29.1379 173.062 28.5108 172.441 27.7055C171.819 26.9058 171.473 26.0084 171.396 25.0132H176.154C176.212 25.5482 176.465 25.9796 176.916 26.3133C177.368 26.6469 177.919 26.808 178.576 26.808C179.175 26.808 179.644 26.693 179.972 26.4629C180.301 26.2327 180.465 25.9336 180.465 25.5654C180.465 25.1225 180.231 24.7945 179.761 24.5874C179.292 24.3803 178.529 24.1387 177.479 23.8856C176.353 23.6267 175.415 23.3564 174.664 23.0687C173.913 22.7811 173.268 22.3324 172.722 21.7168C172.177 21.1013 171.907 20.2671 171.907 19.2201C171.907 18.3342 172.153 17.5288 172.652 16.8039C173.15 16.0791 173.884 15.5038 174.846 15.0781C175.814 14.6582 176.963 14.4453 178.295 14.4453C180.266 14.4453 181.82 14.9228 182.952 15.8835C184.09 16.8385 184.742 18.1098 184.912 19.6918H180.465C180.389 19.1568 180.148 18.7369 179.75 18.4205C179.345 18.1098 178.817 17.9488 178.16 17.9488C177.597 17.9488 177.163 18.0581 176.864 18.2652C176.564 18.478 176.412 18.7656 176.412 19.1338C176.412 19.5768 176.652 19.9047 177.128 20.1291C177.609 20.3477 178.353 20.572 179.368 20.7906C180.53 21.084 181.48 21.3774 182.213 21.6593C182.947 21.9469 183.586 22.4014 184.143 23.04C184.695 23.6728 184.982 24.5242 185 25.5942C185 26.4974 184.741 27.3028 184.225 28.0103C183.709 28.7179 182.97 29.276 182.002 29.6787C181.034 30.0813 179.914 30.2884 178.635 30.2884C177.262 30.2884 176.042 30.0583 174.975 29.5981Z" fill="white"/>
<path d="M11.7087 2.19722C2.29389 6.85696 -2.45165 17.5974 1.27322 27.0204C1.86568 28.6082 2.59892 30.1557 2.85116 31.8412C3.0154 32.917 2.95088 34.0158 2.53439 35.034C2.44641 35.2526 2.37601 35.4597 2.2587 35.6668C2.2235 35.6668 2.01233 36.035 1.97713 36.0868C1.88914 36.2076 1.79529 36.3227 1.70143 36.4435C1.49026 36.7023 1.26735 36.944 1.03858 37.1741C0.880199 37.3294 0.710087 37.4905 0.534109 37.6343C0.410924 37.7378 0.152823 37.8702 0.135225 38.0427C0.135225 38.0888 0.146957 38.1463 0.205616 38.1981C0.28774 38.2844 0.410924 38.3074 0.528243 38.3246C2.21763 38.549 3.94222 38.2556 5.64334 38.4109C8.04838 38.641 10.6001 38.6353 12.7939 39.4752C21.54 42.8175 31.2951 40.5625 37.073 33.5556C43.1912 26.1287 43.5666 16.4123 38.0175 8.66333C32.087 0.373589 20.9241 -2.37048 11.7087 2.19722ZM21.0766 34.896C12.923 34.896 6.42938 28.5161 6.44111 20.5198C6.45284 12.3911 12.7587 6.29319 21.1294 6.3162C29.3769 6.33346 35.7532 12.627 35.6828 20.6809C35.6066 28.5507 29.0836 34.9017 21.0766 34.896Z" fill="white"/>
<path d="M20.9707 11.2695C16.6241 11.2695 13.0986 14.7269 13.0986 18.9897C13.0986 26.3418 20.9707 30.5701 20.9707 30.5701C20.9707 30.5701 28.8428 26.3418 28.8428 18.9897C28.8428 14.7269 25.3174 11.2695 20.9707 11.2695ZM20.9707 22.079C19.2285 22.079 17.8207 20.6983 17.8207 18.9897C17.8207 17.2812 19.2285 15.9005 20.9707 15.9005C22.7129 15.9005 24.1207 17.2812 24.1207 18.9897C24.1207 20.6983 22.7129 22.079 20.9707 22.079Z" fill="white"/>
</g>
<defs>
<clipPath id="clip0_1335_323">
<rect width="185" height="41" fill="white"/>
</clipPath>
</defs>
</svg>
