<svg width="25" height="25" viewBox="0 0 25 25" fill="none" xmlns="http://www.w3.org/2000/svg">
<g clip-path="url(#clip0_1884_1729)">
<path d="M7.34746 1.68857C1.82848 4.47587 -0.953357 10.9004 1.23016 16.537C1.57746 17.4867 2.00729 18.4124 2.15515 19.4206C2.25143 20.0641 2.21361 20.7214 1.96946 21.3305C1.91789 21.4612 1.87662 21.5851 1.80785 21.709C1.78722 21.709 1.66343 21.9292 1.6428 21.9602C1.59122 22.0324 1.5362 22.1013 1.48118 22.1735C1.35739 22.3284 1.22672 22.4729 1.09262 22.6106C0.999776 22.7035 0.900056 22.7998 0.796897 22.8858C0.724686 22.9478 0.573387 23.0269 0.563072 23.1302C0.563072 23.1577 0.569949 23.1921 0.604335 23.2231C0.652475 23.2747 0.724686 23.2885 0.793459 23.2988C1.78378 23.433 2.79473 23.2575 3.79193 23.3504C5.20176 23.488 6.69756 23.4846 7.9836 23.987C13.1106 25.9863 18.829 24.6374 22.216 20.4461C25.8025 16.0036 26.0226 10.1916 22.7696 5.55638C19.2932 0.597736 12.7495 -1.04368 7.34746 1.68857ZM12.8389 21.2479C8.05925 21.2479 4.2527 17.4317 4.25958 12.6485C4.26646 7.78623 7.96297 4.13864 12.8699 4.15241C17.7046 4.16273 21.4423 7.92731 21.4011 12.7449C21.3564 17.4523 17.5326 21.2513 12.8389 21.2479Z" fill="#0561E9"/>
<path d="M12.7787 7.11816C10.2307 7.11816 8.16406 9.18627 8.16406 11.7361C8.16406 16.1339 12.7787 18.6631 12.7787 18.6631C12.7787 18.6631 17.3933 16.1339 17.3933 11.7361C17.3933 9.18627 15.3267 7.11816 12.7787 7.11816ZM12.7787 13.584C11.7574 13.584 10.9321 12.7582 10.9321 11.7361C10.9321 10.7141 11.7574 9.88826 12.7787 9.88826C13.7999 9.88826 14.6252 10.7141 14.6252 11.7361C14.6252 12.7582 13.7999 13.584 12.7787 13.584Z" fill="#0561E9"/>
</g>
<defs>
<clipPath id="clip0_1884_1729">
<rect width="24.4178" height="24.418" fill="white" transform="translate(0.488281 0.375244)"/>
</clipPath>
</defs>
</svg>
