<svg width="221" height="112" viewBox="0 0 221 112" fill="none" xmlns="http://www.w3.org/2000/svg">
<g clip-path="url(#clip0_2131_509)">
<rect x="0.0429688" y="0.00708008" width="197.2" height="111.438" rx="8.64405" fill="#0666F5"/>
<g clip-path="url(#clip1_2131_509)">
<rect width="197.2" height="111.438" transform="translate(0.0429688 0.00708008)" fill="#DFB91C"/>
<path d="M24.3578 24.3698C22.6096 21.9661 19.3197 21.1704 16.602 22.4942C13.828 23.8445 12.4294 26.9589 13.5275 29.6902C13.7023 30.15 13.9176 30.5987 13.9927 31.0878C14.0418 31.4 14.0216 31.7191 13.8988 32.0131C13.8728 32.0758 13.8525 32.1371 13.8179 32.1971C13.8063 32.1971 13.7456 32.3044 13.7355 32.3183C13.7095 32.3531 13.6821 32.3866 13.6546 32.4214C13.5925 32.4967 13.5275 32.5663 13.4581 32.6346C13.4104 32.6806 13.3613 32.7252 13.3093 32.7684C13.2732 32.799 13.1966 32.8367 13.1923 32.8868C13.1923 32.9008 13.1966 32.9175 13.2125 32.9328C13.237 32.9579 13.2732 32.9649 13.3078 32.9691C13.8049 33.0345 14.3134 32.9495 14.8148 32.9941C15.5228 33.061 16.277 33.0596 16.9228 33.3021C19.5004 34.272 22.3755 33.617 24.079 31.5867C25.8836 29.4338 25.9919 26.6175 24.3578 24.3712V24.3698ZM19.3645 31.9727C16.9604 31.9727 15.0474 30.1222 15.0503 27.8048C15.0546 25.4484 16.9127 23.6815 19.3804 23.687C21.8121 23.6912 23.6918 25.5167 23.6701 27.8522C23.6484 30.1333 21.7254 31.9741 19.3645 31.9741V31.9727ZM33.3504 24.8562C33.8908 25.1321 34.3098 25.5209 34.606 26.0197C34.9022 26.5186 35.051 27.0955 35.051 27.749C35.051 28.4026 34.9022 28.9711 34.606 29.4728C34.3098 29.9758 33.8893 30.3646 33.3461 30.6419C32.8028 30.9192 32.1714 31.0572 31.4548 31.0572H28.8859V24.4409H31.4548C32.1772 24.4409 32.81 24.5789 33.3504 24.8562ZM32.8231 29.162C33.1756 28.829 33.3504 28.358 33.3504 27.749C33.3504 27.1401 33.1741 26.6649 32.8231 26.3263C32.472 25.9863 31.9793 25.8177 31.3479 25.8177H30.5561V29.6623H31.3479C31.9793 29.6623 32.472 29.4965 32.8231 29.162ZM37.0289 30.8022C36.6027 30.582 36.2675 30.2685 36.0219 29.8602C35.7763 29.4519 35.6549 28.9739 35.6549 28.4277C35.6549 27.8814 35.7792 27.4118 36.0262 26.9993C36.2733 26.5883 36.6128 26.2719 37.0419 26.0518C37.471 25.8316 37.9536 25.7215 38.4882 25.7215C39.0228 25.7215 39.5039 25.8316 39.9345 26.0518C40.3636 26.2719 40.7031 26.5869 40.9502 26.9993C41.1972 27.4104 41.3215 27.887 41.3215 28.4277C41.3215 28.9683 41.1958 29.4435 40.9458 29.8546C40.6944 30.2657 40.3535 30.582 39.92 30.8022C39.4866 31.0223 39.0026 31.1324 38.4694 31.1324C37.9363 31.1324 37.4552 31.0223 37.0289 30.8022ZM39.2857 29.3975C39.5097 29.1718 39.6224 28.8485 39.6224 28.4277C39.6224 28.0068 39.5126 27.6836 39.2944 27.4564C39.0762 27.2293 38.8075 27.1164 38.4882 27.1164C38.1689 27.1164 37.8929 27.2279 37.6777 27.4508C37.4624 27.6738 37.3555 27.9985 37.3555 28.4263C37.3555 28.8541 37.4609 29.1704 37.6733 29.3961C37.8843 29.6219 38.1501 29.7362 38.4694 29.7362C38.7887 29.7362 39.0603 29.6233 39.2857 29.3961V29.3975ZM45.25 29.6902V31.0572H44.4004C43.795 31.0572 43.3226 30.9151 42.983 30.628C42.6435 30.3423 42.4745 29.8755 42.4745 29.2289V27.1373H41.8098V25.7996H42.4745V24.5175H44.1447V25.7996H45.2384V27.1373H44.1447V29.2484C44.1447 29.4059 44.1837 29.5188 44.2617 29.5871C44.3397 29.6567 44.4698 29.6902 44.6518 29.6902H45.2471H45.25ZM48.5225 25.9487C48.8086 25.7982 49.1438 25.7229 49.5295 25.7229C49.9789 25.7229 50.3863 25.833 50.7504 26.0532C51.1145 26.2733 51.4035 26.5869 51.6144 26.9952C51.8254 27.4035 51.9323 27.8786 51.9323 28.4179C51.9323 28.9572 51.8268 29.4338 51.6144 29.8462C51.402 30.2573 51.1145 30.575 50.7504 30.798C50.3849 31.021 49.9789 31.1324 49.5295 31.1324C49.151 31.1324 48.8172 31.0572 48.5283 30.9067C48.2379 30.7562 48.0125 30.5611 47.8492 30.3228V33.5641H46.179V25.7982H47.8492V26.5423C48.0125 26.297 48.2364 26.0992 48.5239 25.9487H48.5225ZM49.8864 27.4703C49.6552 27.2404 49.3706 27.1262 49.0311 27.1262C48.6915 27.1262 48.417 27.2418 48.1858 27.4745C47.9547 27.7072 47.8391 28.025 47.8391 28.4263C47.8391 28.8276 47.9547 29.1453 48.1858 29.378C48.417 29.6107 48.6988 29.7264 49.0311 29.7264C49.3634 29.7264 49.6466 29.608 49.8806 29.3725C50.1147 29.137 50.2332 28.8179 50.2332 28.4165C50.2332 28.0152 50.1176 27.6989 49.8864 27.4703ZM52.7977 26.9952C53.0101 26.5869 53.2976 26.2733 53.6617 26.0532C54.0258 25.833 54.4333 25.7229 54.8826 25.7229C55.2669 25.7229 55.6036 25.7982 55.894 25.9487C56.1829 26.0992 56.4069 26.297 56.5629 26.5423V25.7982H58.2331V31.0558H56.5629V30.3117C56.3997 30.5569 56.1728 30.7548 55.8839 30.9053C55.5934 31.0558 55.2568 31.131 54.8725 31.131C54.4289 31.131 54.0258 31.0196 53.6603 30.7966C53.2962 30.5736 53.0072 30.2559 52.7963 29.8449C52.5839 29.4338 52.4784 28.9572 52.4784 28.4165C52.4784 27.8759 52.5839 27.4021 52.7963 26.9938L52.7977 26.9952ZM56.2176 27.4759C55.9864 27.2432 55.7047 27.1276 55.3724 27.1276C55.0401 27.1276 54.7583 27.2418 54.5272 27.4717C54.296 27.7017 54.1804 28.0166 54.1804 28.4179C54.1804 28.8192 54.296 29.1384 54.5272 29.3739C54.7583 29.6094 55.0401 29.7278 55.3724 29.7278C55.7047 29.7278 55.9864 29.6121 56.2176 29.3794C56.4488 29.1467 56.5644 28.8304 56.5644 28.4277C56.5644 28.025 56.4488 27.7086 56.2176 27.4759ZM65.0151 25.7982L61.5952 33.5529H59.7979L61.0491 30.8774L58.8313 25.7982H60.698L61.9579 29.0868L63.2091 25.7982H65.0166H65.0151ZM18.8184 29.4212C18.7086 29.4212 18.6002 29.3808 18.5164 29.3L17.2724 28.1002C17.1063 27.94 17.1063 27.6794 17.2724 27.5177C17.4386 27.3575 17.7088 27.3575 17.8764 27.5177L18.843 28.45L21.3165 26.442C21.4971 26.2956 21.7658 26.3179 21.9175 26.4921C22.0692 26.6663 22.0461 26.9255 21.8655 27.0718L19.0929 29.3223C19.0134 29.3864 18.9152 29.4184 18.8184 29.4184V29.4212Z" fill="white"/>
<path d="M15.22 69.5222C14.9992 69.5222 14.8615 69.3813 14.8615 69.1509V67.5793L13.3988 65.3612C13.3444 65.2812 13.3252 65.2075 13.3252 65.1275C13.3252 64.9387 13.4788 64.801 13.6805 64.801C13.8277 64.801 13.9109 64.8555 14.0005 65.0027L15.2136 66.8911H15.236L16.4491 65.0027C16.5355 64.8587 16.6252 64.801 16.766 64.801C16.9644 64.801 17.1181 64.9387 17.1181 65.1243C17.1181 65.2043 17.0989 65.278 17.0445 65.3612L15.5785 67.5793V69.1509C15.5785 69.3813 15.4441 69.5222 15.22 69.5222ZM18.4368 69.535C17.4734 69.535 16.8396 68.8724 16.8396 67.7873C16.8396 66.7055 17.4766 66.0429 18.4368 66.0429C19.397 66.0429 20.034 66.7055 20.034 67.7873C20.034 68.8724 19.4002 69.535 18.4368 69.535ZM18.4368 68.9652C18.9809 68.9652 19.3298 68.5363 19.3298 67.7873C19.3298 67.0416 18.9777 66.6127 18.4368 66.6127C17.8959 66.6127 17.5438 67.0416 17.5438 67.7873C17.5438 68.5363 17.8959 68.9652 18.4368 68.9652ZM21.7336 69.5318C21.0006 69.5318 20.5525 69.0548 20.5525 68.2835V66.411C20.5525 66.1806 20.6933 66.0429 20.8982 66.0429C21.0998 66.0429 21.2439 66.1806 21.2439 66.411V68.149C21.2439 68.6612 21.4871 68.9364 21.964 68.9364C22.4633 68.9364 22.7642 68.5907 22.7642 68.0658V66.411C22.7642 66.1806 22.9082 66.0429 23.1099 66.0429C23.3147 66.0429 23.4556 66.1806 23.4556 66.411V69.1797C23.4556 69.3941 23.3243 69.5318 23.1259 69.5318C22.9275 69.5318 22.793 69.3941 22.793 69.1829V68.9012H22.777C22.5914 69.3045 22.2489 69.5318 21.7336 69.5318ZM24.4862 69.5318C24.2782 69.5318 24.1405 69.3909 24.1405 69.1669V66.3918C24.1405 66.1806 24.275 66.0429 24.4702 66.0429C24.6623 66.0429 24.7967 66.1806 24.7967 66.3918V66.6799H24.8127C24.9055 66.3022 25.216 66.0493 25.5521 66.0493C25.6737 66.0493 25.7665 66.0781 25.8241 66.1326C25.8882 66.1838 25.917 66.267 25.917 66.3758C25.917 66.4846 25.8817 66.5647 25.8145 66.6191C25.7441 66.6799 25.6417 66.7087 25.4977 66.7087C25.0239 66.7119 24.8319 67.0288 24.8319 67.4481V69.1669C24.8319 69.3909 24.6911 69.5318 24.4862 69.5318ZM28.0647 69.4709C27.8406 69.4709 27.7062 69.3301 27.7062 69.0997V65.2235C27.7062 64.9931 27.8406 64.8523 28.0647 64.8523H29.5498C30.3692 64.8523 30.9069 65.3068 30.9069 66.0045C30.9069 66.4942 30.5453 66.9327 30.0843 67.0096V67.0352C30.7117 67.1056 31.1342 67.5505 31.1342 68.165C31.1342 68.978 30.542 69.4709 29.5594 69.4709H28.0647ZM28.4231 66.8175H29.2265C29.8475 66.8175 30.19 66.5615 30.19 66.1038C30.19 65.6749 29.8955 65.438 29.377 65.438H28.4231V66.8175ZM28.4231 68.8852H29.4122C30.0587 68.8852 30.4012 68.6195 30.4012 68.1202C30.4012 67.6209 30.0491 67.3649 29.3706 67.3649H28.4231V68.8852ZM32.6545 69.5286C31.9952 69.5286 31.5311 69.1189 31.5311 68.5139C31.5311 67.925 31.9856 67.5633 32.7826 67.5185L33.7076 67.4641V67.2048C33.7076 66.8303 33.4547 66.6063 33.0322 66.6063C32.6994 66.6063 32.4785 66.7247 32.2865 67.032C32.216 67.1344 32.1264 67.1792 32.0048 67.1792C31.832 67.1792 31.7071 67.064 31.7071 66.8911C31.7071 66.8207 31.7263 66.7439 31.7679 66.6671C31.944 66.2862 32.4529 66.0429 33.0578 66.0429C33.874 66.0429 34.3958 66.475 34.3958 67.1504V69.1829C34.3958 69.4005 34.2581 69.5318 34.0629 69.5318C33.8708 69.5318 33.7396 69.4069 33.7332 69.2021V68.9172H33.7172C33.522 69.2917 33.0931 69.5286 32.6545 69.5286ZM32.8434 68.9812C33.3267 68.9812 33.7076 68.6484 33.7076 68.2098V67.9442L32.8754 67.9954C32.4625 68.0242 32.2288 68.2066 32.2288 68.4947C32.2288 68.7892 32.4753 68.9812 32.8434 68.9812ZM35.4392 69.5318C35.2376 69.5318 35.0935 69.3941 35.0935 69.1669V65.1563C35.0935 64.9291 35.2376 64.7914 35.4392 64.7914C35.6409 64.7914 35.7849 64.9291 35.7849 65.1563V69.1669C35.7849 69.3941 35.6409 69.5318 35.4392 69.5318ZM37.4813 69.5286C36.8219 69.5286 36.3578 69.1189 36.3578 68.5139C36.3578 67.925 36.8123 67.5633 37.6093 67.5185L38.5343 67.4641V67.2048C38.5343 66.8303 38.2815 66.6063 37.859 66.6063C37.5261 66.6063 37.3052 66.7247 37.1132 67.032C37.0428 67.1344 36.9532 67.1792 36.8315 67.1792C36.6587 67.1792 36.5339 67.064 36.5339 66.8911C36.5339 66.8207 36.5531 66.7439 36.5947 66.6671C36.7707 66.2862 37.2796 66.0429 37.8846 66.0429C38.7008 66.0429 39.2225 66.475 39.2225 67.1504V69.1829C39.2225 69.4005 39.0849 69.5318 38.8896 69.5318C38.6976 69.5318 38.5663 69.4069 38.5599 69.2021V68.9172H38.5439C38.3487 69.2917 37.9198 69.5286 37.4813 69.5286ZM37.6701 68.9812C38.1534 68.9812 38.5343 68.6484 38.5343 68.2098V67.9442L37.7021 67.9954C37.2892 68.0242 37.0556 68.2066 37.0556 68.4947C37.0556 68.7892 37.302 68.9812 37.6701 68.9812ZM40.2403 69.5318C40.0355 69.5318 39.8947 69.3941 39.8947 69.1669V66.3918C39.8947 66.1806 40.0227 66.0429 40.2243 66.0429C40.4228 66.0429 40.5604 66.1806 40.5604 66.395V66.6607H40.5764C40.7589 66.2766 41.1109 66.0461 41.6295 66.0461C42.372 66.0461 42.7977 66.5199 42.7977 67.2912V69.1669C42.7977 69.3941 42.6537 69.5318 42.4489 69.5318C42.2472 69.5318 42.1032 69.3941 42.1032 69.1669V67.4257C42.1032 66.9199 41.8663 66.6415 41.3862 66.6415C40.8997 66.6415 40.586 66.9872 40.586 67.5089V69.1669C40.586 69.3941 40.442 69.5318 40.2403 69.5318ZM44.907 69.535C43.9436 69.535 43.3163 68.866 43.3163 67.7938C43.3163 66.7279 43.9404 66.0429 44.9006 66.0429C45.5504 66.0429 46.1073 66.3886 46.2546 66.8591C46.2738 66.9135 46.2866 66.9712 46.2866 67.0192C46.2866 67.1952 46.1617 67.304 45.9921 67.304C45.8449 67.304 45.7616 67.2464 45.6784 67.0928C45.5056 66.7727 45.2687 66.6191 44.9134 66.6191C44.3725 66.6191 44.0204 67.0704 44.0204 67.7873C44.0204 68.5203 44.3789 68.9556 44.9134 68.9556C45.2879 68.9556 45.5152 68.7892 45.6784 68.4979C45.7744 68.3315 45.8481 68.2739 45.9985 68.2739C46.1681 68.2739 46.293 68.3891 46.293 68.5619C46.293 68.6163 46.2802 68.674 46.2546 68.7412C46.0785 69.2053 45.5312 69.535 44.907 69.535ZM48.3126 69.535C47.298 69.535 46.7027 68.8916 46.7027 67.8034C46.7027 66.7343 47.3108 66.0429 48.2646 66.0429C49.1608 66.0429 49.7786 66.6895 49.7786 67.6081C49.7786 67.8322 49.6506 67.9602 49.4361 67.9602H47.4004V67.9762C47.4004 68.5907 47.7461 68.9748 48.2966 68.9748C48.6743 68.9748 48.9112 68.8436 49.1672 68.4947C49.2409 68.4083 49.3113 68.3731 49.4105 68.3731C49.5769 68.3731 49.6986 68.4819 49.6986 68.6548C49.6986 68.7092 49.6794 68.7732 49.6506 68.8404C49.4297 69.2821 48.94 69.535 48.3126 69.535ZM47.4036 67.4769H49.0872C49.0712 66.9488 48.7415 66.5999 48.2614 66.5999C47.7845 66.5999 47.4388 66.952 47.4036 67.4769Z" fill="white" fill-opacity="0.8"/>
<path d="M18.0516 87.895C16.3414 87.895 14.8477 87.0959 14.31 85.9532C14.1979 85.7142 14.1307 85.4827 14.1307 85.2138C14.1307 84.6388 14.4892 84.2952 15.0717 84.2952C15.5198 84.2952 15.8036 84.4521 16.0576 84.8553C16.4459 85.6321 17.0807 86.1026 18.0516 86.1026C19.2242 86.1026 20.0681 85.2586 20.0681 84.0936C20.0681 82.9584 19.2316 82.1518 18.0591 82.1518C17.4168 82.1518 16.8791 82.4281 16.4982 82.7941C16.0576 83.2048 15.8335 83.3168 15.3331 83.3168C14.5938 83.3168 14.2427 82.8015 14.2726 82.1966C14.2726 82.1667 14.2726 82.1443 14.2801 82.107L14.5938 78.1562C14.6684 77.245 15.1389 76.8791 16.0128 76.8791H20.7403C21.3004 76.8791 21.6664 77.2301 21.6664 77.7753C21.6664 78.3205 21.3079 78.6715 20.7403 78.6715H16.4833L16.2293 81.6663H16.2741C16.7148 80.9718 17.5961 80.5386 18.6939 80.5386C20.7552 80.5386 22.219 81.9875 22.219 84.0413C22.219 86.3416 20.5087 87.895 18.0516 87.895ZM27.7307 87.895C24.9973 87.895 23.3318 85.7366 23.3318 82.2489C23.3318 78.7686 25.0122 76.6326 27.7307 76.6326C30.4492 76.6326 32.1222 78.7611 32.1222 82.2414C32.1222 85.7217 30.4642 87.895 27.7307 87.895ZM27.7307 86.0876C29.0601 86.0876 29.8293 84.7209 29.8293 82.2489C29.8293 79.7918 29.0526 78.44 27.7307 78.44C26.4163 78.44 25.6246 79.7992 25.6246 82.2489C25.6246 84.7209 26.4013 86.0876 27.7307 86.0876ZM34.5345 85.6619C35.1021 85.6619 35.468 85.9905 35.468 86.5283C35.468 86.6702 35.4531 86.8121 35.4157 86.9689L34.8108 89.4858C34.6988 89.9862 34.4374 90.2177 33.922 90.2177C33.3993 90.2177 33.108 89.8741 33.1304 89.4111C33.1304 89.3513 33.1379 89.314 33.1453 89.2916L33.5262 86.5656C33.6009 85.9383 33.9669 85.6619 34.5345 85.6619ZM41.4278 87.895C38.6944 87.895 37.0289 85.7366 37.0289 82.2489C37.0289 78.7686 38.7093 76.6326 41.4278 76.6326C44.1463 76.6326 45.8193 78.7611 45.8193 82.2414C45.8193 85.7217 44.1613 87.895 41.4278 87.895ZM41.4278 86.0876C42.7572 86.0876 43.5264 84.7209 43.5264 82.2489C43.5264 79.7918 42.7497 78.44 41.4278 78.44C40.1134 78.44 39.3217 79.7992 39.3217 82.2489C39.3217 84.7209 40.0984 86.0876 41.4278 86.0876ZM51.4654 87.895C48.7319 87.895 47.0665 85.7366 47.0665 82.2489C47.0665 78.7686 48.7469 76.6326 51.4654 76.6326C54.1839 76.6326 55.8568 78.7611 55.8568 82.2414C55.8568 85.7217 54.1988 87.895 51.4654 87.895ZM51.4654 86.0876C52.7948 86.0876 53.564 84.7209 53.564 82.2489C53.564 79.7918 52.7873 78.44 51.4654 78.44C50.1509 78.44 49.3593 79.7992 49.3593 82.2489C49.3593 84.7209 50.136 86.0876 51.4654 86.0876ZM61.5029 87.895C58.7695 87.895 57.104 85.7366 57.104 82.2489C57.104 78.7686 58.7844 76.6326 61.5029 76.6326C64.2215 76.6326 65.8944 78.7611 65.8944 82.2414C65.8944 85.7217 64.2364 87.895 61.5029 87.895ZM61.5029 86.0876C62.8323 86.0876 63.6016 84.7209 63.6016 82.2489C63.6016 79.7918 62.8249 78.44 61.5029 78.44C60.1885 78.44 59.3969 79.7992 59.3969 82.2489C59.3969 84.7209 60.1736 86.0876 61.5029 86.0876ZM68.2768 87.7456C67.6047 87.7456 67.0744 87.2079 67.0744 86.5432C67.0744 85.8711 67.6047 85.3408 68.2768 85.3408C68.9415 85.3408 69.4792 85.8711 69.4792 86.5432C69.4792 87.2079 68.9415 87.7456 68.2768 87.7456ZM75.2 87.895C72.4666 87.895 70.8011 85.7366 70.8011 82.2489C70.8011 78.7686 72.4815 76.6326 75.2 76.6326C77.9186 76.6326 79.5915 78.7611 79.5915 82.2414C79.5915 85.7217 77.9335 87.895 75.2 87.895ZM75.2 86.0876C76.5294 86.0876 77.2987 84.7209 77.2987 82.2489C77.2987 79.7918 76.522 78.44 75.2 78.44C73.8856 78.44 73.094 79.7992 73.094 82.2489C73.094 84.7209 73.8707 86.0876 75.2 86.0876ZM85.2376 87.895C82.5042 87.895 80.8387 85.7366 80.8387 82.2489C80.8387 78.7686 82.5191 76.6326 85.2376 76.6326C87.9561 76.6326 89.6291 78.7611 89.6291 82.2414C89.6291 85.7217 87.9711 87.895 85.2376 87.895ZM85.2376 86.0876C86.567 86.0876 87.3362 84.7209 87.3362 82.2489C87.3362 79.7918 86.5595 78.44 85.2376 78.44C83.9232 78.44 83.1315 79.7992 83.1315 82.2489C83.1315 84.7209 83.9082 86.0876 85.2376 86.0876Z" fill="white"/>
<path d="M94.3501 79.656C94.126 79.656 93.9916 79.5152 93.9916 79.2847V75.4086C93.9916 75.1781 94.126 75.0373 94.3501 75.0373H96.6418C96.8403 75.0373 96.9747 75.1589 96.9747 75.3478C96.9747 75.5366 96.8403 75.6583 96.6418 75.6583H94.7086V77.0058H96.5362C96.725 77.0058 96.8563 77.121 96.8563 77.3035C96.8563 77.4827 96.7282 77.6011 96.5362 77.6011H94.7086V79.0351H96.6418C96.8403 79.0351 96.9747 79.1567 96.9747 79.3455C96.9747 79.5344 96.8403 79.656 96.6418 79.656H94.3501ZM99.6473 79.7328C98.3254 79.7328 97.4932 78.8078 97.4932 77.3259C97.4932 75.8695 98.3222 74.9605 99.6377 74.9605C100.499 74.9605 101.19 75.3894 101.446 76.0071C101.488 76.1096 101.497 76.1896 101.497 76.2696C101.497 76.4585 101.373 76.5865 101.177 76.5865C101.014 76.5865 100.908 76.5097 100.819 76.3304C100.585 75.8407 100.175 75.5878 99.6409 75.5878C98.7575 75.5878 98.2262 76.2344 98.2262 77.3195C98.2262 78.4237 98.7735 79.1055 99.6537 79.1055C100.403 79.1055 100.921 78.6254 100.931 77.9244V77.8444H99.9994C99.8138 77.8444 99.6857 77.7292 99.6857 77.5563C99.6857 77.3803 99.8138 77.265 99.9994 77.265H101.28C101.501 77.265 101.638 77.4059 101.638 77.6395V77.7548C101.638 78.9742 100.905 79.7328 99.6473 79.7328ZM102.698 79.7072C102.474 79.7072 102.339 79.5664 102.339 79.3359V75.4086C102.339 75.1781 102.474 75.0373 102.698 75.0373H104.071C104.967 75.0373 105.591 75.6551 105.591 76.5545C105.591 77.4571 104.954 78.078 104.048 78.078H103.056V79.3359C103.056 79.5664 102.918 79.7072 102.698 79.7072ZM103.056 77.4763H103.879C104.503 77.4763 104.858 77.1402 104.858 76.5577C104.858 75.9751 104.503 75.6423 103.882 75.6423H103.056V77.4763Z" fill="white"/>
<path d="M174.726 70.922C175.385 70.7062 176.108 70.58 176.897 70.58C179.923 70.58 181.982 72.4399 183.21 74.0805C183.825 74.9021 184.133 75.3129 184.133 76.5328C184.133 77.7527 183.825 78.1635 183.21 78.9851C181.982 80.6257 179.923 82.4856 176.897 82.4856C173.87 82.4856 171.811 80.6257 170.583 78.9851C169.968 78.1635 169.66 77.7527 169.66 76.5328C169.66 75.3129 169.968 74.9021 170.583 74.0805C170.931 73.6153 171.346 73.1324 171.831 72.6793" stroke="white" stroke-width="1.09252" stroke-linecap="round"/>
<path d="M179.041 76.5329C179.041 77.7658 178.069 78.7652 176.87 78.7652C175.671 78.7652 174.699 77.7658 174.699 76.5329C174.699 75.3 175.671 74.3005 176.87 74.3005C178.069 74.3005 179.041 75.3 179.041 76.5329Z" stroke="white" stroke-width="1.09252"/>
<path opacity="0.2" d="M102.176 142.581C102.773 95.2317 112.802 1.43165 148.133 5.02208C192.296 9.51012 178.397 66.7327 177.276 69.4255M177.276 69.4255C176.155 72.1183 161.136 120.814 166.965 138.317L135.355 138.317C138.269 99.3458 150.733 20.6405 177.276 17.5886C192.095 15.8848 200.57 24.1736 205.126 34.4188M177.276 69.4255C184.998 38.5478 199.06 33.2219 205.126 34.4188M205.126 34.4188C208.73 42.5245 209.882 51.8548 209.783 58.4298L205.126 34.4188Z" stroke="white" stroke-width="0.546262"/>
</g>
</g>
<g filter="url(#filter0_d_2131_509)">
<g clip-path="url(#clip2_2131_509)">
<rect x="18.8867" y="25.7499" width="197.2" height="111.438" rx="7.53465" fill="#0666F5"/>
<path d="M43.2016 50.1126C41.4534 47.7089 38.1635 46.9132 35.4458 48.237C32.6717 49.5873 31.2731 52.7017 32.3712 55.433C32.546 55.8928 32.7613 56.3415 32.8364 56.8306C32.8856 57.1428 32.8653 57.4619 32.7425 57.7559C32.7165 57.8186 32.6963 57.8799 32.6616 57.9399C32.6501 57.9399 32.5894 58.0472 32.5793 58.0611C32.5533 58.0959 32.5258 58.1294 32.4984 58.1642C32.4362 58.2395 32.3712 58.3091 32.3019 58.3774C32.2542 58.4234 32.2051 58.468 32.153 58.5112C32.1169 58.5418 32.0403 58.5795 32.036 58.6296C32.036 58.6436 32.0403 58.6603 32.0562 58.6756C32.0808 58.7007 32.1169 58.7077 32.1516 58.7118C32.6486 58.7773 33.1572 58.6923 33.6585 58.7369C34.3665 58.8038 35.1207 58.8024 35.7665 59.0449C38.3441 60.0148 41.2193 59.3598 42.9227 57.3295C44.7273 55.1766 44.8357 52.3603 43.2016 50.114V50.1126ZM38.2083 57.7155C35.8041 57.7155 33.8912 55.865 33.8941 53.5476C33.8984 51.1912 35.7564 49.4243 38.2242 49.4298C40.6558 49.434 42.5355 51.2595 42.5139 53.595C42.4922 55.8761 40.5691 57.7169 38.2083 57.7169V57.7155ZM52.1942 50.599C52.7345 50.8749 53.1535 51.2637 53.4497 51.7625C53.7459 52.2614 53.8947 52.8383 53.8947 53.4918C53.8947 54.1454 53.7459 54.7139 53.4497 55.2156C53.1535 55.7186 52.7331 56.1074 52.1898 56.3847C51.6466 56.662 51.0152 56.8 50.2986 56.8H47.7297V50.1837H50.2986C51.021 50.1837 51.6538 50.3217 52.1942 50.599ZM51.6668 54.9048C52.0193 54.5718 52.1942 54.1008 52.1942 53.4918C52.1942 52.8829 52.0179 52.4077 51.6668 52.0691C51.3157 51.7291 50.823 51.5605 50.1916 51.5605H49.3999V55.4051H50.1916C50.823 55.4051 51.3157 55.2393 51.6668 54.9048ZM55.8727 56.545C55.4465 56.3248 55.1113 56.0113 54.8656 55.603C54.62 55.1947 54.4987 54.7167 54.4987 54.1705C54.4987 53.6242 54.6229 53.1546 54.87 52.7421C55.117 52.3311 55.4566 52.0147 55.8857 51.7946C56.3148 51.5744 56.7974 51.4643 57.3319 51.4643C57.8665 51.4643 58.3477 51.5744 58.7782 51.7946C59.2073 52.0147 59.5469 52.3297 59.7939 52.7421C60.041 53.1532 60.1652 53.6298 60.1652 54.1705C60.1652 54.7111 60.0395 55.1863 59.7896 55.5974C59.5382 56.0085 59.1972 56.3248 58.7638 56.545C58.3303 56.7651 57.8463 56.8752 57.3132 56.8752C56.78 56.8752 56.2989 56.7651 55.8727 56.545ZM58.1295 55.1403C58.3534 54.9146 58.4661 54.5913 58.4661 54.1705C58.4661 53.7496 58.3563 53.4263 58.1382 53.1992C57.92 52.9721 57.6513 52.8592 57.3319 52.8592C57.0126 52.8592 56.7367 52.9707 56.5214 53.1936C56.3061 53.4166 56.1992 53.7413 56.1992 54.1691C56.1992 54.5969 56.3047 54.9132 56.5171 55.1389C56.728 55.3647 56.9939 55.479 57.3132 55.479C57.6325 55.479 57.9041 55.3661 58.1295 55.1389V55.1403ZM64.0937 55.433V56.8H63.2442C62.6388 56.8 62.1663 56.6578 61.8268 56.3708C61.4873 56.0851 61.3182 55.6183 61.3182 54.9717V52.8801H60.6536V51.5424H61.3182V50.2603H62.9884V51.5424H64.0822V52.8801H62.9884V54.9912C62.9884 55.1487 63.0274 55.2616 63.1055 55.3299C63.1835 55.3995 63.3135 55.433 63.4956 55.433H64.0908H64.0937ZM67.3662 51.6915C67.6523 51.541 67.9875 51.4657 68.3733 51.4657C68.8226 51.4657 69.2301 51.5758 69.5942 51.796C69.9583 52.0161 70.2472 52.3297 70.4582 52.738C70.6691 53.1463 70.776 53.6214 70.776 54.1607C70.776 54.7 70.6705 55.1766 70.4582 55.589C70.2458 56.0001 69.9583 56.3178 69.5942 56.5408C69.2286 56.7638 68.8226 56.8752 68.3733 56.8752C67.9947 56.8752 67.661 56.8 67.372 56.6495C67.0816 56.499 66.8562 56.3039 66.693 56.0656V59.3069H65.0227V51.541H66.693V52.2851C66.8562 52.0398 67.0802 51.842 67.3677 51.6915H67.3662ZM68.7301 53.2131C68.499 52.9832 68.2143 52.869 67.8748 52.869C67.5353 52.869 67.2608 52.9846 67.0296 53.2173C66.7984 53.45 66.6828 53.7678 66.6828 54.1691C66.6828 54.5704 66.7984 54.8881 67.0296 55.1208C67.2608 55.3535 67.5425 55.4692 67.8748 55.4692C68.2071 55.4692 68.4903 55.3508 68.7244 55.1153C68.9584 54.8798 69.0769 54.5606 69.0769 54.1593C69.0769 53.758 68.9613 53.4417 68.7301 53.2131ZM71.6415 52.738C71.8539 52.3297 72.1414 52.0161 72.5055 51.796C72.8696 51.5758 73.277 51.4657 73.7263 51.4657C74.1107 51.4657 74.4473 51.541 74.7377 51.6915C75.0267 51.842 75.2506 52.0398 75.4067 52.2851V51.541H77.0769V56.7986H75.4067V56.0545C75.2434 56.2997 75.0166 56.4976 74.7276 56.6481C74.4372 56.7986 74.1006 56.8738 73.7162 56.8738C73.2727 56.8738 72.8696 56.7624 72.504 56.5394C72.1399 56.3164 71.851 55.9987 71.64 55.5876C71.4276 55.1766 71.3222 54.7 71.3222 54.1593C71.3222 53.6187 71.4276 53.1449 71.64 52.7366L71.6415 52.738ZM75.0614 53.2187C74.8302 52.986 74.5484 52.8703 74.2161 52.8703C73.8838 52.8703 73.6021 52.9846 73.3709 53.2145C73.1397 53.4445 73.0242 53.7594 73.0242 54.1607C73.0242 54.562 73.1397 54.8812 73.3709 55.1167C73.6021 55.3521 73.8838 55.4706 74.2161 55.4706C74.5484 55.4706 74.8302 55.3549 75.0614 55.1222C75.2925 54.8895 75.4081 54.5732 75.4081 54.1705C75.4081 53.7678 75.2925 53.4514 75.0614 53.2187ZM83.8589 51.541L80.439 59.2957H78.6416L79.8928 56.6202L77.675 51.541H79.5417L80.8016 54.8296L82.0529 51.541H83.8603H83.8589ZM37.6621 55.164C37.5523 55.164 37.444 55.1236 37.3602 55.0428L36.1162 53.843C35.95 53.6828 35.95 53.4222 36.1162 53.2605C36.2823 53.1003 36.5525 53.1003 36.7201 53.2605L37.6867 54.1928L40.1602 52.1848C40.3408 52.0384 40.6096 52.0607 40.7613 52.2349C40.913 52.4091 40.8899 52.6683 40.7093 52.8146L37.9367 55.0651C37.8572 55.1292 37.7589 55.1612 37.6621 55.1612V55.164Z" fill="white"/>
<path d="M34.0638 95.265C33.8429 95.265 33.7053 95.1241 33.7053 94.8937V93.3221L32.2426 91.104C32.1881 91.024 32.1689 90.9503 32.1689 90.8703C32.1689 90.6815 32.3226 90.5438 32.5242 90.5438C32.6715 90.5438 32.7547 90.5983 32.8443 90.7455L34.0574 92.6339H34.0798L35.2929 90.7455C35.3793 90.6015 35.4689 90.5438 35.6097 90.5438C35.8082 90.5438 35.9618 90.6815 35.9618 90.8671C35.9618 90.9471 35.9426 91.0208 35.8882 91.104L34.4223 93.3221V94.8937C34.4223 95.1241 34.2878 95.265 34.0638 95.265ZM37.2805 95.2778C36.3171 95.2778 35.6834 94.6152 35.6834 93.5301C35.6834 92.4483 36.3203 91.7857 37.2805 91.7857C38.2408 91.7857 38.8777 92.4483 38.8777 93.5301C38.8777 94.6152 38.244 95.2778 37.2805 95.2778ZM37.2805 94.708C37.8247 94.708 38.1736 94.2791 38.1736 93.5301C38.1736 92.7844 37.8215 92.3555 37.2805 92.3555C36.7396 92.3555 36.3875 92.7844 36.3875 93.5301C36.3875 94.2791 36.7396 94.708 37.2805 94.708ZM40.5773 95.2746C39.8443 95.2746 39.3962 94.7976 39.3962 94.0263V92.1538C39.3962 91.9234 39.5371 91.7857 39.7419 91.7857C39.9436 91.7857 40.0876 91.9234 40.0876 92.1538V93.8918C40.0876 94.404 40.3309 94.6792 40.8078 94.6792C41.3071 94.6792 41.608 94.3335 41.608 93.8086V92.1538C41.608 91.9234 41.752 91.7857 41.9536 91.7857C42.1585 91.7857 42.2993 91.9234 42.2993 92.1538V94.9225C42.2993 95.1369 42.1681 95.2746 41.9696 95.2746C41.7712 95.2746 41.6368 95.1369 41.6368 94.9257V94.644H41.6208C41.4351 95.0473 41.0926 95.2746 40.5773 95.2746ZM43.33 95.2746C43.1219 95.2746 42.9843 95.1337 42.9843 94.9097V92.1346C42.9843 91.9234 43.1187 91.7857 43.314 91.7857C43.506 91.7857 43.6404 91.9234 43.6404 92.1346V92.4227H43.6564C43.7493 92.045 44.0597 91.7921 44.3958 91.7921C44.5175 91.7921 44.6103 91.8209 44.6679 91.8754C44.7319 91.9266 44.7607 92.0098 44.7607 92.1186C44.7607 92.2274 44.7255 92.3075 44.6583 92.3619C44.5879 92.4227 44.4854 92.4515 44.3414 92.4515C43.8677 92.4547 43.6757 92.7716 43.6757 93.1909V94.9097C43.6757 95.1337 43.5348 95.2746 43.33 95.2746ZM46.9084 95.2137C46.6844 95.2137 46.5499 95.0729 46.5499 94.8425V90.9663C46.5499 90.7359 46.6844 90.5951 46.9084 90.5951H48.3936C49.213 90.5951 49.7507 91.0496 49.7507 91.7473C49.7507 92.237 49.389 92.6755 48.9281 92.7524V92.778C49.5554 92.8484 49.9779 93.2933 49.9779 93.9078C49.9779 94.7208 49.3858 95.2137 48.4032 95.2137H46.9084ZM47.2669 92.5603H48.0703C48.6912 92.5603 49.0337 92.3043 49.0337 91.8466C49.0337 91.4176 48.7392 91.1808 48.2207 91.1808H47.2669V92.5603ZM47.2669 94.628H48.2559C48.9025 94.628 49.245 94.3623 49.245 93.863C49.245 93.3637 48.8929 93.1076 48.2143 93.1076H47.2669V94.628ZM51.4983 95.2714C50.8389 95.2714 50.3748 94.8617 50.3748 94.2567C50.3748 93.6678 50.8293 93.3061 51.6263 93.2613L52.5513 93.2069V92.9476C52.5513 92.5731 52.2985 92.3491 51.876 92.3491C51.5431 92.3491 51.3223 92.4675 51.1302 92.7748C51.0598 92.8772 50.9702 92.922 50.8485 92.922C50.6757 92.922 50.5509 92.8068 50.5509 92.6339C50.5509 92.5635 50.5701 92.4867 50.6117 92.4099C50.7877 92.029 51.2967 91.7857 51.9016 91.7857C52.7178 91.7857 53.2395 92.2178 53.2395 92.8932V94.9257C53.2395 95.1433 53.1019 95.2746 52.9066 95.2746C52.7146 95.2746 52.5834 95.1497 52.577 94.9449V94.66H52.5609C52.3657 95.0345 51.9368 95.2714 51.4983 95.2714ZM51.6871 94.724C52.1705 94.724 52.5513 94.3912 52.5513 93.9526V93.687L51.7192 93.7382C51.3063 93.767 51.0726 93.9494 51.0726 94.2375C51.0726 94.532 51.3191 94.724 51.6871 94.724ZM54.283 95.2746C54.0813 95.2746 53.9373 95.1369 53.9373 94.9097V90.8991C53.9373 90.6719 54.0813 90.5342 54.283 90.5342C54.4846 90.5342 54.6286 90.6719 54.6286 90.8991V94.9097C54.6286 95.1369 54.4846 95.2746 54.283 95.2746ZM56.325 95.2714C55.6657 95.2714 55.2016 94.8617 55.2016 94.2567C55.2016 93.6678 55.6561 93.3061 56.4531 93.2613L57.3781 93.2069V92.9476C57.3781 92.5731 57.1252 92.3491 56.7027 92.3491C56.3698 92.3491 56.149 92.4675 55.957 92.7748C55.8865 92.8772 55.7969 92.922 55.6753 92.922C55.5024 92.922 55.3776 92.8068 55.3776 92.6339C55.3776 92.5635 55.3968 92.4867 55.4384 92.4099C55.6145 92.029 56.1234 91.7857 56.7283 91.7857C57.5445 91.7857 58.0662 92.2178 58.0662 92.8932V94.9257C58.0662 95.1433 57.9286 95.2746 57.7334 95.2746C57.5413 95.2746 57.4101 95.1497 57.4037 94.9449V94.66H57.3877C57.1924 95.0345 56.7635 95.2714 56.325 95.2714ZM56.5139 94.724C56.9972 94.724 57.3781 94.3912 57.3781 93.9526V93.687L56.5459 93.7382C56.133 93.767 55.8993 93.9494 55.8993 94.2375C55.8993 94.532 56.1458 94.724 56.5139 94.724ZM59.0841 95.2746C58.8792 95.2746 58.7384 95.1369 58.7384 94.9097V92.1346C58.7384 91.9234 58.8664 91.7857 59.0681 91.7857C59.2665 91.7857 59.4042 91.9234 59.4042 92.1378V92.4035H59.4202C59.6026 92.0194 59.9547 91.7889 60.4732 91.7889C61.2158 91.7889 61.6415 92.2626 61.6415 93.034V94.9097C61.6415 95.1369 61.4975 95.2746 61.2926 95.2746C61.091 95.2746 60.9469 95.1369 60.9469 94.9097V93.1685C60.9469 92.6627 60.7101 92.3843 60.23 92.3843C59.7434 92.3843 59.4298 92.73 59.4298 93.2517V94.9097C59.4298 95.1369 59.2857 95.2746 59.0841 95.2746ZM63.7508 95.2778C62.7874 95.2778 62.16 94.6088 62.16 93.5365C62.16 92.4707 62.7842 91.7857 63.7444 91.7857C64.3941 91.7857 64.9511 92.1314 65.0983 92.6019C65.1175 92.6563 65.1303 92.714 65.1303 92.762C65.1303 92.938 65.0055 93.0468 64.8358 93.0468C64.6886 93.0468 64.6054 92.9892 64.5222 92.8356C64.3493 92.5155 64.1125 92.3619 63.7572 92.3619C63.2163 92.3619 62.8642 92.8132 62.8642 93.5301C62.8642 94.2631 63.2227 94.6984 63.7572 94.6984C64.1317 94.6984 64.3589 94.532 64.5222 94.2407C64.6182 94.0743 64.6918 94.0167 64.8422 94.0167C65.0119 94.0167 65.1367 94.1319 65.1367 94.3047C65.1367 94.3591 65.1239 94.4168 65.0983 94.484C64.9223 94.9481 64.3749 95.2778 63.7508 95.2778ZM67.1564 95.2778C66.1418 95.2778 65.5464 94.6344 65.5464 93.5462C65.5464 92.4771 66.1546 91.7857 67.1084 91.7857C68.0046 91.7857 68.6223 92.4323 68.6223 93.3509C68.6223 93.575 68.4943 93.703 68.2799 93.703H66.2442V93.719C66.2442 94.3335 66.5899 94.7176 67.1404 94.7176C67.5181 94.7176 67.7549 94.5864 68.011 94.2375C68.0846 94.1511 68.155 94.1159 68.2543 94.1159C68.4207 94.1159 68.5423 94.2247 68.5423 94.3976C68.5423 94.452 68.5231 94.516 68.4943 94.5832C68.2735 95.0249 67.7837 95.2778 67.1564 95.2778ZM66.2474 93.2197H67.931C67.915 92.6915 67.5853 92.3427 67.1052 92.3427C66.6283 92.3427 66.2826 92.6948 66.2474 93.2197Z" fill="white" fill-opacity="0.8"/>
<path d="M36.8954 113.638C35.1851 113.638 33.6914 112.839 33.1537 111.696C33.0417 111.457 32.9745 111.225 32.9745 110.957C32.9745 110.382 33.3329 110.038 33.9155 110.038C34.3636 110.038 34.6474 110.195 34.9013 110.598C35.2897 111.375 35.9245 111.845 36.8954 111.845C38.0679 111.845 38.9119 111.001 38.9119 109.836C38.9119 108.701 38.0754 107.895 36.9029 107.895C36.2606 107.895 35.7228 108.171 35.3419 108.537C34.9013 108.948 34.6773 109.06 34.1769 109.06C33.4375 109.06 33.0865 108.544 33.1164 107.939C33.1164 107.91 33.1164 107.887 33.1238 107.85L33.4375 103.899C33.5122 102.988 33.9827 102.622 34.8565 102.622H39.584C40.1441 102.622 40.5101 102.973 40.5101 103.518C40.5101 104.063 40.1516 104.414 39.584 104.414H35.327L35.0731 107.409H35.1179C35.5585 106.715 36.4398 106.281 37.5377 106.281C39.599 106.281 41.0628 107.73 41.0628 109.784C41.0628 112.084 39.3525 113.638 36.8954 113.638ZM46.5745 113.638C43.841 113.638 42.1756 111.479 42.1756 107.992C42.1756 104.511 43.856 102.375 46.5745 102.375C49.293 102.375 50.9659 104.504 50.9659 107.984C50.9659 111.464 49.3079 113.638 46.5745 113.638ZM46.5745 111.83C47.9038 111.83 48.6731 110.464 48.6731 107.992C48.6731 105.535 47.8964 104.183 46.5745 104.183C45.26 104.183 44.4684 105.542 44.4684 107.992C44.4684 110.464 45.2451 111.83 46.5745 111.83ZM53.3782 111.405C53.9458 111.405 54.3118 111.733 54.3118 112.271C54.3118 112.413 54.2968 112.555 54.2595 112.712L53.6545 115.229C53.5425 115.729 53.2811 115.96 52.7658 115.96C52.243 115.96 51.9517 115.617 51.9741 115.154C51.9741 115.094 51.9816 115.057 51.9891 115.034L52.37 112.308C52.4447 111.681 52.8106 111.405 53.3782 111.405ZM60.2716 113.638C57.5381 113.638 55.8727 111.479 55.8727 107.992C55.8727 104.511 57.5531 102.375 60.2716 102.375C62.9901 102.375 64.663 104.504 64.663 107.984C64.663 111.464 63.005 113.638 60.2716 113.638ZM60.2716 111.83C61.6009 111.83 62.3702 110.464 62.3702 107.992C62.3702 105.535 61.5935 104.183 60.2716 104.183C58.9571 104.183 58.1655 105.542 58.1655 107.992C58.1655 110.464 58.9422 111.83 60.2716 111.83ZM70.3091 113.638C67.5757 113.638 65.9102 111.479 65.9102 107.992C65.9102 104.511 67.5906 102.375 70.3091 102.375C73.0276 102.375 74.7006 104.504 74.7006 107.984C74.7006 111.464 73.0426 113.638 70.3091 113.638ZM70.3091 111.83C71.6385 111.83 72.4078 110.464 72.4078 107.992C72.4078 105.535 71.631 104.183 70.3091 104.183C68.9947 104.183 68.203 105.542 68.203 107.992C68.203 110.464 68.9798 111.83 70.3091 111.83ZM80.3467 113.638C77.6133 113.638 75.9478 111.479 75.9478 107.992C75.9478 104.511 77.6282 102.375 80.3467 102.375C83.0652 102.375 84.7381 104.504 84.7381 107.984C84.7381 111.464 83.0801 113.638 80.3467 113.638ZM80.3467 111.83C81.6761 111.83 82.4453 110.464 82.4453 107.992C82.4453 105.535 81.6686 104.183 80.3467 104.183C79.0323 104.183 78.2406 105.542 78.2406 107.992C78.2406 110.464 79.0173 111.83 80.3467 111.83ZM87.1206 113.488C86.4484 113.488 85.9181 112.951 85.9181 112.286C85.9181 111.614 86.4484 111.084 87.1206 111.084C87.7853 111.084 88.323 111.614 88.323 112.286C88.323 112.951 87.7853 113.488 87.1206 113.488ZM94.0438 113.638C91.3104 113.638 89.6449 111.479 89.6449 107.992C89.6449 104.511 91.3253 102.375 94.0438 102.375C96.7623 102.375 98.4352 104.504 98.4352 107.984C98.4352 111.464 96.7772 113.638 94.0438 113.638ZM94.0438 111.83C95.3732 111.83 96.1424 110.464 96.1424 107.992C96.1424 105.535 95.3657 104.183 94.0438 104.183C92.7294 104.183 91.9377 105.542 91.9377 107.992C91.9377 110.464 92.7144 111.83 94.0438 111.83ZM104.081 113.638C101.348 113.638 99.6825 111.479 99.6825 107.992C99.6825 104.511 101.363 102.375 104.081 102.375C106.8 102.375 108.473 104.504 108.473 107.984C108.473 111.464 106.815 113.638 104.081 113.638ZM104.081 111.83C105.411 111.83 106.18 110.464 106.18 107.992C106.18 105.535 105.403 104.183 104.081 104.183C102.767 104.183 101.975 105.542 101.975 107.992C101.975 110.464 102.752 111.83 104.081 111.83Z" fill="white"/>
<path d="M113.194 105.399C112.97 105.399 112.835 105.258 112.835 105.028V101.151C112.835 100.921 112.97 100.78 113.194 100.78H115.486C115.684 100.78 115.818 100.902 115.818 101.091C115.818 101.279 115.684 101.401 115.486 101.401H113.552V102.749H115.38C115.569 102.749 115.7 102.864 115.7 103.046C115.7 103.225 115.572 103.344 115.38 103.344H113.552V104.778H115.486C115.684 104.778 115.818 104.899 115.818 105.088C115.818 105.277 115.684 105.399 115.486 105.399H113.194ZM118.491 105.476C117.169 105.476 116.337 104.551 116.337 103.069C116.337 101.612 117.166 100.703 118.481 100.703C119.342 100.703 120.034 101.132 120.29 101.75C120.332 101.852 120.341 101.932 120.341 102.012C120.341 102.201 120.216 102.329 120.021 102.329C119.858 102.329 119.752 102.252 119.663 102.073C119.429 101.584 119.019 101.331 118.485 101.331C117.601 101.331 117.07 101.977 117.07 103.062C117.07 104.167 117.617 104.848 118.497 104.848C119.246 104.848 119.765 104.368 119.775 103.667V103.587H118.843C118.658 103.587 118.529 103.472 118.529 103.299C118.529 103.123 118.658 103.008 118.843 103.008H120.123C120.344 103.008 120.482 103.149 120.482 103.382V103.498C120.482 104.717 119.749 105.476 118.491 105.476ZM121.541 105.45C121.317 105.45 121.183 105.309 121.183 105.079V101.151C121.183 100.921 121.317 100.78 121.541 100.78H122.915C123.811 100.78 124.435 101.398 124.435 102.297C124.435 103.2 123.798 103.821 122.892 103.821H121.9V105.079C121.9 105.309 121.762 105.45 121.541 105.45ZM121.9 103.219H122.722C123.347 103.219 123.702 102.883 123.702 102.3C123.702 101.718 123.347 101.385 122.726 101.385H121.9V103.219Z" fill="white"/>
<path d="M193.569 96.6648C194.229 96.449 194.952 96.3228 195.74 96.3228C198.766 96.3228 200.826 98.1827 202.054 99.8233C202.669 100.645 202.977 101.056 202.977 102.276C202.977 103.495 202.669 103.906 202.054 104.728C200.826 106.368 198.766 108.228 195.74 108.228C192.714 108.228 190.654 106.368 189.426 104.728C188.811 103.906 188.504 103.495 188.504 102.276C188.504 101.056 188.811 100.645 189.426 99.8233C189.775 99.3581 190.19 98.8752 190.675 98.4221" stroke="white" stroke-width="1.09252" stroke-linecap="round"/>
<path d="M197.885 102.277C197.885 103.509 196.913 104.509 195.714 104.509C194.515 104.509 193.543 103.509 193.543 102.277C193.543 101.044 194.515 100.044 195.714 100.044C196.913 100.044 197.885 101.044 197.885 102.277Z" stroke="white" stroke-width="1.09252"/>
<path opacity="0.2" d="M121.066 168.324C121.664 120.976 131.692 27.1755 167.023 30.766C211.187 35.254 197.288 92.4766 196.167 95.1694M196.167 95.1694C195.046 97.8622 180.027 146.557 185.855 164.061L154.246 164.061C157.16 125.09 169.623 46.3844 196.167 43.3325C210.986 41.6287 219.46 49.9175 224.016 60.1627M196.167 95.1694C203.888 64.2916 217.95 58.9658 224.016 60.1627M224.016 60.1627C227.621 68.2684 228.773 77.5987 228.674 84.1737L224.016 60.1627Z" stroke="white" stroke-width="0.546262"/>
</g>
</g>
<defs>
<filter id="filter0_d_2131_509" x="14.3659" y="19.3454" width="206.241" height="120.48" filterUnits="userSpaceOnUse" color-interpolation-filters="sRGB">
<feFlood flood-opacity="0" result="BackgroundImageFix"/>
<feColorMatrix in="SourceAlpha" type="matrix" values="0 0 0 0 0 0 0 0 0 0 0 0 0 0 0 0 0 0 127 0" result="hardAlpha"/>
<feOffset dy="-1.88366"/>
<feGaussianBlur stdDeviation="2.26039"/>
<feComposite in2="hardAlpha" operator="out"/>
<feColorMatrix type="matrix" values="0 0 0 0 0.155596 0 0 0 0 0.155596 0 0 0 0 0.155596 0 0 0 0.2 0"/>
<feBlend mode="normal" in2="BackgroundImageFix" result="effect1_dropShadow_2131_509"/>
<feBlend mode="normal" in="SourceGraphic" in2="effect1_dropShadow_2131_509" result="shape"/>
</filter>
<clipPath id="clip0_2131_509">
<rect x="0.0429688" y="0.00708008" width="197.2" height="111.438" rx="8.64405" fill="white"/>
</clipPath>
<clipPath id="clip1_2131_509">
<rect width="197.2" height="111.438" fill="white" transform="translate(0.0429688 0.00708008)"/>
</clipPath>
<clipPath id="clip2_2131_509">
<rect x="18.8867" y="25.7499" width="197.2" height="111.438" rx="7.53465" fill="white"/>
</clipPath>
</defs>
</svg>
