<svg width="175" height="42" viewBox="0 0 175 42" fill="none" xmlns="http://www.w3.org/2000/svg">
<path d="M37.8121 8.91864C31.9132 0.62634 20.8123 -2.11853 11.6421 2.44824C2.28172 7.10635 -2.43747 17.8503 1.26768 27.2723C1.85758 28.8586 2.58399 30.4065 2.8375 32.0938C3.00325 33.1706 2.935 34.2714 2.52061 35.2857C2.43285 35.5021 2.3646 35.7136 2.2476 35.9203C2.2086 35.9203 2.00384 36.2904 1.96971 36.3385C1.88196 36.4587 1.78933 36.574 1.6967 36.6942C1.48707 36.9538 1.26768 37.1942 1.03367 37.4297C0.872792 37.5884 0.707035 37.7422 0.531528 37.8912C0.409648 37.997 0.151263 38.1268 0.136637 38.2998C0.136637 38.3479 0.151263 38.4056 0.20489 38.4584C0.287769 38.545 0.409648 38.569 0.526653 38.5834C2.20372 38.8094 3.91979 38.5161 5.61148 38.67C8.00033 38.9007 10.5452 38.8959 12.7244 39.7323C21.4217 43.0781 31.1234 40.8187 36.8712 33.8148C42.9604 26.3877 43.326 16.6725 37.8121 8.92344V8.91864ZM20.9635 35.1463C12.8511 35.1463 6.39639 28.7625 6.40614 20.7682C6.42076 12.6394 12.6903 6.54392 21.0171 6.56314C29.2221 6.57757 35.5647 12.8749 35.4916 20.9317C35.4184 28.8009 28.9295 35.1511 20.9635 35.1511V35.1463ZM68.1554 10.5963C69.9787 11.5481 71.3925 12.8893 72.3919 14.6103C73.3913 16.3312 73.8935 18.3214 73.8935 20.5759C73.8935 22.8305 73.3913 24.7918 72.3919 26.5223C71.3925 28.2577 69.9738 29.5989 68.1407 30.5555C66.3077 31.5121 64.1772 31.988 61.7591 31.988H53.091V9.1638H61.7591C64.1967 9.1638 66.332 9.63971 68.1554 10.5963ZM66.3759 25.4503C67.5655 24.3014 68.1554 22.6766 68.1554 20.5759C68.1554 18.4752 67.5606 16.836 66.3759 15.6678C65.1912 14.4949 63.5288 13.9132 61.3983 13.9132H58.7267V27.1761H61.3983C63.5288 27.1761 65.1912 26.6041 66.3759 25.4503ZM80.5676 31.1083C79.1294 30.3488 77.9984 29.2672 77.1696 27.8587C76.3408 26.4502 75.9313 24.8014 75.9313 22.917C75.9313 21.0326 76.3506 19.4126 77.1842 17.9897C78.0179 16.5716 79.1636 15.4804 80.6115 14.7208C82.0594 13.9613 83.6877 13.5816 85.4916 13.5816C87.2954 13.5816 88.9188 13.9613 90.3716 14.7208C91.8196 15.4804 92.9652 16.5668 93.7989 17.9897C94.6325 19.4078 95.0518 21.0518 95.0518 22.917C95.0518 24.7822 94.6277 26.4214 93.7843 27.8395C92.936 29.2576 91.7854 30.3488 90.3229 31.1083C88.8603 31.8679 87.2271 32.2476 85.4282 32.2476C83.6292 32.2476 82.0058 31.8679 80.5676 31.1083ZM88.1827 26.2628C88.9383 25.484 89.3186 24.3687 89.3186 22.917C89.3186 21.4652 88.9481 20.35 88.2119 19.5664C87.4758 18.7829 86.569 18.3935 85.4916 18.3935C84.4141 18.3935 83.483 18.7781 82.7566 19.5472C82.0302 20.3163 81.6694 21.4364 81.6694 22.9122C81.6694 24.388 82.0253 25.4792 82.7419 26.2579C83.4537 27.0367 84.3508 27.4309 85.4282 27.4309C86.5056 27.4309 87.4221 27.0415 88.1827 26.2579V26.2628ZM108.307 27.2723V31.988H105.441C103.398 31.988 101.804 31.4977 100.658 30.5075C99.5126 29.522 98.9422 27.9116 98.9422 25.6811V18.4656H96.6996V13.8508H98.9422V9.42819H104.578V13.8508H108.268V18.4656H104.578V25.7484C104.578 26.2916 104.71 26.681 104.973 26.9165C105.236 27.1569 105.675 27.2723 106.289 27.2723H108.298H108.307ZM119.35 14.3651C120.315 13.8459 121.446 13.5864 122.748 13.5864C124.264 13.5864 125.639 13.9661 126.867 14.7256C128.096 15.4852 129.071 16.5668 129.783 17.9753C130.494 19.3838 130.855 21.023 130.855 22.8833C130.855 24.7437 130.499 26.3877 129.783 27.8107C129.066 29.2288 128.096 30.3248 126.867 31.0939C125.634 31.8631 124.264 32.2476 122.748 32.2476C121.47 32.2476 120.344 31.988 119.369 31.4689C118.389 30.9497 117.629 30.2767 117.078 29.4547V40.6361H111.442V13.8459H117.078V16.4129C117.629 15.5669 118.384 14.8843 119.355 14.3651H119.35ZM123.952 19.6145C123.172 18.8213 122.212 18.4271 121.066 18.4271C119.92 18.4271 118.994 18.8261 118.214 19.6289C117.434 20.4317 117.044 21.5277 117.044 22.9122C117.044 24.2966 117.434 25.3927 118.214 26.1955C118.994 26.9982 119.945 27.3972 121.066 27.3972C122.187 27.3972 123.143 26.9886 123.932 26.1762C124.722 25.3638 125.122 24.263 125.122 22.8785C125.122 21.4941 124.732 20.4029 123.952 19.6145ZM133.775 17.9753C134.492 16.5668 135.462 15.4852 136.691 14.7256C137.919 13.9661 139.294 13.5864 140.81 13.5864C142.107 13.5864 143.243 13.8459 144.223 14.3651C145.198 14.8843 145.954 15.5669 146.48 16.4129V13.8459H152.116V31.9832H146.48V29.4162C145.929 30.2623 145.164 30.9449 144.189 31.4641C143.209 31.9832 142.073 32.2428 140.776 32.2428C139.28 32.2428 137.919 31.8583 136.686 31.0891C135.457 30.32 134.482 29.2239 133.771 27.8058C133.054 26.3877 132.698 24.7437 132.698 22.8785C132.698 21.0134 133.054 19.3789 133.771 17.9705L133.775 17.9753ZM145.315 19.6337C144.535 18.8309 143.584 18.4319 142.463 18.4319C141.342 18.4319 140.391 18.8261 139.611 19.6193C138.831 20.4125 138.441 21.4989 138.441 22.8833C138.441 24.2678 138.831 25.3686 139.611 26.181C140.391 26.9934 141.342 27.402 142.463 27.402C143.584 27.402 144.535 27.0031 145.315 26.2003C146.095 25.3975 146.485 24.3063 146.485 22.917C146.485 21.5277 146.095 20.4365 145.315 19.6337ZM175 13.8459L163.461 40.5976H157.396L161.618 31.3679L154.134 13.8459H160.433L164.684 25.1908L168.906 13.8459H175.005H175ZM19.1206 26.3445C18.7501 26.3445 18.3845 26.2051 18.1017 25.9263L13.9042 21.7873C13.3435 21.2345 13.3435 20.3356 13.9042 19.7779C14.4648 19.2251 15.3765 19.2251 15.942 19.7779L19.2035 22.9939L27.5499 16.0668C28.1593 15.5621 29.066 15.639 29.5779 16.2399C30.0898 16.8408 30.0118 17.7349 29.4024 18.2397L20.0469 26.0032C19.7788 26.2243 19.4473 26.3349 19.1206 26.3349V26.3445Z" fill="white"/>
</svg>
