<svg width="218" height="42" viewBox="0 0 218 42" fill="none" xmlns="http://www.w3.org/2000/svg">
<g clip-path="url(#clip0_1335_322)">
<path d="M11.7555 2.24828C2.29958 7.02237 -2.46397 18.0245 1.27722 27.6776C1.87266 29.304 2.60667 30.8891 2.86132 32.6166C3.0261 33.7183 2.95869 34.8462 2.543 35.8843C2.45313 36.1053 2.38572 36.3227 2.26588 36.5325C2.22843 36.5325 2.01871 36.911 1.98501 36.9635C1.89513 37.0871 1.80525 37.2071 1.70788 37.327C1.49817 37.5893 1.27347 37.8404 1.04129 38.0764C0.880255 38.2376 0.711733 38.3987 0.535721 38.5486C0.412138 38.6573 0.153738 38.7884 0.135013 38.9683C0.131268 39.017 0.146248 39.077 0.206167 39.1294C0.288555 39.2156 0.412138 39.2419 0.531976 39.2568C2.22843 39.4892 3.95859 39.1856 5.66628 39.3468C8.07802 39.5829 10.6433 39.5791 12.8453 40.4372C21.6272 43.8623 31.4164 41.5502 37.2211 34.3741C43.3665 26.7633 43.7373 16.8141 38.1685 8.87355C32.2141 0.382112 21.0093 -2.42838 11.7555 2.24828ZM21.1628 35.7493C12.9764 35.7456 6.4602 29.2103 6.46769 21.0186C6.47893 12.6921 12.8116 6.44528 21.2152 6.46776C29.4953 6.48275 35.8991 12.9356 35.828 21.1835C35.7531 29.244 29.2032 35.7531 21.1628 35.7493Z" fill="white"/>
<path d="M26.8995 12.2988H16.0354C14.2379 12.2988 12.7773 13.764 12.7773 15.5627V26.4337C12.7773 28.2362 14.2379 29.6976 16.0354 29.6976H26.8995C28.7008 29.6976 30.1613 28.2362 30.1613 26.4337V15.5627C30.1613 13.764 28.7008 12.2988 26.8995 12.2988ZM21.4656 19.7448C18.0951 19.7448 16.9642 17.0692 16.9192 16.9605L17.4922 16.7244L18.0614 16.4883C18.0989 16.5708 18.9452 18.5081 21.4656 18.5081C23.9859 18.5081 24.8585 16.5108 24.8697 16.4883L26.0157 16.9605C25.9707 17.0729 24.8398 19.7448 21.4656 19.7448Z" fill="white"/>
<path d="M64.4316 12.9392C62.9449 12.1523 61.211 11.7588 59.2262 11.7588H52.167V30.6116H59.2262C61.1923 30.6116 62.9262 30.2181 64.4204 29.4312C65.9146 28.6442 67.0681 27.535 67.8807 26.0998C68.6934 24.6683 69.1016 23.0307 69.1016 21.1871C69.1016 19.3434 68.6934 17.6833 67.8807 16.2593C67.0681 14.8353 65.9184 13.7299 64.4316 12.9429V12.9392ZM62.9824 25.2117C62.0162 26.1598 60.6642 26.6357 58.9303 26.6357H56.7583V15.6785H58.9303C60.6642 15.6785 62.0162 16.1619 62.9824 17.1287C63.9485 18.0955 64.4316 19.4483 64.4316 21.1833C64.4316 22.9183 63.9485 24.2636 62.9824 25.2117Z" fill="white"/>
<path d="M82.52 16.3498C81.3403 15.724 80.0146 15.4092 78.5466 15.4092C77.0786 15.4092 75.7566 15.724 74.5732 16.3498C73.3936 16.9756 72.4611 17.8749 71.7833 19.0478C71.1017 20.2207 70.7646 21.5773 70.7646 23.1174C70.7646 24.6576 71.1017 26.0366 71.772 27.1983C72.4424 28.3637 73.3636 29.2555 74.5358 29.8851C75.708 30.5109 77.0262 30.8257 78.4942 30.8257C79.9622 30.8257 81.2879 30.5109 82.4788 29.8851C83.6697 29.2593 84.6059 28.3599 85.2987 27.187C85.9878 26.0141 86.3323 24.6576 86.3323 23.1174C86.3323 21.5773 85.9915 20.2207 85.3137 19.0478C84.6321 17.8749 83.7034 16.9756 82.5237 16.3498H82.52ZM80.7337 25.8829C80.1157 26.5275 79.3705 26.8498 78.4942 26.8498C77.6179 26.8498 76.8876 26.5275 76.3071 25.8829C75.7267 25.2384 75.4346 24.3166 75.4346 23.1174C75.4346 21.9183 75.7304 20.974 76.3184 20.3369C76.9101 19.7036 77.6516 19.3851 78.5466 19.3851C79.4417 19.3851 80.1607 19.7074 80.7599 20.3519C81.3591 20.9964 81.6587 21.9183 81.6587 23.1174C81.6587 24.3166 81.3478 25.2384 80.7337 25.8829Z" fill="white"/>
<path d="M94.41 26.4223C94.1965 26.2275 94.0879 25.9015 94.0879 25.4555V19.4411H97.0951V15.6263H94.0879V11.9727H89.4966V15.6263H87.6729V19.4411H89.4966V25.4031C89.4966 27.2467 89.961 28.577 90.8935 29.3902C91.8222 30.2034 93.1217 30.6118 94.7845 30.6118H97.1176V26.7184H95.481C94.9792 26.7184 94.6234 26.6209 94.4062 26.4223H94.41Z" fill="white"/>
<path d="M109.168 22.4315C108.472 22.1542 107.566 21.8732 106.457 21.5846C105.491 21.371 104.779 21.1537 104.322 20.9401C103.866 20.7265 103.637 20.4042 103.637 19.9733C103.637 19.6135 103.779 19.3325 104.068 19.1264C104.352 18.9203 104.764 18.8153 105.304 18.8153C105.929 18.8153 106.435 18.969 106.82 19.2725C107.206 19.576 107.434 19.9882 107.506 20.5091H111.745C111.584 18.969 110.962 17.7324 109.88 16.803C108.798 15.8737 107.315 15.4053 105.438 15.4053C104.169 15.4053 103.072 15.6114 102.15 16.0236C101.229 16.4358 100.533 16.9941 100.057 17.7024C99.5813 18.4106 99.3454 19.1938 99.3454 20.052C99.3454 21.0712 99.6038 21.8844 100.124 22.484C100.645 23.0835 101.259 23.522 101.974 23.7993C102.69 24.0766 103.585 24.3389 104.659 24.59C105.663 24.841 106.386 25.0696 106.835 25.2757C107.281 25.4818 107.506 25.8003 107.506 26.2275C107.506 26.5873 107.348 26.8758 107.034 27.1007C106.719 27.3255 106.277 27.4379 105.704 27.4379C105.079 27.4379 104.551 27.2768 104.12 26.9545C103.69 26.6323 103.45 26.2126 103.397 25.6917H98.8623C98.9335 26.6585 99.263 27.5316 99.8547 28.3111C100.446 29.0905 101.252 29.7051 102.27 30.151C103.289 30.6007 104.453 30.8218 105.76 30.8218C106.978 30.8218 108.045 30.6232 108.966 30.2297C109.887 29.8362 110.595 29.2929 111.086 28.6033C111.576 27.9138 111.824 27.1306 111.824 26.2538C111.805 25.2158 111.531 24.3876 111.003 23.7693C110.475 23.151 109.861 22.7051 109.165 22.4278L109.168 22.4315Z" fill="white"/>
<path d="M123.848 15.4656C122.845 15.4656 121.942 15.6642 121.137 16.0577C120.332 16.4512 119.695 16.9795 119.231 17.6428V10.7402H114.64V30.6123H119.231V22.4769C119.231 21.4726 119.489 20.6969 120.01 20.1423C120.53 19.5877 121.227 19.3104 122.103 19.3104C122.98 19.3104 123.68 19.5877 124.197 20.1423C124.717 20.6969 124.976 21.4763 124.976 22.4769V30.6123H129.537V21.8585C129.537 19.8725 129.016 18.3098 127.979 17.1706C126.942 16.0352 125.564 15.4656 123.845 15.4656H123.848Z" fill="white"/>
<path d="M135.042 9.09863C134.237 9.09863 133.578 9.33471 133.069 9.81062C132.559 10.2865 132.305 10.8786 132.305 11.5944C132.305 12.3101 132.559 12.8797 133.069 13.3518C133.578 13.8278 134.237 14.0638 135.042 14.0638C135.847 14.0638 136.477 13.8278 136.99 13.3518C137.499 12.8759 137.754 12.2914 137.754 11.5944C137.754 10.8973 137.499 10.2828 136.99 9.81062C136.48 9.33471 135.832 9.09863 135.042 9.09863Z" fill="white"/>
<path d="M137.323 15.626H132.731V30.6115H137.323V15.626Z" fill="white"/>
<path d="M153.213 16.3498C152.209 15.724 151.093 15.4092 149.857 15.4092C148.801 15.4092 147.88 15.6228 147.094 16.0537C146.307 16.4847 145.689 17.0468 145.24 17.7438V15.6228H140.652V37.7507H145.24V28.5136C145.686 29.1956 146.307 29.7502 147.105 30.1774C147.903 30.6083 148.82 30.8219 149.857 30.8219C151.093 30.8219 152.209 30.5034 153.213 29.8701C154.216 29.2368 155.007 28.33 155.587 27.157C156.168 25.9841 156.46 24.6276 156.46 23.0874C156.46 21.5473 156.168 20.1983 155.587 19.0328C155.007 17.8712 154.213 16.9756 153.213 16.346V16.3498ZM150.824 25.8155C150.179 26.4863 149.401 26.8235 148.49 26.8235C147.58 26.8235 146.805 26.4938 146.169 25.8305C145.532 25.1672 145.217 24.2641 145.217 23.1174C145.217 21.9707 145.536 21.0676 146.169 20.4044C146.805 19.7411 147.577 19.4113 148.49 19.4113C149.404 19.4113 150.202 19.7373 150.839 20.3931C151.475 21.0452 151.79 21.9483 151.79 23.0912C151.79 24.2341 151.468 25.1447 150.824 25.8155Z" fill="white"/>
<path d="M171.436 16.3498C170.432 15.724 169.316 15.4092 168.08 15.4092C167.024 15.4092 166.103 15.6228 165.316 16.0537C164.53 16.4847 163.912 17.0468 163.466 17.7438V15.6228H158.875V37.7507H163.466V28.5136C163.912 29.1956 164.534 29.7502 165.331 30.1774C166.125 30.6083 167.043 30.8219 168.084 30.8219C169.32 30.8219 170.436 30.5034 171.439 29.8701C172.443 29.2368 173.233 28.33 173.814 27.157C174.394 25.9841 174.686 24.6276 174.686 23.0874C174.686 21.5473 174.394 20.1983 173.814 19.0328C173.233 17.8712 172.439 16.9756 171.439 16.346L171.436 16.3498ZM169.046 25.8155C168.402 26.4863 167.623 26.8235 166.713 26.8235C165.803 26.8235 165.028 26.4938 164.391 25.8305C163.755 25.1672 163.44 24.2641 163.44 23.1174C163.44 21.9707 163.758 21.0676 164.391 20.4044C165.028 19.7411 165.799 19.4113 166.713 19.4113C167.627 19.4113 168.425 19.7373 169.061 20.3931C169.698 21.0452 170.012 21.9483 170.012 23.0912C170.012 24.2341 169.69 25.1447 169.046 25.8155Z" fill="white"/>
<path d="M179.405 9.09863C178.599 9.09863 177.94 9.33471 177.431 9.81062C176.922 10.2865 176.667 10.8786 176.667 11.5944C176.667 12.3101 176.922 12.8797 177.431 13.3518C177.94 13.8278 178.599 14.0638 179.405 14.0638C180.21 14.0638 180.839 13.8278 181.352 13.3518C181.861 12.8759 182.116 12.2914 182.116 11.5944C182.116 10.8973 181.861 10.2828 181.352 9.81062C180.843 9.33846 180.195 9.09863 179.405 9.09863Z" fill="white"/>
<path d="M181.689 15.626H177.098V30.6115H181.689V15.626Z" fill="white"/>
<path d="M194.141 15.4648C193.156 15.4648 192.272 15.656 191.486 16.0419C190.7 16.4279 190.074 16.9525 189.606 17.6121V15.626H185.019V30.6115H189.606V22.4761C189.606 21.4718 189.865 20.6961 190.385 20.1415C190.906 19.5869 191.602 19.3096 192.478 19.3096C193.355 19.3096 194.055 19.5869 194.572 20.1415C195.092 20.6961 195.351 21.4756 195.351 22.4761V30.6115H199.912V21.8578C199.912 19.8717 199.388 18.3091 198.343 17.1699C197.294 16.0344 195.898 15.4648 194.141 15.4648Z" fill="white"/>
<path d="M213.408 15.6267V17.7477C212.978 17.0507 212.367 16.4848 211.57 16.0576C210.772 15.6267 209.847 15.4131 208.791 15.4131C207.555 15.4131 206.439 15.7279 205.435 16.3537C204.432 16.9795 203.641 17.8751 203.061 19.0405C202.481 20.2059 202.188 21.5549 202.188 23.0951C202.188 24.6352 202.481 25.9918 203.061 27.1647C203.641 28.3376 204.435 29.2407 205.435 29.8778C206.439 30.5148 207.555 30.8296 208.791 30.8296C209.847 30.8296 210.768 30.6122 211.555 30.17C212.341 29.7316 212.959 29.162 213.408 28.465V30.586C213.408 31.7851 213.127 32.6583 212.562 33.2054C212 33.7525 211.244 34.026 210.292 34.026C209.506 34.026 208.843 33.8612 208.308 33.5276C207.772 33.1941 207.431 32.7445 207.289 32.1711H202.754C202.949 33.9623 203.739 35.3788 205.117 36.4281C206.495 37.4773 208.293 37.9982 210.51 37.9982C212.172 37.9982 213.566 37.6647 214.682 37.0052C215.801 36.3419 216.633 35.45 217.176 34.3333C217.722 33.2129 217.996 31.965 217.996 30.586V15.6267H213.405H213.408ZM212.457 25.8306C211.82 26.4939 211.049 26.8237 210.135 26.8237C209.221 26.8237 208.45 26.4864 207.813 25.8157C207.177 25.1449 206.862 24.2343 206.862 23.0914C206.862 21.9484 207.18 21.0453 207.813 20.3933C208.45 19.7412 209.221 19.4115 210.135 19.4115C211.049 19.4115 211.82 19.7412 212.457 20.4045C213.09 21.0678 213.408 21.9709 213.408 23.1176C213.408 24.2643 213.09 25.1674 212.457 25.8306Z" fill="white"/>
</g>
<defs>
<clipPath id="clip0_1335_322">
<rect width="218" height="42" fill="white"/>
</clipPath>
</defs>
</svg>
