<svg width="200" height="66" viewBox="0 0 200 66" fill="none" xmlns="http://www.w3.org/2000/svg">
<rect width="200" height="66" rx="8" fill="black"/>
<path d="M49.89 34.3356C49.841 29.0289 54.3466 26.4472 54.5527 26.327C52.0009 22.6997 48.0458 22.2041 46.656 22.1646C43.3342 21.8237 40.112 24.1025 38.4198 24.1025C36.6939 24.1025 34.0881 22.1975 31.2797 22.2535C27.6658 22.3078 24.2848 24.3479 22.4306 27.5158C18.6038 33.9751 21.4578 43.4672 25.1242 48.6883C26.9582 51.2454 29.1012 54.1005 31.9063 54C34.6505 53.8897 35.6756 52.2942 38.9873 52.2942C42.2686 52.2942 43.2312 54 46.0919 53.9358C49.0371 53.8897 50.8914 51.3672 52.6613 48.7871C54.7807 45.8563 55.6318 42.97 55.6656 42.8218C55.5963 42.7988 49.9457 40.6961 49.89 34.3356Z" fill="white"/>
<path d="M44.4859 18.7299C45.9619 16.9303 46.9718 14.4819 46.6914 11.9973C44.5551 12.0895 41.8835 13.438 40.345 15.1981C38.9839 16.7492 37.768 19.2914 38.0821 21.6821C40.4818 21.8567 42.9458 20.5016 44.4859 18.7299Z" fill="white"/>
<path d="M76.7168 18.0231C76.7168 19.6308 76.2222 20.8411 75.2344 21.6539C74.3196 22.4038 73.0194 22.7795 71.3353 22.7795C70.5003 22.7795 69.7857 22.744 69.1875 22.6729V13.8882C69.9679 13.7652 70.8085 13.7024 71.7164 13.7024C73.3206 13.7024 74.5297 14.0425 75.3451 14.7228C76.2586 15.4919 76.7168 16.5915 76.7168 18.0231ZM75.1686 18.0627C75.1686 17.0204 74.8856 16.2213 74.3196 15.664C73.7535 15.108 72.9269 14.8293 71.8383 14.8293C71.3759 14.8293 70.9822 14.8594 70.6558 14.9222V21.6006C70.8365 21.6279 71.1672 21.6402 71.6477 21.6402C72.7714 21.6402 73.6386 21.3356 74.2495 20.7264C74.8604 20.1171 75.1686 19.2292 75.1686 18.0627Z" fill="white"/>
<path d="M84.871 19.4233C84.871 20.4136 84.581 21.225 84.0009 21.8616C83.3929 22.5159 82.5873 22.8424 81.5813 22.8424C80.6118 22.8424 79.8398 22.5295 79.264 21.9012C78.6896 21.2742 78.4023 20.4833 78.4023 19.5298C78.4023 18.5326 78.698 17.7144 79.292 17.0792C79.8861 16.444 80.6847 16.1257 81.6906 16.1257C82.6601 16.1257 83.4391 16.4385 84.029 17.0655C84.5894 17.6748 84.871 18.4616 84.871 19.4233ZM83.3481 19.4697C83.3481 18.8755 83.2164 18.366 82.9544 17.9411C82.6461 17.4275 82.2076 17.1707 81.6374 17.1707C81.0475 17.1707 80.5992 17.4275 80.291 17.9411C80.0276 18.366 79.8973 18.8837 79.8973 19.4957C79.8973 20.0899 80.029 20.5994 80.291 21.0242C80.609 21.5378 81.0517 21.7946 81.6234 21.7946C82.1838 21.7946 82.6237 21.5337 82.9404 21.0106C83.2122 20.5775 83.3481 20.0639 83.3481 19.4697Z" fill="white"/>
<path d="M95.9051 16.2612L93.8386 22.7006H92.4936L91.6375 19.9044C91.4204 19.2063 91.2438 18.5124 91.1065 17.8239H91.0799C90.9524 18.5315 90.7759 19.2241 90.5489 19.9044L89.6396 22.7006H88.2792L86.3359 16.2612H87.8449L88.5916 19.3224C88.7724 20.0464 88.9209 20.7363 89.04 21.3892H89.0666C89.1759 20.851 89.3566 20.1653 89.6116 19.3361L90.5489 16.2626H91.7454L92.6435 19.2705C92.8606 20.0041 93.0372 20.7103 93.1731 21.3906H93.2137C93.3132 20.7281 93.4631 20.0218 93.662 19.2705L94.4634 16.2626H95.9051V16.2612Z" fill="white"/>
<path d="M103.57 22.6937H102.102V19.0055C102.102 17.869 101.659 17.3007 100.771 17.3007C100.335 17.3007 99.9837 17.4565 99.7105 17.7693C99.4401 18.0821 99.3028 18.4509 99.3028 18.873V22.6923H97.8345V18.0944C97.8345 17.5289 97.8163 16.9155 97.7812 16.2516H99.0716L99.1403 17.2584H99.1809C99.3518 16.9456 99.6068 16.6874 99.9417 16.4811C100.34 16.2407 100.785 16.1191 101.273 16.1191C101.889 16.1191 102.402 16.3131 102.81 16.7024C103.317 17.1792 103.57 17.8908 103.57 18.8361V22.6937Z" fill="white"/>
<path d="M107.561 22.6982H106.094V13.3042H107.561V22.6982Z" fill="white"/>
<path d="M116.266 19.4233C116.266 20.4136 115.976 21.225 115.395 21.8616C114.787 22.5159 113.98 22.8424 112.976 22.8424C112.005 22.8424 111.233 22.5295 110.659 21.9012C110.084 21.2742 109.797 20.4833 109.797 19.5298C109.797 18.5326 110.092 17.7144 110.687 17.0792C111.281 16.444 112.079 16.1257 113.084 16.1257C114.055 16.1257 114.832 16.4385 115.423 17.0655C115.984 17.6748 116.266 18.4616 116.266 19.4233ZM114.741 19.4697C114.741 18.8755 114.609 18.366 114.347 17.9411C114.041 17.4275 113.601 17.1707 113.032 17.1707C112.441 17.1707 111.992 17.4275 111.685 17.9411C111.422 18.366 111.292 18.8837 111.292 19.4957C111.292 20.0899 111.423 20.5994 111.685 21.0242C112.004 21.5378 112.446 21.7946 113.018 21.7946C113.578 21.7946 114.017 21.5337 114.333 21.0106C114.607 20.5775 114.741 20.0639 114.741 19.4697Z" fill="white"/>
<path d="M123.305 22.6962H121.986L121.877 21.9545H121.837C121.385 22.5459 120.742 22.8424 119.907 22.8424C119.284 22.8424 118.779 22.647 118.4 22.2591C118.055 21.9066 117.883 21.4682 117.883 20.9477C117.883 20.1609 118.219 19.5612 118.896 19.146C119.571 18.7307 120.521 18.5272 121.744 18.5367V18.4165C121.744 17.5682 121.287 17.1448 120.372 17.1448C119.721 17.1448 119.147 17.3046 118.651 17.6215L118.352 16.6817C118.966 16.3115 119.724 16.1257 120.618 16.1257C122.344 16.1257 123.21 17.0136 123.21 18.7894V21.1608C123.21 21.8042 123.242 22.3164 123.305 22.6962ZM121.781 20.4833V19.4902C120.161 19.4629 119.351 19.8959 119.351 20.7879C119.351 21.1239 119.444 21.3753 119.633 21.5433C119.822 21.7113 120.063 21.7946 120.35 21.7946C120.672 21.7946 120.974 21.6949 121.248 21.4968C121.524 21.2974 121.694 21.0447 121.757 20.7346C121.772 20.665 121.781 20.5803 121.781 20.4833Z" fill="white"/>
<path d="M131.727 22.6982H130.424L130.355 21.6641H130.314C129.898 22.4509 129.189 22.8443 128.193 22.8443C127.397 22.8443 126.735 22.5397 126.209 21.9305C125.684 21.3213 125.422 20.5303 125.422 19.5591C125.422 18.5169 125.706 17.6727 126.278 17.0279C126.831 16.4269 127.509 16.1264 128.316 16.1264C129.203 16.1264 129.824 16.4173 130.177 17.0006H130.205V13.3042H131.675V20.9634C131.675 21.5904 131.692 22.1682 131.727 22.6982ZM130.205 19.9826V18.9089C130.205 18.7231 130.191 18.5729 130.164 18.4581C130.082 18.1139 129.904 17.8243 129.633 17.5907C129.36 17.3571 129.031 17.2396 128.651 17.2396C128.103 17.2396 127.675 17.4514 127.36 17.8762C127.047 18.301 126.889 18.8433 126.889 19.5058C126.889 20.1424 127.039 20.6587 127.34 21.0563C127.658 21.4797 128.087 21.6914 128.623 21.6914C129.105 21.6914 129.491 21.5152 129.783 21.1614C130.066 20.835 130.205 20.4416 130.205 19.9826Z" fill="white"/>
<path d="M144.18 19.4233C144.18 20.4136 143.89 21.225 143.31 21.8616C142.701 22.5159 141.897 22.8424 140.89 22.8424C139.922 22.8424 139.15 22.5295 138.573 21.9012C137.998 21.2742 137.711 20.4833 137.711 19.5298C137.711 18.5326 138.007 17.7144 138.601 17.0792C139.195 16.444 139.993 16.1257 141.001 16.1257C141.969 16.1257 142.749 16.4385 143.338 17.0655C143.898 17.6748 144.18 18.4616 144.18 19.4233ZM142.658 19.4697C142.658 18.8755 142.526 18.366 142.264 17.9411C141.955 17.4275 141.518 17.1707 140.946 17.1707C140.358 17.1707 139.909 17.4275 139.6 17.9411C139.336 18.366 139.206 18.8837 139.206 19.4957C139.206 20.0899 139.338 20.5994 139.6 21.0242C139.918 21.5378 140.36 21.7946 140.932 21.7946C141.492 21.7946 141.934 21.5337 142.25 21.0106C142.521 20.5775 142.658 20.0639 142.658 19.4697Z" fill="white"/>
<path d="M152.116 22.6937H150.649V19.0055C150.649 17.869 150.206 17.3007 149.317 17.3007C148.881 17.3007 148.529 17.4565 148.257 17.7693C147.986 18.0821 147.85 18.4509 147.85 18.873V22.6923H146.38V18.0944C146.38 17.5289 146.363 16.9155 146.328 16.2516H147.617L147.686 17.2584H147.726C147.899 16.9456 148.154 16.6874 148.487 16.4811C148.886 16.2407 149.331 16.1191 149.82 16.1191C150.435 16.1191 150.947 16.3131 151.355 16.7024C151.864 17.1792 152.116 17.8908 152.116 18.8361V22.6937Z" fill="white"/>
<path d="M162.034 17.323H160.417V20.4511C160.417 21.2461 160.705 21.6436 161.273 21.6436C161.537 21.6436 161.755 21.6218 161.928 21.5767L161.965 22.6627C161.675 22.7692 161.294 22.8225 160.825 22.8225C160.245 22.8225 159.794 22.6504 159.467 22.3061C159.14 21.9619 158.977 21.3827 158.977 20.57V17.323H158.012V16.2507H158.977V15.0704L160.416 14.647V16.2493H162.033V17.323H162.034Z" fill="white"/>
<path d="M169.818 22.6982H168.348V19.0373C168.348 17.883 167.906 17.3052 167.019 17.3052C166.338 17.3052 165.873 17.6399 165.618 18.3092C165.574 18.4499 165.549 18.622 165.549 18.8242V22.6968H164.082V13.3042H165.549V17.185H165.577C166.039 16.4788 166.702 16.1264 167.561 16.1264C168.169 16.1264 168.672 16.3203 169.071 16.7096C169.569 17.1946 169.818 17.9158 169.818 18.8693V22.6982Z" fill="white"/>
<path d="M177.864 19.171C177.864 19.4278 177.844 19.6437 177.809 19.8199H173.406C173.425 20.4564 173.636 20.9414 174.043 21.2774C174.416 21.5779 174.897 21.7282 175.485 21.7282C176.137 21.7282 176.731 21.6271 177.266 21.4236L177.496 22.418C176.869 22.683 176.132 22.8155 175.279 22.8155C174.256 22.8155 173.451 22.5218 172.868 21.9344C172.282 21.3471 171.992 20.5589 171.992 19.5699C171.992 18.5987 172.263 17.79 172.808 17.1452C173.376 16.4568 174.146 16.1125 175.117 16.1125C176.066 16.1125 176.788 16.4568 177.276 17.1452C177.669 17.6916 177.864 18.3678 177.864 19.171ZM176.463 18.8008C176.474 18.376 176.377 18.0099 176.179 17.7012C175.924 17.3037 175.535 17.1043 175.01 17.1043C174.531 17.1043 174.14 17.2982 173.842 17.6875C173.598 17.9976 173.453 18.3678 173.406 18.8008H176.463Z" fill="white"/>
<path d="M83.4322 47.346H80.2504L78.5075 42.0063H72.4494L70.7891 47.346H67.6914L73.6935 29.1672H77.4007L83.4322 47.346ZM77.9821 39.766L76.4059 35.0192C76.2392 34.5343 75.9268 33.3923 75.4658 31.5946H75.4098C75.2263 32.3678 74.9306 33.5098 74.5243 35.0192L72.9762 39.766H77.9821Z" fill="white"/>
<path d="M98.9003 40.6395C98.9003 42.8688 98.2824 44.631 97.0467 45.9246C95.9398 47.0761 94.5654 47.6512 92.9248 47.6512C91.1538 47.6512 89.8817 47.031 89.1069 45.7907H89.0509V52.6958H86.0638V38.5618C86.0638 37.1603 86.026 35.7219 85.9531 34.2466H88.5801L88.7468 36.3243H88.8029C89.799 34.7589 91.3108 33.9775 93.3395 33.9775C94.9255 33.9775 96.2495 34.5881 97.3087 35.8107C98.3707 37.0346 98.9003 38.6438 98.9003 40.6395ZM95.8572 40.7461C95.8572 39.4702 95.563 38.4184 94.9717 37.5906C94.3258 36.7273 93.4586 36.2956 92.3714 36.2956C91.6344 36.2956 90.9647 36.5361 90.3664 37.0101C89.7668 37.4882 89.3745 38.1124 89.191 38.8856C89.0985 39.2462 89.0523 39.5413 89.0523 39.7735V41.9591C89.0523 42.9125 89.3521 43.7171 89.9517 44.3742C90.5514 45.0312 91.3304 45.3591 92.2887 45.3591C93.4137 45.3591 94.2894 44.9356 94.9157 44.0914C95.5433 43.2459 95.8572 42.1312 95.8572 40.7461Z" fill="white"/>
<path d="M114.348 40.6395C114.348 42.8688 113.73 44.631 112.493 45.9246C111.388 47.0761 110.013 47.6512 108.373 47.6512C106.602 47.6512 105.329 47.031 104.556 45.7907H104.5V52.6958H101.513V38.5618C101.513 37.1603 101.475 35.7219 101.402 34.2466H104.029L104.196 36.3243H104.252C105.247 34.7589 106.759 33.9775 108.789 33.9775C110.373 33.9775 111.697 34.5881 112.759 35.8107C113.817 37.0346 114.348 38.6438 114.348 40.6395ZM111.305 40.7461C111.305 39.4702 111.009 38.4184 110.418 37.5906C109.772 36.7273 108.908 36.2956 107.819 36.2956C107.081 36.2956 106.413 36.5361 105.813 37.0101C105.213 37.4882 104.822 38.1124 104.639 38.8856C104.548 39.2462 104.5 39.5413 104.5 39.7735V41.9591C104.5 42.9125 104.8 43.7171 105.397 44.3742C105.996 45.0298 106.775 45.3591 107.737 45.3591C108.862 45.3591 109.737 44.9356 110.363 44.0914C110.991 43.2459 111.305 42.1312 111.305 40.7461Z" fill="white"/>
<path d="M131.575 42.2642C131.575 43.8105 131.024 45.0686 129.919 46.0398C128.704 47.1012 127.013 47.6312 124.84 47.6312C122.834 47.6312 121.225 47.2542 120.008 46.4988L120.7 44.0714C122.011 44.8446 123.45 45.2325 125.018 45.2325C126.143 45.2325 127.019 44.9839 127.648 44.4894C128.274 43.9949 128.586 43.331 128.586 42.5032C128.586 41.7656 128.329 41.1441 127.812 40.64C127.297 40.136 126.439 39.6674 125.239 39.2344C121.975 38.0473 120.344 36.3084 120.344 34.0217C120.344 32.5273 120.916 31.302 122.06 30.3486C123.201 29.3937 124.722 28.917 126.625 28.917C128.322 28.917 129.731 29.2052 130.856 29.7803L130.109 32.1544C129.059 31.5971 127.871 31.3184 126.541 31.3184C125.49 31.3184 124.669 31.5711 124.081 32.0738C123.583 32.5232 123.334 33.071 123.334 33.7199C123.334 34.4384 123.618 35.0326 124.19 35.4998C124.687 35.9314 125.591 36.3986 126.902 36.9026C128.507 37.5324 129.685 38.2686 130.443 39.1128C131.198 39.9543 131.575 41.0075 131.575 42.2642Z" fill="white"/>
<path d="M141.52 36.4312H138.227V42.7954C138.227 44.4141 138.807 45.2228 139.97 45.2228C140.504 45.2228 140.947 45.1777 141.297 45.0875L141.38 47.2991C140.791 47.5136 140.016 47.6215 139.057 47.6215C137.877 47.6215 136.955 47.2704 136.29 46.5696C135.627 45.8675 135.293 44.69 135.293 43.0358V36.4285H133.332V34.2429H135.293V31.8428L138.227 30.9795V34.2429H141.52V36.4312Z" fill="white"/>
<path d="M156.274 40.6953C156.274 42.7102 155.683 44.3644 154.503 45.658C153.266 46.9899 151.624 47.6537 149.577 47.6537C147.604 47.6537 146.034 47.0158 144.862 45.74C143.691 44.4641 143.105 42.8536 143.105 40.9125C143.105 38.8813 143.708 37.2175 144.917 35.9239C146.123 34.6289 147.751 33.9814 149.798 33.9814C151.771 33.9814 153.358 34.6194 154.556 35.8966C155.702 37.1355 156.274 38.7351 156.274 40.6953ZM153.175 40.7896C153.175 39.5807 152.91 38.5439 152.373 37.6792C151.747 36.6329 150.852 36.111 149.692 36.111C148.491 36.111 147.579 36.6342 146.953 37.6792C146.416 38.5453 146.151 39.5984 146.151 40.8442C146.151 42.0531 146.416 43.0899 146.953 43.9532C147.599 44.9996 148.501 45.5214 149.665 45.5214C150.806 45.5214 151.701 44.9887 152.347 43.9259C152.897 43.0449 153.175 41.9971 153.175 40.7896Z" fill="white"/>
<path d="M166.009 36.8079C165.714 36.7546 165.399 36.7273 165.068 36.7273C164.017 36.7273 163.205 37.1139 162.633 37.8884C162.136 38.5714 161.886 39.4347 161.886 40.477V47.3548H158.9L158.928 38.3747C158.928 36.8639 158.891 35.4883 158.816 34.248H161.418L161.527 36.756H161.61C161.925 35.894 162.423 35.2001 163.104 34.6797C163.769 34.2111 164.488 33.9775 165.263 33.9775C165.539 33.9775 165.788 33.9967 166.009 34.0308V36.8079Z" fill="white"/>
<path d="M179.362 40.1802C179.362 40.702 179.327 41.1419 179.253 41.5012H170.292C170.327 42.7961 170.76 43.7865 171.592 44.4695C172.347 45.0801 173.324 45.3861 174.523 45.3861C175.85 45.3861 177.06 45.1798 178.149 44.7659L178.617 46.7876C177.345 47.3285 175.843 47.5976 174.11 47.5976C172.025 47.5976 170.388 46.9993 169.198 45.804C168.01 44.6088 167.414 43.0037 167.414 40.9903C167.414 39.0137 167.967 37.3676 169.076 36.0549C170.236 34.6534 171.804 33.9526 173.776 33.9526C175.714 33.9526 177.181 34.6534 178.177 36.0549C178.966 37.1682 179.362 38.5451 179.362 40.1802ZM176.514 39.4248C176.534 38.5615 176.339 37.8157 175.934 37.186C175.417 36.3759 174.622 35.9716 173.553 35.9716C172.577 35.9716 171.783 36.3664 171.176 37.1586C170.679 37.7884 170.383 38.5438 170.292 39.4235H176.514V39.4248Z" fill="white"/>
</svg>
