<svg width="200" height="66" viewBox="0 0 200 66" fill="none" xmlns="http://www.w3.org/2000/svg">
<rect width="200" height="66" rx="8" fill="black"/>
<path d="M18.1376 14.9571C17.775 15.358 17.55 15.9814 17.55 16.817V49.1901C17.55 50.0229 17.7736 50.645 18.1341 51.0461L36.488 33.124V32.8757L18.1376 14.9571Z" fill="#44C2C3" stroke="black" stroke-width="0.347862"/>
<path d="M43.011 26.7499L43.1496 26.8286L50.4811 30.9036C52.5734 32.0601 52.5734 33.9631 50.4811 35.1268M43.011 26.7499L43.1276 26.8665L43.1279 26.8668L43.1642 26.9031L43.0463 27.0183M43.011 26.7499L36.8203 32.7975M43.011 26.7499L42.9025 26.9367L43.0411 27.0154L43.0428 27.0164L43.0463 27.0183M43.0463 27.0183L50.3743 31.0914L50.3747 31.0916C51.3816 31.6481 51.8324 32.3533 51.8324 33.0125C51.8324 33.6718 51.3814 34.3789 50.3744 34.939M43.0463 27.0183L37.0382 32.8874M50.3744 34.939L50.4811 35.1268M50.3744 34.939C50.3744 34.939 50.3743 34.9391 50.3742 34.9391M50.3744 34.939L50.3742 34.9391M50.4811 35.1268L50.3742 34.9391M50.4811 35.1268L43.1496 39.1945M50.3742 34.9391L43.0454 39.0054L43.0522 39.0177L43.1568 39.1201L43.1257 39.1511L43.1496 39.1945M43.1496 39.1945L43.0035 39.2732M43.1496 39.1945L43.1253 39.1516L43.0035 39.2732M43.0035 39.2732L36.8203 33.2257M43.0035 39.2732L42.8993 39.0841L43.0416 39.0074M36.8203 33.2257V32.7975M36.8203 33.2257L36.9736 33.0725L37.0382 33.1358M36.8203 33.2257H37.0382V33.1358M36.8203 32.7975L36.9735 32.9507L37.0382 32.8874M36.8203 32.7975H37.0382V32.8874M37.0382 32.8874V33.1358M37.0382 33.1358L43.0416 39.0074M43.0416 39.0074L43.0442 39.006L43.043 39.0067L43.0456 39.0113L43.0416 39.0074Z" fill="#FFAF75" stroke="black" stroke-width="0.347862"/>
<mask id="path-4-inside-1_1914_7046" fill="white">
<path d="M43.1333 39.1731L36.8039 32.9902L18.125 51.2389C18.8199 51.9526 19.9532 52.0386 21.2419 51.3249L43.1333 39.1731Z"/>
</mask>
<path d="M43.1333 39.1731L36.8039 32.9902L18.125 51.2389C18.8199 51.9526 19.9532 52.0386 21.2419 51.3249L43.1333 39.1731Z" fill="#C03A83"/>
<path d="M36.8039 32.9902L36.4975 32.6838L36.8039 32.3845L37.1103 32.6838L36.8039 32.9902ZM18.125 51.2389L17.811 51.5377L17.5127 51.2314L17.8186 50.9326L18.125 51.2389ZM21.2419 51.3249L21.4553 51.7005L21.4549 51.7008L21.2419 51.3249ZM42.8269 39.4795L36.4975 33.2966L37.1103 32.6838L43.4397 38.8667L42.8269 39.4795ZM37.1103 33.2966L18.4314 51.5453L17.8186 50.9326L36.4975 32.6838L37.1103 33.2966ZM18.439 50.9402C18.9463 51.4611 19.8407 51.607 21.0289 50.9491L21.4549 51.7008C20.0657 52.4701 18.6936 52.444 17.811 51.5377L18.439 50.9402ZM21.0285 50.9493L42.9198 38.7975L43.3467 39.5487L21.4553 51.7005L21.0285 50.9493Z" fill="black" mask="url(#path-4-inside-1_1914_7046)"/>
<path d="M36.8039 32.7008L42.7743 26.8685L21.1362 14.8573C21.1361 14.8572 21.1359 14.8571 21.1357 14.857C20.0004 14.235 19.0538 14.2804 18.4408 14.7679L36.8039 32.7008Z" fill="#BDE09E" stroke="black" stroke-width="0.347862"/>
<path d="M72.5365 18.6642C72.5365 19.8048 72.1867 20.7183 71.4976 21.3996C70.7054 22.2073 69.6735 22.6137 68.4091 22.6137C67.2006 22.6137 66.1687 22.2004 65.3222 21.386C64.474 20.5595 64.0508 19.5453 64.0508 18.3312C64.0508 17.1172 64.474 16.103 65.3222 15.2834C66.1687 14.462 67.2006 14.0488 68.4091 14.0488C69.0107 14.0488 69.5843 14.1701 70.1317 14.3955C70.6774 14.6225 71.1216 14.9299 71.4434 15.309L70.7124 16.0295C70.151 15.3824 69.3867 15.0631 68.4091 15.0631C67.5276 15.0631 66.7633 15.3636 66.1145 15.9698C65.4726 16.5776 65.1508 17.3648 65.1508 18.3312C65.1508 19.2977 65.4726 20.0917 66.1145 20.6995C66.7633 21.2989 67.5276 21.6062 68.4091 21.6062C69.3447 21.6062 70.1317 21.2989 70.7526 20.6927C71.1619 20.2915 71.3945 19.7382 71.4557 19.0313H68.4091V18.0444H72.4735C72.5225 18.2578 72.5365 18.4644 72.5365 18.6642Z" fill="white" stroke="white" stroke-width="0.168125" stroke-miterlimit="10"/>
<path d="M77.4456 15.2086H73.6277V17.804H77.0696V18.7909H73.6277V21.3863H77.4456V22.3921H72.5469V14.2029H77.4456V15.2086Z" fill="white" stroke="white" stroke-width="0.168125" stroke-miterlimit="10"/>
<path d="M83.575 22.4318H82.4941V15.2484H80.1523V14.2427H85.9185V15.2484H83.575V22.4318Z" fill="white" stroke="white" stroke-width="0.168125" stroke-miterlimit="10"/>
<path d="M90.1133 22.4318V14.2427H91.1924V22.4318H90.1133Z" fill="white" stroke="white" stroke-width="0.168125" stroke-miterlimit="10"/>
<path d="M95.8992 22.4318H94.8271V15.2484H92.4766V14.2427H98.2497V15.2484H95.8992V22.4318Z" fill="white" stroke="white" stroke-width="0.168125" stroke-miterlimit="10"/>
<path d="M109.15 21.3723C108.323 22.2004 107.298 22.6137 106.076 22.6137C104.846 22.6137 103.822 22.2004 102.994 21.3723C102.169 20.5459 101.758 19.5316 101.758 18.3312C101.758 17.1309 102.169 16.1166 102.994 15.2902C103.822 14.462 104.846 14.0488 106.076 14.0488C107.291 14.0488 108.316 14.462 109.143 15.297C109.976 16.1303 110.387 17.1377 110.387 18.3312C110.387 19.5316 109.976 20.5459 109.15 21.3723ZM103.794 20.6859C104.416 21.2989 105.173 21.6062 106.076 21.6062C106.971 21.6062 107.736 21.2989 108.351 20.6859C108.972 20.0729 109.287 19.2857 109.287 18.3312C109.287 17.3767 108.972 16.5896 108.351 15.9766C107.736 15.3636 106.971 15.0563 106.076 15.0563C105.173 15.0563 104.416 15.3636 103.794 15.9766C103.173 16.5896 102.858 17.3767 102.858 18.3312C102.858 19.2857 103.173 20.0729 103.794 20.6859Z" fill="white" stroke="white" stroke-width="0.168125" stroke-miterlimit="10"/>
<path d="M111.938 22.4318V14.2427H113.249L117.328 20.6117H117.375L117.328 19.0373V14.2427H118.407V22.4318H117.28L113.01 15.7487H112.962L113.01 17.3298V22.4318H111.938Z" fill="white" stroke="white" stroke-width="0.168125" stroke-miterlimit="10"/>
<path d="M101.96 35.1152C98.6739 35.1152 95.9893 37.5569 95.9893 40.9258C95.9893 44.2674 98.6739 46.7348 101.96 46.7348C105.253 46.7348 107.938 44.2674 107.938 40.9258C107.938 37.5569 105.253 35.1152 101.96 35.1152ZM101.96 44.4467C100.157 44.4467 98.6057 42.9936 98.6057 40.9258C98.6057 38.8307 100.157 37.4033 101.96 37.4033C103.763 37.4033 105.321 38.8307 105.321 40.9258C105.321 42.9936 103.763 44.4467 101.96 44.4467ZM88.9325 35.1152C85.6393 35.1152 82.9617 37.5569 82.9617 40.9258C82.9617 44.2674 85.6393 46.7348 88.9325 46.7348C92.2239 46.7348 94.9032 44.2674 94.9032 40.9258C94.9032 37.5569 92.2239 35.1152 88.9325 35.1152ZM88.9325 44.4467C87.1276 44.4467 85.5711 42.9936 85.5711 40.9258C85.5711 38.8307 87.1276 37.4033 88.9325 37.4033C90.7356 37.4033 92.2869 38.8307 92.2869 40.9258C92.2869 42.9936 90.7356 44.4467 88.9325 44.4467ZM73.4302 36.8961V39.3652H79.4691C79.2925 40.7448 78.8203 41.7591 78.0962 42.466C77.2148 43.3198 75.8419 44.2674 73.4302 44.2674C69.7137 44.2674 66.8036 41.3391 66.8036 37.7106C66.8036 34.0822 69.7137 31.1538 73.4302 31.1538C75.4397 31.1538 76.9017 31.9205 77.9808 32.9142L79.763 31.1743C78.2537 29.7673 76.2459 28.6865 73.4302 28.6865C68.3339 28.6865 64.0508 32.735 64.0508 37.7106C64.0508 42.6863 68.3339 46.7348 73.4302 46.7348C76.1847 46.7348 78.2537 45.8537 79.8801 44.2008C81.5468 42.5736 82.0663 40.2855 82.0663 38.438C82.0663 37.8643 82.0173 37.3367 81.9299 36.8961H73.4302ZM136.821 38.8102C136.33 37.5108 134.813 35.1152 131.725 35.1152C128.664 35.1152 126.116 37.4699 126.116 40.9258C126.116 44.1803 128.638 46.7348 132.019 46.7348C134.752 46.7348 136.33 45.1075 136.978 44.1598L134.95 42.8399C134.273 43.8064 133.351 44.4467 132.019 44.4467C130.695 44.4467 129.745 43.8542 129.136 42.6863L137.096 39.471L136.821 38.8102ZM128.706 40.7448C128.638 38.5046 130.488 37.3572 131.814 37.3572C132.853 37.3572 133.734 37.8643 134.028 38.59L128.706 40.7448ZM122.237 46.3813H124.853V29.3063H122.237V46.3813ZM117.952 36.4095H117.865C117.277 35.7299 116.156 35.1152 114.736 35.1152C111.756 35.1152 109.031 37.6696 109.031 40.9446C109.031 44.2008 111.756 46.7348 114.736 46.7348C116.156 46.7348 117.277 46.1149 117.865 45.4149H117.952V46.2481C117.952 48.4696 116.737 49.6631 114.776 49.6631C113.178 49.6631 112.186 48.5362 111.777 47.5885L109.501 48.5157C110.157 50.0558 111.894 51.9512 114.776 51.9512C117.844 51.9512 120.432 50.189 120.432 45.9015V35.4687H117.952V36.4095ZM114.96 44.4467C113.157 44.4467 111.647 42.9731 111.647 40.9446C111.647 38.8973 113.157 37.4033 114.96 37.4033C116.737 37.4033 118.137 38.8973 118.137 40.9446C118.137 42.9731 116.737 44.4467 114.96 44.4467ZM149.07 29.3063H142.813V46.3813H145.422V39.9116H149.07C151.968 39.9116 154.81 37.8643 154.81 34.6081C154.81 31.3536 151.961 29.3063 149.07 29.3063ZM149.139 37.5364H145.422V31.6814H149.139C151.087 31.6814 152.199 33.2609 152.199 34.6081C152.199 35.9297 151.087 37.5364 149.139 37.5364ZM165.269 35.0828C163.383 35.0828 161.423 35.8955 160.617 37.697L162.932 38.6446C163.431 37.697 164.347 37.3896 165.316 37.3896C166.67 37.3896 168.043 38.1836 168.064 39.5855V39.7647C167.591 39.4984 166.58 39.1039 165.337 39.1039C162.843 39.1039 160.302 40.4443 160.302 42.9458C160.302 45.2339 162.345 46.7074 164.641 46.7074C166.397 46.7074 167.366 45.9339 167.974 45.0341H168.064V46.354H170.584V39.804C170.584 36.7766 168.268 35.0828 165.269 35.0828ZM164.954 44.4399C164.1 44.4399 162.911 44.0267 162.911 42.9936C162.911 41.672 164.394 41.1649 165.678 41.1649C166.827 41.1649 167.366 41.4125 168.064 41.7386C167.859 43.3198 166.465 44.4399 164.954 44.4399ZM179.765 35.4567L176.766 42.8587H176.677L173.576 35.4567H170.762L175.421 45.8008L172.763 51.5567H175.489L182.669 35.4567H179.765ZM156.244 46.3813H158.861V29.3063H156.244V46.3813Z" fill="white"/>
</svg>
