<svg width="198" height="49" viewBox="0 0 198 49" fill="none" xmlns="http://www.w3.org/2000/svg">
<path d="M186.095 48.555H11.9366C5.671 48.555 0.619141 43.6037 0.619141 37.5343V11.0529C0.619141 4.95158 5.7038 0.0322266 11.9366 0.0322266H186.127C192.393 0.0322266 197.445 4.98353 197.445 11.0529V37.5343C197.445 43.6356 192.36 48.555 186.095 48.555Z" fill="#FF3235"/>
<path d="M119.863 48.5547H11.9366C5.7038 48.5547 0.619141 43.6034 0.619141 37.534V11.0206C0.619141 4.9513 5.7038 0 11.9366 0H119.896C126.128 0 131.213 4.9513 131.213 11.0206V37.5021C131.18 43.6034 126.096 48.5547 119.863 48.5547Z" fill="#2D2D2D"/>
<path d="M159.752 21.1149C162.048 21.1149 164.115 22.7441 164.213 25.3954H155.093C155.421 22.1691 157.915 21.1149 159.752 21.1149ZM173.89 15.0456C175.334 15.0456 176.482 15.8442 176.482 17.4094C176.482 18.8469 175.596 20.2524 173.628 21.1149L173.595 21.083C172.414 19.8691 171.299 18.4636 171.299 17.1539C171.299 15.8442 172.512 15.0456 173.89 15.0456ZM181.927 29.8995C183.207 27.7273 183.961 25.2996 184.224 22.9357H180.32C180.221 24.4052 179.926 25.9065 179.401 27.2162C178.876 28.5259 178.22 29.6759 177.367 30.6342C176.088 32.0717 174.448 32.9981 172.611 32.9981C170.413 32.9981 168.904 32.0717 168.313 30.5703H164.115C163.426 32.1356 161.818 32.9661 159.817 32.9661C157.586 32.9661 155.323 31.4009 155.061 28.2384H168.117C168.445 26.6732 169.724 25.4912 171.791 24.7565C171.791 24.7565 173.693 24.0857 175.596 23.2871C178.188 22.1052 180.156 20.0288 180.156 17.3456C180.156 13.5762 176.843 12.2665 173.825 12.2665C170.019 12.2665 167.231 14.1831 167.231 17.2817C167.231 19.1025 168.248 20.7955 169.724 22.5205C168.937 22.808 168.182 23.1593 167.493 23.5746C166.28 20.3163 163.524 18.24 159.719 18.24C154.732 18.24 151.124 21.8816 151.124 27.0245C151.124 32.1675 154.339 36.0966 159.981 36.0966C162.573 36.0966 164.541 35.1702 165.886 33.8925C167.264 35.2661 169.33 36.0966 171.889 36.0966C175.006 36.0966 177.564 34.8827 179.533 32.9981L182.026 35.6494H187.34L181.927 29.8995Z" fill="black"/>
<path d="M22.0385 21.051C21.4808 21.051 20.9559 21.1468 20.4311 21.3066C19.9062 21.4663 19.4141 21.7218 18.9877 22.1052C18.5612 22.4565 18.2004 22.9038 17.9051 23.4468C17.6099 23.9898 17.4787 24.6287 17.4459 25.3634H26.4343C26.4015 24.6926 26.2702 24.0857 26.0406 23.5746C25.811 23.0315 25.4829 22.5843 25.0893 22.201C24.6956 21.8177 24.2364 21.5621 23.7115 21.3704C23.1866 21.1468 22.629 21.051 22.0385 21.051ZM22.3009 36.0646C20.8575 36.0646 19.5782 35.841 18.4628 35.3299C17.3475 34.8188 16.4289 34.1799 15.7073 33.3494C14.9856 32.5189 14.4279 31.5605 14.0342 30.4425C13.6406 29.3564 13.4766 28.1745 13.4766 26.9287C13.4766 25.619 13.6734 24.4371 14.0998 23.351C14.5263 22.2649 15.084 21.3385 15.8385 20.5719C16.5602 19.7733 17.4787 19.1663 18.5284 18.7191C19.5782 18.2719 20.7591 18.0483 22.0385 18.0483C23.4163 18.0483 24.63 18.3038 25.7126 18.8149C26.7951 19.326 27.6808 20.0288 28.4025 20.9232C29.1242 21.8177 29.6819 22.8718 30.0099 24.0857C30.3708 25.3315 30.4692 26.6412 30.4036 28.0787H17.4459C17.4787 28.7495 17.6099 29.3884 17.8723 29.9634C18.102 30.5383 18.4628 31.0494 18.8565 31.4967C19.2829 31.9119 19.775 32.2633 20.2999 32.4869C20.8575 32.7105 21.4808 32.8383 22.1041 32.8383C24.2036 32.8383 25.6141 32.0397 26.3358 30.4425H30.1739C29.9771 31.1133 29.6491 31.8161 29.2554 32.455C28.829 33.1258 28.3041 33.7327 27.6808 34.2438C27.0247 34.7549 26.2702 35.1702 25.3517 35.5216C24.466 35.873 23.4491 36.0646 22.3009 36.0646ZM33.2903 13.9275H37.1941V18.4636H40.7369V21.2107H37.1941V30.5703C37.1941 31.4647 37.3581 32.0078 37.6205 32.3272C37.9158 32.6147 38.4734 32.7425 39.2935 32.7425H40.7041V35.6494H37.8173C36.866 35.6494 36.1115 35.5855 35.521 35.4577C34.9306 35.298 34.4713 35.0744 34.1433 34.7549C33.8152 34.4035 33.5856 33.9563 33.4544 33.3494C33.356 32.7744 33.2575 32.0397 33.2575 31.1772V21.2427H30.6332V18.4955H33.2575V13.9275H33.2903ZM46.8713 35.6174H42.9676V18.4316H46.8713V35.6174ZM46.8713 16.3233H42.9676V12.4901H46.8713V16.3233ZM60.7803 23.2871C60.5835 22.4885 60.1243 21.8816 59.4026 21.5302C58.6809 21.1468 57.7624 20.9871 56.647 20.9871C55.7285 20.9871 54.974 21.1468 54.3179 21.4982C53.6618 21.8177 53.3666 22.2968 53.3666 22.8718C53.3666 23.926 54.2195 24.6287 55.9253 24.9801L58.32 25.4593C59.1729 25.6509 60.0258 25.8745 60.7803 26.1301C61.5676 26.3537 62.2237 26.6731 62.8142 27.0565C63.3719 27.4398 63.8311 27.9189 64.1592 28.462C64.4872 29.037 64.6512 29.7397 64.6512 30.5703C64.6512 31.4647 64.4544 32.2633 64.0608 32.9661C63.6671 33.6688 63.1094 34.2438 62.4206 34.691C61.7317 35.1383 60.9444 35.4896 60.0258 35.7452C59.1073 35.9688 58.156 36.0966 57.1063 36.0966C55.9581 36.0966 54.9412 35.9369 54.0227 35.6494C53.1041 35.3619 52.284 34.9466 51.6279 34.4355C50.9719 33.9244 50.4142 33.3175 50.0205 32.6147C49.6269 31.9119 49.3645 31.1453 49.2988 30.3147H53.1041C53.2682 31.2411 53.6946 31.9439 54.3835 32.455C55.0724 32.9661 56.0237 33.2216 57.2703 33.2216C58.3528 33.2216 59.2385 33.03 59.8946 32.6466C60.5507 32.2633 60.8788 31.7203 60.8788 31.0175C60.8788 30.3147 60.5835 29.8356 60.0258 29.4522C59.4354 29.0689 58.6809 28.8134 57.7295 28.6217L55.0724 28.0787C54.2851 27.9189 53.5962 27.7273 52.9401 27.5037C52.284 27.2481 51.7264 26.9287 51.2343 26.5454C50.775 26.162 50.3814 25.6509 50.1189 25.1079C49.8237 24.5329 49.6925 23.8621 49.6925 23.0954C49.6925 22.3288 49.8893 21.6579 50.2502 21.051C50.6438 20.4441 51.1687 19.933 51.8248 19.5177C52.4809 19.1024 53.2354 18.7511 54.1211 18.5274C54.974 18.3038 55.9253 18.1761 56.9094 18.1761C57.828 18.1761 58.7137 18.2719 59.5338 18.4955C60.3539 18.7191 61.1084 19.0385 61.7645 19.4858C62.4206 19.933 62.9782 20.4441 63.4703 21.1149C63.9296 21.7538 64.2576 22.5204 64.4216 23.3829L60.7803 23.2871ZM78.1666 27.5676C76.756 27.6953 75.5751 27.8551 74.591 28.0148C73.6068 28.1745 72.7867 28.3981 72.1634 28.6537C71.5073 28.9092 71.0809 29.1967 70.7528 29.58C70.4576 29.9314 70.3264 30.3467 70.3264 30.8578C70.3264 31.6244 70.6216 32.1675 71.2121 32.6147C71.8026 33.03 72.5899 33.2536 73.574 33.2536C75.0174 33.2536 76.1328 32.8702 76.9529 32.1036C77.773 31.3369 78.1666 30.0272 78.1666 28.2384V27.5676ZM74.4269 17.9525C75.5095 17.9525 76.5264 18.0802 77.4777 18.3358C78.3962 18.5913 79.2164 19.0066 79.9052 19.5816C80.5941 20.1566 81.0862 20.8913 81.4799 21.8496C81.8407 22.776 82.0047 23.9579 82.0047 25.2995C82.0047 25.5232 82.0047 25.8106 81.9719 26.1301C81.9391 26.4815 81.9391 26.8648 81.9391 27.2801C81.9391 27.6953 81.9391 28.1106 81.9063 28.5578C81.8735 29.005 81.8735 29.3884 81.8735 29.8036C81.8735 30.8897 81.9063 31.9439 82.0047 33.03C82.1031 34.0841 82.2344 34.9785 82.3984 35.6813H78.8227C78.7571 35.298 78.6915 34.9785 78.6259 34.6272C78.5603 34.2758 78.5275 33.8286 78.4619 33.2216C77.9042 34.1799 77.1497 34.8827 76.1328 35.3619C75.1486 35.841 73.9677 36.0646 72.6555 36.0646C71.7042 36.0646 70.8185 35.9369 70.0312 35.6813C69.2439 35.4577 68.555 35.1063 67.9645 34.6272C67.374 34.1799 66.9475 33.6369 66.6195 32.998C66.2915 32.3591 66.1602 31.6564 66.1602 30.8578C66.1602 29.8036 66.4883 28.9092 67.1116 28.2064C67.7677 27.5037 68.5878 26.9287 69.6703 26.4815C70.7528 26.0343 71.9994 25.6829 73.4428 25.4593C74.8862 25.2357 76.3952 25.0121 78.0354 24.8523V24.4371C78.0354 23.7343 77.937 23.1274 77.7402 22.6482C77.5433 22.169 77.2809 21.7857 76.9201 21.4982C76.592 21.2107 76.1984 20.9871 75.7391 20.8913C75.2798 20.7955 74.7878 20.6996 74.2301 20.6996C73.2132 20.6996 72.3931 20.9552 71.7042 21.4663C71.0153 21.9774 70.6544 22.744 70.6216 23.7982H66.7835C66.8491 22.9038 67.0788 22.1371 67.4724 21.4024C67.8661 20.6996 68.3909 20.0607 69.047 19.5177C69.7031 19.0066 70.4904 18.5913 71.4089 18.3038C72.3275 18.0802 73.3444 17.9525 74.4269 17.9525ZM89.1232 35.6174H85.2195V12.4901H89.1232V35.6174ZM103.623 27.5676C102.212 27.6953 101.031 27.8551 100.047 28.0148C99.0629 28.1745 98.2428 28.3981 97.6196 28.6537C96.9635 28.9092 96.537 29.1967 96.209 29.58C95.9137 29.9314 95.7825 30.3467 95.7825 30.8578C95.7825 31.6244 96.0778 32.1675 96.6682 32.6147C97.2587 33.03 98.046 33.2536 99.0301 33.2536C100.474 33.2536 101.589 32.8702 102.409 32.1036C103.229 31.3369 103.623 30.0272 103.623 28.2384V27.5676ZM99.9159 17.9525C100.998 17.9525 102.015 18.0802 102.967 18.3358C103.885 18.5913 104.705 19.0066 105.394 19.5816C106.083 20.1566 106.575 20.8913 106.969 21.8496C107.33 22.776 107.494 23.9579 107.494 25.2995C107.494 25.5232 107.494 25.8106 107.461 26.1301C107.428 26.4815 107.428 26.8648 107.428 27.2801C107.428 27.6953 107.428 28.1106 107.395 28.5578C107.362 29.005 107.362 29.3884 107.362 29.8036C107.362 30.8897 107.395 31.9439 107.494 33.03C107.592 34.0841 107.723 34.9785 107.887 35.6813H104.312C104.246 35.298 104.18 34.9785 104.115 34.6272C104.049 34.2758 104.016 33.8286 103.951 33.2216C103.393 34.1799 102.639 34.8827 101.622 35.3619C100.638 35.841 99.4566 36.0646 98.1444 36.0646C97.1931 36.0646 96.3074 35.9369 95.5201 35.6813C94.7328 35.4577 94.0439 35.1063 93.4534 34.6272C92.8629 34.1799 92.4365 33.6369 92.1084 32.998C91.7804 32.3591 91.6492 31.6564 91.6492 30.8578C91.6492 29.8036 91.9772 28.9092 92.6005 28.2064C93.2566 27.5037 94.0767 26.9287 95.1592 26.4815C96.2418 26.0343 97.4883 25.6829 98.9317 25.4593C100.375 25.2357 101.884 25.0121 103.524 24.8523V24.4371C103.524 23.7343 103.426 23.1274 103.229 22.6482C103.032 22.169 102.77 21.7857 102.409 21.4982C102.081 21.2107 101.687 20.9871 101.228 20.8913C100.769 20.7955 100.277 20.6996 99.719 20.6996C98.7349 20.6996 97.882 20.9552 97.1931 21.4663C96.5042 21.9774 96.1434 22.744 96.1106 23.7982H92.2725C92.3381 22.9038 92.5677 22.1371 92.9613 21.4024C93.355 20.6996 93.8799 20.0607 94.5359 19.5177C95.192 19.0066 95.9793 18.5913 96.8979 18.3038C97.8164 18.0802 98.8333 17.9525 99.9159 17.9525ZM111.168 13.9275H115.071V18.4636H118.614V21.2107H115.071V30.5703C115.071 31.4647 115.235 32.0078 115.498 32.3272C115.793 32.6147 116.351 32.7425 117.171 32.7425H118.581V35.6494H115.695C114.743 35.6494 113.989 35.5855 113.398 35.4577C112.808 35.298 112.349 35.0744 112.021 34.7549C111.693 34.4035 111.463 33.9563 111.332 33.3494C111.233 32.7744 111.135 32.0397 111.135 31.1772V21.2427H108.511V18.4955H111.135V13.9275H111.168Z" fill="white"/>
<path d="M159.783 21.1148C162.079 21.1148 164.146 22.744 164.244 25.3953H155.125C155.453 22.169 157.946 21.1148 159.783 21.1148ZM173.922 15.0455C175.365 15.0455 176.513 15.8441 176.513 17.4094C176.513 18.8468 175.627 20.2524 173.659 21.1148L173.626 21.0829C172.445 19.869 171.33 18.4635 171.33 17.1538C171.33 15.8441 172.544 15.0455 173.922 15.0455ZM181.959 29.8994C183.238 27.7272 183.992 25.2995 184.255 22.9356H180.351C180.253 24.4051 179.958 25.9064 179.433 27.2161C178.908 28.5258 178.252 29.6758 177.399 30.6341C176.119 32.0716 174.479 32.998 172.642 32.998C170.444 32.998 168.935 32.0716 168.345 30.5702H164.146C163.457 32.1355 161.85 32.966 159.849 32.966C157.618 32.966 155.354 31.4008 155.092 28.2383H168.148C168.476 26.6731 169.755 25.4912 171.822 24.7564C171.822 24.7564 173.725 24.0856 175.627 23.287C178.219 22.1051 180.187 20.0288 180.187 17.3455C180.187 13.5761 176.874 12.2664 173.856 12.2664C170.051 12.2664 167.262 14.183 167.262 17.2816C167.262 19.1024 168.279 20.7954 169.755 22.5204C168.968 22.8079 168.214 23.1593 167.525 23.5745C166.311 20.3163 163.555 18.2399 159.75 18.2399C154.764 18.2399 151.155 21.8815 151.155 27.0245C151.155 32.1674 154.37 36.0965 160.013 36.0965C162.604 36.0965 164.572 35.1702 165.917 33.8924C167.295 35.266 169.362 36.0965 171.921 36.0965C175.037 36.0965 177.596 34.8827 179.564 32.998L182.057 35.6493H187.371L181.959 29.8994ZM140.822 15.6524C140.822 16.0038 140.855 16.3233 140.953 16.5788C141.052 16.8663 141.15 17.058 141.281 17.2496C141.445 17.4413 141.609 17.5691 141.806 17.633C142.003 17.7288 142.233 17.7607 142.462 17.7607C142.954 17.7607 143.315 17.5691 143.61 17.1858C143.873 16.8024 144.037 16.2913 144.037 15.6524C144.037 15.0136 143.906 14.5025 143.61 14.1191C143.348 13.7358 142.954 13.5442 142.462 13.5442C142.233 13.5442 142.036 13.5761 141.806 13.6719C141.609 13.7678 141.413 13.8955 141.281 14.0553C141.117 14.215 141.019 14.4386 140.953 14.7261C140.855 15.0136 140.822 15.3011 140.822 15.6524ZM140.888 10.4775V13.4483C141.084 13.1289 141.314 12.9053 141.642 12.7456C141.97 12.5858 142.331 12.49 142.757 12.49C143.151 12.49 143.479 12.5539 143.84 12.7136C144.168 12.8733 144.463 13.065 144.693 13.3525C144.923 13.64 145.119 13.9914 145.251 14.3747C145.382 14.758 145.447 15.2052 145.447 15.6844C145.447 16.1955 145.382 16.6108 145.251 17.026C145.119 17.4094 144.923 17.7607 144.693 18.0482C144.463 18.3357 144.168 18.5593 143.84 18.6871C143.512 18.8468 143.151 18.9107 142.757 18.9107C142.331 18.9107 141.97 18.8149 141.642 18.6552C141.314 18.4955 141.084 18.2399 140.888 17.9524V18.751H139.477V10.4775H140.888ZM145.972 20.6996H146.661C146.989 20.6996 147.317 20.6676 147.547 20.6037C147.777 20.5399 147.973 20.444 148.17 20.2843C148.334 20.1246 148.498 19.9329 148.629 19.6774C148.793 19.4218 148.925 19.1024 149.056 18.7191L151.254 12.6178H149.81L148.367 16.9941L146.924 12.6178H145.382L147.678 18.7191L147.613 18.8788C147.547 19.0704 147.481 19.2302 147.416 19.326C147.35 19.4218 147.252 19.5177 147.186 19.5815C147.088 19.6454 146.989 19.6774 146.891 19.6774C146.792 19.7093 146.661 19.7093 146.497 19.7093H145.972V20.6996Z" fill="white"/>
</svg>
