<svg width="146" height="36" viewBox="0 0 146 36" fill="none" xmlns="http://www.w3.org/2000/svg">
<g clip-path="url(#clip0_380_262)">
<path d="M137.691 35.9064H9.67268C5.067 35.9064 1.35352 32.2714 1.35352 27.8157V8.37447C1.35352 3.89526 5.09111 0.283752 9.67268 0.283752H137.715C142.321 0.283752 146.035 3.91871 146.035 8.37447V27.8157C146.035 32.2949 142.297 35.9064 137.691 35.9064Z" fill="#FF3235"/>
<path d="M89.0062 35.9062H9.67268C5.09111 35.9062 1.35352 32.2712 1.35352 27.8155V8.35085C1.35352 3.89509 5.09111 0.260132 9.67268 0.260132H89.0303C93.6118 0.260132 97.3494 3.89509 97.3494 8.35085V27.792C97.3253 32.2712 93.5877 35.9062 89.0062 35.9062Z" fill="#2D2D2D"/>
<path d="M118.327 15.7615C120.015 15.7615 121.534 16.9575 121.607 18.904H114.903C115.144 16.5354 116.977 15.7615 118.327 15.7615ZM128.72 11.3058C129.781 11.3058 130.625 11.8921 130.625 13.0412C130.625 14.0965 129.974 15.1283 128.527 15.7615L128.503 15.7381C127.635 14.8469 126.815 13.8151 126.815 12.8536C126.815 11.8921 127.707 11.3058 128.72 11.3058ZM134.628 22.2107C135.568 20.616 136.123 18.8337 136.316 17.0983H133.446C133.374 18.177 133.157 19.2792 132.771 20.2407C132.385 21.2022 131.903 22.0465 131.276 22.75C130.336 23.8053 129.13 24.4854 127.78 24.4854C126.164 24.4854 125.055 23.8053 124.621 22.7031H121.534C121.028 23.8522 119.846 24.462 118.375 24.462C116.736 24.462 115.072 23.3129 114.879 20.9912H124.476C124.717 19.8421 125.658 18.9744 127.177 18.435C127.177 18.435 128.575 17.9425 129.974 17.3562C131.879 16.4885 133.326 14.9642 133.326 12.9943C133.326 10.227 130.89 9.2655 128.672 9.2655C125.875 9.2655 123.825 10.6726 123.825 12.9474C123.825 14.2841 124.573 15.527 125.658 16.7934C125.079 17.0045 124.524 17.2624 124.018 17.5673C123.126 15.1752 121.1 13.6509 118.303 13.6509C114.638 13.6509 111.985 16.3244 111.985 20.1C111.985 23.8757 114.348 26.7602 118.496 26.7602C120.401 26.7602 121.848 26.0801 122.836 25.1421C123.849 26.1505 125.368 26.7602 127.249 26.7602C129.54 26.7602 131.421 25.8691 132.868 24.4854L134.7 26.4319H138.607L134.628 22.2107Z" fill="black"/>
<path d="M17.0983 15.7146C16.6884 15.7146 16.3026 15.7849 15.9168 15.9022C15.5309 16.0195 15.1692 16.2071 14.8558 16.4885C14.5423 16.7465 14.277 17.0748 14.06 17.4734C13.843 17.8721 13.7465 18.3411 13.7224 18.8805H20.3295C20.3054 18.388 20.209 17.9425 20.0402 17.5673C19.8714 17.1686 19.6302 16.8403 19.3409 16.5588C19.0515 16.2774 18.7139 16.0898 18.3281 15.9491C17.9423 15.7849 17.5324 15.7146 17.0983 15.7146ZM17.2912 26.7367C16.2302 26.7367 15.2898 26.5726 14.4699 26.1974C13.6501 25.8221 12.9749 25.3531 12.4444 24.7434C11.9139 24.1336 11.504 23.4301 11.2146 22.6093C10.9253 21.8119 10.8047 20.9442 10.8047 20.0296C10.8047 19.0681 10.9494 18.2004 11.2628 17.4031C11.5763 16.6057 11.9863 15.9257 12.5409 15.3628C13.0714 14.7765 13.7465 14.331 14.5182 14.0026C15.2898 13.6743 16.1579 13.5102 17.0983 13.5102C18.1111 13.5102 19.0033 13.6978 19.799 14.073C20.5948 14.4482 21.2458 14.9641 21.7763 15.6208C22.3068 16.2774 22.7168 17.0513 22.9579 17.9425C23.2231 18.8571 23.2955 19.8186 23.2473 20.8739H13.7224C13.7465 21.3664 13.843 21.8354 14.0359 22.2575C14.2047 22.6796 14.4699 23.0549 14.7593 23.3832C15.0728 23.6881 15.4345 23.946 15.8203 24.1102C16.2302 24.2743 16.6884 24.3681 17.1465 24.3681C18.6898 24.3681 19.7267 23.7819 20.2572 22.6093H23.0785C22.9338 23.1018 22.6927 23.6177 22.4033 24.0867C22.0898 24.5792 21.704 25.0248 21.2458 25.4C20.7636 25.7752 20.209 26.0801 19.5338 26.3381C18.8827 26.596 18.1352 26.7367 17.2912 26.7367ZM25.3693 10.4849H28.2388V13.815H30.843V15.8318H28.2388V22.7031C28.2388 23.3597 28.3593 23.7584 28.5522 23.9929C28.7693 24.204 29.1792 24.2978 29.782 24.2978H30.8189V26.4319H28.6969C27.9976 26.4319 27.443 26.385 27.009 26.2912C26.5749 26.1739 26.2373 26.0097 25.9962 25.7752C25.7551 25.5173 25.5863 25.1889 25.4898 24.7434C25.4175 24.3212 25.3451 23.7819 25.3451 23.1487V15.8553H23.4161V13.8385H25.3451V10.4849H25.3693ZM35.3523 26.4084H32.4827V13.7916H35.3523V26.4084ZM35.3523 12.2438H32.4827V9.42963H35.3523V12.2438ZM45.5764 17.3562C45.4317 16.7699 45.0941 16.3243 44.5636 16.0664C44.0331 15.7849 43.3579 15.6677 42.5381 15.6677C41.8629 15.6677 41.3083 15.7849 40.826 16.0429C40.3437 16.2774 40.1267 16.6292 40.1267 17.0513C40.1267 17.8252 40.7537 18.3411 42.0076 18.5991L43.7679 18.9509C44.3948 19.0916 45.0218 19.2557 45.5764 19.4434C46.1551 19.6075 46.6374 19.842 47.0714 20.1234C47.4814 20.4049 47.8189 20.7566 48.0601 21.1553C48.3012 21.5774 48.4218 22.0934 48.4218 22.7031C48.4218 23.3597 48.2771 23.946 47.9877 24.4619C47.6984 24.9779 47.2884 25.4 46.7821 25.7283C46.2757 26.0566 45.697 26.3146 45.0218 26.5022C44.3466 26.6664 43.6473 26.7602 42.8757 26.7602C42.0317 26.7602 41.2842 26.6429 40.609 26.4319C39.9338 26.2208 39.331 25.9159 38.8487 25.5407C38.3664 25.1655 37.9565 24.7199 37.6672 24.204C37.3778 23.6881 37.1849 23.1252 37.1367 22.5155H39.9338C40.0544 23.1956 40.3679 23.7115 40.8742 24.0867C41.3806 24.462 42.0799 24.6496 42.9962 24.6496C43.792 24.6496 44.443 24.5089 44.9253 24.2274C45.4076 23.946 45.6487 23.5473 45.6487 23.0314C45.6487 22.5155 45.4317 22.1637 45.0218 21.8823C44.5877 21.6009 44.0331 21.4133 43.3338 21.2726L41.3806 20.8739C40.8019 20.7566 40.2955 20.6159 39.8133 20.4518C39.331 20.2642 38.9211 20.0296 38.5593 19.7482C38.2218 19.4668 37.9324 19.0916 37.7395 18.6929C37.5225 18.2708 37.426 17.7783 37.426 17.2155C37.426 16.6526 37.5707 16.1602 37.8359 15.7146C38.1253 15.269 38.5111 14.8938 38.9934 14.5889C39.4757 14.2841 40.0303 14.0261 40.6813 13.8619C41.3083 13.6978 42.0076 13.604 42.731 13.604C43.4062 13.604 44.0572 13.6743 44.6601 13.8385C45.2629 14.0026 45.8175 14.2372 46.2998 14.5655C46.7821 14.8938 47.192 15.269 47.5537 15.7615C47.8913 16.2305 48.1324 16.7934 48.253 17.4265L45.5764 17.3562ZM58.3565 20.4987C57.3197 20.5925 56.4516 20.7097 55.7282 20.827C55.0048 20.9442 54.4019 21.1084 53.9438 21.296C53.4615 21.4836 53.148 21.6947 52.9069 21.9761C52.6899 22.2341 52.5934 22.5389 52.5934 22.9142C52.5934 23.477 52.8104 23.8757 53.2445 24.204C53.6785 24.5089 54.2572 24.673 54.9807 24.673C56.0416 24.673 56.8615 24.3916 57.4643 23.8288C58.0672 23.2659 58.3565 22.3044 58.3565 20.9911V20.4987ZM55.6076 13.4398C56.4034 13.4398 57.1509 13.5336 57.8502 13.7212C58.5253 13.9088 59.1282 14.2137 59.6346 14.6358C60.1409 15.058 60.5027 15.5973 60.792 16.3009C61.0573 16.981 61.1778 17.8487 61.1778 18.8336C61.1778 18.9978 61.1778 19.2088 61.1537 19.4434C61.1296 19.7013 61.1296 19.9827 61.1296 20.2876C61.1296 20.5925 61.1296 20.8973 61.1055 21.2257C61.0814 21.554 61.0814 21.8354 61.0814 22.1403C61.0814 22.9376 61.1055 23.7115 61.1778 24.5089C61.2502 25.2827 61.3466 25.9394 61.4672 26.4553H58.8388C58.7906 26.1739 58.7424 25.9394 58.6941 25.6814C58.6459 25.4235 58.6218 25.0951 58.5736 24.6496C58.1636 25.3531 57.609 25.869 56.8615 26.2208C56.1381 26.5726 55.27 26.7367 54.3055 26.7367C53.6062 26.7367 52.9551 26.6429 52.3764 26.4553C51.7977 26.2912 51.2913 26.0332 50.8572 25.6814C50.4232 25.3531 50.1097 24.9544 49.8686 24.4854C49.6275 24.0164 49.531 23.5004 49.531 22.9142C49.531 22.1403 49.7721 21.4836 50.2303 20.9677C50.7126 20.4518 51.3154 20.0296 52.1111 19.7013C52.9069 19.373 53.8232 19.115 54.8842 18.9509C55.9452 18.7867 57.0544 18.6226 58.2601 18.5053V18.2004C58.2601 17.6845 58.1878 17.2389 58.0431 16.8872C57.8984 16.5354 57.7055 16.254 57.4402 16.0429C57.1991 15.8318 56.9097 15.6677 56.5721 15.5973C56.2346 15.527 55.8729 15.4566 55.4629 15.4566C54.7154 15.4566 54.1126 15.6442 53.6062 16.0195C53.0998 16.3947 52.8346 16.9575 52.8104 17.7314H49.9892C50.0374 17.0748 50.2062 16.5119 50.4955 15.9726C50.7849 15.4566 51.1707 14.9876 51.653 14.5889C52.1353 14.2137 52.714 13.9088 53.3892 13.6978C54.0643 13.5336 54.8119 13.4398 55.6076 13.4398ZM66.4105 26.4084H63.541V9.42963H66.4105V26.4084ZM77.0686 20.4987C76.0318 20.5925 75.1637 20.7097 74.4403 20.827C73.7169 20.9442 73.114 21.1084 72.6559 21.296C72.1736 21.4836 71.8601 21.6947 71.619 21.9761C71.402 22.2341 71.3055 22.5389 71.3055 22.9142C71.3055 23.477 71.5225 23.8757 71.9566 24.204C72.3906 24.5089 72.9693 24.673 73.6927 24.673C74.7537 24.673 75.5736 24.3916 76.1764 23.8288C76.7793 23.2659 77.0686 22.3044 77.0686 20.9911V20.4987ZM74.3438 13.4398C75.1396 13.4398 75.8871 13.5336 76.5864 13.7212C77.2615 13.9088 77.8644 14.2137 78.3708 14.6358C78.8772 15.058 79.2389 15.5973 79.5282 16.3009C79.7935 16.981 79.914 17.8487 79.914 18.8336C79.914 18.9978 79.914 19.2088 79.8899 19.4434C79.8658 19.7013 79.8658 19.9827 79.8658 20.2876C79.8658 20.5925 79.8658 20.8973 79.8417 21.2257C79.8176 21.554 79.8176 21.8354 79.8176 22.1403C79.8176 22.9376 79.8417 23.7115 79.914 24.5089C79.9864 25.2827 80.0828 25.9394 80.2034 26.4553H77.575C77.5268 26.1739 77.4786 25.9394 77.4303 25.6814C77.3821 25.4235 77.358 25.0951 77.3098 24.6496C76.8998 25.3531 76.3452 25.869 75.5977 26.2208C74.8743 26.5726 74.0062 26.7367 73.0417 26.7367C72.3424 26.7367 71.6913 26.6429 71.1126 26.4553C70.5339 26.2912 70.0275 26.0332 69.5934 25.6814C69.1594 25.3531 68.8459 24.9544 68.6048 24.4854C68.3637 24.0164 68.2672 23.5004 68.2672 22.9142C68.2672 22.1403 68.5083 21.4836 68.9665 20.9677C69.4488 20.4518 70.0516 20.0296 70.8474 19.7013C71.6431 19.373 72.5594 19.115 73.6204 18.9509C74.6814 18.7867 75.7906 18.6226 76.9963 18.5053V18.2004C76.9963 17.6845 76.924 17.2389 76.7793 16.8872C76.6346 16.5354 76.4417 16.254 76.1764 16.0429C75.9353 15.8318 75.6459 15.6677 75.3083 15.5973C74.9708 15.527 74.6091 15.4566 74.1991 15.4566C73.4757 15.4566 72.8488 15.6442 72.3424 16.0195C71.836 16.3947 71.5708 16.9575 71.5466 17.7314H68.7254C68.7736 17.0748 68.9424 16.5119 69.2317 15.9726C69.5211 15.4566 69.9069 14.9876 70.3892 14.5889C70.8715 14.2137 71.4502 13.9088 72.1254 13.6978C72.8005 13.5336 73.5481 13.4398 74.3438 13.4398ZM82.6147 10.4849H85.4843V13.815H88.0885V15.8318H85.4843V22.7031C85.4843 23.3597 85.6048 23.7584 85.7977 23.9929C86.0148 24.204 86.4247 24.2978 87.0275 24.2978H88.0644V26.4319H85.9424C85.2431 26.4319 84.6885 26.385 84.2545 26.2912C83.8204 26.1739 83.4828 26.0097 83.2417 25.7752C83.0006 25.5173 82.8318 25.1889 82.7353 24.7434C82.663 24.3212 82.5906 23.7819 82.5906 23.1487V15.8553H80.6616V13.8385H82.5906V10.4849H82.6147Z" fill="white"/>
<path d="M118.35 15.7615C120.038 15.7615 121.557 16.9575 121.63 18.9039H114.926C115.167 16.5353 117 15.7615 118.35 15.7615ZM128.743 11.3057C129.804 11.3057 130.648 11.892 130.648 13.0411C130.648 14.0964 129.997 15.1283 128.55 15.7615L128.526 15.738C127.658 14.8468 126.838 13.815 126.838 12.8535C126.838 11.892 127.73 11.3057 128.743 11.3057ZM134.651 22.2106C135.591 20.6159 136.146 18.8336 136.339 17.0982H133.469C133.397 18.1769 133.18 19.2792 132.794 20.2407C132.408 21.2022 131.926 22.0464 131.299 22.75C130.359 23.8053 129.153 24.4854 127.803 24.4854C126.187 24.4854 125.078 23.8053 124.644 22.7031H121.557C121.051 23.8522 119.869 24.4619 118.398 24.4619C116.759 24.4619 115.095 23.3128 114.902 20.9911H124.499C124.74 19.842 125.681 18.9743 127.2 18.4349C127.2 18.4349 128.598 17.9424 129.997 17.3561C131.902 16.4884 133.349 14.9641 133.349 12.9942C133.349 10.2269 130.913 9.26543 128.695 9.26543C125.898 9.26543 123.848 10.6725 123.848 12.9473C123.848 14.284 124.595 15.5269 125.681 16.7933C125.102 17.0044 124.547 17.2623 124.041 17.5672C123.149 15.1752 121.123 13.6508 118.326 13.6508C114.661 13.6508 112.008 16.3243 112.008 20.1C112.008 23.8756 114.371 26.7601 118.519 26.7601C120.424 26.7601 121.871 26.0801 122.859 25.142C123.872 26.1504 125.391 26.7601 127.272 26.7601C129.563 26.7601 131.444 25.869 132.891 24.4854L134.723 26.4318H138.63L134.651 22.2106ZM104.412 11.7513C104.412 12.0092 104.437 12.2437 104.509 12.4314C104.581 12.6424 104.654 12.7831 104.75 12.9238C104.871 13.0645 104.991 13.1584 105.136 13.2053C105.281 13.2756 105.449 13.2991 105.618 13.2991C105.98 13.2991 106.245 13.1584 106.462 12.8769C106.655 12.5955 106.776 12.2203 106.776 11.7513C106.776 11.2822 106.679 10.907 106.462 10.6256C106.269 10.3442 105.98 10.2035 105.618 10.2035C105.449 10.2035 105.305 10.2269 105.136 10.2973C104.991 10.3676 104.847 10.4614 104.75 10.5787C104.63 10.696 104.557 10.8601 104.509 11.0712C104.437 11.2822 104.412 11.4933 104.412 11.7513ZM104.461 7.95215V10.1331C104.605 9.89861 104.774 9.73445 105.015 9.6172C105.256 9.49994 105.522 9.42958 105.835 9.42958C106.125 9.42958 106.366 9.47649 106.631 9.59374C106.872 9.711 107.089 9.85171 107.258 10.0628C107.427 10.2738 107.571 10.5318 107.668 10.8132C107.764 11.0946 107.812 11.4229 107.812 11.7747C107.812 12.1499 107.764 12.4548 107.668 12.7597C107.571 13.0411 107.427 13.2991 107.258 13.5101C107.089 13.7212 106.872 13.8853 106.631 13.9791C106.39 14.0964 106.125 14.1433 105.835 14.1433C105.522 14.1433 105.256 14.073 105.015 13.9557C104.774 13.8384 104.605 13.6508 104.461 13.4398V14.0261H103.424V7.95215H104.461ZM108.198 15.4566H108.705C108.946 15.4566 109.187 15.4331 109.356 15.3862C109.525 15.3393 109.669 15.269 109.814 15.1517C109.934 15.0345 110.055 14.8938 110.152 14.7061C110.272 14.5185 110.369 14.284 110.465 14.0026L112.081 9.52339H111.02L109.959 12.7362L108.898 9.52339H107.764L109.452 14.0026L109.404 14.1199C109.356 14.2606 109.308 14.3778 109.259 14.4482C109.211 14.5185 109.139 14.5889 109.091 14.6358C109.018 14.6827 108.946 14.7061 108.873 14.7061C108.801 14.7296 108.705 14.7296 108.584 14.7296H108.198V15.4566Z" fill="white"/>
</g>
<defs>
<clipPath id="clip0_380_262">
<rect width="144.681" height="35.6461" fill="white" transform="translate(0.899414 0.260132)"/>
</clipPath>
</defs>
</svg>
