<svg width="153" height="96" viewBox="0 0 153 96" fill="none" xmlns="http://www.w3.org/2000/svg">
<rect x="0.982866" y="0.599138" width="151.452" height="94.4522" rx="12.8725" fill="#F7F7F7"/>
<rect x="0.982866" y="0.599138" width="151.452" height="94.4522" rx="12.8725" stroke="#D1D1D1" stroke-width="0.547764"/>
<g clip-path="url(#clip0_380_261)">
<path d="M117.426 59.0853H36.5487C33.639 59.0853 31.293 56.7888 31.293 53.9738V41.6916C31.293 38.8618 33.6542 36.5802 36.5487 36.5802H117.441C120.351 36.5802 122.697 38.8766 122.697 41.6916V53.9738C122.697 56.8036 120.336 59.0853 117.426 59.0853Z" fill="#FF3235"/>
<path d="M86.6687 59.0852H36.5487C33.6542 59.0852 31.293 56.7887 31.293 53.9738V41.6767C31.293 38.8617 33.6542 36.5653 36.5487 36.5653H86.6839C89.5784 36.5653 91.9397 38.8617 91.9397 41.6767V53.959C91.9244 56.7888 89.5631 59.0852 86.6687 59.0852Z" fill="#2D2D2D"/>
<path d="M105.193 46.3585C106.259 46.3585 107.219 47.1141 107.265 48.3438H103.03C103.182 46.8474 104.34 46.3585 105.193 46.3585ZM111.759 43.5435C112.429 43.5435 112.962 43.9139 112.962 44.6399C112.962 45.3066 112.551 45.9585 111.637 46.3585L111.622 46.3437C111.073 45.7807 110.555 45.1288 110.555 44.5214C110.555 43.9139 111.119 43.5435 111.759 43.5435ZM115.491 50.4328C116.085 49.4254 116.436 48.2994 116.558 47.203H114.745C114.699 47.8845 114.562 48.5809 114.318 49.1883C114.075 49.7958 113.77 50.3291 113.374 50.7736C112.78 51.4403 112.018 51.87 111.165 51.87C110.144 51.87 109.443 51.4403 109.169 50.744H107.219C106.899 51.4699 106.153 51.8552 105.224 51.8552C104.188 51.8552 103.136 51.1292 103.015 49.6624H109.078C109.23 48.9365 109.824 48.3883 110.784 48.0475C110.784 48.0475 111.668 47.7364 112.551 47.366C113.755 46.8178 114.669 45.8548 114.669 44.6103C114.669 42.862 113.13 42.2546 111.728 42.2546C109.961 42.2546 108.666 43.1435 108.666 44.5806C108.666 45.4251 109.139 46.2104 109.824 47.0104C109.459 47.1438 109.108 47.3067 108.788 47.4993C108.225 45.9881 106.945 45.0251 105.178 45.0251C102.862 45.0251 101.187 46.7141 101.187 49.0994C101.187 51.4848 102.679 53.3071 105.3 53.3071C106.503 53.3071 107.417 52.8774 108.042 52.2848C108.682 52.9219 109.641 53.3071 110.83 53.3071C112.277 53.3071 113.465 52.7441 114.379 51.87L115.537 53.0997H118.005L115.491 50.4328Z" fill="black"/>
<path d="M41.2398 46.3289C40.9808 46.3289 40.737 46.3733 40.4933 46.4474C40.2495 46.5215 40.021 46.64 39.823 46.8178C39.6249 46.9807 39.4574 47.1882 39.3203 47.44C39.1832 47.6919 39.1222 47.9882 39.107 48.329H43.2811C43.2659 48.0178 43.2049 47.7363 43.0983 47.4993C42.9917 47.2474 42.8393 47.04 42.6565 46.8622C42.4737 46.6844 42.2604 46.5659 42.0167 46.477C41.7729 46.3733 41.514 46.3289 41.2398 46.3289ZM41.3616 53.2922C40.6913 53.2922 40.0972 53.1885 39.5792 52.9515C39.0613 52.7144 38.6347 52.4181 38.2996 52.0329C37.9644 51.6477 37.7055 51.2032 37.5227 50.6847C37.3398 50.1809 37.2637 49.6328 37.2637 49.0549C37.2637 48.4475 37.3551 47.8993 37.5531 47.3956C37.7512 46.8919 38.0101 46.4622 38.3605 46.1066C38.6957 45.7362 39.1222 45.4547 39.6097 45.2473C40.0972 45.0399 40.6456 44.9362 41.2398 44.9362C41.8796 44.9362 42.4432 45.0547 42.946 45.2918C43.4487 45.5288 43.86 45.8548 44.1952 46.2696C44.5303 46.6844 44.7893 47.1734 44.9416 47.7363C45.1092 48.3142 45.1549 48.9216 45.1244 49.5883H39.107C39.1222 49.8994 39.1832 50.1958 39.305 50.4624C39.4117 50.7291 39.5792 50.9662 39.7621 51.1736C39.9601 51.3662 40.1886 51.5292 40.4324 51.6329C40.6913 51.7366 40.9808 51.7959 41.2702 51.7959C42.2452 51.7959 42.9003 51.4255 43.2354 50.6847H45.0178C44.9264 50.9958 44.7741 51.3217 44.5912 51.6181C44.3932 51.9292 44.1495 52.2107 43.86 52.4477C43.5553 52.6848 43.2049 52.8774 42.7784 53.0404C42.3671 53.2033 41.8948 53.2922 41.3616 53.2922ZM46.465 43.025H48.2779V45.1288H49.9232V46.4029H48.2779V50.7439C48.2779 51.1588 48.3541 51.4106 48.4759 51.5588C48.613 51.6921 48.872 51.7514 49.2529 51.7514H49.9079V53.0996H48.5673C48.1255 53.0996 47.7752 53.07 47.5009 53.0107C47.2267 52.9367 47.0135 52.833 46.8611 52.6848C46.7088 52.5218 46.6021 52.3144 46.5412 52.0329C46.4955 51.7662 46.4498 51.4255 46.4498 51.0254V46.4178H45.2311V45.1436H46.4498V43.025H46.465ZM52.7719 53.0848H50.9591V45.114H52.7719V53.0848ZM52.7719 44.1361H50.9591V42.3582H52.7719V44.1361ZM59.2311 47.366C59.1397 46.9956 58.9265 46.7141 58.5913 46.5511C58.2562 46.3733 57.8296 46.2992 57.3117 46.2992C56.8851 46.2992 56.5347 46.3733 56.23 46.5363C55.9254 46.6844 55.7883 46.9067 55.7883 47.1734C55.7883 47.6623 56.1843 47.9882 56.9765 48.1512L58.0886 48.3734C58.4847 48.4623 58.8808 48.566 59.2311 48.6846C59.5968 48.7883 59.9014 48.9364 60.1757 49.1142C60.4346 49.292 60.6479 49.5142 60.8003 49.7661C60.9526 50.0328 61.0288 50.3587 61.0288 50.7439C61.0288 51.1588 60.9374 51.5292 60.7546 51.8551C60.5717 52.1811 60.3128 52.4477 59.9929 52.6552C59.6729 52.8626 59.3073 53.0256 58.8808 53.1441C58.4542 53.2478 58.0124 53.3071 57.5249 53.3071C56.9917 53.3071 56.5195 53.233 56.0929 53.0996C55.6664 52.9663 55.2855 52.7737 54.9809 52.5366C54.6762 52.2996 54.4172 52.0181 54.2344 51.6921C54.0516 51.3662 53.9297 51.0106 53.8992 50.6254H55.6664C55.7426 51.0551 55.9406 51.381 56.2605 51.6181C56.5804 51.8551 57.0222 51.9736 57.6011 51.9736C58.1038 51.9736 58.5152 51.8847 58.8198 51.707C59.1245 51.5292 59.2769 51.2773 59.2769 50.9514C59.2769 50.6254 59.1397 50.4032 58.8808 50.2254C58.6066 50.0476 58.2562 49.9291 57.8144 49.8402L56.5804 49.5883C56.2148 49.5142 55.8949 49.4253 55.5902 49.3216C55.2855 49.2031 55.0266 49.0549 54.798 48.8772C54.5848 48.6994 54.402 48.4623 54.2801 48.2105C54.143 47.9438 54.082 47.6326 54.082 47.2771C54.082 46.9215 54.1735 46.6104 54.341 46.3289C54.5238 46.0474 54.7676 45.8103 55.0723 45.6177C55.3769 45.4251 55.7273 45.2621 56.1386 45.1584C56.5347 45.0547 56.9765 44.9954 57.4335 44.9954C57.8601 44.9954 58.2714 45.0399 58.6523 45.1436C59.0331 45.2473 59.3835 45.3955 59.6882 45.6029C59.9929 45.8103 60.2518 46.0474 60.4803 46.3585C60.6936 46.6548 60.846 47.0104 60.9221 47.4104L59.2311 47.366ZM67.3052 49.3513C66.6501 49.4105 66.1017 49.4846 65.6447 49.5587C65.1877 49.6328 64.8068 49.7365 64.5174 49.855C64.2127 49.9735 64.0146 50.1069 63.8623 50.2847C63.7252 50.4476 63.6643 50.6402 63.6643 50.8773C63.6643 51.2329 63.8014 51.4847 64.0756 51.6921C64.3498 51.8847 64.7154 51.9885 65.1724 51.9885C65.8427 51.9885 66.3607 51.8107 66.7415 51.4551C67.1224 51.0995 67.3052 50.4921 67.3052 49.6624V49.3513ZM65.5685 44.8917C66.0712 44.8917 66.5435 44.951 66.9853 45.0695C67.4118 45.188 67.7927 45.3807 68.1126 45.6473C68.4325 45.914 68.661 46.2548 68.8438 46.6992C69.0114 47.1289 69.0876 47.6771 69.0876 48.2993C69.0876 48.4031 69.0876 48.5364 69.0723 48.6846C69.0571 48.8475 69.0571 49.0253 69.0571 49.2179C69.0571 49.4105 69.0571 49.6031 69.0419 49.8105C69.0266 50.018 69.0266 50.1958 69.0266 50.3884C69.0266 50.8921 69.0419 51.381 69.0876 51.8847C69.1333 52.3737 69.1942 52.7885 69.2704 53.1145H67.6099C67.5794 52.9367 67.5489 52.7885 67.5185 52.6255C67.488 52.4626 67.4728 52.2551 67.4423 51.9736C67.1833 52.4181 66.8329 52.7441 66.3607 52.9663C65.9037 53.1885 65.3552 53.2922 64.7459 53.2922C64.3041 53.2922 63.8928 53.233 63.5271 53.1145C63.1615 53.0107 62.8416 52.8478 62.5674 52.6255C62.2932 52.4181 62.0951 52.1662 61.9428 51.8699C61.7905 51.5736 61.7295 51.2477 61.7295 50.8773C61.7295 50.3884 61.8819 49.9735 62.1713 49.6476C62.476 49.3216 62.8569 49.0549 63.3596 48.8475C63.8623 48.6401 64.4412 48.4771 65.1115 48.3734C65.7818 48.2697 66.4826 48.166 67.2443 48.0919V47.8993C67.2443 47.5734 67.1986 47.2919 67.1071 47.0696C67.0157 46.8474 66.8939 46.6696 66.7263 46.5363C66.574 46.4029 66.3911 46.2992 66.1779 46.2548C65.9646 46.2103 65.7361 46.1659 65.4771 46.1659C65.0049 46.1659 64.624 46.2844 64.3041 46.5215C63.9842 46.7585 63.8166 47.1141 63.8014 47.603H62.019C62.0494 47.1882 62.1561 46.8326 62.3389 46.4918C62.5217 46.1659 62.7654 45.8696 63.0701 45.6177C63.3748 45.3807 63.7404 45.188 64.167 45.0547C64.5935 44.951 65.0658 44.8917 65.5685 44.8917ZM72.3934 53.0848H70.5805V42.3582H72.3934V53.0848ZM79.1268 49.3513C78.4717 49.4105 77.9233 49.4846 77.4663 49.5587C77.0093 49.6328 76.6284 49.7365 76.339 49.855C76.0343 49.9735 75.8363 50.1069 75.6839 50.2847C75.5468 50.4476 75.4859 50.6402 75.4859 50.8773C75.4859 51.2329 75.623 51.4847 75.8972 51.6921C76.1714 51.8847 76.537 51.9885 76.994 51.9885C77.6643 51.9885 78.1823 51.8107 78.5631 51.4551C78.944 51.0995 79.1268 50.4921 79.1268 49.6624V49.3513ZM77.4054 44.8917C77.9081 44.8917 78.3803 44.951 78.8221 45.0695C79.2487 45.188 79.6295 45.3807 79.9494 45.6473C80.2694 45.914 80.4979 46.2548 80.6807 46.6992C80.8482 47.1289 80.9244 47.6771 80.9244 48.2993C80.9244 48.4031 80.9244 48.5364 80.9092 48.6846C80.8939 48.8475 80.8939 49.0253 80.8939 49.2179C80.8939 49.4105 80.8939 49.6031 80.8787 49.8105C80.8635 50.018 80.8635 50.1958 80.8635 50.3884C80.8635 50.8921 80.8787 51.381 80.9244 51.8847C80.9701 52.3737 81.0311 52.7885 81.1072 53.1145H79.4467C79.4162 52.9367 79.3858 52.7885 79.3553 52.6255C79.3248 52.4626 79.3096 52.2551 79.2791 51.9736C79.0202 52.4181 78.6698 52.7441 78.1975 52.9663C77.7405 53.1885 77.1921 53.2922 76.5827 53.2922C76.1409 53.2922 75.7296 53.233 75.364 53.1145C74.9984 53.0107 74.6785 52.8478 74.4043 52.6255C74.13 52.4181 73.932 52.1662 73.7797 51.8699C73.6273 51.5736 73.5664 51.2477 73.5664 50.8773C73.5664 50.3884 73.7187 49.9735 74.0082 49.6476C74.3128 49.3216 74.6937 49.0549 75.1964 48.8475C75.6991 48.6401 76.278 48.4771 76.9483 48.3734C77.6186 48.2697 78.3194 48.166 79.0811 48.0919V47.8993C79.0811 47.5734 79.0354 47.2919 78.944 47.0696C78.8526 46.8474 78.7307 46.6696 78.5631 46.5363C78.4108 46.4029 78.228 46.2992 78.0147 46.2548C77.8014 46.2103 77.5729 46.1659 77.3139 46.1659C76.8569 46.1659 76.4608 46.2844 76.1409 46.5215C75.821 46.7585 75.6534 47.1141 75.6382 47.603H73.8558C73.8863 47.1882 73.9929 46.8326 74.1757 46.4918C74.3585 46.1659 74.6023 45.8696 74.907 45.6177C75.2117 45.3807 75.5773 45.188 76.0038 45.0547C76.4304 44.951 76.9026 44.8917 77.4054 44.8917ZM82.6306 43.025H84.4435V45.1288H86.0888V46.4029H84.4435V50.7439C84.4435 51.1588 84.5196 51.4106 84.6415 51.5588C84.7786 51.6921 85.0376 51.7514 85.4185 51.7514H86.0735V53.0996H84.7329C84.2911 53.0996 83.9408 53.07 83.6665 53.0107C83.3923 52.9367 83.1791 52.833 83.0267 52.6848C82.8744 52.5218 82.7677 52.3144 82.7068 52.0329C82.6611 51.7662 82.6154 51.4255 82.6154 51.0254V46.4178H81.3967V45.1436H82.6154V43.025H82.6306Z" fill="white"/>
<path d="M105.207 46.3585C106.274 46.3585 107.233 47.1141 107.279 48.3438H103.044C103.196 46.8474 104.354 46.3585 105.207 46.3585ZM111.773 43.5435C112.443 43.5435 112.977 43.9139 112.977 44.6398C112.977 45.3066 112.565 45.9584 111.651 46.3585L111.636 46.3437C111.088 45.7807 110.57 45.1288 110.57 44.5213C110.57 43.9139 111.133 43.5435 111.773 43.5435ZM115.505 50.4328C116.1 49.4253 116.45 48.2993 116.572 47.203H114.759C114.713 47.8845 114.576 48.5808 114.332 49.1883C114.089 49.7957 113.784 50.3291 113.388 50.7735C112.794 51.4403 112.032 51.8699 111.179 51.8699C110.158 51.8699 109.458 51.4403 109.183 50.7439H107.233C106.913 51.4699 106.167 51.8551 105.238 51.8551C104.202 51.8551 103.151 51.1291 103.029 49.6624H109.092C109.244 48.9364 109.838 48.3882 110.798 48.0475C110.798 48.0475 111.682 47.7363 112.565 47.3659C113.769 46.8178 114.683 45.8547 114.683 44.6102C114.683 42.862 113.144 42.2545 111.743 42.2545C109.975 42.2545 108.681 43.1435 108.681 44.5806C108.681 45.4251 109.153 46.2103 109.838 47.0104C109.473 47.1437 109.122 47.3067 108.802 47.4993C108.239 45.9881 106.959 45.0251 105.192 45.0251C102.876 45.0251 101.201 46.714 101.201 49.0994C101.201 51.4847 102.694 53.307 105.314 53.307C106.517 53.307 107.431 52.8774 108.056 52.2847C108.696 52.9218 109.656 53.307 110.844 53.307C112.291 53.307 113.479 52.744 114.393 51.8699L115.551 53.0996H118.019L115.505 50.4328ZM96.4019 43.825C96.4019 43.988 96.4172 44.1361 96.4629 44.2546C96.5086 44.388 96.5543 44.4769 96.6152 44.5658C96.6914 44.6547 96.7676 44.7139 96.859 44.7436C96.9504 44.788 97.057 44.8028 97.1636 44.8028C97.3922 44.8028 97.5597 44.7139 97.6968 44.5361C97.8187 44.3583 97.8949 44.1213 97.8949 43.825C97.8949 43.5287 97.8339 43.2916 97.6968 43.1138C97.575 42.936 97.3922 42.8471 97.1636 42.8471C97.057 42.8471 96.9656 42.862 96.859 42.9064C96.7676 42.9509 96.6762 43.0101 96.6152 43.0842C96.539 43.1583 96.4933 43.262 96.4629 43.3953C96.4172 43.5287 96.4019 43.662 96.4019 43.825ZM96.4324 41.4248V42.8027C96.5238 42.6545 96.6305 42.5508 96.7828 42.4768C96.9351 42.4027 97.1027 42.3582 97.3007 42.3582C97.4836 42.3582 97.6359 42.3879 97.8035 42.4619C97.9558 42.536 98.0929 42.6249 98.1996 42.7582C98.3062 42.8916 98.3976 43.0546 98.4585 43.2324C98.5195 43.4101 98.5499 43.6176 98.5499 43.8398C98.5499 44.0768 98.5195 44.2695 98.4585 44.4621C98.3976 44.6398 98.3062 44.8028 98.1996 44.9362C98.0929 45.0695 97.9558 45.1732 97.8035 45.2325C97.6511 45.3066 97.4836 45.3362 97.3007 45.3362C97.1027 45.3362 96.9351 45.2917 96.7828 45.2177C96.6305 45.1436 96.5238 45.0251 96.4324 44.8917V45.2621H95.7773V41.4248H96.4324ZM98.7937 46.1659H99.1136C99.2659 46.1659 99.4183 46.151 99.5249 46.1214C99.6316 46.0918 99.723 46.0473 99.8144 45.9733C99.8905 45.8992 99.9667 45.8103 100.028 45.6918C100.104 45.5732 100.165 45.4251 100.226 45.2473L101.246 42.4175H100.576L99.9058 44.4472L99.2355 42.4175H98.5195L99.5859 45.2473L99.5554 45.3214C99.5249 45.4103 99.4944 45.4843 99.464 45.5288C99.4335 45.5732 99.3878 45.6177 99.3573 45.6473C99.3116 45.6769 99.2659 45.6918 99.2202 45.6918C99.1745 45.7066 99.1136 45.7066 99.0374 45.7066H98.7937V46.1659Z" fill="white"/>
</g>
<defs>
<clipPath id="clip0_380_261">
<rect width="91.4042" height="22.5199" fill="white" transform="translate(31.0068 36.5653)"/>
</clipPath>
</defs>
</svg>
