<svg width="111" height="27" viewBox="0 0 111 27" fill="none" xmlns="http://www.w3.org/2000/svg">
<path d="M5.19984 14.3004C4.40984 13.8604 3.61984 13.4104 2.81984 13.0004C2.34984 12.7604 2.13985 12.4104 2.13985 11.8804C2.14985 10.1004 2.15985 8.32035 2.13985 6.53035C2.12985 5.84035 2.49984 5.53035 3.06984 5.26035C5.87984 3.92035 8.68984 2.56035 11.4798 1.18035C11.7898 1.03035 12.1898 0.990352 12.3698 0.610352H13.1798C15.9898 2.23035 18.9098 3.63035 21.8298 5.04035C23.0698 5.64035 23.6798 6.32035 23.5298 7.77035C23.3898 9.16035 23.4798 10.5904 23.5098 12.0004C23.5198 12.6204 23.2998 13.0004 22.7398 13.2704C21.9598 13.6504 21.1998 14.0704 20.4298 14.4804C20.1398 15.1404 19.4098 15.1604 18.9198 15.5104C18.4898 15.7004 18.0698 15.9104 17.6598 16.1304C17.1198 16.3804 16.5798 16.6604 16.0498 16.9404C15.6298 17.1404 15.2098 17.3404 14.8098 17.5604C14.2398 17.8104 13.7198 18.1404 13.1298 18.3604C11.7598 18.2904 10.7198 17.4204 9.55983 16.8504C8.65983 16.4104 7.78985 15.9004 6.88985 15.4404C6.29985 15.1004 5.63984 14.8704 5.19984 14.3004Z" fill="#2E2E7E"/>
<path d="M13.1899 18.1505C13.6899 17.8405 14.1899 17.5405 14.7599 17.3805C15.7199 17.3405 16.3999 18.0305 17.2199 18.3505C17.6699 18.5205 18.0799 18.8805 18.6699 18.5305C17.8799 17.7205 16.5899 17.7305 15.9699 16.7605C16.4699 16.3905 17.0399 16.1305 17.6199 15.9105C18.6399 15.8505 19.3599 16.5705 20.2199 16.9205C20.7199 17.1205 21.1799 17.4305 21.7899 17.0305C21.0099 16.6505 20.2599 16.2905 19.5399 15.9005C19.2699 15.7505 18.8699 15.7105 18.8399 15.2805C19.3699 15.0205 19.8999 14.7505 20.4299 14.4905C21.6699 15.0905 22.8999 15.7105 24.1499 16.2905C24.7099 16.5505 24.8999 16.9405 24.9099 17.5605C24.9599 21.0505 24.9699 21.0505 21.8899 22.5705C19.1799 23.9105 16.4499 25.2105 13.7599 26.5905C12.9899 26.9805 12.3899 26.9005 11.5899 26.6305C9.56992 25.9505 8.68992 24.7705 9.05992 22.6005C9.22992 21.6105 8.02992 20.9305 7.08992 21.3605C6.90992 21.4405 6.72991 21.5405 6.54991 21.6305C4.68991 22.5505 2.85658 22.4739 1.04991 21.4005C0.639913 21.1505 0.409917 20.8605 0.429917 20.3505C0.459917 19.4105 0.469917 18.4605 0.429917 17.5205C0.399917 16.8805 0.679926 16.5305 1.21993 16.2705C2.54993 15.6305 3.86994 14.9705 5.19994 14.3105C5.77994 14.6205 6.36994 14.9305 6.94994 15.2405C6.67994 15.6905 6.72993 15.9505 7.25993 16.2305C9.82993 17.5405 12.4699 18.7205 15.0599 20.0105C15.3899 20.1805 15.7399 20.3205 16.1999 20.0105C15.7699 19.6005 15.2099 19.4705 14.7599 19.1805C14.2399 18.8405 13.5299 18.7805 13.1899 18.1605V18.1505Z" fill="#E76424"/>
<path d="M3.68955 7.64062C6.45955 9.05062 9.09956 10.3606 11.6996 11.7506C12.4996 12.1806 13.1296 12.2006 13.9396 11.7606C16.2396 10.5206 18.5995 9.37063 20.9295 8.19063C21.2195 8.04063 21.5195 7.91062 21.9295 7.71062C21.9295 9.07062 21.9195 10.2806 21.9295 11.4806C21.9295 11.9106 21.6695 12.0506 21.3595 12.2106C18.6895 13.5606 16.0195 14.9006 13.3695 16.2706C12.9595 16.4806 12.6596 16.4606 12.2596 16.2506C9.59956 14.8206 6.92955 13.4006 4.24955 12.0006C3.83955 11.7906 3.64955 11.5706 3.65955 11.0906C3.69955 10.0106 3.66956 8.94062 3.66956 7.64062H3.68955Z" fill="white"/>
<path d="M4.76953 6.17006C7.29953 4.94006 9.79953 3.72006 12.2995 2.50006C12.6095 2.35006 12.8895 2.27006 13.2395 2.45006C15.7695 3.76006 18.3096 5.04006 20.9796 6.40006C19.1196 7.34006 17.2495 8.06006 15.6295 9.16006C13.6495 10.5001 11.9695 10.4601 10.0295 9.13006C8.45954 8.06006 6.67953 7.30006 4.98953 6.40006C4.92953 6.37006 4.89953 6.30006 4.76953 6.17006Z" fill="white"/>
<path d="M13.1899 18.1505C14.3599 18.7305 15.5399 19.3005 16.7799 19.9105C16.1999 20.4705 15.6899 20.6505 14.9199 20.2505C12.2099 18.8505 9.45992 17.5305 6.72992 16.1705C6.52992 16.0705 6.26992 16.0505 6.16992 15.7905C6.32992 15.4505 6.7499 15.4805 6.9599 15.2305C8.6299 16.1005 10.3099 16.9705 11.9799 17.8405C12.3599 18.0405 12.7299 18.2805 13.1999 18.1505H13.1899Z" fill="#FDFDFC"/>
<path d="M18.8401 15.2705C19.9701 15.8205 21.0901 16.3705 22.2801 16.9605C21.6001 17.5605 21.0401 17.6705 20.3201 17.2405C19.4601 16.7305 18.5301 16.3505 17.6201 15.9105C18.0301 15.7005 18.4301 15.4805 18.8401 15.2705Z" fill="#FDFAF9"/>
<path d="M15.97 16.7607C17.06 17.3207 18.16 17.8807 19.27 18.4607C18.59 19.0807 17.98 19.1407 17.23 18.6807C16.44 18.1907 15.58 17.8107 14.75 17.3907C15.1 17.0907 15.52 16.8907 15.96 16.7707L15.97 16.7607Z" fill="#FDFBFA"/>
<path d="M13.4004 23.8304C13.2304 23.2504 13.6104 22.9604 14.1504 22.7004C16.8904 21.3604 19.6203 19.9804 22.3603 18.6504C22.6603 18.5104 23.1704 17.9504 23.3204 18.4404C23.4904 18.9704 23.7704 19.8004 23.0104 20.2504C22.3804 20.6304 21.6904 20.9204 21.0304 21.2504C18.8404 22.3404 16.6404 23.4304 14.4504 24.5204C13.7437 24.8738 13.3904 24.6438 13.3904 23.8304H13.4004Z" fill="white"/>
<path d="M13.7796 21.4008C13.1096 22.0308 12.5496 22.0608 11.8196 21.6808C8.92958 20.2008 6.00957 18.7808 3.05957 17.3208C3.65957 16.7508 4.20957 16.6108 4.96957 17.0008C7.85957 18.4808 10.7696 19.9008 13.7796 21.4008Z" fill="white"/>
<path d="M11.8895 24.1802C11.7695 24.3202 12.2494 24.9602 11.6294 24.8702C10.9894 24.7702 10.1894 24.5602 10.3994 23.5602C10.4594 23.2602 10.1594 22.6502 10.7194 22.7502C11.3394 22.8602 12.1994 23.0302 11.8994 24.1802H11.8895Z" fill="#FFF6F1"/>
<path d="M3.4604 19.7308C3.3304 19.9408 3.75041 20.4308 3.16041 20.4408C2.44041 20.4608 1.8904 19.8208 1.9304 19.0108C1.9404 18.7408 1.7004 18.2808 2.2404 18.2608C2.9504 18.2308 3.47041 18.8808 3.47041 19.7308H3.4604Z" fill="#FFF6F1"/>
<path d="M5.82019 20.3305C5.43019 20.6405 5.02017 20.8405 4.55017 20.9805C4.37017 20.5805 4.45017 20.2005 4.49017 19.7305C5.00017 19.8105 5.40019 20.0705 5.82019 20.3305Z" fill="#FFF8F3"/>
<path d="M106.95 16.5806C106.24 15.6906 106.29 15.1506 107.13 14.3906C108.26 13.3706 109.24 12.2006 110.41 10.9506C109.33 10.9506 108.49 11.0006 107.66 10.9406C106.96 10.8906 106.47 11.1206 106.01 11.6606C105.12 12.7106 104.15 13.6906 103 14.9206V7.79063C103 5.94063 103 5.99063 101.13 5.93063C100.25 5.90063 100.09 6.22063 100.1 7.02063C100.14 11.3006 100.12 15.5806 100.12 19.8606C100.12 21.6106 100.12 21.5506 101.87 21.6306C102.84 21.6806 103.13 21.3506 103.01 20.4506C102.85 19.2806 103.06 18.2506 104.27 17.6406C105.05 18.7706 105.84 19.9006 106.62 21.0306C106.81 21.3006 106.93 21.6206 107.36 21.6106C108.35 21.5906 109.34 21.6106 110.52 21.6106C109.25 19.8106 108.18 18.1506 106.95 16.6006V16.5806Z" fill="#2E2E7E"/>
<path d="M38.9704 6.26012C36.2404 6.29012 33.5204 6.29012 30.7904 6.26012C30.1704 6.26012 29.9904 6.42012 30.0004 7.05012C30.0404 9.31012 30.0104 11.5601 30.0104 13.8201C30.0104 15.6701 30.0104 17.5201 30.0104 19.3801C30.0104 21.6901 30.0104 21.6601 32.3004 21.6101C32.9104 21.6001 33.0304 21.3801 33.0204 20.8401C32.9904 19.3201 33.0204 17.8101 33.0004 16.2901C33.0004 15.7701 33.1404 15.5701 33.6804 15.5901C34.8204 15.6201 35.9704 15.6001 37.1104 15.6001C38.3837 15.6001 39.0037 14.9568 38.9704 13.6701C38.9704 13.6001 38.9704 13.5301 38.9704 13.4701C39.0104 13.0301 38.8204 12.8701 38.3804 12.8801C37.5704 12.9001 36.7604 12.9101 35.9604 12.8801C35.0004 12.8401 33.6504 13.3201 33.1704 12.6901C32.6804 12.0401 33.0404 10.7601 32.9804 9.76012C32.9504 9.20012 33.1704 9.09012 33.6804 9.10012C34.9904 9.13012 36.3004 9.10012 37.6204 9.10012C39.7404 9.10012 39.7204 9.10012 39.6904 7.00012C39.6904 6.45012 39.5604 6.25012 38.9704 6.26012Z" fill="#2E2E7E"/>
<path d="M54.0603 11.3107C51.7903 10.0707 48.9804 10.5807 47.3804 12.5207C45.6504 14.6207 45.6404 17.9307 47.3804 19.9907C49.7104 22.7607 54.3804 22.4707 56.0104 19.4407C56.1504 19.1807 56.4503 18.8007 56.2403 18.6207C55.7303 18.1907 55.0004 18.1807 54.3804 17.9407C53.8604 17.7407 53.8503 18.2007 53.6803 18.4407C53.0503 19.3007 52.1703 19.5507 51.1803 19.4007C50.2303 19.2607 49.5003 18.7607 49.1103 17.8307C48.8703 17.2707 48.8804 16.9607 49.6304 17.0007C50.6404 17.0507 51.6504 17.0107 52.6604 17.0107C53.7404 17.0107 54.8204 17.0107 55.8904 17.0107C56.2004 17.0107 56.4504 17.0307 56.5404 16.5907C56.9104 14.7507 55.7504 12.2207 54.0704 11.3107H54.0603ZM52.9704 15.0507C52.4404 15.0107 51.9003 15.0507 51.3603 15.0507C50.8203 15.0507 50.2803 15.0107 49.7503 15.0507C48.9803 15.1207 48.8703 14.8107 49.2103 14.2007C49.7003 13.3207 50.4803 12.9307 51.4603 12.9607C52.3503 12.9907 53.1003 13.3307 53.5003 14.1907C53.7403 14.7207 53.7404 15.1007 52.9704 15.0407V15.0507Z" fill="#2E2E7E"/>
<path d="M81.4706 10.6604C78.2906 10.6704 75.9606 13.0204 75.9406 16.2304C75.9206 19.4704 78.2906 21.8804 81.5106 21.8704C84.6806 21.8704 87.0206 19.5004 87.0406 16.2904C87.0606 13.0404 84.6906 10.6404 81.4806 10.6504L81.4706 10.6604ZM81.4506 19.2604C79.8506 19.2504 78.8106 18.0504 78.8106 16.2304C78.8106 14.4404 79.9006 13.2404 81.5106 13.2604C83.1106 13.2804 84.1606 14.4904 84.1406 16.2904C84.1306 18.1004 83.0706 19.2704 81.4406 19.2504L81.4506 19.2604Z" fill="#2E2E7E"/>
<path d="M97.0401 17.8105C96.9401 17.7805 96.8401 17.7705 96.7501 17.7205C96.2701 17.4705 95.9901 17.5605 95.7201 18.0805C95.3401 18.8105 94.6701 19.1805 93.8301 19.2305C92.4501 19.3105 91.3501 18.5605 91.0101 17.2905C90.5901 15.7505 91.1301 14.2005 92.3101 13.5905C93.4301 13.0105 94.9001 13.2405 95.4601 14.2505C95.8701 14.9805 96.2701 15.0705 96.9401 14.7505C97.2401 14.6105 97.5601 14.4705 97.8901 14.4205C98.5201 14.3205 98.4301 13.9805 98.2401 13.5605C97.7701 12.5105 97.0301 11.7105 95.9901 11.2005C93.9601 10.2005 91.3201 10.6005 89.6901 12.1405C88.0901 13.6505 87.5301 16.2705 88.3601 18.3905C89.2001 20.5305 91.2301 21.9005 93.5401 21.8905C95.1801 21.9005 96.5701 21.3505 97.6201 20.0705C98.7801 18.6605 98.7001 18.3805 97.0201 17.8305L97.0401 17.8105Z" fill="#2E2E7E"/>
<path d="M64.4406 15.511C65.2806 14.421 66.0706 13.291 66.8506 12.151C67.1006 11.791 67.5206 11.501 67.5006 10.941C66.7806 10.941 66.1006 10.991 65.4406 10.931C64.7106 10.861 64.2606 11.121 63.9006 11.761C63.4606 12.541 62.9206 13.261 62.3606 14.091C61.7306 13.171 61.1806 12.331 60.6106 11.511C60.4506 11.271 60.3506 10.951 59.9706 10.951C58.9906 10.951 58.0006 10.951 56.8506 10.951C58.0106 12.581 59.0106 14.041 60.0806 15.461C60.5106 16.021 60.5706 16.411 60.1006 17.021C59.0106 18.451 58.0106 19.951 56.9006 21.521C58.7806 21.711 60.4706 21.951 61.2706 19.821C61.4506 19.331 61.8506 18.921 62.2506 18.341C62.9006 19.291 63.4906 20.151 64.0806 21.001C64.2706 21.271 64.3906 21.611 64.8106 21.601C65.7606 21.601 66.7106 21.601 67.8406 21.601C66.6306 19.891 65.5706 18.341 64.4506 16.831C64.0906 16.341 64.0506 16.011 64.4406 15.521V15.511Z" fill="#2E2E7E"/>
<path d="M74.1502 19.1603C73.0802 19.1903 72.8002 18.8503 72.7902 17.7603C72.7802 16.5803 72.8202 15.4003 72.7702 14.2203C72.7502 13.6303 72.9602 13.5003 73.5102 13.5003C74.8902 13.5003 74.8902 13.4803 74.8902 12.1103C74.8902 11.9103 74.8802 11.7003 74.8902 11.5003C74.9302 11.0603 74.7302 10.9403 74.3002 10.9203C72.7702 10.8203 72.7702 10.8103 72.7702 9.21027C72.7702 8.87027 72.7702 8.54027 72.7702 8.20027C72.7702 8.03027 72.7502 7.81027 72.5502 7.80027C71.8102 7.78027 71.0302 7.65027 70.3502 7.86027C69.9002 7.99027 70.1902 8.70027 70.1702 9.15027C70.1502 9.97027 69.8902 10.8203 69.0602 10.8303C67.7502 10.8403 68.0202 11.6303 67.9502 12.4003C67.8802 13.2503 68.0802 13.7003 69.0302 13.5203C69.7102 13.3903 70.0002 13.6403 69.9302 14.3803C69.8702 15.0803 69.9202 15.7903 69.9202 16.5003C69.9202 17.1703 69.9002 17.8503 69.9202 18.5203C69.9802 20.4903 71.1002 21.6103 73.0802 21.6903C74.8302 21.7603 74.8802 21.6903 74.8802 19.9603C74.8802 19.3803 74.7902 19.1403 74.1202 19.1603H74.1502Z" fill="#2E2E7E"/>
<path d="M44.3205 13.8106C44.3205 11.7906 44.3205 9.77057 44.3205 7.75057C44.3205 5.92057 44.3205 5.96057 42.4605 5.91057C41.6905 5.89057 41.4405 6.08057 41.4505 6.90057C41.4905 11.1406 41.4705 15.3806 41.4705 19.6206C41.4705 21.6206 41.4705 21.5806 43.4805 21.6106C44.2405 21.6206 44.3505 21.3306 44.3405 20.6706C44.3105 18.3806 44.3305 16.0906 44.3305 13.8006L44.3205 13.8106Z" fill="#2E2E7E"/>
</svg>
