<svg width="171" height="53" viewBox="0 0 171 53" fill="none" xmlns="http://www.w3.org/2000/svg">
<g clip-path="url(#clip0_1986_4055)">
<g clip-path="url(#clip1_1986_4055)">
<g clip-path="url(#clip2_1986_4055)">
<path d="M156.443 0.000396729H15.0218C7.46761 0.000396729 1.34375 6.12425 1.34375 13.6784V39.3247C1.34375 46.8789 7.46761 53.0027 15.0218 53.0027H156.443C163.997 53.0027 170.121 46.8789 170.121 39.3247V13.6784C170.121 6.12425 163.997 0.000396729 156.443 0.000396729Z" fill="white"/>
<path d="M62.4355 15.5575C62.4543 15.9759 62.3881 16.3936 62.241 16.7858C62.094 17.178 61.8691 17.5363 61.5799 17.8392C61.2558 18.1738 60.8647 18.4362 60.4321 18.6091C59.9996 18.7822 59.5354 18.8619 59.07 18.8431C58.6018 18.8536 58.1365 18.7678 57.7028 18.5912C57.2692 18.4146 56.8764 18.1508 56.5487 17.8163C55.8839 17.1364 55.5117 16.2232 55.5117 15.2722C55.5117 14.3213 55.8839 13.4082 56.5487 12.7281C57.057 12.2315 57.7006 11.8961 58.3989 11.7642C59.0972 11.6323 59.8188 11.7097 60.4732 11.9866C60.8846 12.1557 61.2516 12.4173 61.5457 12.7509L60.941 13.3556C60.7144 13.0827 60.4273 12.8663 60.1026 12.7237C59.7778 12.5812 59.4242 12.5163 59.07 12.5342C58.6228 12.5373 58.1832 12.6499 57.7895 12.8621C57.3959 13.0743 57.0602 13.3797 56.8119 13.7517C56.5636 14.1235 56.4101 14.5506 56.3649 14.9955C56.3197 15.4405 56.3842 15.8896 56.5527 16.3039C56.7212 16.7181 56.9886 17.0848 57.3316 17.3718C57.6745 17.6589 58.0825 17.8575 58.5199 17.9505C58.9574 18.0434 59.4109 18.0277 59.8409 17.905C60.2709 17.7821 60.6643 17.5559 60.9866 17.246C61.3351 16.8638 61.5371 16.3708 61.5571 15.854H59.07V15.0327H62.3899C62.4159 15.2065 62.4311 15.3817 62.4355 15.5575Z" fill="black" stroke="black" stroke-width="0.238452" stroke-miterlimit="10"/>
<path d="M67.6577 12.7049H64.5773V14.8726H67.3839V15.694H64.5773V17.8616H67.6577V18.7058H63.6875V11.8607H67.6577V12.7049Z" fill="black" stroke="black" stroke-width="0.238452" stroke-miterlimit="10"/>
<path d="M71.3967 18.7058H70.5182V12.7049H68.6016V11.8607H73.3589V12.7049H71.3967V18.7058Z" fill="black" stroke="black" stroke-width="0.238452" stroke-miterlimit="10"/>
<path d="M76.7148 18.7058V11.8607H77.5932V18.7058H76.7148Z" fill="black" stroke="black" stroke-width="0.238452" stroke-miterlimit="10"/>
<path d="M81.4942 18.7058H80.6159V12.7049H78.6992V11.8607H83.3995V12.7049H81.4942V18.7058Z" fill="black" stroke="black" stroke-width="0.238452" stroke-miterlimit="10"/>
<path d="M92.3086 17.8151C91.9795 18.1449 91.588 18.4065 91.1571 18.585C90.7271 18.7635 90.2655 18.8553 89.7987 18.8553C89.3328 18.8553 88.8712 18.7635 88.4403 18.585C88.0103 18.4065 87.6188 18.1449 87.2888 17.8151C86.6442 17.1294 86.2852 16.2236 86.2852 15.2824C86.2852 14.3411 86.6442 13.4353 87.2888 12.7497C87.6119 12.4106 88.0017 12.143 88.4335 11.9642C88.866 11.7854 89.3311 11.6993 89.7987 11.7115C90.2663 11.7041 90.7297 11.7925 91.1614 11.971C91.5931 12.1495 91.9838 12.4145 92.3086 12.7497C92.6369 13.0834 92.8951 13.4794 93.0669 13.9144C93.2396 14.3494 93.3234 14.8145 93.3131 15.2824C93.3276 15.7508 93.2464 16.2173 93.0737 16.6529C92.901 17.0886 92.6403 17.4841 92.3086 17.8151ZM87.9393 17.2447C88.1821 17.491 88.4719 17.6865 88.7908 17.8199C89.1105 17.9535 89.4533 18.0222 89.7987 18.0222C90.1449 18.0222 90.4877 17.9535 90.8066 17.8199C91.1263 17.6865 91.4153 17.491 91.6589 17.2447C92.1505 16.7097 92.424 16.0093 92.424 15.2824C92.424 14.5554 92.1505 13.855 91.6589 13.3201C91.4153 13.0738 91.1263 12.8783 90.8066 12.7448C90.4877 12.6113 90.1449 12.5426 89.7987 12.5426C89.4533 12.5426 89.1105 12.6113 88.7908 12.7448C88.4719 12.8783 88.1821 13.0738 87.9393 13.3201C87.4469 13.855 87.1742 14.5554 87.1742 15.2824C87.1742 16.0093 87.4469 16.7097 87.9393 17.2447Z" fill="black" stroke="black" stroke-width="0.238452" stroke-miterlimit="10"/>
<path d="M94.5586 18.7049V11.8598H95.6195L98.9509 17.1875V15.8642V11.8598H99.8298V18.7049H98.9168L95.4374 13.1261V14.4381V18.7049H94.5586Z" fill="black" stroke="black" stroke-width="0.238452" stroke-miterlimit="10"/>
<path d="M86.0726 28.6865C85.1114 28.6887 84.1724 28.9759 83.3744 29.5118C82.5764 30.0478 81.9553 30.8083 81.5895 31.6972C81.2238 32.5861 81.1299 33.5635 81.3196 34.5058C81.5093 35.4481 81.9742 36.313 82.6555 36.9911C83.3368 37.6692 84.2038 38.13 85.147 38.3154C86.0902 38.5006 87.0675 38.4021 87.954 38.0321C88.8414 37.6622 89.5988 37.0376 90.1314 36.2371C90.6631 35.4366 90.9461 34.4963 90.9444 33.5351C90.9529 32.8938 90.8332 32.2573 90.5913 31.6633C90.3502 31.0693 89.9912 30.5301 89.5364 30.0777C89.0816 29.6253 88.5413 29.269 87.9463 29.0299C87.3505 28.791 86.7136 28.6741 86.0726 28.6865ZM86.0726 36.4785C85.4834 36.5197 84.8955 36.3827 84.3852 36.0853C83.875 35.7879 83.4659 35.344 83.2113 34.811C82.9567 34.2781 82.8683 33.681 82.9577 33.0972C83.0469 32.5133 83.3098 31.9699 83.7121 31.5375C84.1143 31.1051 84.6374 30.8036 85.2133 30.6724C85.7891 30.5412 86.3913 30.5862 86.941 30.8017C87.4907 31.0171 87.9634 31.393 88.2968 31.8805C88.6302 32.368 88.8089 32.9445 88.8106 33.5351C88.8294 33.9093 88.7721 34.2834 88.6439 34.6354C88.5148 34.9872 88.3173 35.31 88.0626 35.5843C87.807 35.8586 87.5001 36.079 87.1581 36.2326C86.8162 36.3862 86.4469 36.4698 86.0726 36.4785ZM75.4398 28.6865C74.4786 28.6887 73.5396 28.9759 72.7416 29.5118C71.9437 30.0478 71.3226 30.8083 70.9568 31.6972C70.591 32.5861 70.4971 33.5635 70.6869 34.5058C70.8766 35.4481 71.3415 36.313 72.0228 36.9911C72.704 37.6692 73.5711 38.13 74.5143 38.3154C75.4575 38.5006 76.4345 38.4021 77.3217 38.0321C78.2088 37.6622 78.9663 37.0376 79.4985 36.2371C80.0307 35.4366 80.3135 34.4963 80.3112 33.5351C80.3206 32.8938 80.2007 32.2573 79.9589 31.6633C79.7171 31.0693 79.3582 30.5301 78.9038 30.0777C78.4492 29.6253 77.9083 29.269 77.3132 29.0299C76.7181 28.791 76.081 28.6741 75.4398 28.6865ZM75.4398 36.4785C74.8506 36.5197 74.2627 36.3827 73.7525 36.0853C73.2422 35.7879 72.8331 35.344 72.5785 34.811C72.324 34.2781 72.2357 33.681 72.3249 33.0972C72.4142 32.5133 72.6771 31.9699 73.0793 31.5375C73.4816 31.1051 74.0046 30.8036 74.5805 30.6724C75.1563 30.5412 75.7583 30.5862 76.3082 30.8017C76.8581 31.0171 77.3305 31.393 77.6639 31.8805C77.9973 32.368 78.1764 32.9445 78.1779 33.5351C78.1963 33.9093 78.1395 34.2834 78.011 34.6354C77.8825 34.9872 77.6848 35.31 77.4296 35.5843C77.1744 35.8586 76.8669 36.079 76.5252 36.2326C76.1834 36.3862 75.8144 36.4698 75.4398 36.4785ZM62.7992 30.1809V32.2345H67.7276C67.6504 33.2017 67.2483 34.1144 66.5868 34.8242C66.0924 35.3279 65.4978 35.7223 64.8414 35.9816C64.185 36.2411 63.4815 36.3598 62.7764 36.3302C61.324 36.3302 59.9312 35.7532 58.9042 34.7262C57.8772 33.6993 57.3003 32.3064 57.3003 30.8541C57.3003 29.4017 57.8772 28.0089 58.9042 26.9819C59.9312 25.955 61.324 25.378 62.7764 25.378C64.1687 25.3572 65.5132 25.8861 66.5183 26.8497L67.9673 25.4008C67.2873 24.7283 66.4799 24.1982 65.5925 23.8417C64.705 23.4851 63.7555 23.3093 62.7992 23.3244C61.785 23.285 60.7732 23.4507 59.8246 23.8115C58.8759 24.1725 58.0098 24.7211 57.2783 25.4248C56.5468 26.1284 55.9648 26.9724 55.5673 27.9063C55.1698 28.8402 54.9648 29.8448 54.9648 30.8598C54.9648 31.8747 55.1698 32.8793 55.5673 33.8132C55.9648 34.7471 56.5468 35.5912 57.2783 36.2948C58.0098 36.9984 58.8759 37.5471 59.8246 37.908C60.7732 38.2689 61.785 38.4346 62.7992 38.3951C63.7751 38.4341 64.7482 38.2662 65.6546 37.9024C66.5611 37.5387 67.3803 36.9873 68.0585 36.2845C69.2565 34.9684 69.8949 33.2375 69.8382 31.4587C69.8423 31.0306 69.808 30.6029 69.7356 30.1809H62.7992ZM114.491 31.7781C114.194 30.9028 113.637 30.1385 112.896 29.5864C112.154 29.0343 111.262 28.7205 110.338 28.6865C109.715 28.6853 109.097 28.812 108.524 29.059C107.95 29.3059 107.434 29.6679 107.007 30.1222C106.579 30.5767 106.249 31.114 106.037 31.701C105.825 32.288 105.736 32.9123 105.775 33.5351C105.765 34.5765 106.093 35.5932 106.708 36.4332C107.324 37.2732 108.195 37.8914 109.191 38.1956C110.187 38.4998 111.255 38.4737 112.235 38.121C113.215 37.7683 114.054 37.1081 114.628 36.2389L112.974 35.098C112.727 35.5091 112.378 35.8484 111.959 36.0826C111.541 36.3167 111.069 36.4375 110.589 36.4328C110.095 36.4533 109.606 36.3236 109.187 36.061C108.767 35.7983 108.437 35.4149 108.239 34.9612L114.73 32.2801L114.491 31.7781ZM107.874 33.3982C107.851 33.0438 107.899 32.6884 108.015 32.3527C108.131 32.0171 108.313 31.7078 108.55 31.4433C108.786 31.1788 109.074 30.9642 109.394 30.8121C109.716 30.6599 110.064 30.5734 110.418 30.5574C110.786 30.535 111.152 30.6216 111.471 30.8062C111.789 30.9909 112.046 31.2655 112.209 31.5956L107.874 33.3982ZM102.603 38.0985H104.737V23.8379H102.603V38.0985ZM99.1127 29.7703H99.0323C98.7143 29.4073 98.3202 29.1175 97.88 28.9205C97.4389 28.7236 96.9601 28.6243 96.4771 28.6294C95.2307 28.6899 94.0544 29.2277 93.1935 30.1315C92.3327 31.0351 91.8522 32.2356 91.8522 33.4838C91.8522 34.732 92.3327 35.9323 93.1935 36.836C94.0544 37.7398 95.2307 38.2776 96.4771 38.3381C96.961 38.3478 97.4406 38.2506 97.8825 38.0533C98.3245 37.8561 98.7169 37.5637 99.0323 37.1972H99.1127V37.8931C99.1127 39.7527 98.1202 40.7453 96.5224 40.7453C95.989 40.7335 95.4709 40.5635 95.0341 40.2568C94.5981 39.9501 94.2621 39.5205 94.0698 39.0226L92.2215 39.7869C92.5635 40.6452 93.1576 41.3795 93.9253 41.8928C94.6938 42.4061 95.5992 42.6743 96.5224 42.6619C99.0212 42.6619 101.087 41.1902 101.087 37.6079V28.9716H99.1127V29.7703ZM96.6601 36.4785C95.912 36.4319 95.2102 36.1021 94.6981 35.5562C94.1852 35.0105 93.8997 34.2897 93.8997 33.5408C93.8997 32.7918 94.1852 32.0711 94.6981 31.5252C95.2102 30.9795 95.912 30.6497 96.6601 30.6031C97.0251 30.6188 97.3833 30.7079 97.7133 30.865C98.0441 31.0221 98.339 31.2442 98.5818 31.5176C98.8246 31.7912 99.0093 32.1108 99.1264 32.4574C99.2426 32.804 99.2888 33.1705 99.2606 33.5351C99.2922 33.9009 99.2486 34.2693 99.1332 34.6179C99.0178 34.9665 98.8332 35.2882 98.5904 35.5633C98.3467 35.8384 98.0501 36.0614 97.7184 36.2187C97.3867 36.376 97.0268 36.4644 96.6601 36.4785ZM124.485 23.8379H119.374V38.0985H121.507V32.6909H124.485C125.093 32.7346 125.704 32.6525 126.278 32.4498C126.853 32.2472 127.38 31.9282 127.826 31.5129C128.273 31.0975 128.629 30.5948 128.872 30.0359C129.115 29.477 129.241 28.8739 129.241 28.2643C129.241 27.6547 129.115 27.0517 128.872 26.4928C128.629 25.9338 128.273 25.4311 127.826 25.0158C127.38 24.6004 126.853 24.2815 126.278 24.0788C125.704 23.8762 125.093 23.7942 124.485 23.8379ZM124.485 30.6829H121.507V25.8229H124.531C124.851 25.8229 125.168 25.8861 125.465 26.0087C125.761 26.1314 126.03 26.3113 126.257 26.538C126.484 26.7647 126.664 27.0338 126.786 27.33C126.909 27.6262 126.972 27.9437 126.972 28.2643C126.972 28.585 126.909 28.9024 126.786 29.1986C126.664 29.4948 126.484 29.7639 126.257 29.9907C126.03 30.2174 125.761 30.3972 125.465 30.5199C125.168 30.6426 124.851 30.7058 124.531 30.7058L124.485 30.6829ZM137.651 28.6408C136.873 28.5929 136.1 28.7737 135.424 29.1611C134.749 29.5483 134.203 30.125 133.851 30.8198L135.734 31.6071C135.924 31.2641 136.209 30.9836 136.555 30.7994C136.902 30.6151 137.294 30.535 137.685 30.5689C137.956 30.5373 138.23 30.5598 138.492 30.6354C138.754 30.711 138.999 30.8379 139.211 31.0089C139.423 31.1799 139.6 31.3915 139.729 31.6312C139.859 31.871 139.94 32.1343 139.966 32.4056V32.5425C139.281 32.182 138.517 31.994 137.742 31.9949C135.711 31.9949 133.634 33.1357 133.634 35.2122C133.655 35.6534 133.763 36.0863 133.954 36.4848C134.145 36.8834 134.413 37.2395 134.744 37.5322C135.076 37.8248 135.462 38.048 135.881 38.1884C136.3 38.3288 136.743 38.3836 137.183 38.3495C137.718 38.379 138.251 38.2658 138.729 38.0212C139.206 37.7766 139.61 37.4095 139.898 36.9576H139.966V38.0985H142.02V32.6109C142.02 30.1125 140.126 28.6636 137.696 28.6636L137.651 28.6408ZM137.388 36.4557C136.692 36.4557 135.723 36.102 135.723 35.2463C135.723 34.1055 136.932 33.7176 138.004 33.7176C138.681 33.7009 139.352 33.8663 139.943 34.1967C139.872 34.8163 139.578 35.3889 139.117 35.8084C138.655 36.228 138.057 36.466 137.433 36.4785L137.388 36.4557ZM149.504 28.9716L147.063 35.155H146.994L144.461 28.9716H142.18L145.979 37.6193L143.811 42.4224H146.036L151.877 28.9716H149.504ZM130.338 38.0985H132.46V23.8379H130.338V38.0985Z" fill="black"/>
<path d="M20.2364 12.4768C19.8604 12.9213 19.6686 13.4927 19.7002 14.074V39.3097C19.6613 39.8919 19.8541 40.466 20.2364 40.9068L20.3163 40.9981L34.4514 26.8629V26.5206L20.3163 12.3969L20.2364 12.4768Z" fill="url(#paint0_linear_1986_4055)"/>
<path d="M39.1268 31.5756L34.4492 26.8639V26.5217L39.1268 21.8099L39.2294 21.8784L44.831 25.0499C46.4282 25.9512 46.4282 27.4343 44.831 28.347L39.2523 31.5186L39.1268 31.5756Z" fill="url(#paint1_linear_1986_4055)"/>
<path d="M39.2638 31.5062L34.4494 26.6918L20.2344 40.9068C20.5567 41.1937 20.9694 41.3589 21.4008 41.3734C21.8321 41.388 22.255 41.2512 22.596 40.9867L39.2638 31.5062Z" fill="url(#paint2_linear_1986_4055)"/>
<path d="M39.2638 21.8759L22.596 12.4068C22.2572 12.1386 21.8346 11.9984 21.4027 12.0109C20.9708 12.0235 20.5571 12.1879 20.2344 12.4752L34.4494 26.6903L39.2638 21.8759Z" fill="url(#paint3_linear_1986_4055)"/>
<path opacity="0.2" d="M39.1269 31.4017L22.596 40.8138C22.2674 41.0618 21.8668 41.196 21.4551 41.196C21.0434 41.196 20.6429 41.0618 20.3143 40.8138L20.2344 40.8937L20.3143 40.9849C20.6429 41.233 21.0434 41.3671 21.4551 41.3671C21.8668 41.3671 22.2674 41.233 22.596 40.9849L39.2638 31.5044L39.1269 31.4017Z" fill="black"/>
<path opacity="0.12" d="M20.2312 40.7456C19.8647 40.2931 19.6851 39.7176 19.7292 39.1371V39.3081C19.6904 39.8905 19.8831 40.4645 20.2654 40.9054L20.3452 40.8256L20.2312 40.7456Z" fill="black"/>
<path opacity="0.12" d="M44.8449 28.1749L39.1406 31.4035L39.2433 31.5062L44.8449 28.3346C45.1755 28.1948 45.4623 27.9684 45.6752 27.6793C45.888 27.3902 46.019 27.049 46.0542 26.6918C45.9829 27.0165 45.8363 27.3198 45.6262 27.5774C45.4162 27.835 45.1485 28.0397 44.8449 28.1749Z" fill="black"/>
<path opacity="0.25" d="M22.597 12.5659L44.8322 25.2066C45.1359 25.3418 45.4035 25.5464 45.6135 25.8041C45.8236 26.0617 45.9702 26.3651 46.0415 26.6897C46.0062 26.3324 45.8754 25.9913 45.6625 25.7022C45.4497 25.4131 45.1629 25.1867 44.8322 25.0469L22.597 12.4062C21.0112 11.4936 19.6992 12.2465 19.6992 14.0719V14.243C19.7335 12.4176 21.0112 11.6647 22.597 12.5659Z" fill="white"/>
</g>
</g>
</g>
<defs>
<linearGradient id="paint0_linear_1986_4055" x1="33.1965" y1="13.8116" x2="14.053" y2="32.9551" gradientUnits="userSpaceOnUse">
<stop stop-color="#00A0FF"/>
<stop offset="0.01" stop-color="#00A1FF"/>
<stop offset="0.26" stop-color="#00BEFF"/>
<stop offset="0.51" stop-color="#00D2FF"/>
<stop offset="0.76" stop-color="#00DFFF"/>
<stop offset="1" stop-color="#00E3FF"/>
</linearGradient>
<linearGradient id="paint1_linear_1986_4055" x1="46.9188" y1="26.6928" x2="19.3215" y2="26.6928" gradientUnits="userSpaceOnUse">
<stop stop-color="#FFE000"/>
<stop offset="0.41" stop-color="#FFBD00"/>
<stop offset="0.78" stop-color="#FFA500"/>
<stop offset="1" stop-color="#FF9C00"/>
</linearGradient>
<linearGradient id="paint2_linear_1986_4055" x1="36.6512" y1="29.3157" x2="10.6855" y2="55.2701" gradientUnits="userSpaceOnUse">
<stop stop-color="#FF3A44"/>
<stop offset="1" stop-color="#C31162"/>
</linearGradient>
<linearGradient id="paint3_linear_1986_4055" x1="16.6521" y1="4.07858" x2="28.2432" y2="15.6696" gradientUnits="userSpaceOnUse">
<stop stop-color="#32A071"/>
<stop offset="0.07" stop-color="#2DA771"/>
<stop offset="0.48" stop-color="#15CF74"/>
<stop offset="0.8" stop-color="#06E775"/>
<stop offset="1" stop-color="#00F076"/>
</linearGradient>
<clipPath id="clip0_1986_4055">
<rect width="170.133" height="53.0023" fill="white" transform="translate(0.664062)"/>
</clipPath>
<clipPath id="clip1_1986_4055">
<rect width="170.133" height="53.0023" fill="white" transform="translate(0.664062)"/>
</clipPath>
<clipPath id="clip2_1986_4055">
<rect width="170.12" height="53.0023" fill="white" transform="translate(0.671875)"/>
</clipPath>
</defs>
</svg>
