<svg width="79" height="38" viewBox="0 0 79 38" fill="none" xmlns="http://www.w3.org/2000/svg">
<path d="M52.5111 35.128C53.5049 34.2817 54.4369 33.4947 55.3593 32.6959C55.6969 32.4011 56.094 32.4653 56.4839 32.4415C58.7568 32.2965 59.8599 31.0245 59.8504 28.5804C59.8409 26.0151 58.6688 24.6314 56.3912 24.4959C54.1064 24.358 52.4303 25.6014 52.309 27.8387C52.1497 30.7558 52.1854 33.6873 52.2306 36.6116C52.2448 37.584 51.9976 37.8835 50.9966 37.8693C46.6839 37.8146 42.3687 37.8407 38.0536 37.8479C36.979 37.8479 35.9162 37.7789 34.8725 37.5269C31.3277 36.6758 29.3924 34.284 29.3425 30.2494C29.2521 22.8174 29.3187 15.383 29.2997 7.9486C29.2997 7.29241 29.4851 7.02138 30.1722 7.04515C31.3182 7.08557 32.4713 7.11172 33.6148 7.03802C34.4921 6.98334 34.756 7.24011 34.7513 8.14831C34.7085 14.2371 34.7299 20.3258 34.7299 26.4169C34.7299 27.3655 34.7061 28.3165 34.7394 29.2628C34.8178 31.4453 35.6928 32.363 37.8848 32.4129C40.5737 32.4748 43.2674 32.4177 45.9587 32.4557C46.6625 32.4653 46.8265 32.1918 46.8075 31.5499C46.7528 29.6123 46.7861 27.6817 47.2878 25.7845C48.5359 21.0414 52.2757 18.5617 57.3374 19.1418C61.8023 19.653 65.1332 23.2454 65.3281 27.7602C65.5611 33.1262 62.8009 36.8184 57.8795 37.7338C56.5861 37.9739 55.3974 37.962 54.4297 36.8327C53.8972 36.2122 53.203 35.7295 52.5135 35.1257L52.5111 35.128Z" fill="#F9F9F9"/>
<path d="M17.84 23.7042C17.84 22.5179 17.8662 21.3315 17.8305 20.1475C17.8115 19.5365 18.0041 19.3082 18.6365 19.3273C19.9417 19.3677 21.247 19.351 22.5522 19.3344C23.0301 19.3273 23.2916 19.4556 23.2726 19.9953C23.1609 23.1859 23.5555 26.3979 22.8613 29.5671C21.8033 34.3815 18.2086 37.4794 13.2729 37.8099C11.2425 37.9454 9.24067 37.7956 7.31015 37.0942C2.81908 35.4585 0.0825876 30.9627 0.586615 26.1126C0.798211 24.0799 1.35217 22.1731 2.38875 20.3995C2.75726 19.7695 3.0592 19.6696 3.65595 20.1427C4.58079 20.8821 5.55556 21.5645 6.54698 22.2135C7.05814 22.5464 7.11044 22.8388 6.82039 23.3571C6.22364 24.4151 6.03106 25.5991 6.0691 26.7902C6.13567 28.9727 6.8299 30.9104 8.97439 31.8305C11.3115 32.8338 13.6985 32.8266 15.8572 31.2813C17.2409 30.2899 17.7449 28.7825 17.8234 27.1421C17.8781 25.9985 17.8329 24.8502 17.8329 23.7042C17.8353 23.7042 17.84 23.7042 17.8424 23.7042H17.84Z" fill="#F9F9F9"/>
<path d="M70.8391 24.962C70.8391 21.0486 70.8581 17.1377 70.8225 13.2243C70.8153 12.4255 70.9936 12.0831 71.8614 12.1378C72.9646 12.2091 74.0772 12.1972 75.1828 12.1402C75.9792 12.0974 76.274 12.309 76.2693 13.1744C76.236 21.0772 76.2431 28.9823 76.2645 36.8851C76.2645 37.5817 76.1148 37.8812 75.3516 37.8456C74.1676 37.7861 72.9765 37.7814 71.7925 37.8456C70.9699 37.8907 70.8177 37.5579 70.8248 36.8161C70.8557 32.8647 70.8391 28.9134 70.8391 24.962Z" fill="#F9F9F9"/>
<path d="M73.397 10.0266C71.9729 10.0266 70.5464 9.99092 69.1223 10.0408C68.3972 10.067 68.1024 9.84114 68.188 9.1065C68.2331 8.71659 68.2284 8.31242 68.188 7.92251C68.1238 7.27821 68.3259 6.93347 69.032 7.03808C69.7951 7.14983 69.7928 6.82411 69.6739 6.16792C69.284 4.05434 69.8237 2.23318 71.6948 0.987377C73.4636 -0.18948 75.8768 -0.13242 77.6409 1.02542C78.3636 1.50091 78.6774 1.95739 77.9523 2.68253C77.705 2.92978 77.5077 3.24124 77.3342 3.55031C77.0037 4.14468 76.7374 4.16846 76.1977 3.68583C75.1992 2.79189 73.4993 2.95594 72.7979 3.91882C72.3676 4.51081 72.32 5.17889 72.5887 5.83745C72.9025 6.61251 73.5516 6.98816 74.3599 7.01669C75.4274 7.0571 76.4997 7.07612 77.5648 7.02382C78.3208 6.98578 78.6228 7.19737 78.6014 8.0081C78.53 10.4664 78.8439 9.97904 76.5995 10.0242C75.532 10.0456 74.4622 10.029 73.3923 10.0266H73.397Z" fill="#F9F9F9"/>
<path d="M13.4987 11.7646C13.4963 14.5129 13.4963 17.2613 13.4963 20.3307C12.1626 19.3416 11.0737 18.5309 9.98478 17.7225C9.18119 17.171 8.37998 16.617 7.57401 16.0702C7.16746 15.7944 6.94873 15.5353 7.60254 15.3046C9.35475 14.0256 11.1093 12.7488 12.8592 11.4674C13.2705 11.1654 13.4987 11.194 13.4987 11.7646Z" fill="#F9F9F9"/>
</svg>
