<svg width="113" height="44" viewBox="0 0 113 44" fill="none" xmlns="http://www.w3.org/2000/svg">
<path d="M112.385 41.4866H109.048C109.75 40.9968 109.346 40.5496 109.091 40.1024C108.9 39.7829 108.73 39.4848 108.538 39.1653C107.957 38.1999 107.058 37.7881 105.839 37.9301C106.03 39.0801 105.478 40.3153 106.243 41.5079H103.458C104.16 41.0607 104.011 40.4431 104.011 39.8894V34.3735C104.011 33.7559 104.202 33.0957 103.395 32.5207H104.542C106.158 32.542 107.773 32.4781 109.388 32.6059C110.961 32.7337 111.684 33.5217 111.854 34.9273C112.003 36.2051 111.386 37.1421 110.005 37.6958C109.941 37.7171 109.899 37.7384 109.771 37.8023C110.579 38.9097 110.961 40.294 112.13 41.1246C112.215 41.1885 112.3 41.2098 112.385 41.2311V41.4866ZM105.881 36.1199C106.944 36.1199 107.986 36.1625 109.027 36.0986C109.537 36.0773 110.005 35.8004 110.005 35.1615C110.005 34.6504 109.707 34.2884 109.027 34.2458C107.986 34.1819 106.944 34.2245 105.881 34.2245V36.1199Z" fill="#F9F9F9"/>
<path d="M47.0046 18.4436C49.3002 18.4649 51.4895 18.1029 53.3599 16.7399C53.6362 16.5482 53.785 16.1649 53.9976 15.8667C54.4864 15.1214 54.9541 14.376 55.4642 13.6519C55.613 13.4389 55.8255 13.2685 56.0381 13.1195C56.9095 12.5019 57.4834 12.5657 58.1636 13.3963C59.1413 14.5463 59.6515 15.8667 59.694 17.3788C59.7152 18.2094 59.2689 18.827 58.865 19.4872C57.8873 21.127 57.6535 21.1909 55.9743 20.2752C55.4004 19.9557 54.869 19.615 54.2739 19.3381C54.1039 19.2529 53.785 19.2742 53.6787 19.3807C52.1696 20.8502 50.2567 21.4891 48.2587 21.8298C44.9429 22.4048 41.6696 22.0641 38.3963 21.4252C38.2262 21.3826 38.035 21.3613 37.8649 21.34C36.9155 21.1554 36.1999 21.4891 35.7181 22.3409C35.5056 22.7243 35.2009 22.9443 34.8042 23.0011C35.208 22.2345 35.5693 21.5104 35.9307 20.8076C35.6119 20.4029 35.3143 20.0409 34.9742 19.615C28.9802 22.49 22.9225 22.3196 16.8435 19.764C16.0146 22.0854 13.9741 22.8947 11.9336 23.5974C10.1269 24.215 8.25645 24.5984 6.38599 25.0669C6.23721 25.1095 6.04591 25.1095 5.91838 25.0669C4.17545 24.5345 2.45378 24.0021 0.732115 23.4697C0.66835 23.4484 0.604582 23.3845 0.477051 23.3419C2.24123 22.8734 3.98415 22.4687 5.68457 21.9363C8.53276 21.0418 11.3385 20.0835 14.1654 19.1251C14.6117 18.9761 15.0156 18.6779 15.4407 18.4436C15.8233 18.252 15.9508 17.9538 15.802 17.5492C15.7808 17.4853 15.7808 17.4214 15.7595 17.3788C14.8881 15.8028 15.632 14.525 16.5672 13.2047C16.6097 13.5241 16.6522 13.801 16.6948 14.0565C16.9286 15.6325 17.9701 16.463 19.3942 16.9316C22.71 17.9964 26.0895 18.3372 29.5329 17.7621C30.4681 17.6131 31.3821 17.4001 32.3173 17.2084C33.954 16.8677 35.2718 15.9732 36.4196 14.7806C36.5896 14.6102 36.7171 14.3973 36.8659 14.2056C36.9297 14.2482 36.9934 14.2908 37.0572 14.3334C36.9084 14.8019 36.7596 15.2917 36.6108 15.7603C36.4408 16.2714 36.6109 16.676 36.9722 17.0168C37.3335 17.3362 37.7161 17.464 38.1412 17.0807C39.374 15.9093 40.6281 14.7806 41.8609 13.6093C43.2 12.3315 44.7091 11.65 46.5795 12.3315C47.5573 12.6935 48.1524 13.4176 48.4075 14.4186C48.4712 14.6315 48.4925 14.8445 48.535 15.0788C48.8113 16.3566 48.45 17.3788 47.3447 18.1242C47.2172 18.1881 47.1109 18.3159 47.0046 18.4436ZM39.0977 17.5918C39.119 17.6557 39.1615 17.7408 39.1827 17.8047C40.7556 18.252 42.3923 18.4436 44.0077 18.2094C45.0066 18.0603 45.9844 17.6983 46.9409 17.3788C47.1109 17.3149 47.3022 16.9742 47.2809 16.8038C46.9834 15.0362 44.1989 13.7158 42.7111 14.7167C41.4358 15.5686 40.288 16.6334 39.0977 17.5918ZM57.7385 16.889C57.5897 15.739 56.6332 14.8658 55.6342 14.9084C55.4642 14.9084 55.2942 15.1001 55.1241 15.2065C55.2091 15.3343 55.2729 15.526 55.4004 15.5899C56.1656 16.0158 56.9095 16.4417 57.7385 16.889Z" fill="#F9F9F9"/>
<path d="M110.664 16.0583C110.621 15.9518 110.6 15.8666 110.558 15.8027C109.75 14.9082 109.963 14.0351 110.621 13.1832C110.877 12.8638 111.047 12.5017 111.28 12.161C112.832 14.8656 112.938 18.8268 109.155 20.4667C107.795 21.063 105.754 20.6158 105.35 18.5926C105.329 18.5074 105.286 18.4222 105.223 18.2518C103.458 19.9982 101.269 20.7009 98.9736 21.1482C97.4645 21.425 95.9554 21.638 94.425 21.7658C91.5131 21.9787 88.5799 22.0426 85.6892 21.3611C83.925 20.9352 82.2246 20.3176 80.9067 19.0398C80.2478 18.4222 79.7377 17.6129 79.2276 16.9527C78.4411 17.6768 77.6547 18.5713 76.677 19.2528C73.5737 21.4463 70.1729 22.2556 66.4957 20.9778C64.7316 20.3602 63.7326 19.0611 63.6475 17.1018C63.5413 14.6953 64.349 12.5869 65.6243 10.6063C65.4755 11.0322 65.3054 11.4369 65.1779 11.8628C64.3065 14.6527 65.4755 16.7185 68.3024 17.4425C70.3854 17.9537 72.3834 17.5916 74.3602 16.8888C75.9118 16.3351 77.3784 15.6323 78.5049 14.3758C78.6537 14.2055 78.8025 13.9073 78.7812 13.6943C78.5899 10.4572 78.3774 7.24143 78.1648 4.00433C78.1648 3.87655 78.1436 3.70617 78.2073 3.59969C78.8237 2.55615 79.4401 1.53391 80.2053 0.55426V1.29965C80.3116 4.70712 80.4179 8.13589 80.5029 11.5434C80.5667 14.3545 82.1608 15.9092 84.6051 16.8462C86.3268 17.5064 88.1335 17.8685 89.9614 18.0176C93.2773 18.2944 96.5718 18.2518 99.8238 17.4213C102.396 16.7611 104.734 15.6962 106.413 13.5027C106.54 13.3536 106.817 13.2897 107.008 13.2045C107.008 13.4175 107.008 13.6304 106.987 13.8647C106.966 13.9712 106.881 14.0777 106.859 14.2055C106.774 14.6101 106.307 14.9508 106.604 15.4194C107.029 16.0796 107.561 16.5694 108.368 16.6972C109.219 16.8462 109.984 16.5694 110.664 16.0583Z" fill="#F9F9F9"/>
<path d="M0.68972 41.5079C0.795996 41.0819 0.966041 40.6986 0.966041 40.3152C0.987296 37.4402 0.987296 34.5864 0.966041 31.7114C0.966041 31.3706 0.817252 31.0299 0.710976 30.604C0.710976 30.604 0.859767 30.5614 0.987298 30.5614C2.98528 30.5614 4.98327 30.5401 6.98125 30.5614C7.40636 30.5614 7.83146 30.6465 8.23531 30.753C9.25555 31.0299 9.91447 31.6688 10.1058 32.7549C10.2971 33.8411 10.042 34.7568 9.17054 35.4596C9.10677 35.5022 9.06426 35.5661 8.95799 35.6513C9.19179 35.8429 9.40434 35.992 9.61689 36.1837C10.5309 37.0994 10.6159 38.2282 10.3183 39.3995C9.97823 40.6986 8.93673 41.4014 7.68268 41.4653C5.42963 41.5931 3.17658 41.5505 0.923528 41.5718C0.774742 41.5505 0.668465 41.4866 0.68972 41.5079ZM3.00654 39.6976C3.53792 39.6976 3.98427 39.7189 4.43063 39.6976C5.42962 39.6551 6.44987 39.6551 7.42761 39.5273C8.15029 39.4421 8.4266 38.9736 8.44786 38.2495C8.46911 37.5467 8.15029 36.9717 7.42761 36.9078C6.04603 36.7587 4.66444 36.7587 3.28285 36.7161C3.19783 36.7161 3.02779 36.9078 3.02779 37.0143C2.98528 37.8661 3.00654 38.7393 3.00654 39.6976ZM3.04905 34.6716C4.45189 34.6716 5.83347 34.7142 7.1938 34.6503C7.85271 34.629 8.1928 34.1392 8.21406 33.5216C8.21406 32.904 7.89523 32.4355 7.25757 32.4142C5.87599 32.3503 4.4944 32.3929 3.0703 32.3929V34.6716H3.04905Z" fill="#F9F9F9"/>
<path d="M75.6568 33.969C75.6568 36.2264 75.6568 38.4839 75.678 40.7626C75.678 40.9969 75.9118 41.2312 76.0393 41.508H73.595C73.68 41.0182 73.8288 40.571 73.8288 40.1237C73.8501 37.3339 73.8501 34.544 73.8288 31.7541C73.8288 31.3921 73.6588 31.03 73.5525 30.6254H76.847C76.6628 31.1081 76.6841 31.6122 76.9108 32.1375C77.6335 33.8412 78.3774 35.5449 79.1639 37.3978C79.4402 36.8227 79.6527 36.3542 79.8653 35.907C80.4392 34.6505 81.0131 33.3727 81.587 32.0949C81.8278 31.5696 81.8278 31.0655 81.587 30.5828H85.1366C84.3926 31.0939 84.5627 31.7754 84.5627 32.393V40.0385C84.5627 40.5284 84.3926 41.1247 85.1366 41.4015C85.094 41.4441 85.0303 41.4654 84.9878 41.508H82.0546C82.7985 41.0608 82.6497 40.4858 82.6497 39.9534V34.3097C82.6497 34.2032 82.6285 34.0755 82.5009 33.9264C81.3744 36.3968 80.2479 38.8672 79.0363 41.4654C77.9098 38.8885 76.8258 36.4181 75.7418 33.969C75.7418 33.969 75.6993 33.969 75.6568 33.969Z" fill="#F9F9F9"/>
<path d="M43.2636 41.721C42.8385 42.1895 42.2859 42.7645 41.6482 43.446C41.7332 42.4877 41.0531 42.0618 40.6705 41.4654C40.628 41.4016 40.3729 41.4229 40.2454 41.4654C37.886 42.2321 35.803 41.4867 34.6765 39.4636C33.5925 37.5256 34.0388 34.7783 35.718 33.3727C37.1208 32.2014 38.7362 32.0523 40.3729 32.6912C42.0308 33.3514 42.9023 34.7144 43.0935 36.482C43.2423 37.7598 42.9448 38.9311 42.1796 39.9747C41.9458 40.2941 41.9883 40.5071 42.2433 40.7627C42.5622 41.0395 42.881 41.359 43.2636 41.721ZM40.713 38.7821C41.6057 37.1848 41.3081 35.4172 40.0753 34.544C39.0551 33.8412 37.4609 34.0755 36.6107 35.0551C35.7393 36.0561 35.803 38.2071 36.7383 39.1654C37.4822 39.9321 38.8 40.1876 39.5014 39.6126C39.0338 39.1867 38.5875 38.7821 38.0986 38.3348C39.1188 37.5043 39.8628 38.3135 40.713 38.7821Z" fill="#F9F9F9"/>
<path d="M29.8727 38.0578C29.8727 36.5244 29.894 34.991 29.8515 33.4577C29.8515 33.1808 29.6177 32.904 29.4901 32.5845H31.9132C31.1905 33.2234 31.4881 34.0327 31.4669 34.7781C31.4243 36.567 31.4456 38.3772 31.4669 40.1874C31.4669 40.6134 31.6156 41.0393 31.7007 41.5078H29.065C29.7452 40.9328 29.2563 40.5921 28.9375 40.23C27.7685 38.867 26.5994 37.5041 25.4304 36.1198C25.3029 35.9707 25.1541 35.8216 24.899 35.5448V36.567C24.899 37.8235 24.8777 39.08 24.9203 40.3365C24.9203 40.6986 25.0903 41.0393 25.2178 41.4652H23.0711C23.1561 41.018 23.3049 40.5708 23.3049 40.1448C23.3261 38.0791 23.3261 36.0133 23.3049 33.9475C23.3049 33.5003 23.1348 33.0317 23.0498 32.5419H25.8767C25.7492 32.7336 25.6429 32.904 25.4941 33.1169C26.897 34.7781 28.3211 36.4392 29.7239 38.1004C29.7877 38.1217 29.8302 38.1004 29.8727 38.0578Z" fill="#F9F9F9"/>
<path d="M62.7549 38.3775C62.4148 37.5469 61.8409 37.7173 61.3308 37.7173H59.2477V39.7618H61.182C62.0322 39.7618 62.8824 39.7831 63.7326 39.7405C64.0727 39.7192 64.3915 39.5488 64.7528 39.4423V42.147C64.4553 41.4229 63.9026 41.572 63.4138 41.572H57.8449C57.5473 41.572 57.2498 41.5507 56.8884 41.4655C57.5261 41.1035 57.3985 40.5284 57.3985 40.0173C57.3985 38.1006 57.4198 36.1839 57.3985 34.2459C57.3985 33.6709 57.6324 33.0107 56.9734 32.5422C57.1435 32.5209 57.3135 32.4996 57.4836 32.4996C59.4816 32.4996 61.4795 32.5209 63.4775 32.4783C63.8389 32.4783 64.2002 32.3079 64.6041 32.2014V34.9487C64.2215 34.182 63.6263 34.3311 63.0949 34.3311H59.269V36.1413C60.2467 36.1413 61.2245 36.1626 62.2022 36.12C62.3935 36.12 62.5636 35.8432 62.7974 35.6515V38.3775H62.7549Z" fill="#F9F9F9"/>
<path d="M93.2136 40.7627C93.4687 40.0812 93.745 39.3784 94.0001 38.6756C94.3401 39.5062 95.0628 39.6552 95.7217 39.8682C96.572 40.1451 97.4647 40.1664 98.3361 39.8895C98.7825 39.7404 99.2076 39.4849 99.1863 38.9098C99.1651 38.3561 98.6762 38.2497 98.2724 38.2071C97.4009 38.0793 96.5082 38.058 95.6367 37.8876C94.1701 37.6321 93.4687 36.908 93.3837 35.6941C93.2774 34.2246 94.0426 33.0533 95.3817 32.606C96.9545 32.0736 98.4424 32.4144 99.8878 33.0959C100.164 33.2236 100.462 33.2662 100.865 33.3727C100.589 34.0329 100.292 34.7783 99.9515 35.5663C98.9313 34.1607 97.2521 33.6283 95.828 34.182C95.4454 34.3311 94.9991 34.5653 95.1266 35.0126C95.1904 35.2681 95.5942 35.5663 95.8918 35.6302C96.7845 35.8218 97.6772 35.8431 98.5699 36.0135C100.143 36.3117 100.951 37.2274 100.993 38.5904C101.036 39.9108 100.143 41.0608 98.7612 41.4868C97.2096 41.9553 95.7005 41.7636 94.2339 41.0821C93.9576 40.9756 93.6175 40.8904 93.2136 40.7627Z" fill="#F9F9F9"/>
<path d="M45.2405 32.5419H48.1099C47.3447 33.2021 47.6636 34.054 47.6423 34.8207C47.5998 35.8855 47.6211 36.9716 47.6423 38.0365C47.6636 38.8032 47.8124 39.5272 48.62 39.8254C49.4703 40.1448 50.4267 40.2087 51.1494 39.5698C51.5108 39.2504 51.7446 38.5902 51.7871 38.0791C51.8721 36.5244 51.8296 34.9697 51.8083 33.4151C51.8083 33.1382 51.617 32.8827 51.4895 32.5632H54.2102C53.5512 33.0317 53.7 33.6493 53.6788 34.2457C53.6575 35.6512 53.6575 37.0355 53.6363 38.4411C53.5938 40.5069 52.8711 41.4226 50.8306 41.6782C49.8741 41.7847 48.8539 41.6995 47.8974 41.5291C46.6433 41.2949 45.9632 40.4856 45.8994 39.2078C45.7931 37.5679 45.8356 35.9281 45.7931 34.3095C45.7719 33.6919 45.9419 33.053 45.2405 32.5419Z" fill="#F9F9F9"/>
<path d="M18.2677 41.4866C18.8203 41.1033 18.7566 40.6986 18.544 40.2088C18.3315 39.7403 18.2464 39.1866 17.46 39.2718C16.6948 39.3569 15.8871 39.3144 15.1007 39.2931C14.7393 39.2718 14.5268 39.3782 14.4418 39.7403C14.4205 39.8468 14.378 39.932 14.3355 40.0171C14.0804 40.507 13.9104 40.9968 14.4843 41.4866H11.8486C12.9326 40.294 13.209 38.7606 13.8466 37.4189C14.3355 36.3754 14.7393 35.3106 15.1644 34.2457C15.547 33.33 15.5258 33.33 14.9731 32.5633H17.9489C17.9064 32.6698 17.8851 32.7976 17.8213 32.8402C17.4387 33.0318 17.4387 33.33 17.5663 33.6494C18.5653 35.9921 19.543 38.3347 20.5633 40.656C20.6908 40.9542 20.9884 41.1672 21.2434 41.4866H18.2677ZM17.5663 37.9514C17.1624 36.993 16.7798 36.0985 16.3547 35.0763C15.9509 36.0985 15.5683 37.0143 15.207 37.9514H17.5663Z" fill="#F9F9F9"/>
<path d="M68.3875 11.0537C69.8753 10.7769 71.1294 10.5426 72.3834 10.287C72.6597 10.2231 72.9148 10.0954 73.1486 9.94628C73.2549 9.88239 73.4037 9.62683 73.3612 9.58424C73.2761 9.45646 73.0848 9.32868 72.9573 9.32868C72.596 9.34998 72.2559 9.45646 71.8946 9.49905C71.4482 9.54165 71.0018 9.60554 70.5767 9.56294C69.9816 9.52035 69.769 9.1583 69.9816 8.58329C70.4492 7.36938 71.3419 6.56011 72.5322 6.17677C73.5312 5.83602 74.5727 5.68694 75.6567 5.58046C75.2104 6.17677 74.8915 6.85826 74.0201 6.94345C73.2974 7.02863 72.596 7.22031 71.8946 7.41198C71.767 7.45457 71.682 7.60365 71.5545 7.71013C71.682 7.79532 71.8308 7.96569 71.9583 7.98699C72.511 8.00829 73.0848 8.00828 73.6587 8.00828C74.5727 8.00828 75.0403 8.66848 74.6152 9.49905C74.3602 9.96758 73.9563 10.3722 73.5525 10.6917C72.2346 11.7139 70.7255 11.9056 69.1314 11.5861C68.8976 11.5009 68.7063 11.2667 68.3875 11.0537Z" fill="#F9F9F9"/>
<path d="M87.8994 32.5419H90.7264C89.8762 33.3938 90.3013 34.4373 90.2587 35.3957C90.195 37.0781 90.2375 38.7393 90.2587 40.4217C90.2587 40.7624 90.4288 41.0819 90.5563 41.4865H88.1757C88.2608 41.0393 88.3883 40.5921 88.3883 40.1448C88.4095 38.1642 88.4095 36.1837 88.3883 34.2031C88.4095 33.6493 88.5583 33.053 87.8994 32.5419Z" fill="#F9F9F9"/>
<path d="M97.9109 9.30745C98.0172 8.43428 98.421 8.02964 99.2712 7.75279C103.288 6.47498 107.306 5.11199 111.302 3.7916C111.429 3.749 111.578 3.70641 111.705 3.66382C111.727 4.38791 111.387 4.92032 110.77 5.11199C106.668 6.45369 102.545 7.81668 98.4423 9.15837C98.2722 9.22226 98.1022 9.26485 97.9109 9.30745Z" fill="#F9F9F9"/>
<path d="M86.7946 6.8582C87.0071 6.51746 87.1772 6.15541 87.411 5.83596C88.0274 4.9628 88.7288 4.2813 89.9191 4.3239C90.5992 4.34519 91.2794 4.26001 91.9808 4.23871C92.2146 4.23871 92.4484 4.3026 92.7885 4.34519C91.5132 6.41097 90.1529 8.1999 87.6023 8.49805C87.2834 8.54064 86.9434 8.39157 86.582 8.22119C88.1974 7.77396 89.7703 7.34803 90.8968 5.85726C89.3877 5.83596 87.9211 5.43132 87.0284 7.19895C86.9646 7.07117 86.8796 6.96469 86.7946 6.8582Z" fill="#F9F9F9"/>
<path d="M30.8718 9.94608C32.5085 9.62663 34.0176 9.13681 35.1441 7.64604C34.3364 7.64604 33.6138 7.66733 32.9123 7.64604C32.0621 7.62474 31.9133 8.64698 31.1694 8.79606C31.2757 7.64604 32.6573 6.26175 33.7413 6.17656C34.7828 6.09138 35.803 6.04878 36.8445 5.98489C36.8871 6.04878 36.9083 6.13397 36.9508 6.19786C36.6745 6.64509 36.4194 7.11362 36.1006 7.53955C35.0591 8.92384 33.8688 10.1165 32.0409 10.3294C31.6583 10.372 31.2544 10.2442 30.8506 10.2016C30.8506 10.0952 30.8506 10.0313 30.8718 9.94608Z" fill="#F9F9F9"/>
<path d="M11.4661 7.83784C11.4873 7.58228 11.4661 7.3906 11.5298 7.26282C11.6786 7.00726 11.8487 6.66652 12.0612 6.62392C12.2738 6.58133 12.6564 6.7943 12.8051 7.00726C13.209 7.64617 13.5278 8.34896 13.9954 9.05175C13.9954 8.39155 13.9529 7.73135 14.0167 7.09245C14.0592 6.58133 14.1655 6.07021 14.3568 5.60168C14.5056 5.23964 14.8031 4.89889 15.3133 5.06926C15.8234 5.23964 15.9509 5.66557 15.9297 6.1341C15.9084 6.41096 15.7809 6.70911 15.5896 6.98597C15.5471 6.81559 15.5471 6.62392 15.462 6.49614C15.3345 6.30447 15.122 6.1341 14.9519 5.96373C14.8031 6.17669 14.5693 6.38966 14.5268 6.60263C14.463 7.00726 14.5481 7.4545 14.5056 7.88043C14.4418 8.51933 14.378 9.15823 14.2505 9.79713C14.208 9.9888 13.9529 10.1379 13.8041 10.3083C13.6553 10.1379 13.4853 9.96751 13.4003 9.77584C13.1452 9.20083 12.9539 8.56192 12.6564 8.00821C12.295 7.32671 12.0825 7.32672 11.4661 7.83784Z" fill="#F9F9F9"/>
<path d="M106.966 25.7059C106.349 25.0457 105.818 24.4494 105.265 23.8318C105.839 23.2142 106.392 22.6179 106.987 22.0003C107.561 22.6179 108.092 23.1929 108.708 23.8531C108.135 24.4494 107.582 25.0457 106.966 25.7059Z" fill="#F9F9F9"/>
<path d="M54.3377 8.81764C54.3802 8.02966 54.3802 7.28428 54.4865 6.56019C54.529 6.15555 54.6778 5.72962 54.8903 5.36758C55.1454 4.94164 55.528 4.94164 55.8043 5.36758C56.0806 5.77221 56.3357 6.21944 56.0168 6.66668C55.7193 6.45371 55.443 6.26204 55.1666 6.07037C55.0816 6.41111 54.9328 6.75186 54.9116 7.09261C54.8903 7.62503 54.9328 8.13615 54.9541 8.66857C54.9541 8.81764 54.9966 8.96672 54.9328 9.0945C54.7415 9.47784 54.529 9.81859 54.3164 10.1806C54.0826 9.83988 53.8276 9.54173 53.6575 9.17969C53.4875 8.79635 53.4237 8.37041 53.2749 7.98707C53.1049 7.58243 52.8711 7.19909 52.3185 7.73151C52.3185 7.49725 52.2759 7.32687 52.3185 7.22039C52.446 6.96483 52.5948 6.60279 52.8073 6.5389C52.9986 6.4963 53.3812 6.73056 53.5087 6.94353C53.8276 7.49725 54.0614 8.15744 54.3377 8.81764Z" fill="#F9F9F9"/>
<path d="M93.341 13.9925C92.7459 13.3536 92.2145 12.7573 91.6406 12.1397C92.2145 11.5221 92.7671 10.9258 93.341 10.3082C93.9362 10.9471 94.4888 11.5434 95.0627 12.161C94.4888 12.7573 93.9362 13.3323 93.341 13.9925Z" fill="#F9F9F9"/>
</svg>
