<svg width="131" height="38" viewBox="0 0 131 38" fill="none" xmlns="http://www.w3.org/2000/svg">
<path d="M37.2439 19.0002C37.2439 29.1771 28.9931 37.4309 18.8132 37.4309C16.8753 37.4309 15.0083 37.1325 13.2536 36.5771C10.6126 35.7411 8.22866 34.329 6.24941 32.4857C2.64244 29.118 0.385498 24.3235 0.385498 19.0002C0.385498 8.82029 8.63633 0.569458 18.8162 0.569458C21.02 0.569458 23.1322 0.956446 25.0907 1.66543C27.6372 2.58712 29.9207 4.05235 31.8054 5.92231C35.1672 9.26045 37.2469 13.8866 37.2469 18.9972L37.2439 19.0002Z" fill="#F9F9F9"/>
<path d="M27.3655 26.8256L24.884 25.5848C24.884 25.5848 20.6508 33.2892 13.2566 36.5741C10.6157 35.7381 8.2317 34.3261 6.25244 32.4827C7.87129 32.2464 10.5005 31.4163 13.2655 28.6955C17.7794 24.2555 18.8163 21.8124 18.8163 21.8124L16.8813 20.5215C16.2167 20.0784 16.3466 19.0651 17.0999 18.8022L25.6137 15.8363C26.1927 15.6354 26.8101 16.0165 26.8899 16.6221L28.1542 26.2613C28.2133 26.6985 27.7584 27.0205 27.3655 26.8226V26.8256Z" fill="#353535"/>
<path d="M29.9294 16.1553C29.7197 16.6811 28.9516 16.6043 28.8571 16.046L28.2899 12.7817L24.0803 14.0904C23.6135 14.2351 23.1999 13.7565 23.4067 13.3164C23.9532 12.1495 24.7745 10.1614 25.4037 7.60017C26.0004 5.17189 25.5662 3.03902 25.0906 1.66536C27.637 2.58704 29.9205 4.05228 31.8053 5.92223C32.145 9.78621 30.8215 13.8983 29.9324 16.1553H29.9294Z" fill="#353535"/>
<path d="M81.3753 20.0577C81.6914 18.9883 82.0045 17.9189 82.3206 16.8466C82.7224 15.47 83.1182 14.0934 83.5288 12.7197C83.8213 11.733 84.3264 11.3667 85.3397 11.3638C86.0487 11.3638 86.7606 11.3638 87.4696 11.3638C88.3824 11.3638 88.926 11.7596 89.183 12.637C89.8506 14.8939 90.5064 17.1538 91.1682 19.4137C91.2332 19.6323 91.304 19.8509 91.4636 20.0636C91.5729 19.718 91.6851 19.3753 91.7885 19.0297C92.3853 17.012 92.982 14.9944 93.5787 12.9767C93.9243 11.8098 94.5122 11.3667 95.7293 11.3638C96.4915 11.3638 97.2566 11.3638 98.0187 11.3638C98.6627 11.3667 98.9345 11.6592 98.775 12.2855C98.5741 13.089 98.3053 13.8718 98.0512 14.6606C96.8903 18.2793 95.7293 21.8981 94.5595 25.514C94.2493 26.477 93.6289 26.9142 92.6157 26.9172C92.0514 26.9172 91.4843 26.9172 90.92 26.9172C89.9304 26.9142 89.2775 26.4416 88.9821 25.4992C88.1697 22.9291 87.3633 20.3561 86.5538 17.786C86.5125 17.6501 86.4593 17.5172 86.3736 17.2661C86.2909 17.4906 86.2407 17.6117 86.2023 17.7387C85.387 20.3236 84.5775 22.9084 83.7593 25.4903C83.452 26.4652 82.8169 26.9201 81.7948 26.9231C81.2158 26.9231 80.6368 26.926 80.0578 26.9231C79.1272 26.9172 78.4832 26.4622 78.1937 25.573C76.9293 21.6559 75.6739 17.7358 74.4154 13.8186C74.2854 13.4169 74.1495 13.021 74.0373 12.6134C73.9811 12.4125 73.9486 12.1998 73.9516 11.993C73.9546 11.5853 74.1525 11.3785 74.5572 11.3756C75.4907 11.3667 76.4242 11.3549 77.3577 11.3785C78.2173 11.4022 78.8347 11.9044 79.0858 12.7433C79.7742 15.0475 80.4566 17.3577 81.1419 19.6648C81.1803 19.7978 81.2276 19.9307 81.2689 20.0636C81.3044 20.0636 81.3398 20.0636 81.3782 20.0636L81.3753 20.0577Z" fill="#F9F9F9"/>
<path d="M71.8544 14.2676C71.0302 12.6429 69.624 11.801 67.9195 11.3726C66.3538 10.9797 64.7645 11.0211 63.1723 11.1481C62.029 11.2397 60.9035 11.4317 59.843 11.9044C58.5491 12.4804 57.7603 13.4257 57.654 14.8791C57.6008 15.6177 57.9346 16.0106 58.6643 16.0135C59.2817 16.0165 59.8991 16.0135 60.5195 16.0135C61.1723 16.0165 61.7159 15.7861 62.1531 15.2839C62.3422 15.0712 62.5755 14.8851 62.8237 14.7462C63.4706 14.3858 64.1914 14.2854 64.9211 14.2883C66.7526 14.3001 67.5 14.9944 67.695 16.8023C67.7334 17.1745 67.6271 17.2897 67.2548 17.2838C65.7955 17.269 64.3362 17.2779 62.8739 17.2808C61.7602 17.2808 60.6701 17.4463 59.6332 17.8658C57.7101 18.6456 56.6082 20.0193 56.5432 22.1522C56.4901 24.0487 57.5122 25.6292 59.388 26.4977C60.4072 26.9703 61.4943 27.1535 62.6021 27.2067C64.3214 27.2894 65.955 26.9733 67.4439 26.0693C67.6448 25.9482 67.8398 25.8241 68.0879 25.6705C68.1115 25.7975 68.1233 25.8478 68.1263 25.9009C68.1736 26.6838 68.4217 26.9201 69.2046 26.9201C69.9667 26.9231 70.7289 26.9231 71.494 26.9201C72.1882 26.9201 72.4718 26.6336 72.4718 25.9334C72.4718 22.9734 72.4718 20.0134 72.4718 17.0534C72.4718 16.0785 72.2945 15.1421 71.8544 14.2676ZM67.7039 22.4121C67.7009 22.5392 67.6448 22.7223 67.5503 22.7814C66.0761 23.6794 64.5046 24.2289 62.7557 23.8803C61.6007 23.6499 61.0276 22.5392 61.4884 21.5436C61.8045 20.8671 62.3953 20.5658 63.1043 20.5245C63.8222 20.4831 64.5489 20.5156 65.2697 20.5156V20.4949C65.9521 20.4949 66.6374 20.5038 67.3198 20.489C67.6034 20.4831 67.7245 20.5776 67.7157 20.873C67.7009 21.3871 67.7216 21.8981 67.7039 22.4121Z" fill="#F9F9F9"/>
<path d="M122.071 25.7532C121.593 25.6941 121.188 25.6586 120.789 25.5877C119.454 25.3573 118.405 24.6601 117.581 23.5967C116.671 22.4239 116.092 21.0857 115.655 19.6884C114.89 17.2394 114.163 14.7816 113.425 12.3267C113.244 11.7241 113.501 11.3726 114.125 11.3666C115.02 11.3607 115.915 11.3607 116.807 11.3666C117.516 11.3696 117.989 11.7241 118.201 12.4183C118.869 14.6073 119.525 16.7993 120.204 18.9853C120.479 19.8656 120.825 20.7194 121.407 21.4549C121.72 21.8478 122.104 22.1196 122.606 22.2348C122.91 22.3057 123.055 22.2289 123.141 21.9128C123.926 19.0207 124.73 16.1316 125.527 13.2396C125.61 12.9353 125.69 12.631 125.782 12.3267C125.968 11.7034 126.411 11.3696 127.061 11.3666C127.941 11.3637 128.824 11.3637 129.705 11.3666C130.378 11.3666 130.65 11.7123 130.476 12.3504C129.211 16.9676 127.971 21.5908 126.662 26.1933C126.358 27.2598 125.897 28.2967 125.377 29.2774C124.423 31.0794 122.869 32.0277 120.822 32.01C119.578 31.9982 118.331 31.8534 117.091 31.7264C116.455 31.6614 116.198 31.3128 116.195 30.6865C116.195 30.2257 116.187 29.7648 116.195 29.304C116.207 28.7486 116.529 28.406 117.091 28.4266C117.693 28.4503 118.293 28.5212 118.89 28.6127C119.752 28.7457 120.482 28.5212 121.061 27.8683C121.59 27.2745 121.861 26.5567 122.065 25.7532H122.071Z" fill="#F9F9F9"/>
<path d="M44.6707 19.1153C44.6707 16.879 44.6234 14.6398 44.6943 12.4065C44.7239 11.5144 44.9189 10.5986 45.2054 9.74782C45.8021 7.97535 47.1876 7.05662 48.9423 6.63714C50.8596 6.17925 52.8034 6.19993 54.7501 6.36241C55.2464 6.40377 55.7427 6.47171 56.236 6.56033C56.8564 6.66964 57.1164 6.99754 57.1223 7.62086C57.1252 8.05511 57.1311 8.48937 57.1223 8.92362C57.1075 9.54989 56.7855 9.87484 56.1592 9.86598C55.7132 9.86007 55.2641 9.83644 54.8269 9.75373C53.6394 9.52921 52.4636 9.61488 51.3056 9.88666C50.1919 10.1496 49.6661 10.8349 49.4977 12.1436C49.4475 12.5335 49.4505 12.9323 49.4121 13.3223C49.3766 13.6768 49.5036 13.8097 49.8729 13.8038C51.3322 13.7861 52.7945 13.7949 54.2538 13.7979C55.0308 13.7979 55.2996 14.0667 55.3055 14.8378C55.3055 15.3104 55.3144 15.786 55.3055 16.2587C55.2907 16.8849 54.9717 17.201 54.3425 17.201C52.8565 17.2069 51.3677 17.2129 49.8818 17.1951C49.5214 17.1922 49.4091 17.2985 49.4121 17.6648C49.4239 20.3885 49.4209 23.1122 49.418 25.8359C49.418 26.6601 49.158 26.9201 48.3338 26.9201C47.4653 26.9201 46.5968 26.9201 45.7283 26.9201C44.9218 26.9201 44.6559 26.6571 44.6559 25.8625C44.6559 23.6115 44.6559 21.3634 44.6559 19.1123H44.6796L44.6707 19.1153Z" fill="#F9F9F9"/>
<path d="M105.608 13.1036C106.042 12.8112 106.373 12.5808 106.716 12.3622C108.255 11.3666 109.968 11.0564 111.764 11.0771C112.281 11.083 112.597 11.405 112.609 11.9279C112.627 12.6517 112.63 13.3754 112.609 14.0992C112.592 14.6545 112.29 14.9529 111.732 14.9588C111.076 14.9647 110.414 14.9529 109.762 14.8879C108.447 14.7609 107.383 15.2395 106.42 16.0932C105.83 16.619 105.57 17.1833 105.59 18.0045C105.649 20.6071 105.611 23.2156 105.611 25.8211C105.611 26.6571 105.339 26.923 104.494 26.9259C103.587 26.9259 102.678 26.9289 101.771 26.9259C101.141 26.923 100.822 26.6098 100.822 25.9777C100.819 21.4254 100.822 16.8731 100.822 12.3208C100.822 11.6916 101.141 11.3755 101.771 11.3725C102.745 11.3666 103.717 11.3666 104.692 11.3725C105.274 11.3755 105.59 11.6916 105.608 12.2735C105.617 12.5187 105.608 12.7669 105.608 13.1066V13.1036Z" fill="#F9F9F9"/>
</svg>
