<svg width="51" height="31" viewBox="0 0 51 31" fill="none" xmlns="http://www.w3.org/2000/svg">
<g clip-path="url(#clip0_420_80)">
<path d="M49.2899 6.48206H5.60919C4.91489 6.48206 4.35205 7.03849 4.35205 7.72488V29.7572C4.35205 30.4436 4.91489 31 5.60919 31H49.2899C49.9841 31 50.547 30.4436 50.547 29.7572V7.72488C50.547 7.03849 49.9841 6.48206 49.2899 6.48206Z" fill="#5ED181"/>
<path d="M48.304 4.87036H4.62335C3.92905 4.87036 3.36621 5.42679 3.36621 6.11319V28.1455C3.36621 28.8319 3.92905 29.3884 4.62335 29.3884H48.304C48.9983 29.3884 49.5611 28.8319 49.5611 28.1455V6.11319C49.5611 5.42679 48.9983 4.87036 48.304 4.87036Z" fill="#54B26C"/>
<path d="M47.4559 3.22302H3.7752C3.08091 3.22302 2.51807 3.77946 2.51807 4.46585V26.4982C2.51807 27.1846 3.08091 27.741 3.7752 27.741H47.4559C48.1502 27.741 48.713 27.1846 48.713 26.4982V4.46585C48.713 3.77946 48.1502 3.22302 47.4559 3.22302Z" fill="#5ED181"/>
<path d="M46.4705 1.61157H2.78985C2.09555 1.61157 1.53271 2.168 1.53271 2.8544V24.8867C1.53271 25.5731 2.09555 26.1296 2.78985 26.1296H46.4705C47.1648 26.1296 47.7276 25.5731 47.7276 24.8867V2.8544C47.7276 2.168 47.1648 1.61157 46.4705 1.61157Z" fill="#54B26C"/>
<path d="M45.4847 0H1.80401C1.10971 0 0.546875 0.556433 0.546875 1.24283V23.2752C0.546875 23.9616 1.10971 24.518 1.80401 24.518H45.4847C46.179 24.518 46.7418 23.9616 46.7418 23.2752V1.24283C46.7418 0.556433 46.179 0 45.4847 0Z" fill="#5ED181"/>
<path d="M44.6477 5.1506V19.3673C42.7585 19.3673 41.2271 20.8813 41.2271 22.749H6.06124C6.06124 20.8813 4.52981 19.3673 2.64062 19.3673V5.1506C4.52981 5.1506 6.06124 3.6366 6.06124 1.76892H41.2271C41.2271 3.6366 42.7585 5.1506 44.6477 5.1506Z" fill="#8EE88B"/>
<path d="M23.6441 18.9289C27.3702 18.9289 30.3907 15.9427 30.3907 12.2591C30.3907 8.57543 27.3702 5.58923 23.6441 5.58923C19.918 5.58923 16.8975 8.57543 16.8975 12.2591C16.8975 15.9427 19.918 18.9289 23.6441 18.9289Z" fill="#5ED181"/>
<path d="M9.6656 15.6046C11.0739 15.6046 12.2155 14.1068 12.2155 12.2592C12.2155 10.4116 11.0739 8.91382 9.6656 8.91382C8.25734 8.91382 7.11572 10.4116 7.11572 12.2592C7.11572 14.1068 8.25734 15.6046 9.6656 15.6046Z" fill="#5ED181"/>
<path d="M37.6231 15.6046C39.0314 15.6046 40.173 14.1068 40.173 12.2592C40.173 10.4116 39.0314 8.91382 37.6231 8.91382C36.2149 8.91382 35.0732 10.4116 35.0732 12.2592C35.0732 14.1068 36.2149 15.6046 37.6231 15.6046Z" fill="#5ED181"/>
</g>
<defs>
<clipPath id="clip0_420_80">
<rect width="50" height="31" fill="white" transform="translate(0.546875)"/>
</clipPath>
</defs>
</svg>
