<svg width="41" height="39" viewBox="0 0 41 39" fill="none" xmlns="http://www.w3.org/2000/svg">
<path d="M11.3594 11.8438C18.5353 11.8438 22.5585 11.8438 29.7344 11.8438M11.3594 17.9688H20.5469M0.640625 21.0517C0.640625 24.3183 2.93342 27.1644 6.16742 27.6401C8.47246 27.979 10.802 28.2383 13.156 28.4139C13.8706 28.467 14.524 28.8427 14.9221 29.4368L20.5469 37.875L26.1717 29.4368C26.369 29.1433 26.6306 28.8987 26.9366 28.7215C27.2426 28.5442 27.585 28.4391 27.9377 28.4139C30.2757 28.2394 32.6068 27.9813 34.9263 27.6401C38.1603 27.1644 40.4531 24.3204 40.4531 21.0496V8.76288C40.4531 5.49213 38.1603 2.64809 34.9263 2.17238C30.1651 1.47355 25.3591 1.12349 20.5469 1.125C15.6632 1.125 10.8612 1.4823 6.16742 2.17238C2.93342 2.64809 0.640625 5.49417 0.640625 8.76288V21.0496V21.0517Z" stroke="#0666F5" stroke-linecap="round" stroke-linejoin="round"/>
</svg>
