<svg width="129" height="32" viewBox="0 0 129 32" fill="none" xmlns="http://www.w3.org/2000/svg">
<g clip-path="url(#clip0_251_339)">
<path d="M121.221 32.0002H7.96254C3.88787 32.0002 0.602539 28.737 0.602539 24.737V7.28437C0.602539 3.26331 3.90921 0.0212097 7.96254 0.0212097H121.243C125.317 0.0212097 128.603 3.28437 128.603 7.28437V24.737C128.603 28.7581 125.296 32.0002 121.221 32.0002Z" fill="#BEBEBE"/>
<path d="M78.1492 32.0002H7.96254C3.90921 32.0002 0.602539 28.737 0.602539 24.737V7.26331C0.602539 3.26331 3.90921 0.000152588 7.96254 0.000152588H78.1705C82.2239 0.000152588 85.5305 3.26331 85.5305 7.26331V24.7159C85.5092 28.737 82.2025 32.0002 78.1492 32.0002Z" fill="#F9F9F9"/>
<path d="M104.09 13.9159C105.583 13.9159 106.927 14.9896 106.991 16.737H101.061C101.274 14.6107 102.895 13.9159 104.09 13.9159ZM113.285 9.91594C114.223 9.91594 114.97 10.4423 114.97 11.4738C114.97 12.4212 114.394 13.3475 113.114 13.9159L113.093 13.8949C112.325 13.0949 111.599 12.1686 111.599 11.3054C111.599 10.4423 112.389 9.91594 113.285 9.91594ZM118.511 19.7054C119.343 18.2738 119.834 16.6738 120.005 15.1159H117.466C117.402 16.0844 117.21 17.0738 116.869 17.937C116.527 18.8002 116.101 19.5581 115.546 20.1896C114.714 21.137 113.647 21.7475 112.453 21.7475C111.023 21.7475 110.042 21.137 109.658 20.1475H106.927C106.479 21.1791 105.434 21.7265 104.133 21.7265C102.682 21.7265 101.21 20.6949 101.039 18.6107H109.53C109.743 17.5791 110.575 16.8002 111.919 16.3159C111.919 16.3159 113.157 15.8738 114.394 15.3475C116.08 14.5686 117.359 13.2002 117.359 11.4317C117.359 8.94752 115.205 8.08437 113.242 8.08437C110.767 8.08437 108.954 9.34752 108.954 11.3896C108.954 12.5896 109.615 13.7054 110.575 14.8423C110.063 15.0317 109.573 15.2633 109.125 15.537C108.335 13.3896 106.543 12.0212 104.069 12.0212C100.826 12.0212 98.4795 14.4212 98.4795 17.8107C98.4795 21.2002 100.57 23.7896 104.239 23.7896C105.925 23.7896 107.205 23.1791 108.079 22.337C108.975 23.2423 110.319 23.7896 111.983 23.7896C114.01 23.7896 115.674 22.9896 116.954 21.7475L118.575 23.4949H122.031L118.511 19.7054Z" fill="black"/>
<path d="M14.5328 13.8738C14.1702 13.8738 13.8288 13.937 13.4875 14.0423C13.1462 14.1475 12.8262 14.3159 12.5488 14.5686C12.2715 14.8002 12.0368 15.0949 11.8448 15.4528C11.6528 15.8107 11.5675 16.2317 11.5462 16.7159H17.3915C17.3702 16.2738 17.2848 15.8738 17.1355 15.537C16.9862 15.1791 16.7728 14.8844 16.5168 14.6317C16.2608 14.3791 15.9622 14.2107 15.6208 14.0844C15.2795 13.937 14.9168 13.8738 14.5328 13.8738ZM14.7035 23.7686C13.7648 23.7686 12.9328 23.6212 12.2075 23.2844C11.4822 22.9475 10.8848 22.5265 10.4155 21.9791C9.94618 21.4317 9.58351 20.8002 9.32751 20.0633C9.07151 19.3475 8.96484 18.5686 8.96484 17.7475C8.96484 16.8844 9.09284 16.1054 9.37018 15.3896C9.64751 14.6738 10.0102 14.0633 10.5008 13.5581C10.9702 13.0317 11.5675 12.6317 12.2502 12.337C12.9328 12.0423 13.7008 11.8949 14.5328 11.8949C15.4288 11.8949 16.2182 12.0633 16.9222 12.4002C17.6262 12.737 18.2022 13.2002 18.6715 13.7896C19.1408 14.3791 19.5035 15.0738 19.7168 15.8738C19.9515 16.6949 20.0155 17.5581 19.9728 18.5054H11.5462C11.5675 18.9475 11.6528 19.3686 11.8235 19.7475C11.9728 20.1265 12.2075 20.4633 12.4635 20.7581C12.7408 21.0317 13.0608 21.2633 13.4022 21.4107C13.7648 21.5581 14.1702 21.6423 14.5755 21.6423C15.9408 21.6423 16.8582 21.1159 17.3275 20.0633H19.8235C19.6955 20.5054 19.4822 20.9686 19.2262 21.3896C18.9488 21.8317 18.6075 22.2317 18.2022 22.5686C17.7755 22.9054 17.2848 23.1791 16.6875 23.4107C16.1115 23.6423 15.4502 23.7686 14.7035 23.7686ZM21.8502 9.1791H24.3888V12.1686H26.6928V13.9791H24.3888V20.1475C24.3888 20.737 24.4955 21.0949 24.6662 21.3054C24.8582 21.4949 25.2208 21.5791 25.7542 21.5791H26.6715V23.4949H24.7942C24.1755 23.4949 23.6848 23.4528 23.3008 23.3686C22.9168 23.2633 22.6182 23.1159 22.4048 22.9054C22.1915 22.6738 22.0422 22.3791 21.9568 21.9791C21.8928 21.6002 21.8288 21.1159 21.8288 20.5475V14.0002H20.1222V12.1896H21.8288V9.1791H21.8502ZM30.6822 23.4738H28.1435V12.1475H30.6822V23.4738ZM30.6822 10.7581H28.1435V8.23174H30.6822V10.7581ZM39.7275 15.3475C39.5995 14.8212 39.3008 14.4212 38.8315 14.1896C38.3622 13.937 37.7648 13.8317 37.0395 13.8317C36.4422 13.8317 35.9515 13.937 35.5248 14.1686C35.0982 14.3791 34.9062 14.6949 34.9062 15.0738C34.9062 15.7686 35.4608 16.2317 36.5702 16.4633L38.1275 16.7791C38.6822 16.9054 39.2368 17.0528 39.7275 17.2212C40.2395 17.3686 40.6662 17.5791 41.0502 17.8317C41.4128 18.0844 41.7115 18.4002 41.9248 18.7581C42.1382 19.137 42.2448 19.6002 42.2448 20.1475C42.2448 20.737 42.1168 21.2633 41.8608 21.7265C41.6048 22.1896 41.2422 22.5686 40.7942 22.8633C40.3462 23.1581 39.8342 23.3896 39.2368 23.5581C38.6395 23.7054 38.0208 23.7896 37.3382 23.7896C36.5915 23.7896 35.9302 23.6844 35.3328 23.4949C34.7355 23.3054 34.2022 23.0317 33.7755 22.6949C33.3488 22.3581 32.9862 21.9581 32.7302 21.4949C32.4742 21.0317 32.3035 20.5265 32.2608 19.9791H34.7355C34.8422 20.5896 35.1195 21.0528 35.5675 21.3896C36.0155 21.7265 36.6342 21.8949 37.4448 21.8949C38.1488 21.8949 38.7248 21.7686 39.1515 21.5159C39.5782 21.2633 39.7915 20.9054 39.7915 20.4423C39.7915 19.9791 39.5995 19.6633 39.2368 19.4107C38.8528 19.1581 38.3622 18.9896 37.7435 18.8633L36.0155 18.5054C35.5035 18.4002 35.0555 18.2738 34.6288 18.1265C34.2022 17.9581 33.8395 17.7475 33.5195 17.4949C33.2208 17.2423 32.9648 16.9054 32.7942 16.5475C32.6022 16.1686 32.5168 15.7265 32.5168 15.2212C32.5168 14.7159 32.6448 14.2738 32.8795 13.8738C33.1355 13.4738 33.4768 13.137 33.9035 12.8633C34.3302 12.5896 34.8208 12.3581 35.3968 12.2107C35.9515 12.0633 36.5702 11.9791 37.2102 11.9791C37.8075 11.9791 38.3835 12.0423 38.9168 12.1896C39.4502 12.337 39.9408 12.5475 40.3675 12.8423C40.7942 13.137 41.1568 13.4738 41.4768 13.9159C41.7755 14.337 41.9888 14.8423 42.0955 15.4107L39.7275 15.3475ZM51.0342 18.1686C50.1168 18.2528 49.3488 18.3581 48.7088 18.4633C48.0688 18.5686 47.5355 18.7159 47.1302 18.8844C46.7035 19.0528 46.4262 19.2423 46.2128 19.4949C46.0208 19.7265 45.9355 20.0002 45.9355 20.337C45.9355 20.8423 46.1275 21.2002 46.5115 21.4949C46.8955 21.7686 47.4075 21.9159 48.0475 21.9159C48.9862 21.9159 49.7115 21.6633 50.2448 21.1581C50.7782 20.6528 51.0342 19.7896 51.0342 18.6107V18.1686ZM48.6022 11.8317C49.3062 11.8317 49.9675 11.9159 50.5862 12.0844C51.1835 12.2528 51.7168 12.5265 52.1648 12.9054C52.6128 13.2844 52.9328 13.7686 53.1888 14.4002C53.4235 15.0107 53.5302 15.7896 53.5302 16.6738C53.5302 16.8212 53.5302 17.0107 53.5088 17.2212C53.4875 17.4528 53.4875 17.7054 53.4875 17.9791C53.4875 18.2528 53.4875 18.5265 53.4662 18.8212C53.4448 19.1159 53.4448 19.3686 53.4448 19.6423C53.4448 20.3581 53.4662 21.0528 53.5302 21.7686C53.5942 22.4633 53.6795 23.0528 53.7862 23.5159H51.4608C51.4182 23.2633 51.3755 23.0528 51.3328 22.8212C51.2902 22.5896 51.2688 22.2949 51.2262 21.8949C50.8635 22.5265 50.3728 22.9896 49.7115 23.3054C49.0715 23.6212 48.3035 23.7686 47.4502 23.7686C46.8315 23.7686 46.2555 23.6844 45.7435 23.5159C45.2315 23.3686 44.7835 23.137 44.3995 22.8212C44.0155 22.5265 43.7382 22.1686 43.5248 21.7475C43.3115 21.3265 43.2262 20.8633 43.2262 20.337C43.2262 19.6423 43.4395 19.0528 43.8448 18.5896C44.2715 18.1265 44.8048 17.7475 45.5088 17.4528C46.2128 17.1581 47.0235 16.9265 47.9622 16.7791C48.9008 16.6317 49.8822 16.4844 50.9488 16.3791V16.1054C50.9488 15.6423 50.8848 15.2423 50.7568 14.9265C50.6288 14.6107 50.4582 14.3581 50.2235 14.1686C50.0102 13.9791 49.7542 13.8317 49.4555 13.7686C49.1568 13.7054 48.8368 13.6423 48.4742 13.6423C47.8128 13.6423 47.2795 13.8107 46.8315 14.1475C46.3835 14.4844 46.1488 14.9896 46.1275 15.6844H43.6315C43.6742 15.0949 43.8235 14.5896 44.0795 14.1054C44.3355 13.6423 44.6768 13.2212 45.1035 12.8633C45.5302 12.5265 46.0422 12.2528 46.6395 12.0633C47.2368 11.9159 47.8982 11.8317 48.6022 11.8317ZM58.1595 23.4738H55.6208V8.23174H58.1595V23.4738ZM67.5888 18.1686C66.6715 18.2528 65.9035 18.3581 65.2635 18.4633C64.6235 18.5686 64.0902 18.7159 63.6848 18.8844C63.2582 19.0528 62.9808 19.2423 62.7675 19.4949C62.5755 19.7265 62.4902 20.0002 62.4902 20.337C62.4902 20.8423 62.6822 21.2002 63.0662 21.4949C63.4502 21.7686 63.9622 21.9159 64.6022 21.9159C65.5408 21.9159 66.2662 21.6633 66.7995 21.1581C67.3328 20.6528 67.5888 19.7896 67.5888 18.6107V18.1686ZM65.1782 11.8317C65.8822 11.8317 66.5435 11.9159 67.1622 12.0844C67.7595 12.2528 68.2928 12.5265 68.7408 12.9054C69.1888 13.2844 69.5088 13.7686 69.7648 14.4002C69.9995 15.0107 70.1062 15.7896 70.1062 16.6738C70.1062 16.8212 70.1062 17.0107 70.0848 17.2212C70.0635 17.4528 70.0635 17.7054 70.0635 17.9791C70.0635 18.2528 70.0635 18.5265 70.0422 18.8212C70.0208 19.1159 70.0208 19.3686 70.0208 19.6423C70.0208 20.3581 70.0422 21.0528 70.1062 21.7686C70.1702 22.4633 70.2555 23.0528 70.3622 23.5159H68.0368C67.9942 23.2633 67.9515 23.0528 67.9088 22.8212C67.8662 22.5896 67.8448 22.2949 67.8022 21.8949C67.4395 22.5265 66.9488 22.9896 66.2875 23.3054C65.6475 23.6212 64.8795 23.7686 64.0262 23.7686C63.4075 23.7686 62.8315 23.6844 62.3195 23.5159C61.8075 23.3686 61.3595 23.137 60.9755 22.8212C60.5915 22.5265 60.3142 22.1686 60.1008 21.7475C59.8875 21.3265 59.8022 20.8633 59.8022 20.337C59.8022 19.6423 60.0155 19.0528 60.4208 18.5896C60.8475 18.1265 61.3808 17.7475 62.0848 17.4528C62.7888 17.1581 63.5995 16.9265 64.5382 16.7791C65.4768 16.6317 66.4582 16.4844 67.5248 16.3791V16.1054C67.5248 15.6423 67.4608 15.2423 67.3328 14.9265C67.2048 14.6107 67.0342 14.3581 66.7995 14.1686C66.5862 13.9791 66.3302 13.8317 66.0315 13.7686C65.7328 13.7054 65.4128 13.6423 65.0502 13.6423C64.4102 13.6423 63.8555 13.8107 63.4075 14.1475C62.9595 14.4844 62.7248 14.9896 62.7035 15.6844H60.2075C60.2502 15.0949 60.3995 14.5896 60.6555 14.1054C60.9115 13.6423 61.2528 13.2212 61.6795 12.8633C62.1062 12.5265 62.6182 12.2528 63.2155 12.0633C63.8128 11.9159 64.4742 11.8317 65.1782 11.8317ZM72.4955 9.1791H75.0342V12.1686H77.3382V13.9791H75.0342V20.1475C75.0342 20.737 75.1408 21.0949 75.3115 21.3054C75.5035 21.4949 75.8662 21.5791 76.3995 21.5791H77.3168V23.4949H75.4395C74.8208 23.4949 74.3302 23.4528 73.9462 23.3686C73.5622 23.2633 73.2635 23.1159 73.0502 22.9054C72.8368 22.6738 72.6875 22.3791 72.6022 21.9791C72.5382 21.6002 72.4742 21.1159 72.4742 20.5475V14.0002H70.7675V12.1896H72.4742V9.1791H72.4955Z" fill="#353535"/>
<path d="M104.112 13.9159C105.605 13.9159 106.949 14.9896 107.013 16.737H101.082C101.296 14.6107 102.917 13.9159 104.112 13.9159ZM113.306 9.91594C114.245 9.91594 114.992 10.4423 114.992 11.4738C114.992 12.4212 114.416 13.3475 113.136 13.9159L113.114 13.8949C112.346 13.0949 111.621 12.1686 111.621 11.3054C111.621 10.4423 112.41 9.91594 113.306 9.91594ZM118.533 19.7054C119.365 18.2738 119.856 16.6738 120.026 15.1159H117.488C117.424 16.0844 117.232 17.0738 116.89 17.937C116.549 18.8001 116.122 19.558 115.568 20.1896C114.736 21.137 113.669 21.7475 112.474 21.7475C111.045 21.7475 110.064 21.137 109.68 20.1475H106.949C106.501 21.1791 105.456 21.7265 104.154 21.7265C102.704 21.7265 101.232 20.6949 101.061 18.6107H109.552C109.765 17.5791 110.597 16.8001 111.941 16.3159C111.941 16.3159 113.178 15.8738 114.416 15.3475C116.101 14.5686 117.381 13.2001 117.381 11.4317C117.381 8.94752 115.226 8.08436 113.264 8.08436C110.789 8.08436 108.976 9.34752 108.976 11.3896C108.976 12.5896 109.637 13.7054 110.597 14.8423C110.085 15.0317 109.594 15.2633 109.146 15.537C108.357 13.3896 106.565 12.0212 104.09 12.0212C100.848 12.0212 98.5009 14.4212 98.5009 17.8107C98.5009 21.2001 100.592 23.7896 104.261 23.7896C105.946 23.7896 107.226 23.1791 108.101 22.337C108.997 23.2423 110.341 23.7896 112.005 23.7896C114.032 23.7896 115.696 22.9896 116.976 21.7475L118.597 23.4949H122.053L118.533 19.7054ZM91.7809 10.3159C91.7809 10.5475 91.8023 10.758 91.8663 10.9265C91.9303 11.1159 91.9943 11.2423 92.0796 11.3686C92.1862 11.4949 92.2929 11.5791 92.4209 11.6212C92.5489 11.6844 92.6983 11.7054 92.8476 11.7054C93.1676 11.7054 93.4023 11.5791 93.5943 11.3265C93.7649 11.0738 93.8716 10.737 93.8716 10.3159C93.8716 9.89488 93.7863 9.55804 93.5943 9.30541C93.4236 9.05278 93.1676 8.92646 92.8476 8.92646C92.6983 8.92646 92.5703 8.94752 92.4209 9.01067C92.2929 9.07383 92.1649 9.15804 92.0796 9.26331C91.9729 9.36857 91.9089 9.51594 91.8663 9.70541C91.8023 9.89488 91.7809 10.0844 91.7809 10.3159ZM91.8236 6.90541V8.86331C91.9516 8.65278 92.1009 8.50541 92.3143 8.40015C92.5276 8.29488 92.7623 8.23173 93.0396 8.23173C93.2956 8.23173 93.5089 8.27383 93.7436 8.37909C93.9569 8.48436 94.1489 8.61067 94.2983 8.80015C94.4476 8.98962 94.5756 9.2212 94.6609 9.47383C94.7463 9.72646 94.7889 10.0212 94.7889 10.337C94.7889 10.6738 94.7463 10.9475 94.6609 11.2212C94.5756 11.4738 94.4476 11.7054 94.2983 11.8949C94.1489 12.0844 93.9569 12.2317 93.7436 12.3159C93.5303 12.4212 93.2956 12.4633 93.0396 12.4633C92.7623 12.4633 92.5276 12.4001 92.3143 12.2949C92.1009 12.1896 91.9516 12.0212 91.8236 11.8317V12.358H90.9062V6.90541H91.8236ZM95.1303 13.6423H95.5783C95.7916 13.6423 96.0049 13.6212 96.1543 13.5791C96.3036 13.537 96.4316 13.4738 96.5596 13.3686C96.6663 13.2633 96.7729 13.137 96.8583 12.9686C96.9649 12.8001 97.0503 12.5896 97.1356 12.337L98.5649 8.31594H97.6263L96.6876 11.2001L95.7489 8.31594H94.7463L96.2396 12.337L96.1969 12.4423C96.1543 12.5686 96.1116 12.6738 96.0689 12.737C96.0263 12.8001 95.9623 12.8633 95.9196 12.9054C95.8556 12.9475 95.7916 12.9686 95.7276 12.9686C95.6636 12.9896 95.5783 12.9896 95.4716 12.9896H95.1303V13.6423Z" fill="black"/>
</g>
<defs>
<clipPath id="clip0_251_339">
<rect width="128" height="32" fill="white" transform="translate(0.602539 0.000152588)"/>
</clipPath>
</defs>
</svg>
