<svg width="157" height="38" viewBox="0 0 157 38" fill="none" xmlns="http://www.w3.org/2000/svg">
<g clip-path="url(#clip0_251_322)">
<path d="M19.7624 0.500153C9.13752 0.500153 0.5271 8.78144 0.5271 19.0002C0.5271 29.2189 9.13752 37.5002 19.7624 37.5002C30.3872 37.5002 38.9951 29.2189 38.9951 19.0002C38.9951 8.78144 30.3872 0.500153 19.7624 0.500153ZM19.9148 29.3157C14.6307 29.3331 9.13236 24.9963 9.10653 18.029C9.08845 13.4213 11.6762 8.9876 14.9768 6.35468C18.1999 3.79379 22.6136 2.14449 26.614 2.12958C27.1306 2.12958 27.6729 2.17181 28.0009 2.2811C24.5015 2.97659 21.7174 6.11126 21.7277 9.66322C21.7277 9.78244 21.7381 9.90664 21.751 9.96625C27.6084 11.3374 30.2659 14.7378 30.2839 19.4373C30.2969 24.1418 26.4384 29.2959 19.9148 29.3157Z" fill="#F9F9F9"/>
<path d="M51.4175 26.6605L45.5369 13.163H49.3772L53.0445 22.1274L56.6008 13.163H60.2681L54.5605 26.6605H51.4149H51.4175Z" fill="#F9F9F9"/>
<path d="M70.5056 19.8422C70.5056 19.2808 70.4384 18.7468 70.3016 18.2401C70.1673 17.7334 69.9632 17.2987 69.6895 16.936C69.4183 16.5684 69.0877 16.2803 68.7003 16.0667C68.3104 15.8481 67.8558 15.7413 67.3316 15.7413C66.8073 15.7413 66.3502 15.8506 65.9628 16.0667C65.5728 16.2803 65.2422 16.5709 64.9736 16.936C64.7025 17.2987 64.4959 17.7358 64.3616 18.2401C64.2247 18.7468 64.1575 19.2808 64.1575 19.8422C64.1575 20.4035 64.2247 20.9649 64.3616 21.4592C64.4959 21.956 64.6947 22.3906 64.9556 22.7632C65.2164 23.1383 65.5496 23.4339 65.9499 23.65C66.345 23.8636 66.8099 23.9729 67.3316 23.9729C67.8533 23.9729 68.3104 23.8636 68.7003 23.65C69.0903 23.4314 69.4183 23.1358 69.6895 22.7632C69.9607 22.3906 70.1673 21.9535 70.3016 21.4592C70.4384 20.9624 70.5056 20.4234 70.5056 19.8422ZM74.0567 19.8571C74.0567 20.7364 73.9146 21.6008 73.6357 22.4503C73.3542 23.2998 72.9358 24.0573 72.3806 24.7305C71.8305 25.4036 71.1306 25.9451 70.2861 26.3549C69.4416 26.7673 68.455 26.9709 67.3316 26.9709C66.2081 26.9709 65.219 26.7673 64.3771 26.3549C63.5325 25.9426 62.8327 25.4036 62.2774 24.7305C61.7273 24.0573 61.3089 23.2998 61.0274 22.4503C60.7485 21.6008 60.6064 20.7364 60.6064 19.8571C60.6064 18.9778 60.7485 18.1233 61.0274 17.2813C61.3089 16.4417 61.7273 15.6916 62.2774 15.0284C62.8327 14.3652 63.5325 13.8361 64.3771 13.4338C65.219 13.0338 66.203 12.8277 67.3316 12.8277C68.4602 12.8277 69.439 13.0314 70.2732 13.4338C71.1073 13.8337 71.8072 14.3652 72.3677 15.0284C72.9332 15.6916 73.3542 16.4417 73.6357 17.2813C73.9146 18.1233 74.0567 18.9803 74.0567 19.8571Z" fill="#F9F9F9"/>
<path d="M84.9036 16.1337C84.2063 15.8729 83.5606 15.7388 82.9589 15.7388C82.3571 15.7388 81.8096 15.8555 81.368 16.0791C80.9238 16.3026 80.5544 16.6057 80.2652 16.9907C79.9759 17.3757 79.759 17.8054 79.6144 18.2848C79.4698 18.7617 79.3949 19.2535 79.3949 19.7602C79.3949 20.3216 79.4594 20.8581 79.586 21.3747C79.7099 21.8889 79.9036 22.341 80.1645 22.7235C80.4227 23.1085 80.7507 23.4165 81.1459 23.6525C81.541 23.8835 82.011 24.0027 82.5534 24.0027C82.9976 24.0027 83.4521 23.8835 83.9144 23.6525C84.3767 23.419 84.7073 23.1383 84.901 22.8228V16.1337H84.9036ZM85.1928 26.6605L85.0482 25.6272C84.7202 25.9799 84.2837 26.2928 83.7414 26.5611C83.2016 26.8318 82.5611 26.9685 81.8251 26.9685C80.8592 26.9685 80.0044 26.7722 79.2735 26.3798C78.5348 25.9898 77.9176 25.4657 77.414 24.8124C76.913 24.1592 76.5282 23.4016 76.2647 22.5422C76.0065 21.6852 75.8748 20.7885 75.8748 19.8546C75.8748 18.9778 76.0091 18.1184 76.2776 17.2788C76.5488 16.4393 76.9595 15.6891 77.5121 15.0259C78.0674 14.3627 78.757 13.8337 79.5911 13.4313C80.4227 13.0314 81.4015 12.8252 82.5198 12.8252C83.2559 12.8252 84.0513 12.9568 84.901 13.2152V7.98161H88.5089V26.6605H85.1902H85.1928Z" fill="#F9F9F9"/>
<path d="M98.677 20.3315C98.287 20.3514 97.8841 20.3862 97.4761 20.4309C97.0655 20.4781 96.6781 20.5402 96.3062 20.6147C95.5211 20.7637 94.9813 21.0195 94.6765 21.3822C94.377 21.7498 94.2246 22.1447 94.2246 22.5745C94.2246 23.0042 94.395 23.3792 94.7359 23.6525C95.0794 23.9207 95.5598 24.0573 96.1848 24.0573C96.6548 24.0573 97.1119 23.9654 97.5484 23.7791C97.9875 23.5929 98.3645 23.3569 98.677 23.0787V20.3315ZM98.9663 26.6505L98.8242 25.6421C98.4317 26.0569 97.9384 26.3823 97.334 26.6182C96.7297 26.8517 96.0686 26.9709 95.348 26.9709C94.7437 26.9709 94.16 26.8716 93.6099 26.6754C93.0521 26.4816 92.5614 26.1984 92.1327 25.8358C91.704 25.4732 91.3579 25.0261 91.097 24.492C90.831 23.958 90.7019 23.3569 90.7019 22.6837C90.7019 22.0106 90.8362 21.4194 91.1125 20.9053C91.3837 20.3911 91.753 19.9614 92.2231 19.6037C92.6905 19.251 93.2277 18.9604 93.832 18.7368C94.4338 18.5133 95.0691 18.3419 95.7302 18.2301C96.1977 18.1382 96.7091 18.0712 97.2643 18.0215C97.8196 17.9743 98.2819 17.9321 98.6538 17.8948V17.6986C98.6538 16.9509 98.4549 16.4194 98.052 16.1014C97.6517 15.786 97.1016 15.6245 96.4017 15.6245C95.9911 15.6245 95.5985 15.6717 95.2292 15.7686C94.8573 15.8605 94.5293 15.9772 94.2349 16.1163C93.9405 16.2604 93.6848 16.3995 93.4575 16.5386C93.2354 16.6777 93.0547 16.8044 92.9178 16.9162L91.722 14.4819C91.877 14.3503 92.1146 14.1938 92.4348 14.005C92.7577 13.8188 93.1425 13.6349 93.6022 13.4586C94.0593 13.2822 94.5706 13.1332 95.144 13.009C95.7173 12.8848 96.3346 12.8252 96.9931 12.8252C97.7705 12.8252 98.4807 12.9246 99.1212 13.1208C99.7617 13.317 100.317 13.625 100.782 14.0448C101.244 14.4621 101.608 14.9936 101.874 15.6394C102.135 16.2828 102.267 17.0602 102.267 17.9743V26.648H98.974L98.9663 26.6505Z" fill="#F9F9F9"/>
<path d="M113.413 11.0641C113.296 11.0095 113.069 10.9275 112.731 10.8257C112.387 10.7238 111.938 10.6717 111.375 10.6717C110.874 10.6717 110.448 10.8182 110.11 11.1064C109.771 11.3945 109.601 11.8689 109.601 12.5197V13.163H112.63V15.9648H109.629V26.6605H106.016V15.9648H104.154V13.163H106.016V12.4352C106.016 11.5584 106.132 10.8182 106.365 10.2097C106.597 9.6036 106.923 9.10931 107.341 8.72679C107.757 8.34178 108.25 8.0611 108.81 7.88475C109.376 7.70839 109.988 7.61897 110.649 7.61897C111.522 7.61897 112.243 7.69597 112.816 7.85743C113.389 8.0164 113.725 8.1232 113.821 8.18033L113.415 11.0616L113.413 11.0641Z" fill="#F9F9F9"/>
<path d="M123.256 19.8422C123.256 19.2808 123.186 18.7468 123.052 18.2401C122.917 17.7334 122.713 17.2987 122.44 16.936C122.168 16.5684 121.838 16.2803 121.45 16.0667C121.06 15.8481 120.606 15.7413 120.082 15.7413C119.557 15.7413 119.1 15.8506 118.713 16.0667C118.323 16.2803 117.992 16.5709 117.719 16.936C117.45 17.2987 117.246 17.7358 117.106 18.2401C116.972 18.7468 116.905 19.2808 116.905 19.8422C116.905 20.4035 116.972 20.9649 117.106 21.4592C117.243 21.956 117.442 22.3906 117.703 22.7632C117.964 23.1383 118.297 23.4339 118.692 23.65C119.093 23.8636 119.555 23.9729 120.076 23.9729C120.598 23.9729 121.055 23.8636 121.445 23.65C121.835 23.4314 122.163 23.1358 122.434 22.7632C122.706 22.3906 122.912 21.9535 123.046 21.4592C123.181 20.9624 123.251 20.4234 123.251 19.8422M126.807 19.8571C126.807 20.7364 126.665 21.6008 126.383 22.4503C126.104 23.2998 125.686 24.0573 125.133 24.7305C124.583 25.4036 123.883 25.9451 123.039 26.3549C122.194 26.7673 121.208 26.9709 120.084 26.9709C118.961 26.9709 117.972 26.7673 117.13 26.3549C116.285 25.9426 115.585 25.4036 115.03 24.7305C114.48 24.0573 114.062 23.2998 113.78 22.4503C113.499 21.6008 113.359 20.7364 113.359 19.8571C113.359 18.9778 113.496 18.1233 113.78 17.2813C114.062 16.4417 114.48 15.6916 115.03 15.0284C115.585 14.3652 116.285 13.8361 117.13 13.4338C117.972 13.0338 118.956 12.8277 120.084 12.8277C121.213 12.8277 122.192 13.0314 123.026 13.4338C123.86 13.8337 124.56 14.3652 125.12 15.0284C125.686 15.6916 126.107 16.4417 126.386 17.2813C126.667 18.1233 126.809 18.9803 126.809 19.8571" fill="#F9F9F9"/>
<path d="M138.015 26.6605V18.9629C138.015 17.937 137.793 17.1422 137.346 16.5808C136.897 16.0245 136.28 15.7413 135.479 15.7413C134.916 15.7413 134.397 15.8804 133.924 16.1636C133.447 16.4417 133.033 16.7522 132.685 17.0876V26.6629H129.077V13.1655H132.367L132.54 14.2286C133.106 13.784 133.739 13.4362 134.449 13.1953C135.156 12.9494 135.869 12.8327 136.587 12.8327C137.305 12.8327 138.005 12.937 138.627 13.1531C139.25 13.3717 139.782 13.7095 140.229 14.1764C140.678 14.6409 141.021 15.2495 141.264 15.9946C141.504 16.7423 141.628 17.639 141.628 18.6822V26.6629H138.015V26.6605Z" fill="#F9F9F9"/>
<path d="M152.857 18.2898C152.818 17.8253 152.715 17.4154 152.549 17.0726C152.384 16.7249 152.178 16.4467 151.935 16.2331C151.692 16.0145 151.429 15.858 151.147 15.7537C150.86 15.6519 150.574 15.5997 150.282 15.5997C149.657 15.5997 149.063 15.8233 148.497 16.2728C147.932 16.7224 147.599 17.3906 147.5 18.2873H152.859L152.857 18.2898ZM147.415 20.7811C147.493 21.9187 147.859 22.7434 148.526 23.2451C149.187 23.7493 150.044 24.0027 151.095 24.0027C151.584 24.0027 152.043 23.958 152.469 23.876C152.898 23.7916 153.278 23.6848 153.611 23.5531C153.944 23.4239 154.226 23.2923 154.458 23.1631C154.69 23.0315 154.863 22.9073 154.985 22.7955L155.946 25.6272C155.809 25.7191 155.589 25.8457 155.287 26.0047C154.987 26.1637 154.613 26.3102 154.166 26.4543C153.722 26.5934 153.195 26.7126 152.593 26.8169C151.992 26.9188 151.33 26.9709 150.615 26.9709C149.701 26.9709 148.833 26.8318 148.007 26.5536C147.183 26.2705 146.46 25.8358 145.84 25.2496C145.217 24.6609 144.724 23.9307 144.355 23.0539C143.983 22.177 143.8 21.1288 143.8 19.9167C143.8 18.7791 143.97 17.7681 144.308 16.8913C144.647 16.0145 145.114 15.2768 145.706 14.6782C146.3 14.0845 146.989 13.625 147.774 13.3046C148.562 12.9891 149.399 12.8277 150.295 12.8277C151.191 12.8277 152.012 12.9717 152.772 13.2499C153.528 13.5281 154.182 13.9628 154.737 14.5515C155.287 15.1402 155.726 15.9003 156.044 16.8367C156.367 17.7681 156.524 18.8784 156.524 20.1676V20.7836H147.413L147.415 20.7811Z" fill="#F9F9F9"/>
</g>
<defs>
<clipPath id="clip0_251_322">
<rect width="156" height="37" fill="white" transform="translate(0.5271 0.500153)"/>
</clipPath>
</defs>
</svg>
