<svg width="54" height="52" viewBox="0 0 54 52" fill="none" xmlns="http://www.w3.org/2000/svg">
<g clip-path="url(#clip0_251_345)">
<path d="M27.1046 52.0001C12.5453 52.0053 0.759436 40.4904 0.604359 26.3032C0.446202 11.8439 12.2164 0.304583 26.502 0.0061112C41.3782 -0.304717 53.2715 11.283 53.5948 25.2812C53.7631 32.5665 51.2491 38.8733 46.1022 44.1248C41.0182 49.3119 34.1153 52.0149 27.1049 52.0001H27.1046ZM37.3053 27.1854H44.1066C44.5346 27.1854 44.7795 26.9534 44.7804 26.5369C44.782 25.768 44.7946 24.9992 44.7778 24.2307C44.7431 22.634 44.0153 21.4239 42.6138 20.6141C41.973 20.244 41.2662 20.0883 40.5255 20.0877C37.7546 20.0858 34.9839 20.0866 32.2129 20.0872C31.872 20.0872 31.5344 20.1199 31.1999 20.1896C29.4353 20.557 28.0592 22.1018 27.9245 23.8682C27.8887 24.3388 27.9097 24.8103 27.9086 25.2815C27.9063 26.1835 27.8783 27.0869 27.9195 27.9872C28.02 30.1853 29.8736 31.9129 32.1164 31.9132C34.8826 31.9135 37.6488 31.9127 40.415 31.914C40.6764 31.914 40.937 31.9069 41.1951 31.8632C42.752 31.5988 43.8351 30.7427 44.466 29.3299C44.616 28.9939 44.3459 28.6866 43.9367 28.7706C43.4488 28.8708 42.9469 28.8675 42.4578 28.7725C42.23 28.7283 42.0665 28.7643 41.9386 28.9101C41.5523 29.3503 41.0577 29.5515 40.4695 29.5496C39.5878 29.5471 38.7063 29.5491 37.8246 29.5491C35.9401 29.5491 34.0554 29.5504 32.171 29.5485C31.3337 29.5477 30.6356 29.0427 30.3971 28.2725C30.3033 27.9694 30.3319 27.6566 30.3204 27.3466C30.3156 27.2143 30.3565 27.1821 30.4906 27.1824C32.7622 27.1868 35.034 27.1854 37.3056 27.1854H37.3053ZM26.306 24.6628V20.7509C26.306 20.3253 26.0686 20.0894 25.6331 20.0875C25.2739 20.0858 24.9148 20.0858 24.5557 20.0875C24.1405 20.0891 23.8956 20.3302 23.8956 20.7355C23.895 23.2564 23.895 25.7777 23.8948 28.2986C23.8948 29.0573 23.3453 29.576 22.5579 29.548C21.841 29.5224 21.1238 29.5183 20.4069 29.548C19.636 29.5798 19.0818 29.0573 19.0818 28.3134V20.7366C19.0818 20.3426 18.8366 20.0932 18.4332 20.088C18.0556 20.0834 17.6774 20.0834 17.2998 20.0894C17.1629 20.0916 17.0274 20.1103 16.911 20.2028C16.7329 20.3442 16.6666 20.5221 16.6669 20.7435C16.67 23.26 16.6691 25.7763 16.6688 28.2928C16.6688 29.0554 16.1224 29.5718 15.3316 29.5485C14.6162 29.5274 13.9004 29.518 13.1855 29.5477C12.4107 29.5798 11.8542 29.0581 11.8545 28.3154C11.8545 25.7897 11.8545 23.2641 11.8547 20.7385C11.8547 20.3417 11.6092 20.0924 11.207 20.0883C10.8339 20.0845 10.4607 20.0845 10.0876 20.0888C9.67469 20.0938 9.43536 20.339 9.43536 20.747C9.43536 23.2589 9.43536 25.7708 9.43592 28.2827C9.43592 28.415 9.4418 28.5479 9.45299 28.68C9.60667 30.4898 11.1829 31.9127 13.0335 31.9135C13.845 31.9138 14.6568 31.9179 15.4683 31.9121C16.3234 31.9061 17.0868 31.637 17.7513 31.1087C17.8423 31.0365 17.8946 31.0233 17.9926 31.1026C18.6731 31.6551 19.4619 31.9138 20.3425 31.9135C21.1168 31.9135 21.8911 31.9129 22.6653 31.9138C22.9274 31.914 23.186 31.8866 23.4418 31.833C25.1245 31.4807 26.3069 30.045 26.3063 28.3552C26.306 27.1245 26.3063 25.8935 26.3063 24.6628H26.306Z" fill="#F9F9F9"/>
<path d="M36.3435 24.8203C34.3849 24.8203 32.4262 24.8192 30.4673 24.8225C30.3557 24.8225 30.3142 24.8005 30.317 24.6824C30.3265 24.3137 30.3039 23.9452 30.4447 23.5882C30.7022 22.9353 31.3732 22.463 32.0859 22.4624C34.9212 22.4602 37.7565 22.4586 40.5921 22.4619C41.6041 22.4633 42.4335 23.3375 42.3582 24.3455C42.3503 24.4499 42.3523 24.5545 42.3627 24.6588C42.3755 24.7854 42.3506 24.8238 42.2333 24.8228C41.6738 24.8175 41.1142 24.8206 40.5546 24.8206H36.3435V24.8203Z" fill="#F9F9F9"/>
</g>
<defs>
<clipPath id="clip0_251_345">
<rect width="53" height="52" fill="white" transform="translate(0.602539 0.000152588)"/>
</clipPath>
</defs>
</svg>
