<svg width="53" height="52" viewBox="0 0 53 52" fill="none" xmlns="http://www.w3.org/2000/svg">
<rect width="52.0003" height="52.0003" transform="translate(0.602539)" fill="#F9F9F9"/>
<path d="M20.9993 46.9562C20.2656 47.4331 19.4585 47.6715 18.6148 47.6715C17.2575 47.6715 16.4688 46.7728 16.4688 45.5622C16.4688 43.9481 17.9545 43.086 21.0176 42.7375V42.3339C21.0176 41.802 20.6141 41.5085 19.8804 41.5085C19.1467 41.5085 18.5414 41.802 18.1196 42.3339L16.8356 41.6003C17.5143 40.6648 18.5414 40.1879 19.9171 40.1879C21.8063 40.1879 22.8702 41.0133 22.8702 42.3339C22.8702 42.3339 22.8702 47.5615 22.8702 47.5798H21.1827L20.9993 46.9562ZM18.3213 45.4338C18.3213 45.9107 18.6331 46.3692 19.1834 46.3692C19.7887 46.3692 20.3573 46.1124 20.9443 45.5989V43.893C19.1651 44.1315 18.3213 44.5717 18.3213 45.4338Z" fill="black"/>
<path d="M24.3564 40.5547L25.9339 40.3346L26.099 41.1967C26.9977 40.5547 27.6947 40.2062 28.5935 40.2062C30.0792 40.2062 30.8496 40.995 30.8496 42.554V47.5982H28.942V42.8842C28.942 42.0038 28.7036 41.6003 28.0249 41.6003C27.4563 41.6003 26.8877 41.857 26.2457 42.4073V47.5982H24.3564V40.5547Z" fill="black"/>
<path d="M43.4693 47.7266C41.3416 47.7266 40.0576 46.3509 40.0576 43.9664C40.0576 41.5636 41.3416 40.1879 43.4326 40.1879C45.5236 40.1879 46.7709 41.5085 46.7709 43.8747C46.7709 44.0031 46.7525 44.1315 46.7525 44.2415H41.9285C41.9469 45.6172 42.5155 46.2959 43.6344 46.2959C44.3497 46.2959 44.8266 46.0024 45.2668 45.3604L46.6608 46.1308C46.0555 47.1763 44.955 47.7266 43.4693 47.7266ZM44.9 43.0126C44.9 42.0405 44.3497 41.4719 43.4509 41.4719C42.5888 41.4719 42.0569 42.0221 41.9836 43.0126H44.9Z" fill="black"/>
<path d="M7.00448 47.7999C5.11522 47.7999 3.42773 46.6077 3.42773 43.9847C3.42773 41.3618 5.13356 40.1696 7.00448 40.1696C8.89373 40.1696 10.5812 41.3618 10.5812 43.9847C10.5812 46.6077 8.89373 47.7999 7.00448 47.7999ZM7.00448 41.7653C5.59212 41.7653 5.31699 43.0493 5.31699 43.9664C5.31699 44.9019 5.57378 46.1675 7.00448 46.1675C8.43517 46.1675 8.69196 44.8835 8.69196 43.9664C8.69196 43.0493 8.41683 41.7653 7.00448 41.7653Z" fill="black"/>
<path d="M11.8838 40.353H13.6997V41.1967C14.0482 40.7382 14.8919 40.1879 15.699 40.1879C15.7723 40.1879 15.8641 40.1879 15.9374 40.2062V41.9854C15.9007 41.9854 15.8824 41.9854 15.8457 41.9854C15.0203 41.9854 14.1032 42.1138 13.8281 42.7558V47.5615H11.8838V40.353Z" fill="black"/>
<path d="M35.5082 46.0391C36.9573 46.0207 37.0673 44.5534 37.0673 43.5996C37.0673 42.4623 36.517 41.5452 35.4899 41.5452C34.8112 41.5452 34.0408 42.0405 34.0408 43.6729C34.0592 44.5717 34.1142 46.0391 35.5082 46.0391ZM38.9199 40.3346V47.1946C38.9199 48.4052 38.8282 50.3862 35.3798 50.4229C33.9491 50.4229 32.6468 49.8543 32.3717 48.6253L34.2426 48.3319C34.316 48.6804 34.5361 49.0472 35.5999 49.0472C36.5904 49.0472 37.0673 48.5703 37.0673 47.4514V46.6077L37.049 46.5893C36.7555 47.1213 36.2786 47.6349 35.1781 47.6349C33.4906 47.6349 32.1699 46.4609 32.1699 44.0214C32.1699 41.6002 33.5456 40.2429 35.0863 40.2429C36.5354 40.2429 37.0673 40.9032 37.1957 41.2517H37.1774L37.3424 40.3897H38.9199V40.3346Z" fill="black"/>
<path d="M47.5043 37.9318H46.7522V40.0045H46.3487V37.9318H45.5967V37.62H47.4859V37.9318H47.5043ZM50.6225 40.0045H50.2189V38.0052H50.2006L49.4119 40.0045H49.1551L48.3664 38.0052H48.348V40.0045H47.9445V37.62H48.5498L49.2651 39.4359L49.9621 37.62H50.5674V40.0045H50.6225Z" fill="black"/>
</svg>
