<svg width="149" height="96" viewBox="0 0 149 96" fill="none" xmlns="http://www.w3.org/2000/svg">
<rect x="0.295366" y="0.599138" width="152.452" height="94.4522" rx="12.8725" fill="#F7F7F7"/>
<rect x="0.295366" y="0.599138" width="152.452" height="94.4522" rx="12.8725" stroke="#D1D1D1" stroke-width="0.547764"/>
<g clip-path="url(#clip0_380_249)">
<path d="M88.6065 41.9811C86.6528 41.6879 84.9861 42.3659 83.4948 43.5776C83.2994 43.7364 83.2147 43.7696 83.0455 43.5478C82.3731 42.6667 81.4661 42.1697 80.385 41.9874C79.4636 41.8321 78.5332 41.9506 77.7782 41.9104C76.8286 41.9104 76.0489 41.9021 75.2699 41.9125C74.4262 41.9243 73.6444 42.5808 73.4827 43.4112C73.3382 44.1544 73.2088 44.9003 73.0794 45.6468C72.6335 48.2166 72.1965 50.7884 71.7375 53.3553C71.6914 53.6111 71.7396 53.6458 71.9674 53.643C72.7464 53.6326 73.5261 53.6264 74.3044 53.6458C74.5645 53.652 74.6368 53.5508 74.6677 53.3172C74.7255 52.8729 74.8067 52.4313 74.8845 51.9897C75.2671 49.8193 75.6532 47.6488 76.0344 45.4784C76.1081 45.0597 76.3303 44.8427 76.7474 44.8393C77.4121 44.8337 78.0762 44.8358 78.741 44.842C79.1635 44.8462 79.5578 44.973 79.9054 45.2074C80.8908 45.8714 81.1303 46.9016 80.9486 48.0467C80.6678 49.8165 80.3334 51.578 80.0161 53.3415C79.9776 53.5564 80.0093 53.6493 80.2605 53.6437C81.0505 53.6278 81.8419 53.6312 82.6319 53.6423C82.8314 53.6451 82.8968 53.5883 82.9326 53.3831C83.2574 51.5163 83.6111 49.6543 83.9284 47.7861C84.1341 46.5716 84.8085 45.7356 85.8759 45.1956C86.3266 44.9675 86.8035 44.7755 87.321 44.8725C88.4138 45.0777 89.1832 46.0101 89.241 47.1345C89.2796 47.8804 89.1075 48.5971 88.9823 49.3202C88.751 50.6546 88.5157 51.9876 88.27 53.3193C88.2198 53.5917 88.3037 53.6486 88.5618 53.6423C89.272 53.625 89.9849 53.6028 90.6924 53.6493C91.0977 53.6756 91.1768 53.5044 91.2346 53.1654C91.4906 51.6591 91.7735 50.1576 92.0405 48.6526C92.2194 47.6433 92.3715 46.634 92.1988 45.6032C91.876 43.6781 90.49 42.2605 88.6045 41.9777L88.6065 41.9811Z" fill="#0666F5"/>
<path d="M72.0819 41.9098C71.2451 41.9111 70.4083 41.9146 69.5722 41.907C69.3912 41.9056 69.3114 41.9555 69.2797 42.1489C69.1551 42.908 69.012 43.665 68.8737 44.4219C68.7003 45.3703 68.586 46.3345 68.3362 47.2613C67.7988 49.255 66.1086 50.3413 64.0813 50.2373C63.5101 50.2082 63.0917 49.8886 62.8522 49.3666C62.5804 48.7746 62.6341 48.1473 62.7373 47.5324C63.0387 45.7314 63.3539 43.9325 63.6815 42.1357C63.7214 41.9153 63.6505 41.9084 63.4874 41.9091C62.6396 41.9118 61.7911 41.9132 60.9433 41.9077C60.776 41.9063 60.7168 41.9562 60.6859 42.1357C60.3363 44.1391 59.9323 46.1335 59.6295 48.1438C59.4541 49.3098 59.6137 50.4744 60.2193 51.5197C60.9887 52.8472 62.2177 53.4344 63.6842 53.5661C64.7557 53.6624 65.7597 53.4427 66.6117 52.7342C66.8629 52.5249 67.0893 52.285 67.37 52.0175C67.4058 53.5751 66.2421 54.9345 64.7736 55.157C63.751 55.3123 62.7442 55.2291 61.7463 54.9976C61.5206 54.9449 61.4738 55.008 61.4504 55.2132C61.3637 55.9667 61.3018 56.7264 61.149 57.4668C61.0671 57.8647 61.2454 57.9257 61.5234 57.9804C62.398 58.1531 63.2713 58.2744 64.1721 58.2175C66.9165 58.0449 68.7966 56.6786 69.8667 54.1435C70.3539 52.9893 70.5466 51.7644 70.7627 50.5423C71.2589 47.7362 71.766 44.9322 72.2842 42.1295C72.3276 41.8945 72.2361 41.9084 72.0847 41.9091L72.0819 41.9098Z" fill="#0666F5"/>
<path d="M57.0135 41.9118C55.7996 41.9062 54.5849 41.9104 53.371 41.9104C53.0035 41.9104 52.6416 41.9562 52.2823 42.0317C49.4134 42.6376 46.925 45.2635 46.6401 48.0925C46.4646 49.8352 46.9085 51.3353 48.2435 52.4992C49.7444 53.8073 52.3374 54.14 54.0048 52.7342C54.1954 52.5734 54.3806 52.4063 54.5677 52.242C54.596 52.2524 54.6249 52.2635 54.6531 52.2739C54.5863 52.6302 54.523 52.9872 54.4514 53.3421C54.4095 53.5487 54.4349 53.6513 54.693 53.6458C55.483 53.6284 56.2737 53.6277 57.0637 53.6465C57.2984 53.652 57.3562 53.5439 57.3885 53.3574C57.8936 50.4625 58.4008 47.5677 58.9025 44.6715C58.961 44.3346 59.056 43.9984 59.003 43.6504C58.8351 42.5447 58.1194 41.9153 57.0121 41.9104L57.0135 41.9118ZM55.7362 46.0177C55.6454 46.6547 55.536 47.2911 55.3935 47.9185C55.0329 49.5066 53.6697 50.6636 52.0491 50.6982C50.531 50.7308 49.5558 49.7811 49.56 48.3254C49.5717 46.4988 51.0822 44.9162 52.8934 44.8496C53.4997 44.8274 54.1074 44.8364 54.7143 44.842C55.3915 44.8475 55.8319 45.3411 55.7356 46.0177H55.7362Z" fill="#0666F5"/>
<path d="M100.369 42.0643C100.174 42.0643 99.9787 42.0567 99.7846 42.0671C99.6484 42.074 99.5135 42.1025 99.3786 42.1274C96.5688 42.6487 94.5704 44.1973 93.576 46.9175C92.9904 48.5181 93.1177 50.107 94.1506 51.51C95.3941 53.1987 97.1517 53.7137 99.137 53.4226C101.769 53.0372 103.722 51.6237 104.843 49.1815C105.648 47.4284 105.635 45.6559 104.476 44.0351C103.478 42.6404 102.037 42.0865 100.368 42.0657L100.369 42.0643ZM102.201 48.1688C101.743 49.628 100.341 50.6373 98.6822 50.5991C98.4984 50.5978 98.1826 50.5749 97.8722 50.4737C96.7464 50.1049 96.1456 49.1434 96.3128 47.9636C96.5991 45.9408 98.5507 44.562 100.52 44.9904C101.972 45.3065 102.68 46.6444 102.201 48.1688Z" fill="#0666F5"/>
<path d="M41.2911 50.7079C40.2141 50.7322 39.1371 50.7169 38.0595 50.7169C36.9591 50.7169 35.8594 50.7107 34.759 50.7218C34.5195 50.7246 34.4569 50.6462 34.5003 50.4209C34.5842 49.9808 34.6531 49.5385 34.7315 49.0969C35.1134 46.9376 35.5002 44.7789 35.8739 42.6182C35.9131 42.3922 36.0982 42.0913 35.9262 41.952C35.7782 41.8328 35.4658 41.909 35.2263 41.9166C33.9759 41.9575 32.9175 42.8511 32.6897 44.0905C32.4007 45.6621 32.1412 47.2384 31.8653 48.812C31.3333 51.8434 30.8021 54.8748 30.2584 57.9035C30.2213 58.1107 30.2729 58.1371 30.4497 58.1357C31.2631 58.1301 32.0772 58.1281 32.8907 58.1371C33.0758 58.1392 33.157 58.0768 33.1886 57.8951C33.413 56.5947 33.6566 55.2977 33.863 53.9951C33.9112 53.6908 34.0261 53.6291 34.3048 53.6333C35.2903 53.6492 36.2757 53.643 37.2612 53.6381C37.787 53.6354 38.3134 53.6645 38.8364 53.5695C40.3401 53.2957 41.2883 52.4326 41.5774 51.0774C41.6331 50.8168 41.62 50.7003 41.2911 50.7072V50.7079Z" fill="#0666F5"/>
<path d="M115.638 50.7107C113.518 50.7232 111.398 50.7176 109.279 50.7176C108.866 50.7176 108.859 50.7038 108.941 50.2858C109.027 49.847 109.107 49.4075 109.184 48.9666C109.518 47.0665 109.848 45.1657 110.183 43.2656C110.49 41.525 110.808 39.7871 111.107 38.045C111.216 37.4121 111.197 37.4087 110.542 37.4205C109.228 37.444 108.105 38.3736 107.879 39.6367C107.6 41.1957 107.329 42.7554 107.056 44.3151C106.532 47.3126 106.01 50.3107 105.483 53.3075C105.441 53.5466 105.459 53.652 105.752 53.6478C106.909 53.6298 108.066 53.6402 109.224 53.6402C109.396 53.6402 109.568 53.6437 109.739 53.6395C110.883 53.6097 112.031 53.7227 113.17 53.5709C114.65 53.374 115.613 52.4874 115.95 51.0885C116.029 50.7634 115.945 50.7093 115.637 50.7107H115.638Z" fill="#0666F5"/>
<path d="M43.8765 41.9153C42.3075 41.9021 40.7378 41.9077 39.1681 41.9112C37.5041 41.9153 36.37 42.8449 35.9805 44.4878C35.9151 44.763 35.9413 44.849 36.2441 44.8434C37.2288 44.8261 38.2143 44.8372 39.1997 44.8372C40.1391 44.8372 41.0784 44.8372 42.0178 44.8372C42.7734 44.8372 43.028 45.1471 42.8986 45.9006C42.5917 47.6877 42.2834 49.4741 41.9799 51.2612C41.8354 52.1111 41.8361 52.1 42.6647 51.8185C44.1814 51.3035 45.0953 50.281 45.3361 48.6713C45.5474 47.2634 45.7765 45.8583 45.9699 44.4483C46.0387 43.9471 46.036 43.4334 45.7896 42.9607C45.3836 42.1829 44.6885 41.9209 43.8758 41.9139L43.8765 41.9153Z" fill="#0666F5"/>
<path d="M118.296 41.9174C116.658 41.8966 115.019 41.8945 113.38 41.9174C111.852 41.9389 110.647 42.9835 110.354 44.483C110.305 44.7325 110.343 44.8476 110.649 44.8455C112.563 44.8303 114.476 44.8379 116.391 44.8379C117.132 44.8379 117.392 45.1242 117.288 45.868C117.203 46.4711 117.086 47.0693 116.981 47.669C116.73 49.115 116.477 50.561 116.214 52.0653C116.72 51.9371 117.164 51.7922 117.588 51.5974C118.718 51.0789 119.436 50.2013 119.651 48.9722C119.914 47.4804 120.094 45.9741 120.347 44.4802C120.597 42.9995 119.782 41.9368 118.296 41.9174Z" fill="#0666F5"/>
<path d="M123.263 51.9655C123.114 51.9246 123.005 51.9773 122.935 52.1326C122.808 52.4154 122.665 52.6913 122.529 52.97C122.495 53.0386 122.494 53.1481 122.393 53.1446C122.278 53.1405 122.311 53.0219 122.295 52.9547C122.235 52.6968 122.18 52.4376 122.14 52.1762C122.118 52.0307 122.078 51.9461 121.908 51.9544C121.731 51.9627 121.717 52.0729 121.699 52.2081C121.647 52.6067 121.586 53.0032 121.527 53.4011C121.515 53.4843 121.434 53.5987 121.57 53.6299C121.74 53.6687 121.692 53.5086 121.717 53.4219C121.817 53.0795 121.782 52.7065 121.938 52.3267C122.155 52.7689 122.073 53.2438 122.31 53.6895C122.597 53.2431 122.735 52.7738 123.093 52.4091C123.049 52.7149 123.001 53.0206 122.962 53.3277C122.949 53.4302 122.851 53.5883 123 53.6223C123.161 53.659 123.135 53.4808 123.153 53.3755C123.214 53.0018 123.28 52.6289 123.332 52.2539C123.345 52.1575 123.436 52.0154 123.263 51.9676V51.9655Z" fill="#FEFEFE"/>
<path d="M121.286 51.9668C120.932 51.9634 120.578 51.9655 120.224 51.9655L120.221 52.0868C120.262 52.0999 120.305 52.1284 120.344 52.1242C120.625 52.093 120.707 52.1831 120.628 52.4771C120.543 52.7959 120.523 53.1314 120.475 53.46C120.465 53.5259 120.438 53.6056 120.531 53.6292C120.643 53.6576 120.661 53.5744 120.674 53.4891C120.72 53.1827 120.764 52.8763 120.816 52.5713C120.857 52.3287 120.859 52.0445 121.241 52.1228C121.273 52.1291 121.333 52.0944 121.349 52.0632C121.371 52.0202 121.338 51.9675 121.286 51.9675V51.9668Z" fill="#FEFEFE"/>
</g>
<defs>
<clipPath id="clip0_380_249">
<rect width="93.1199" height="20.815" fill="white" transform="translate(29.9619 37.4178)"/>
</clipPath>
</defs>
</svg>
