<svg width="149" height="34" viewBox="0 0 149 34" fill="none" xmlns="http://www.w3.org/2000/svg">
<g clip-path="url(#clip0_380_250)">
<path d="M93.6094 7.8327C90.5169 7.36856 87.8787 8.44168 85.5182 10.3597C85.2088 10.611 85.0749 10.6636 84.8069 10.3125C83.7427 8.91789 82.307 8.13115 80.5958 7.84257C79.1372 7.59679 77.6645 7.78442 76.4696 7.72078C74.9664 7.72078 73.7322 7.70761 72.4991 7.72407C71.1637 7.74272 69.9263 8.78183 69.6703 10.0964C69.4415 11.2726 69.2368 12.4533 69.032 13.635C68.3261 17.7026 67.6344 21.7734 66.9079 25.8366C66.8349 26.2415 66.9111 26.2963 67.2717 26.292C68.5048 26.2755 69.7389 26.2656 70.9709 26.2963C71.3826 26.3062 71.497 26.146 71.546 25.7762C71.6375 25.0729 71.7661 24.3739 71.8892 23.675C72.4948 20.2395 73.1059 16.8039 73.7093 13.3684C73.8259 12.7056 74.1777 12.3622 74.8378 12.3567C75.8901 12.3479 76.9412 12.3512 77.9935 12.3611C78.6623 12.3677 79.2864 12.5685 79.8365 12.9394C81.3964 13.9905 81.7754 15.6211 81.4879 17.4338C81.0434 20.2351 80.5141 23.0232 80.0119 25.8146C79.9509 26.1548 80.001 26.3018 80.3986 26.2931C81.6491 26.2678 82.9017 26.2733 84.1522 26.2909C84.4681 26.2952 84.5716 26.2053 84.6283 25.8805C85.1424 22.9256 85.7023 19.9783 86.2044 17.0212C86.5301 15.0988 87.5976 13.7755 89.2871 12.9207C90.0006 12.5597 90.7554 12.2558 91.5746 12.4094C93.3044 12.7342 94.5222 14.21 94.6137 15.9898C94.6747 17.1704 94.4024 18.305 94.2041 19.4494C93.8381 21.5617 93.4656 23.6717 93.0767 25.7795C92.9972 26.2108 93.1301 26.3007 93.5386 26.2909C94.6627 26.2634 95.7912 26.2283 96.911 26.3018C97.5525 26.3435 97.6778 26.0725 97.7693 25.5359C98.1745 23.1516 98.6222 20.7749 99.0449 18.3928C99.3281 16.7951 99.5688 15.1975 99.2954 13.5659C98.7845 10.5188 96.5907 8.27489 93.6061 7.82721L93.6094 7.8327Z" fill="#0666F5"/>
<path d="M67.4533 7.7197C66.1288 7.7219 64.8042 7.72739 63.4807 7.71532C63.1943 7.71312 63.0679 7.79212 63.0178 8.09826C62.8206 9.29976 62.5941 10.498 62.3751 11.6962C62.1006 13.1972 61.9198 14.7235 61.5244 16.1906C60.6737 19.3463 57.9984 21.0657 54.7894 20.9011C53.8853 20.855 53.223 20.3492 52.8439 19.523C52.4137 18.5859 52.4986 17.5929 52.662 16.6196C53.1391 13.7689 53.638 10.9215 54.1565 8.07741C54.2197 7.72848 54.1075 7.71751 53.8493 7.71861C52.5073 7.723 51.1643 7.72519 49.8223 7.71641C49.5576 7.71422 49.4639 7.79322 49.4149 8.07741C48.8615 11.2485 48.2221 14.4053 47.7428 17.5874C47.4651 19.433 47.7178 21.2764 48.6764 22.9311C49.8942 25.0323 51.8396 25.9617 54.1609 26.1702C55.8569 26.3227 57.4461 25.9749 58.7947 24.8535C59.1922 24.5221 59.5506 24.1424 59.995 23.7189C60.0517 26.1844 58.2097 28.3362 55.8852 28.6884C54.2665 28.9342 52.6729 28.8025 51.0935 28.436C50.7362 28.3526 50.6621 28.4525 50.6251 28.7773C50.4878 29.97 50.3898 31.1726 50.148 32.3445C50.0183 32.9743 50.3005 33.0709 50.7405 33.1576C52.125 33.4308 53.5073 33.6228 54.9332 33.5328C59.2772 33.2596 62.2531 31.0969 63.9469 27.0842C64.7182 25.2573 65.0232 23.3184 65.3652 21.3839C66.1506 16.9422 66.9534 12.5038 67.7736 8.06754C67.8422 7.69556 67.6973 7.71751 67.4577 7.71861L67.4533 7.7197Z" fill="#0666F5"/>
<path d="M43.6007 7.72295C41.6792 7.71417 39.7566 7.72075 37.8351 7.72075C37.2535 7.72075 36.6805 7.79317 36.1119 7.91277C31.5707 8.87178 27.6319 13.0282 27.1809 17.5061C26.9031 20.2647 27.6057 22.6391 29.7189 24.4814C32.0946 26.552 36.199 27.0787 38.8384 24.8534C39.1401 24.5989 39.4331 24.3344 39.7294 24.0744C39.7741 24.0908 39.8198 24.1084 39.8645 24.1248C39.7588 24.6888 39.6586 25.2539 39.5453 25.8157C39.4789 26.1427 39.5192 26.3051 39.9276 26.2963C41.1781 26.2689 42.4297 26.2678 43.6802 26.2974C44.0516 26.3062 44.1431 26.135 44.1943 25.8399C44.9939 21.2577 45.7967 16.6755 46.5908 12.0912C46.6833 11.5579 46.8337 11.0257 46.7498 10.4749C46.484 8.72475 45.3512 7.72843 43.5985 7.72075L43.6007 7.72295ZM41.579 14.222C41.4352 15.2304 41.262 16.2377 41.0365 17.2307C40.4657 19.7446 38.3079 21.5759 35.7426 21.6308C33.3397 21.6823 31.7962 20.1791 31.8027 17.8748C31.8212 14.9835 34.2122 12.4785 37.0792 12.3731C38.0388 12.338 39.0007 12.3523 39.9614 12.3611C41.0333 12.3699 41.7304 13.1511 41.5779 14.222H41.579Z" fill="#0666F5"/>
<path d="M112.228 7.96441C111.919 7.96441 111.61 7.95234 111.303 7.9688C111.087 7.97977 110.874 8.02476 110.66 8.06426C106.213 8.8894 103.049 11.3407 101.475 15.6463C100.548 18.1799 100.75 20.6949 102.385 22.9157C104.353 25.5886 107.135 26.4039 110.278 25.9431C114.444 25.333 117.536 23.0957 119.31 19.23C120.583 16.455 120.564 13.6493 118.728 11.0839C117.149 8.87624 114.868 7.99952 112.227 7.96661L112.228 7.96441ZM115.128 17.6269C114.403 19.9366 112.184 21.5343 109.558 21.4739C109.267 21.4717 108.767 21.4355 108.276 21.2753C106.494 20.6916 105.543 19.1697 105.807 17.3021C106.261 14.1003 109.35 11.9179 112.467 12.596C114.766 13.0963 115.885 15.214 115.128 17.6269Z" fill="#0666F5"/>
<path d="M18.7157 21.6461C17.0109 21.6845 15.3062 21.6604 13.6004 21.6604C11.8586 21.6604 10.118 21.6505 8.37622 21.6681C7.99716 21.6724 7.89803 21.5485 7.96666 21.1918C8.09955 20.4951 8.20848 19.795 8.33265 19.0961C8.9372 15.6781 9.54938 12.2612 10.1409 8.84105C10.2029 8.48334 10.496 8.00713 10.2236 7.78658C9.98945 7.59785 9.49491 7.71855 9.11585 7.73062C7.13663 7.79536 5.46132 9.20973 5.10076 11.1716C4.64327 13.6591 4.23261 16.1543 3.79581 18.6451C2.9538 23.4434 2.11287 28.2418 1.25234 33.0357C1.19352 33.3638 1.27522 33.4055 1.55516 33.4033C2.84269 33.3945 4.13131 33.3912 5.41883 33.4055C5.71185 33.4088 5.84038 33.31 5.89049 33.0225C6.2456 30.9641 6.6312 28.9111 6.95798 26.8493C7.03423 26.3676 7.21614 26.27 7.6573 26.2766C9.21715 26.3018 10.777 26.2919 12.3368 26.2842C13.1691 26.2799 14.0023 26.3259 14.8302 26.1756C17.2103 25.7422 18.7113 24.3761 19.1688 22.231C19.257 21.8184 19.2363 21.634 18.7157 21.645V21.6461Z" fill="#0666F5"/>
<path d="M136.396 21.6505C133.041 21.6702 129.685 21.6614 126.33 21.6614C125.676 21.6614 125.666 21.6395 125.795 20.9778C125.931 20.2833 126.059 19.5876 126.181 18.8898C126.709 15.8822 127.232 12.8735 127.762 9.86586C128.248 7.11064 128.751 4.3598 129.224 1.60237C129.396 0.600574 129.367 0.595087 128.33 0.613741C126.249 0.651048 124.473 2.12248 124.114 4.12169C123.673 6.58944 123.244 9.05828 122.813 11.5271C121.983 16.2717 121.157 21.0173 120.322 25.7608C120.255 26.1394 120.285 26.3062 120.747 26.2996C122.579 26.271 124.411 26.2875 126.243 26.2875C126.515 26.2875 126.787 26.293 127.059 26.2864C128.869 26.2392 130.686 26.4181 132.49 26.1778C134.832 25.8662 136.357 24.4628 136.891 22.2485C137.015 21.7339 136.882 21.6483 136.394 21.6505H136.396Z" fill="#0666F5"/>
<path d="M22.8065 7.72852C20.323 7.70767 17.8383 7.71645 15.3537 7.72193C12.7198 7.72852 10.9247 9.19995 10.3081 11.8005C10.2047 12.2361 10.246 12.3721 10.7253 12.3634C12.2841 12.3359 13.8439 12.3535 15.4038 12.3535C16.8906 12.3535 18.3775 12.3535 19.8644 12.3535C21.0604 12.3535 21.4634 12.844 21.2587 14.0367C20.7728 16.8654 20.2848 19.6931 19.8045 22.5218C19.5757 23.8671 19.5768 23.8495 20.8883 23.404C23.2891 22.5888 24.7356 20.9703 25.1169 18.4224C25.4513 16.1939 25.814 13.9697 26.1201 11.7379C26.229 10.9446 26.2247 10.1315 25.8347 9.38319C25.192 8.15206 24.0919 7.73729 22.8054 7.72632L22.8065 7.72852Z" fill="#0666F5"/>
<path d="M140.604 7.73181C138.011 7.69889 135.416 7.6956 132.822 7.73181C130.403 7.76582 128.496 9.4194 128.032 11.7928C127.955 12.1878 128.015 12.3699 128.499 12.3666C131.529 12.3425 134.558 12.3546 137.588 12.3546C138.761 12.3546 139.172 12.8077 139.008 13.9851C138.874 14.9397 138.688 15.8867 138.523 16.8358C138.124 19.1247 137.724 21.4136 137.308 23.7946C138.109 23.5916 138.811 23.3623 139.484 23.054C141.272 22.2332 142.408 20.8441 142.749 18.8987C143.164 16.5373 143.45 14.153 143.849 11.7884C144.246 9.44464 142.956 7.76253 140.604 7.73181Z" fill="#0666F5"/>
<path d="M148.464 23.6366C148.229 23.5719 148.056 23.6553 147.946 23.9011C147.746 24.3487 147.519 24.7854 147.303 25.2265C147.25 25.3352 147.248 25.5085 147.088 25.5031C146.906 25.4965 146.958 25.3088 146.933 25.2024C146.838 24.7942 146.751 24.3838 146.688 23.9702C146.652 23.7398 146.59 23.6059 146.321 23.6191C146.04 23.6322 146.018 23.8067 145.99 24.0207C145.907 24.6516 145.81 25.2792 145.717 25.909C145.698 26.0407 145.57 26.2218 145.786 26.2711C146.054 26.3326 145.978 26.0791 146.018 25.942C146.177 25.3999 146.121 24.8096 146.368 24.2083C146.711 24.9083 146.582 25.66 146.956 26.3655C147.411 25.6589 147.629 24.916 148.195 24.3389C148.126 24.8228 148.051 25.3066 147.988 25.7927C147.968 25.9551 147.813 26.2053 148.048 26.2591C148.304 26.3172 148.262 26.0352 148.29 25.8684C148.388 25.277 148.492 24.6867 148.574 24.0931C148.595 23.9406 148.739 23.7156 148.464 23.6399V23.6366Z" fill="#FEFEFE"/>
<path d="M145.337 23.6388C144.777 23.6333 144.216 23.6366 143.656 23.6366L143.65 23.8286C143.716 23.8495 143.783 23.8945 143.845 23.8879C144.291 23.8385 144.419 23.9811 144.295 24.4464C144.161 24.9511 144.129 25.4822 144.052 26.0023C144.037 26.1065 143.995 26.2327 144.142 26.27C144.319 26.315 144.348 26.1833 144.368 26.0484C144.441 25.5634 144.511 25.0784 144.593 24.5956C144.657 24.2116 144.661 23.7617 145.266 23.8857C145.316 23.8956 145.411 23.8407 145.436 23.7913C145.471 23.7233 145.419 23.6399 145.337 23.6399V23.6388Z" fill="#FEFEFE"/>
</g>
<defs>
<clipPath id="clip0_380_250">
<rect width="147.397" height="32.9475" fill="white" transform="translate(0.78125 0.609436)"/>
</clipPath>
</defs>
</svg>
