<svg width="171" height="38" viewBox="0 0 171 38" fill="none" xmlns="http://www.w3.org/2000/svg">
<g clip-path="url(#clip0_251_362)">
<path d="M107.144 8.33113C103.578 7.79581 100.535 9.0335 97.8124 11.2456C97.4557 11.5354 97.3011 11.5962 96.9921 11.1912C95.7646 9.58274 94.1088 8.67535 92.1351 8.34252C90.4529 8.05904 88.7544 8.27545 87.3762 8.20204C85.6425 8.20204 84.2191 8.18686 82.7969 8.20584C81.2567 8.22735 79.8295 9.42581 79.5343 10.9419C79.2704 12.2986 79.0343 13.6603 78.7981 15.0232C77.984 19.7146 77.1862 24.4097 76.3482 29.0959C76.2641 29.5629 76.352 29.6262 76.7679 29.6211C78.19 29.6021 79.6134 29.5907 81.0343 29.6262C81.5092 29.6376 81.6411 29.4528 81.6976 29.0263C81.8032 28.2151 81.9514 27.409 82.0934 26.6028C82.7919 22.6405 83.4967 18.6781 84.1927 14.7157C84.3271 13.9513 84.7329 13.5552 85.4942 13.5489C86.7078 13.5388 87.9202 13.5426 89.1338 13.554C89.9052 13.5616 90.625 13.7931 91.2595 14.2209C93.0585 15.4333 93.4957 17.3138 93.1641 19.4045C92.6515 22.6354 92.0409 25.8511 91.4618 29.0706C91.3914 29.4629 91.4492 29.6325 91.9078 29.6224C93.35 29.5933 94.7948 29.5996 96.237 29.6198C96.6014 29.6249 96.7207 29.5211 96.786 29.1465C97.379 25.7385 98.0248 22.3393 98.6039 18.9287C98.9796 16.7115 100.211 15.1852 102.159 14.1994C102.982 13.783 103.853 13.4325 104.798 13.6096C106.793 13.9842 108.197 15.6864 108.303 17.7391C108.373 19.1008 108.059 20.4093 107.83 21.7293C107.408 24.1654 106.979 26.599 106.53 29.0301C106.438 29.5275 106.592 29.6312 107.063 29.6198C108.359 29.5882 109.661 29.5477 110.952 29.6325C111.692 29.6806 111.837 29.368 111.942 28.7492C112.41 25.9992 112.926 23.258 113.413 20.5106C113.74 18.668 114.018 16.8254 113.702 14.9435C113.113 11.4291 110.583 8.84114 107.141 8.3248L107.144 8.33113Z" fill="#F9F9F9"/>
<path d="M76.9756 8.20078C75.4479 8.20331 73.9202 8.20964 72.3938 8.19571C72.0634 8.19318 71.9177 8.2843 71.8599 8.63738C71.6325 10.0231 71.3712 11.4051 71.1186 12.787C70.802 14.5183 70.5935 16.2786 70.1375 17.9707C69.1563 21.6103 66.0708 23.5934 62.3696 23.4036C61.3269 23.3504 60.5631 22.767 60.1259 21.8141C59.6296 20.7333 59.7276 19.588 59.916 18.4655C60.4663 15.1776 61.0417 11.8936 61.6397 8.61334C61.7126 8.2109 61.5832 8.19825 61.2854 8.19951C59.7377 8.20457 58.1886 8.2071 56.6408 8.19698C56.3355 8.19445 56.2275 8.28557 56.171 8.61334C55.5328 12.2707 54.7953 15.9116 54.2425 19.5817C53.9222 21.7103 54.2136 23.8364 55.3192 25.7448C56.7237 28.1683 58.9675 29.2402 61.6447 29.4806C63.6008 29.6565 65.4338 29.2554 66.9891 27.962C67.4477 27.5798 67.861 27.1419 68.3736 26.6534C68.4389 29.4971 66.3145 31.9788 63.6335 32.385C61.7666 32.6685 59.9286 32.5166 58.107 32.0939C57.6949 31.9978 57.6095 32.1129 57.5667 32.4875C57.4084 33.8631 57.2954 35.2502 57.0165 36.6018C56.867 37.3282 57.1924 37.4395 57.6999 37.5395C59.2967 37.8546 60.891 38.0761 62.5355 37.9723C67.5457 37.6572 70.9779 35.1628 72.9315 30.5348C73.821 28.4277 74.1728 26.1915 74.5672 23.9604C75.473 18.8375 76.3989 13.7185 77.345 8.60195C77.4241 8.17293 77.257 8.19825 76.9806 8.19951L76.9756 8.20078Z" fill="#F9F9F9"/>
<path d="M49.4654 8.20458C47.2493 8.19445 45.0319 8.20204 42.8157 8.20204C42.1448 8.20204 41.484 8.28557 40.8282 8.42351C35.5906 9.52958 31.0478 14.3234 30.5277 19.488C30.2073 22.6696 31.0176 25.4082 33.4549 27.533C36.1949 29.921 40.9287 30.5285 43.9728 27.962C44.3208 27.6684 44.6587 27.3634 45.0005 27.0635C45.052 27.0825 45.1047 27.1027 45.1562 27.1217C45.0344 27.7722 44.9188 28.4239 44.7881 29.0719C44.7115 29.449 44.758 29.6363 45.2291 29.6262C46.6714 29.5945 48.1149 29.5933 49.5571 29.6274C49.9855 29.6376 50.0911 29.4401 50.1501 29.0997C51.0722 23.8149 51.9982 18.53 52.914 13.2426C53.0208 12.6276 53.1942 12.0138 53.0974 11.3785C52.7909 9.36 51.4843 8.2109 49.4629 8.20204L49.4654 8.20458ZM47.1337 15.7003C46.9679 16.8633 46.7681 18.0251 46.508 19.1704C45.8497 22.0697 43.361 24.1819 40.4023 24.2451C37.6309 24.3046 35.8507 22.5708 35.8582 19.9132C35.8796 16.5786 38.6372 13.6894 41.9438 13.5679C43.0506 13.5274 44.16 13.5438 45.2681 13.554C46.5043 13.5641 47.3083 14.4651 47.1324 15.7003H47.1337Z" fill="#F9F9F9"/>
<path d="M128.615 8.48298C128.26 8.48298 127.903 8.46906 127.549 8.48804C127.3 8.5007 127.054 8.55258 126.808 8.59814C121.678 9.54982 118.03 12.377 116.214 17.3429C115.145 20.265 115.378 23.1656 117.263 25.7271C119.533 28.8099 122.742 29.7502 126.367 29.2187C131.172 28.515 134.737 25.9346 136.784 21.4762C138.253 18.2756 138.23 15.0397 136.113 12.0809C134.291 9.53463 131.661 8.52348 128.614 8.48551L128.615 8.48298ZM131.961 19.6272C131.124 22.2912 128.565 24.1338 125.536 24.0642C125.201 24.0616 124.624 24.0199 124.057 23.8351C122.002 23.1618 120.905 21.4065 121.211 19.2526C121.733 15.5598 125.296 13.0427 128.892 13.8248C131.543 14.4019 132.834 16.8443 131.961 19.6272Z" fill="#F9F9F9"/>
<path d="M20.7636 24.2628C18.7974 24.3071 16.8313 24.2793 14.8639 24.2793C12.8551 24.2793 10.8475 24.2679 8.83861 24.2882C8.40141 24.2932 8.28709 24.1502 8.36623 23.7389C8.5195 22.9353 8.64514 22.1279 8.78836 21.3218C9.48561 17.3796 10.1917 13.4388 10.8738 9.49414C10.9455 9.08158 11.2834 8.53234 10.9693 8.27797C10.6992 8.0603 10.1288 8.19951 9.69165 8.21343C7.40892 8.28809 5.4767 9.91936 5.06086 12.1821C4.53321 15.0511 4.05957 17.9289 3.55579 20.8016C2.58466 26.3358 1.61478 31.8699 0.622287 37.399C0.554446 37.7774 0.64867 37.8255 0.971544 37.823C2.45651 37.8129 3.94274 37.8091 5.4277 37.8255C5.76565 37.8293 5.9139 37.7154 5.97169 37.3838C6.38125 35.0097 6.82599 32.6419 7.20288 30.264C7.29083 29.7084 7.50063 29.5958 8.00944 29.6034C9.80849 29.6325 11.6075 29.6211 13.4066 29.6122C14.3664 29.6072 15.3275 29.6603 16.2823 29.4869C19.0274 28.9871 20.7586 27.4115 21.2862 24.9374C21.388 24.4615 21.3641 24.2489 20.7636 24.2616V24.2628Z" fill="#F9F9F9"/>
<path d="M156.491 24.2678C152.622 24.2906 148.751 24.2805 144.881 24.2805C144.128 24.2805 144.115 24.2551 144.265 23.492C144.422 22.691 144.569 21.8886 144.709 21.0837C145.319 17.6149 145.922 14.1448 146.533 10.676C147.094 7.49829 147.674 4.32561 148.219 1.14534C148.418 -0.0100853 148.384 -0.0164129 147.188 0.00510107C144.788 0.048129 142.739 1.7452 142.326 4.05099C141.817 6.89716 141.322 9.7446 140.825 12.592C139.867 18.0642 138.915 23.5376 137.952 29.0085C137.875 29.4451 137.909 29.6374 138.443 29.6298C140.555 29.5969 142.668 29.6159 144.781 29.6159C145.095 29.6159 145.409 29.6222 145.722 29.6147C147.81 29.5602 149.905 29.7665 151.986 29.4894C154.687 29.13 156.446 27.5113 157.061 24.9575C157.205 24.364 157.051 24.2653 156.489 24.2678H156.491Z" fill="#F9F9F9"/>
<path d="M25.4822 8.2109C22.6178 8.18685 19.7521 8.19698 16.8865 8.20331C13.8487 8.2109 11.7783 9.90797 11.0672 12.9073C10.9479 13.4097 10.9956 13.5666 11.5484 13.5565C13.3462 13.5249 15.1452 13.5451 16.9443 13.5451C18.6591 13.5451 20.374 13.5451 22.0889 13.5451C23.4683 13.5451 23.9332 14.1108 23.697 15.4864C23.1367 18.749 22.5738 22.0102 22.0198 25.2727C21.756 26.8243 21.7572 26.804 23.2698 26.2902C26.0388 25.3499 27.7071 23.4833 28.1469 20.5447C28.5325 17.9744 28.9509 15.4092 29.3039 12.8351C29.4296 11.9202 29.4245 10.9824 28.9748 10.1193C28.2335 8.69939 26.9647 8.22102 25.481 8.20837L25.4822 8.2109Z" fill="#F9F9F9"/>
<path d="M161.344 8.2147C158.353 8.17673 155.36 8.17294 152.368 8.2147C149.579 8.25393 147.379 10.1611 146.844 12.8984C146.755 13.354 146.824 13.5641 147.383 13.5603C150.877 13.5324 154.371 13.5464 157.866 13.5464C159.219 13.5464 159.692 14.069 159.503 15.4269C159.348 16.5279 159.134 17.6201 158.944 18.7148C158.484 21.3547 158.023 23.9946 157.543 26.7408C158.466 26.5066 159.276 26.2421 160.052 25.8865C162.114 24.9399 163.425 23.3378 163.818 21.094C164.297 18.3706 164.626 15.6206 165.087 12.8934C165.544 10.1902 164.057 8.25013 161.344 8.2147Z" fill="#F9F9F9"/>
<path d="M170.411 26.5585C170.139 26.4838 169.94 26.58 169.813 26.8635C169.582 27.3798 169.32 27.8835 169.072 28.3923C169.01 28.5176 169.008 28.7175 168.823 28.7112C168.613 28.7036 168.673 28.4872 168.644 28.3644C168.535 27.8936 168.435 27.4203 168.362 26.9432C168.32 26.6775 168.249 26.5231 167.938 26.5383C167.614 26.5535 167.589 26.7547 167.556 27.0014C167.461 27.7291 167.349 28.453 167.242 29.1794C167.22 29.3313 167.073 29.5401 167.322 29.597C167.631 29.6679 167.543 29.3756 167.589 29.2174C167.773 28.5922 167.708 27.9114 167.992 27.2179C168.388 28.0253 168.24 28.8921 168.671 29.7059C169.196 28.8909 169.447 28.0341 170.101 27.3685C170.02 27.9265 169.933 28.4846 169.862 29.0453C169.838 29.2326 169.66 29.5211 169.931 29.5831C170.226 29.6502 170.177 29.325 170.21 29.1326C170.323 28.4505 170.442 27.7696 170.538 27.085C170.562 26.9091 170.727 26.6496 170.411 26.5623V26.5585Z" fill="#FEFEFE"/>
<path d="M166.802 26.561C166.156 26.5547 165.509 26.5585 164.864 26.5585L164.857 26.78C164.933 26.804 165.011 26.8559 165.082 26.8483C165.596 26.7914 165.744 26.9559 165.601 27.4925C165.447 28.0746 165.409 28.6871 165.321 29.287C165.303 29.4072 165.254 29.5528 165.424 29.5958C165.629 29.6477 165.661 29.4958 165.685 29.3401C165.77 28.7808 165.85 28.2214 165.944 27.6646C166.018 27.2217 166.023 26.7028 166.721 26.8458C166.778 26.8572 166.888 26.7939 166.917 26.737C166.957 26.6585 166.898 26.5623 166.802 26.5623V26.561Z" fill="#FEFEFE"/>
</g>
<defs>
<clipPath id="clip0_251_362">
<rect width="170" height="38" fill="white" transform="translate(0.602539 0.000152588)"/>
</clipPath>
</defs>
</svg>
