<svg width="203" height="46" viewBox="0 0 203 46" fill="none" xmlns="http://www.w3.org/2000/svg">
<g clip-path="url(#clip0_572_66)">
<path d="M127.673 10.2404C123.442 9.60022 119.832 11.0804 116.603 13.726C116.179 14.0726 115.996 14.1453 115.629 13.6609C114.173 11.7373 112.209 10.6521 109.868 10.2541C107.872 9.91503 105.857 10.1738 104.222 10.0861C102.166 10.0861 100.477 10.0679 98.7901 10.0906C96.963 10.1163 95.27 11.5496 94.9197 13.3628C94.6068 14.9853 94.3266 16.6138 94.0464 18.2438C93.0807 23.8544 92.1343 29.4695 91.1402 35.0739C91.0404 35.6324 91.1447 35.7081 91.638 35.702C93.3251 35.6793 95.0136 35.6657 96.6992 35.7081C97.2625 35.7217 97.419 35.5008 97.4861 34.9907C97.6113 34.0205 97.7871 33.0564 97.9556 32.0923C98.7842 27.3536 99.6202 22.6148 100.446 17.876C100.605 16.9619 101.087 16.4882 101.99 16.4806C103.43 16.4685 104.868 16.473 106.307 16.4866C107.222 16.4957 108.076 16.7727 108.829 17.2843C110.963 18.7342 111.482 20.9833 111.088 23.4836C110.48 27.3475 109.756 31.1933 109.069 35.0437C108.986 35.5129 109.054 35.7157 109.598 35.7036C111.309 35.6688 113.023 35.6763 114.734 35.7005C115.166 35.7066 115.307 35.5825 115.385 35.1345C116.088 31.0586 116.854 26.9934 117.542 22.9145C117.987 20.2628 119.448 18.4375 121.759 17.2585C122.735 16.7606 123.768 16.3414 124.889 16.5532C127.256 17.0012 128.922 19.0369 129.047 21.4918C129.13 23.1203 128.758 24.6853 128.487 26.2639C127.986 29.1773 127.476 32.0878 126.944 34.9952C126.835 35.59 127.017 35.7142 127.576 35.7005C129.114 35.6627 130.658 35.6143 132.19 35.7157C133.068 35.7732 133.239 35.3993 133.364 34.6592C133.919 31.3704 134.531 28.0922 135.11 24.8064C135.497 22.6027 135.826 20.399 135.452 18.1485C134.753 13.9455 131.752 10.8504 127.668 10.2329L127.673 10.2404Z" fill="#0666F5"/>
<path d="M91.8867 10.0845C90.0745 10.0876 88.2622 10.0951 86.4515 10.0785C86.0595 10.0755 85.8866 10.1844 85.8181 10.6067C85.5483 12.264 85.2383 13.9167 84.9388 15.5695C84.5632 17.6399 84.3158 19.7452 83.7748 21.7688C82.6109 26.1216 78.9506 28.4932 74.5601 28.2662C73.3231 28.2027 72.417 27.5049 71.8984 26.3653C71.3097 25.0727 71.4259 23.703 71.6495 22.3605C72.3022 18.4285 72.9848 14.5009 73.6942 10.5779C73.7806 10.0967 73.6271 10.0815 73.2739 10.083C71.4378 10.0891 69.6003 10.0921 67.7642 10.08C67.402 10.077 67.2738 10.1859 67.2068 10.5779C66.4497 14.952 65.5749 19.3063 64.9191 23.6954C64.5391 26.2412 64.8848 28.7838 66.1963 31.0662C67.8625 33.9645 70.5243 35.2465 73.7002 35.534C76.0206 35.7444 78.195 35.2646 80.04 33.7178C80.584 33.2608 81.0743 32.7371 81.6824 32.1529C81.7599 35.5537 79.2397 38.5217 76.0594 39.0075C73.8447 39.3466 71.6644 39.1649 69.5034 38.6594C69.0146 38.5444 68.9132 38.6821 68.8625 39.1301C68.6748 40.7753 68.5406 42.4341 68.2098 44.0505C68.0324 44.9193 68.4184 45.0524 69.0205 45.172C70.9147 45.5489 72.806 45.8137 74.7568 45.6896C80.7003 45.3128 84.7719 42.3297 87.0893 36.7948C88.1445 34.2748 88.5618 31.6005 89.0297 28.9322C90.1043 22.8055 91.2026 16.6834 92.3249 10.5643C92.4188 10.0512 92.2205 10.0815 91.8927 10.083L91.8867 10.0845Z" fill="#0666F5"/>
<path d="M59.252 10.089C56.623 10.0769 53.9926 10.086 51.3636 10.086C50.5678 10.086 49.7839 10.1859 49.0059 10.3508C42.7927 11.6736 37.4037 17.4068 36.7867 23.5834C36.4066 27.3883 37.3679 30.6635 40.2592 33.2047C43.5096 36.0607 49.1252 36.7871 52.7362 33.7178C53.1491 33.3666 53.55 33.0019 53.9553 32.6432C54.0164 32.6659 54.079 32.6901 54.1401 32.7128C53.9956 33.4907 53.8585 34.2702 53.7035 35.0451C53.6125 35.4961 53.6677 35.7201 54.2266 35.708C55.9375 35.6702 57.6499 35.6687 59.3608 35.7095C59.869 35.7216 59.9942 35.4855 60.0642 35.0784C61.1581 28.758 62.2565 22.4376 63.3429 16.1142C63.4696 15.3787 63.6753 14.6446 63.5605 13.8849C63.1969 11.4708 61.6469 10.0966 59.249 10.086L59.252 10.089ZM56.4859 19.0535C56.2892 20.4444 56.0522 21.8338 55.7437 23.2035C54.9628 26.6709 52.0104 29.1969 48.5007 29.2726C45.213 29.3437 43.1012 27.2703 43.1102 24.0919C43.1355 20.1038 46.4068 16.6485 50.3293 16.5032C51.6423 16.4548 52.9583 16.4745 54.2728 16.4866C55.7393 16.4987 56.6931 17.5763 56.4844 19.0535H56.4859Z" fill="#0666F5"/>
<path d="M153.146 10.4221C152.725 10.4221 152.301 10.4054 151.881 10.4281C151.586 10.4433 151.294 10.5053 151.002 10.5598C144.917 11.698 140.589 15.0791 138.435 21.0181C137.167 24.5128 137.443 27.9817 139.68 31.045C142.373 34.7319 146.179 35.8564 150.479 35.2208C156.179 34.3793 160.409 31.2932 162.837 25.9612C164.579 22.1335 164.552 18.2635 162.041 14.725C159.88 11.6798 156.759 10.4705 153.145 10.4251L153.146 10.4221ZM157.115 23.75C156.123 26.9359 153.087 29.1395 149.494 29.0563C149.096 29.0533 148.412 29.0033 147.739 28.7823C145.301 27.9772 144 25.8779 144.362 23.302C144.982 18.8856 149.209 15.8752 153.474 16.8106C156.619 17.5007 158.151 20.4218 157.115 23.75Z" fill="#0666F5"/>
<path d="M25.2047 29.2938C22.8724 29.3468 20.54 29.3135 18.2061 29.3135C15.8231 29.3135 13.4415 29.2998 11.0585 29.3241C10.5398 29.3301 10.4042 29.1591 10.4981 28.6672C10.6799 27.7061 10.829 26.7405 10.9989 25.7764C11.826 21.0619 12.6636 16.3488 13.4728 11.6312C13.5578 11.1378 13.9587 10.481 13.5861 10.1768C13.2657 9.91645 12.5891 10.0829 12.0704 10.0996C9.36248 10.1889 7.07035 12.1398 6.57704 14.8459C5.9511 18.277 5.38925 21.7187 4.79162 25.1544C3.6396 31.7729 2.48906 38.3914 1.31169 45.0039C1.23122 45.4565 1.34299 45.514 1.72601 45.5109C3.48758 45.4988 5.25065 45.4943 7.01222 45.514C7.41312 45.5185 7.58898 45.3823 7.65754 44.9858C8.14339 42.1464 8.67096 39.3147 9.11806 36.4708C9.22239 35.8064 9.47127 35.6717 10.0749 35.6808C12.209 35.7156 14.3432 35.702 16.4773 35.6914C17.6159 35.6853 18.7561 35.7489 19.8887 35.5415C23.1451 34.9437 25.1988 33.0594 25.8247 30.1005C25.9454 29.5314 25.9171 29.2771 25.2047 29.2923V29.2938Z" fill="#0666F5"/>
<path d="M186.213 29.2998C181.623 29.327 177.031 29.3149 172.441 29.3149C171.546 29.3149 171.532 29.2847 171.709 28.372C171.895 27.414 172.07 26.4544 172.237 25.4918C172.959 21.3433 173.675 17.1933 174.4 13.0448C175.065 9.24442 175.754 5.45007 176.401 1.64665C176.636 0.26482 176.596 0.257253 175.177 0.282982C172.33 0.334441 169.9 2.36404 169.409 5.12164C168.806 8.5255 168.219 11.9309 167.628 15.3363C166.493 21.8806 165.363 28.4265 164.22 34.9694C164.129 35.4915 164.169 35.7216 164.803 35.7125C167.308 35.6732 169.815 35.6959 172.321 35.6959C172.694 35.6959 173.067 35.7034 173.438 35.6943C175.915 35.6293 178.401 35.876 180.869 35.5445C184.073 35.1147 186.159 33.1789 186.889 30.1247C187.059 29.4148 186.878 29.2968 186.21 29.2998H186.213Z" fill="#0666F5"/>
<path d="M30.8018 10.0967C27.4038 10.0679 24.0044 10.08 20.6049 10.0876C17.0013 10.0967 14.5452 12.1263 13.7017 15.7133C13.5601 16.3141 13.6167 16.5018 14.2725 16.4897C16.4052 16.4519 18.5393 16.4761 20.6735 16.4761C22.7078 16.4761 24.7421 16.4761 26.7764 16.4761C28.4128 16.4761 28.9642 17.1526 28.684 18.7978C28.0193 22.6996 27.3517 26.5999 26.6944 30.5017C26.3815 32.3572 26.3829 32.333 28.1773 31.7185C31.462 30.594 33.4412 28.3616 33.9628 24.8472C34.4203 21.7733 34.9166 18.7055 35.3354 15.627C35.4844 14.5327 35.4785 13.4112 34.9449 12.379C34.0656 10.6809 32.5604 10.1088 30.8003 10.0936L30.8018 10.0967Z" fill="#0666F5"/>
<path d="M191.971 10.1012C188.422 10.0558 184.872 10.0513 181.322 10.1012C178.014 10.1481 175.404 12.429 174.769 15.7027C174.664 16.2475 174.746 16.4988 175.409 16.4942C179.553 16.4609 183.698 16.4776 187.844 16.4776C189.449 16.4776 190.011 17.1027 189.786 18.7266C189.603 20.0434 189.349 21.3495 189.123 22.6587C188.577 25.8159 188.03 28.973 187.461 32.2573C188.556 31.9773 189.518 31.661 190.437 31.2357C192.884 30.1036 194.439 28.1875 194.905 25.5041C195.473 22.247 195.864 18.9582 196.411 15.6966C196.953 12.4638 195.188 10.1436 191.971 10.1012Z" fill="#0666F5"/>
<path d="M202.725 32.0394C202.403 31.9501 202.166 32.0651 202.015 32.4041C201.741 33.0216 201.431 33.624 201.136 34.2324C201.063 34.3823 201.06 34.6214 200.841 34.6138C200.592 34.6048 200.664 34.346 200.629 34.1991C200.5 33.6361 200.38 33.0701 200.294 32.4995C200.245 32.1817 200.16 31.997 199.792 32.0152C199.407 32.0333 199.377 32.274 199.339 32.5691C199.225 33.4394 199.093 34.3051 198.966 35.1738C198.939 35.3555 198.765 35.6052 199.06 35.6733C199.427 35.7581 199.322 35.4084 199.377 35.2192C199.595 34.4716 199.519 33.6573 199.856 32.8279C200.325 33.7935 200.149 34.8303 200.661 35.8035C201.284 34.8288 201.582 33.8041 202.357 33.008C202.261 33.6755 202.158 34.3429 202.073 35.0134C202.045 35.2374 201.834 35.5825 202.155 35.6566C202.506 35.7369 202.448 35.3479 202.486 35.1178C202.62 34.3021 202.762 33.4878 202.875 32.669C202.904 32.4586 203.1 32.1484 202.725 32.0439V32.0394Z" fill="#FEFEFE"/>
<path d="M198.445 32.0424C197.679 32.0348 196.912 32.0394 196.146 32.0394L196.138 32.3042C196.228 32.333 196.32 32.395 196.405 32.386C197.014 32.3179 197.19 32.5146 197.02 33.1563C196.837 33.8525 196.792 34.5851 196.688 35.3025C196.667 35.4463 196.609 35.6203 196.81 35.6718C197.053 35.7338 197.092 35.5522 197.12 35.366C197.22 34.6971 197.316 34.0281 197.427 33.3622C197.515 32.8325 197.521 32.2119 198.348 32.3829C198.417 32.3966 198.547 32.3209 198.581 32.2528C198.629 32.1589 198.558 32.0439 198.445 32.0439V32.0424Z" fill="#FEFEFE"/>
</g>
<defs>
<clipPath id="clip0_572_66">
<rect width="201.666" height="45.4459" fill="white" transform="translate(0.666992 0.277039)"/>
</clipPath>
</defs>
</svg>
