<svg width="99" height="29" viewBox="0 0 99 29" fill="none" xmlns="http://www.w3.org/2000/svg">
<path d="M12.3402 0.230469C15.7902 0.230469 19.2402 0.230469 22.7002 0.230469C23.9202 0.230469 24.0802 0.390465 24.0802 1.57047C24.0802 8.39046 24.0802 15.2205 24.0902 22.0405C24.0902 22.6305 23.9202 22.9305 23.3902 23.2105C19.8802 25.0405 16.3902 26.9105 12.9102 28.7905C12.4802 29.0205 12.1702 28.9605 11.7202 28.8105C9.96024 28.2205 9.31024 27.1105 9.53024 25.2305C9.73024 23.5005 9.61024 21.7305 9.55024 19.9805C9.53024 19.2205 9.78024 19.0405 10.5002 19.0705C11.8202 19.1305 13.1402 19.0905 14.4602 19.0805C17.8602 19.0505 20.1202 17.4505 21.1702 14.1905C22.0002 11.5905 21.8102 9.04046 20.4202 6.63046C19.1602 4.45046 17.2002 3.44046 14.7502 3.42046C11.0702 3.38046 7.39024 3.42047 3.71024 3.40047C3.28024 3.40047 3.06024 3.47047 3.08024 3.98047C3.12024 4.99047 3.11024 6.01046 3.08024 7.02046C3.07024 7.45046 3.23024 7.63046 3.65024 7.59046C3.68024 7.59046 3.70024 7.59046 3.73024 7.59046C4.85024 7.6238 5.41024 8.19713 5.41024 9.31046C5.41024 14.3805 5.41024 19.4605 5.41024 24.5305C5.41024 25.4105 5.41024 25.4005 4.62024 24.9905C3.43024 24.3605 2.25024 23.7305 1.04024 23.1205C0.650237 22.9205 0.490234 22.6905 0.490234 22.2405C0.500234 15.2905 0.490237 8.34046 0.500237 1.39046C0.500237 0.460465 0.740237 0.230469 1.68024 0.230469C5.23024 0.230469 8.79023 0.230469 12.3402 0.230469Z" fill="#337DC1"/>
<path d="M9.65984 11.2307C9.65984 10.1907 9.66984 9.15069 9.65984 8.11069C9.65984 7.69069 9.78984 7.52069 10.2298 7.53069C11.4498 7.55069 12.6698 7.51069 13.8798 7.55069C16.1798 7.62069 17.6398 9.37069 17.3698 11.6607C17.1098 13.8507 15.8798 14.9507 13.6798 14.9607C12.5898 14.9607 11.4998 14.9207 10.4098 14.9807C9.77984 15.0107 9.62984 14.7807 9.65984 14.2007C9.69984 13.2107 9.66984 12.2207 9.66984 11.2307H9.65984Z" fill="#337DC1"/>
<path d="M39.9506 6.45995C39.3606 5.25995 38.3906 4.54995 37.0906 4.29995C35.6806 4.01995 34.2606 4.11995 32.8406 4.12995C30.8806 4.12995 29.7406 5.28995 29.7306 7.26995C29.7206 9.04995 29.7306 10.8199 29.7306 12.5999C29.7306 14.0499 29.7106 15.49 29.7306 16.94C29.7406 17.62 29.4306 18.49 29.8706 18.91C30.3106 19.33 31.1806 18.98 31.8506 19.05C32.4806 19.12 32.6206 18.8399 32.6006 18.2699C32.5606 16.9299 32.6006 15.5799 32.5806 14.2399C32.5806 13.7799 32.7106 13.6099 33.1806 13.6299C33.9706 13.6499 34.7506 13.6499 35.5406 13.5999C39.5506 13.3499 41.6606 9.94995 39.9406 6.47995L39.9506 6.45995ZM36.7006 10.5599C35.5106 11.3299 34.1506 11.0599 32.8406 11.0699C32.6006 11.0699 32.5906 10.8599 32.5906 10.6699C32.5906 9.49995 32.5906 8.33995 32.5906 7.16995C32.5906 6.73995 32.8206 6.58995 33.2206 6.59995C33.5806 6.59995 33.9306 6.59995 34.4006 6.59995C34.8406 6.58995 35.4006 6.59995 35.9506 6.70995C36.8206 6.87995 37.3506 7.32995 37.4706 8.08995C37.6106 9.01995 37.6106 9.95995 36.7006 10.55V10.5599Z" fill="#337DC1"/>
<path d="M83.5304 7.9504C83.0804 8.1004 83.0004 8.0004 83.0104 7.5904C83.0204 6.8604 83.0104 6.1204 83.0104 5.3804C83.0104 3.3504 83.0104 3.37041 80.9604 3.40041C80.4504 3.40041 80.3204 3.5704 80.3204 4.0604C80.3404 6.1404 80.3204 8.22041 80.3204 10.3004C80.3204 12.3304 80.3004 14.3604 80.3204 16.3804C80.3404 18.2004 81.4004 19.2304 83.2404 19.2604C83.6704 19.2604 84.1004 19.2604 84.5304 19.2604C87.9604 19.2204 89.8104 17.5804 90.1504 14.1604C90.3204 12.4104 90.1704 10.6404 88.9204 9.29041C87.4504 7.69041 85.5704 7.2604 83.5004 7.9504H83.5304ZM87.2704 15.0104C86.9804 16.1804 86.3604 16.7204 85.1304 16.8304C82.7804 17.0404 83.0004 16.7904 83.0104 15.0204C83.0104 14.4604 83.0104 13.9004 83.0104 13.3504C83.0104 12.5104 83.0304 11.6804 83.0104 10.8404C83.0004 10.4304 83.1304 10.2204 83.5404 10.1804C83.9904 10.1404 84.4504 10.0504 84.9004 10.0404C86.1604 10.0204 87.0204 10.6904 87.3204 11.9204C87.5704 12.9504 87.5304 13.9904 87.2704 15.0104Z" fill="#59595C"/>
<path d="M49.6604 11.3807C49.6304 9.95068 48.9504 8.88068 47.6104 8.25068C46.2004 7.59068 44.7204 7.53068 43.2204 7.74068C41.9004 7.92734 41.2537 8.68068 41.2804 10.0007C41.2804 10.0507 41.2804 10.1007 41.2804 10.1507C41.2404 10.5907 41.4304 10.7007 41.8204 10.5207C42.5704 10.1807 43.3703 10.0407 44.1803 9.98068C45.0603 9.92068 45.9004 10.1107 46.6004 10.6807C46.7904 10.8407 47.0304 11.0207 46.9404 11.3107C46.8604 11.5807 46.5604 11.5207 46.3504 11.5507C45.2504 11.7307 44.1303 11.8407 43.0403 12.0707C41.3503 12.4207 40.2404 13.7707 40.2004 15.3807C40.1604 17.2407 41.1803 18.6607 42.9303 19.1007C44.4103 19.4807 45.7404 19.1407 47.0004 18.0707C46.8904 19.2907 47.7004 19.0107 48.3304 19.0207C48.5804 19.0207 48.8404 19.0107 49.0904 19.0207C49.5204 19.0507 49.6704 18.8707 49.6604 18.4407C49.6404 16.0807 49.6804 13.7207 49.6304 11.3607L49.6604 11.3807ZM46.2903 16.5207C45.2803 16.8607 44.2904 17.2207 43.3304 16.5007C42.5504 15.9107 42.8804 14.5007 43.8604 14.1707C44.7204 13.8707 45.6403 13.8207 46.5403 13.6907C46.8803 13.6407 46.9804 13.8307 46.9704 14.1407C46.9704 14.4207 46.9704 14.7007 46.9704 14.9707C46.9704 15.5807 47.1404 16.2307 46.2804 16.5207H46.2903Z" fill="#337DC1"/>
<path d="M76.4709 8.32042C75.0109 7.57042 73.4409 7.53043 71.8609 7.76043C69.9609 8.04043 69.9909 8.05042 69.9709 9.93042C69.9709 10.6504 70.1909 10.6904 70.7709 10.4404C71.5509 10.1104 72.3809 9.95043 73.2209 9.98043C74.0509 10.0004 74.8309 10.2004 75.4509 10.7904C75.6009 10.9304 75.7309 11.1204 75.6909 11.3204C75.6409 11.5904 75.3709 11.5204 75.1909 11.5504C74.0109 11.7404 72.8209 11.8604 71.6609 12.1204C70.0009 12.4804 68.9209 13.8804 68.9209 15.5104C68.9209 17.2404 69.9909 18.6704 71.6509 19.1004C73.1609 19.4904 74.5009 19.1304 75.7709 18.0704C75.6609 19.0204 76.1809 19.0904 76.8209 19.0304C77.1709 19.0004 77.5309 19.0104 77.8909 19.0304C78.2509 19.0504 78.3909 18.9204 78.3809 18.5504C78.3609 16.0904 78.3909 13.6304 78.3409 11.1704C78.3109 9.87042 77.6209 8.92042 76.4709 8.33043V8.32042ZM75.0909 16.4904C74.0709 16.8504 73.0509 17.2204 72.0609 16.5104C71.2909 15.9504 71.5409 14.5804 72.4709 14.2104C73.3909 13.8504 74.4009 13.8404 75.3709 13.6504C75.6509 13.6004 75.7209 13.7704 75.7209 14.0104C75.7209 14.3104 75.7209 14.6204 75.7209 14.9604C75.6809 15.5104 75.9509 16.1804 75.0909 16.4904Z" fill="#59595C"/>
<path d="M59.341 7.83997C58.921 7.83997 58.701 7.97997 58.571 8.37997C58.321 9.17997 58.011 9.95997 57.731 10.74C57.201 12.19 56.671 13.63 56.141 15.08C56.071 15.08 56.011 15.09 55.941 15.1C55.811 14.81 55.671 14.51 55.541 14.22C54.911 12.73 54.291 11.23 53.651 9.73997C52.831 7.83997 52.831 7.85997 50.721 7.83997C50.061 7.83997 49.951 7.95997 50.221 8.57997C51.561 11.56 52.801 14.59 54.211 17.54C54.751 18.66 54.651 19.59 54.161 20.62C53.821 21.33 53.311 21.74 52.521 21.79C52.191 21.81 51.861 21.83 51.531 21.82C51.181 21.81 50.971 21.94 51.041 22.3C51.161 22.9 50.731 23.59 51.311 24.12C51.341 24.15 51.411 24.13 51.461 24.13C54.011 24.17 55.621 23.59 56.531 20.97C57.861 17.16 59.251 13.38 60.631 9.58997C61.291 7.76997 61.311 7.78997 59.341 7.82997V7.83997Z" fill="#337DC1"/>
<path d="M69.8409 4.80997C69.8409 4.20997 69.6309 4.09998 69.0909 4.10998C66.3009 4.12998 63.5109 4.11998 60.7209 4.11998C58.7109 4.11998 58.7309 4.11998 58.7709 6.10998C58.7809 6.59998 58.9609 6.70998 59.4009 6.68998C60.2609 6.65998 61.1309 6.72997 61.9809 6.66997C62.7209 6.60997 62.8609 6.90997 62.8509 7.56997C62.8109 9.33997 62.8409 11.12 62.8409 12.89V17C62.8409 19.03 62.8409 19 64.8409 19.03C65.4909 19.04 65.7109 18.9 65.7009 18.2C65.6609 15.13 65.6709 12.07 65.7009 8.99997C65.7009 8.24997 65.3609 7.28997 65.8709 6.80997C66.3309 6.36997 67.2809 6.68998 68.0109 6.67998C69.8609 6.65998 69.8409 6.67998 69.8509 4.79998L69.8409 4.80997Z" fill="#59595C"/>
<path d="M96.4909 12.3504C95.6009 11.9804 94.6809 11.6804 93.7909 11.3304C93.5109 11.2204 93.2209 11.0304 93.2509 10.6704C93.2809 10.3104 93.5809 10.1904 93.8809 10.1004C94.7109 9.87035 95.5409 9.99035 96.3709 10.1504C97.9409 10.4604 97.9409 10.4704 97.9009 8.82035C97.9009 8.58035 98.0009 8.27035 97.6609 8.17035C95.9409 7.70035 94.2009 7.27035 92.4709 8.11035C91.3309 8.66035 90.6609 9.58035 90.7009 10.8904C90.7509 12.2104 91.3209 13.2304 92.5909 13.7504C93.4809 14.1204 94.3909 14.4404 95.2809 14.8104C95.7709 15.0104 96.3509 15.2004 96.2609 15.8904C96.1809 16.5604 95.6309 16.7504 95.0509 16.8604C94.1909 17.0204 93.3309 16.9304 92.4809 16.7504C90.6809 16.3604 90.6909 16.3504 90.7809 18.2404C90.8009 18.6104 90.9309 18.7804 91.2809 18.8604C92.1709 19.0804 93.0609 19.2604 93.9809 19.2204C94.2809 19.2204 94.5909 19.2504 94.8909 19.2204C96.3709 19.0204 97.7409 18.5604 98.4609 17.1104C99.4009 15.2004 98.5609 13.2204 96.4809 12.3604L96.4909 12.3504Z" fill="#59595C"/>
</svg>
