<svg width="203" height="47" viewBox="0 0 203 47" fill="none" xmlns="http://www.w3.org/2000/svg">
<g clip-path="url(#clip0_572_66)">
<path d="M127.673 10.9171C123.442 10.2769 119.832 11.7571 116.603 14.4027C116.179 14.7493 115.996 14.8219 115.629 14.3376C114.173 12.4139 112.209 11.3287 109.868 10.9307C107.872 10.5917 105.857 10.8505 104.222 10.7627C102.166 10.7627 100.477 10.7445 98.7901 10.7672C96.963 10.793 95.27 12.2262 94.9197 14.0394C94.6068 15.6619 94.3266 17.2904 94.0464 18.9205C93.0807 24.531 92.1343 30.1461 91.1402 35.7506C91.0404 36.3091 91.1447 36.3847 91.638 36.3787C93.3251 36.356 95.0136 36.3424 96.6992 36.3847C97.2625 36.3984 97.419 36.1774 97.4861 35.6673C97.6113 34.6972 97.7871 33.7331 97.9556 32.769C98.7842 28.0302 99.6202 23.2914 100.446 18.5527C100.605 17.6385 101.087 17.1648 101.99 17.1572C103.43 17.1451 104.868 17.1497 106.307 17.1633C107.222 17.1724 108.076 17.4493 108.829 17.9609C110.963 19.4108 111.482 21.6599 111.088 24.1602C110.48 28.0242 109.756 31.87 109.069 35.7203C108.986 36.1895 109.054 36.3923 109.598 36.3802C111.309 36.3454 113.023 36.353 114.734 36.3772C115.166 36.3832 115.308 36.2591 115.385 35.8111C116.088 31.7353 116.854 27.67 117.542 23.5911C117.987 20.9395 119.448 19.1142 121.759 17.9352C122.735 17.4372 123.768 17.018 124.889 17.2299C127.256 17.6779 128.922 19.7135 129.047 22.1684C129.13 23.797 128.758 25.3619 128.487 26.9405C127.986 29.854 127.476 32.7644 126.944 35.6719C126.835 36.2667 127.017 36.3908 127.576 36.3772C129.114 36.3393 130.658 36.2909 132.19 36.3923C133.068 36.4498 133.239 36.076 133.364 35.3359C133.919 32.047 134.531 28.7688 135.11 25.483C135.497 23.2793 135.826 21.0757 135.452 18.8251C134.753 14.6221 131.752 11.527 127.668 10.9095L127.673 10.9171Z" fill="#0666F5"/>
<path d="M91.8867 10.7612C90.0745 10.7642 88.2622 10.7718 86.4515 10.7551C86.0595 10.7521 85.8866 10.8611 85.8181 11.2833C85.5483 12.9406 85.2383 14.5934 84.9388 16.2461C84.5632 18.3166 84.3158 20.4219 83.7748 22.4454C82.6109 26.7982 78.9506 29.1699 74.5601 28.9429C73.3231 28.8793 72.417 28.1816 71.8984 27.0419C71.3097 25.7494 71.4259 24.3797 71.6495 23.0372C72.3022 19.1051 72.9848 15.1776 73.6942 11.2546C73.7806 10.7733 73.6271 10.7582 73.2739 10.7597C71.4378 10.7657 69.6003 10.7687 67.7642 10.7566C67.402 10.7536 67.2738 10.8626 67.2068 11.2546C66.4497 15.6286 65.5749 19.9829 64.9191 24.3721C64.5391 26.9178 64.8848 29.4605 66.1963 31.7428C67.8625 34.6412 70.5243 35.9231 73.7002 36.2107C76.0206 36.4211 78.195 35.9413 80.04 34.3945C80.584 33.9374 81.0743 33.4137 81.6824 32.8295C81.7599 36.2304 79.2397 39.1983 76.0594 39.6842C73.8447 40.0232 71.6644 39.8416 69.5034 39.3361C69.0146 39.221 68.9132 39.3588 68.8625 39.8068C68.6748 41.4519 68.5406 43.1107 68.2098 44.7271C68.0324 45.5959 68.4184 45.7291 69.0205 45.8487C70.9147 46.2255 72.806 46.4904 74.7568 46.3663C80.7003 45.9894 84.7719 43.0063 87.0893 37.4714C88.1445 34.9515 88.5618 32.2771 89.0297 29.6088C90.1043 23.4821 91.2026 17.36 92.3249 11.241C92.4188 10.7279 92.2205 10.7582 91.8927 10.7597L91.8867 10.7612Z" fill="#0666F5"/>
<path d="M59.252 10.7656C56.623 10.7535 53.9926 10.7626 51.3636 10.7626C50.5678 10.7626 49.7839 10.8625 49.0059 11.0275C42.7927 12.3503 37.4037 18.0834 36.7867 24.26C36.4066 28.0649 37.3679 31.3402 40.2592 33.8813C43.5096 36.7373 49.1252 37.4638 52.7362 34.3944C53.1491 34.0433 53.55 33.6785 53.9553 33.3198C54.0164 33.3425 54.079 33.3667 54.1401 33.3894C53.9956 34.1674 53.8585 34.9468 53.7035 35.7217C53.6125 36.1728 53.6677 36.3968 54.2266 36.3846C55.9375 36.3468 57.6499 36.3453 59.3608 36.3862C59.869 36.3983 59.9942 36.1622 60.0642 35.755C61.1581 29.4347 62.2565 23.1143 63.3429 16.7909C63.4696 16.0553 63.6753 15.3213 63.5605 14.5615C63.1969 12.1475 61.6469 10.7732 59.249 10.7626L59.252 10.7656ZM56.4859 19.7301C56.2892 21.121 56.0522 22.5104 55.7437 23.8801C54.9628 27.3475 52.0104 29.8736 48.5007 29.9492C45.213 30.0204 43.1012 27.9469 43.1102 24.7685C43.1355 20.7805 46.4068 17.3251 50.3293 17.1798C51.6423 17.1314 52.9583 17.1511 54.2728 17.1632C55.7393 17.1753 56.6931 18.2529 56.4844 19.7301H56.4859Z" fill="#0666F5"/>
<path d="M153.146 11.0987C152.725 11.0987 152.301 11.0821 151.881 11.1048C151.586 11.1199 151.294 11.182 151.002 11.2364C144.917 12.3746 140.589 15.7558 138.435 21.6947C137.167 25.1894 137.443 28.6583 139.68 31.7217C142.373 35.4086 146.179 36.5331 150.479 35.8974C156.179 35.0559 160.409 31.9699 162.837 26.6378C164.579 22.8102 164.552 18.9402 162.041 15.4016C159.88 12.3564 156.759 11.1472 153.145 11.1017L153.146 11.0987ZM157.115 24.4266C156.123 27.6125 153.087 29.8162 149.494 29.7329C149.096 29.7299 148.412 29.68 147.739 29.459C145.301 28.6538 144 26.5546 144.362 23.9786C144.982 19.5622 149.209 16.5519 153.474 17.4872C156.619 18.1774 158.151 21.0984 157.115 24.4266Z" fill="#0666F5"/>
<path d="M25.2047 29.9704C22.8724 30.0234 20.54 29.9901 18.2061 29.9901C15.8231 29.9901 13.4415 29.9765 11.0585 30.0007C10.5398 30.0068 10.4042 29.8357 10.4981 29.3438C10.6799 28.3828 10.829 27.4172 10.9989 26.4531C11.826 21.7385 12.6636 17.0255 13.4728 12.3079C13.5578 11.8145 13.9587 11.1576 13.5861 10.8534C13.2657 10.5931 12.5891 10.7596 12.0704 10.7762C9.36248 10.8655 7.07034 12.8164 6.57704 15.5226C5.9511 18.9537 5.38925 22.3954 4.79162 25.831C3.6396 32.4495 2.48906 39.0681 1.31169 45.6806C1.23122 46.1331 1.34299 46.1906 1.72601 46.1876C3.48758 46.1755 5.25065 46.1709 7.01222 46.1906C7.41312 46.1952 7.58898 46.0589 7.65754 45.6624C8.14339 42.8231 8.67096 39.9913 9.11806 37.1474C9.22239 36.483 9.47127 36.3483 10.0749 36.3574C12.209 36.3922 14.3432 36.3786 16.4773 36.368C17.6159 36.3619 18.7561 36.4255 19.8887 36.2182C23.1451 35.6203 25.1988 33.736 25.8247 30.7771C25.9454 30.208 25.9171 29.9538 25.2047 29.9689V29.9704Z" fill="#0666F5"/>
<path d="M186.213 29.9764C181.623 30.0037 177.031 29.9916 172.441 29.9916C171.546 29.9916 171.532 29.9613 171.709 29.0487C171.895 28.0906 172.07 27.1311 172.237 26.1685C172.959 22.02 173.675 17.87 174.4 13.7215C175.065 9.92105 175.754 6.12671 176.401 2.32328C176.636 0.941456 176.596 0.933889 175.177 0.959618C172.33 1.01108 169.9 3.04068 169.409 5.79828C168.806 9.20214 168.219 12.6075 167.628 16.0129C166.493 22.5573 165.363 29.1032 164.22 35.646C164.129 36.1682 164.169 36.3982 164.803 36.3891C167.308 36.3498 169.815 36.3725 172.321 36.3725C172.694 36.3725 173.067 36.3801 173.438 36.371C175.915 36.3059 178.401 36.5526 180.869 36.2211C184.073 35.7913 186.159 33.8555 186.889 30.8013C187.059 30.0915 186.878 29.9734 186.21 29.9764H186.213Z" fill="#0666F5"/>
<path d="M30.8018 10.7733C27.4038 10.7446 24.0044 10.7567 20.6049 10.7642C17.0013 10.7733 14.5452 12.8029 13.7017 16.3899C13.5601 16.9908 13.6167 17.1784 14.2725 17.1663C16.4052 17.1285 18.5393 17.1527 20.6735 17.1527C22.7078 17.1527 24.7421 17.1527 26.7764 17.1527C28.4128 17.1527 28.9642 17.8292 28.684 19.4744C28.0193 23.3762 27.3517 27.2765 26.6944 31.1783C26.3815 33.0339 26.3829 33.0097 28.1773 32.3952C31.462 31.2706 33.4412 29.0382 33.9628 25.5239C34.4203 22.45 34.9166 19.3821 35.3354 16.3036C35.4844 15.2094 35.4785 14.0879 34.9449 13.0557C34.0656 11.3575 32.5604 10.7854 30.8003 10.7703L30.8018 10.7733Z" fill="#0666F5"/>
<path d="M191.971 10.7778C188.422 10.7324 184.872 10.7279 181.322 10.7778C178.014 10.8248 175.404 13.1056 174.769 16.3793C174.664 16.9242 174.746 17.1754 175.409 17.1709C179.553 17.1376 183.698 17.1542 187.844 17.1542C189.449 17.1542 190.011 17.7793 189.786 19.4033C189.603 20.72 189.349 22.0262 189.123 23.3354C188.577 26.4925 188.03 29.6497 187.461 32.934C188.556 32.654 189.518 32.3376 190.437 31.9124C192.884 30.7803 194.439 28.8642 194.905 26.1807C195.473 22.9237 195.864 19.6348 196.411 16.3733C196.953 13.1404 195.188 10.8202 191.971 10.7778Z" fill="#0666F5"/>
<path d="M202.725 32.716C202.403 32.6267 202.166 32.7417 202.015 33.0808C201.741 33.6983 201.431 34.3007 201.136 34.9091C201.063 35.0589 201.06 35.298 200.841 35.2905C200.592 35.2814 200.664 35.0226 200.629 34.8758C200.5 34.3128 200.38 33.7467 200.294 33.1761C200.245 32.8583 200.16 32.6736 199.792 32.6918C199.407 32.71 199.377 32.9506 199.339 33.2457C199.225 34.116 199.093 34.9817 198.966 35.8505C198.939 36.0321 198.765 36.2818 199.06 36.3499C199.427 36.4347 199.322 36.0851 199.377 35.8959C199.595 35.1482 199.519 34.334 199.856 33.5046C200.325 34.4702 200.149 35.5069 200.661 36.4801C201.284 35.5054 201.582 34.4808 202.357 33.6847C202.261 34.3521 202.158 35.0196 202.073 35.69C202.045 35.914 201.834 36.2591 202.155 36.3333C202.506 36.4135 202.448 36.0245 202.486 35.7945C202.62 34.9787 202.762 34.1644 202.875 33.3456C202.904 33.1353 203.1 32.825 202.725 32.7206V32.716Z" fill="#FEFEFE"/>
<path d="M198.445 32.719C197.679 32.7115 196.912 32.716 196.146 32.716L196.138 32.9809C196.228 33.0096 196.32 33.0717 196.405 33.0626C197.014 32.9945 197.19 33.1913 197.02 33.833C196.837 34.5292 196.792 35.2617 196.688 35.9791C196.667 36.1229 196.609 36.297 196.81 36.3484C197.053 36.4105 197.092 36.2288 197.12 36.0427C197.22 35.3737 197.316 34.7048 197.427 34.0388C197.515 33.5091 197.521 32.8886 198.348 33.0596C198.417 33.0732 198.547 32.9975 198.581 32.9294C198.629 32.8356 198.558 32.7206 198.445 32.7206V32.719Z" fill="#FEFEFE"/>
</g>
<defs>
<clipPath id="clip0_572_66">
<rect width="201.666" height="45.4459" fill="white" transform="translate(0.666992 0.953674)"/>
</clipPath>
</defs>
</svg>
