<svg width="193" height="191" viewBox="0 0 193 191" fill="none" xmlns="http://www.w3.org/2000/svg">
<g clip-path="url(#clip0_824_2096)">
<path d="M46.7691 0H41.5799V5.16216H46.7691V0Z" fill="black"/>
<path d="M51.9583 0H46.7691V5.16216H51.9583V0Z" fill="black"/>
<path d="M57.1475 0H51.9583V5.16216H57.1475V0Z" fill="black"/>
<path d="M62.3367 0H57.1475V5.16216H62.3367V0Z" fill="black"/>
<path d="M72.7151 0H67.5259V5.16216H72.7151V0Z" fill="black"/>
<path d="M77.9042 0H72.7151V5.16216H77.9042V0Z" fill="black"/>
<path d="M93.4718 0H88.2826V5.16216H93.4718V0Z" fill="black"/>
<path d="M103.85 0H98.661V5.16216H103.85V0Z" fill="black"/>
<path d="M109.039 0H103.85V5.16216H109.039V0Z" fill="black"/>
<path d="M114.229 0H109.039V5.16216H114.229V0Z" fill="black"/>
<path d="M129.796 0H124.607V5.16216H129.796V0Z" fill="black"/>
<path d="M140.175 0H134.985V5.16216H140.175V0Z" fill="black"/>
<path d="M51.9583 5.16211H46.7691V10.3243H51.9583V5.16211Z" fill="black"/>
<path d="M67.5259 5.16211H62.3367V10.3243H67.5259V5.16211Z" fill="black"/>
<path d="M72.7151 5.16211H67.5259V10.3243H72.7151V5.16211Z" fill="black"/>
<path d="M88.2826 5.16211H83.0934V10.3243H88.2826V5.16211Z" fill="black"/>
<path d="M93.4718 5.16211H88.2826V10.3243H93.4718V5.16211Z" fill="black"/>
<path d="M109.039 5.16211H103.85V10.3243H109.039V5.16211Z" fill="black"/>
<path d="M114.229 5.16211H109.039V10.3243H114.229V5.16211Z" fill="black"/>
<path d="M134.985 5.16211H129.796V10.3243H134.985V5.16211Z" fill="black"/>
<path d="M140.175 5.16211H134.985V10.3243H140.175V5.16211Z" fill="black"/>
<path d="M46.7691 10.3242H41.5799V15.4864H46.7691V10.3242Z" fill="black"/>
<path d="M57.1475 10.3242H51.9583V15.4864H57.1475V10.3242Z" fill="black"/>
<path d="M62.3367 10.3242H57.1475V15.4864H62.3367V10.3242Z" fill="black"/>
<path d="M67.5259 10.3242H62.3367V15.4864H67.5259V10.3242Z" fill="black"/>
<path d="M72.7151 10.3242H67.5259V15.4864H72.7151V10.3242Z" fill="black"/>
<path d="M93.4718 10.3242H88.2826V15.4864H93.4718V10.3242Z" fill="black"/>
<path d="M103.85 10.3242H98.661V15.4864H103.85V10.3242Z" fill="black"/>
<path d="M109.039 10.3242H103.85V15.4864H109.039V10.3242Z" fill="black"/>
<path d="M114.229 10.3242H109.039V15.4864H114.229V10.3242Z" fill="black"/>
<path d="M124.607 10.3242H119.418V15.4864H124.607V10.3242Z" fill="black"/>
<path d="M134.985 10.3242H129.796V15.4864H134.985V10.3242Z" fill="black"/>
<path d="M88.2826 15.4863H83.0934V20.6485H88.2826V15.4863Z" fill="black"/>
<path d="M93.4718 15.4863H88.2826V20.6485H93.4718V15.4863Z" fill="black"/>
<path d="M109.039 15.4863H103.85V20.6485H109.039V15.4863Z" fill="black"/>
<path d="M114.229 15.4863H109.039V20.6485H114.229V15.4863Z" fill="black"/>
<path d="M119.418 15.4863H114.229V20.6485H119.418V15.4863Z" fill="black"/>
<path d="M124.607 15.4863H119.418V20.6485H124.607V15.4863Z" fill="black"/>
<path d="M129.796 15.4863H124.607V20.6485H129.796V15.4863Z" fill="black"/>
<path d="M134.985 15.4863H129.796V20.6485H134.985V15.4863Z" fill="black"/>
<path d="M140.175 15.4863H134.985V20.6485H140.175V15.4863Z" fill="black"/>
<path d="M145.364 15.4863H140.174V20.6485H145.364V15.4863Z" fill="black"/>
<path d="M57.1475 20.6484H51.9583V25.8106H57.1475V20.6484Z" fill="black"/>
<path d="M62.3367 20.6484H57.1475V25.8106H62.3367V20.6484Z" fill="black"/>
<path d="M67.5259 20.6484H62.3367V25.8106H67.5259V20.6484Z" fill="black"/>
<path d="M72.7151 20.6484H67.5259V25.8106H72.7151V20.6484Z" fill="black"/>
<path d="M77.9042 20.6484H72.7151V25.8106H77.9042V20.6484Z" fill="black"/>
<path d="M88.2826 20.6484H83.0934V25.8106H88.2826V20.6484Z" fill="black"/>
<path d="M98.661 20.6484H93.4718V25.8106H98.661V20.6484Z" fill="black"/>
<path d="M134.985 20.6484H129.796V25.8106H134.985V20.6484Z" fill="black"/>
<path d="M140.175 20.6484H134.985V25.8106H140.175V20.6484Z" fill="black"/>
<path d="M46.7691 25.811H41.5799V30.9732H46.7691V25.811Z" fill="black"/>
<path d="M51.9583 25.811H46.7691V30.9732H51.9583V25.811Z" fill="black"/>
<path d="M57.1475 25.811H51.9583V30.9732H57.1475V25.811Z" fill="black"/>
<path d="M62.3367 25.811H57.1475V30.9732H62.3367V25.811Z" fill="black"/>
<path d="M67.5259 25.811H62.3367V30.9732H67.5259V25.811Z" fill="black"/>
<path d="M72.7151 25.811H67.5259V30.9732H72.7151V25.811Z" fill="black"/>
<path d="M77.9042 25.811H72.7151V30.9732H77.9042V25.811Z" fill="black"/>
<path d="M88.2826 25.811H83.0934V30.9732H88.2826V25.811Z" fill="black"/>
<path d="M93.4718 25.811H88.2826V30.9732H93.4718V25.811Z" fill="black"/>
<path d="M98.661 25.811H93.4718V30.9732H98.661V25.811Z" fill="black"/>
<path d="M119.418 25.811H114.229V30.9732H119.418V25.811Z" fill="black"/>
<path d="M129.796 25.811H124.607V30.9732H129.796V25.811Z" fill="black"/>
<path d="M150.553 25.811H145.364V30.9732H150.553V25.811Z" fill="black"/>
<path d="M46.7691 30.9731H41.5799V36.1353H46.7691V30.9731Z" fill="black"/>
<path d="M57.1475 30.9731H51.9583V36.1353H57.1475V30.9731Z" fill="black"/>
<path d="M67.5259 30.9731H62.3367V36.1353H67.5259V30.9731Z" fill="black"/>
<path d="M77.9042 30.9731H72.7151V36.1353H77.9042V30.9731Z" fill="black"/>
<path d="M88.2826 30.9731H83.0934V36.1353H88.2826V30.9731Z" fill="black"/>
<path d="M98.661 30.9731H93.4718V36.1353H98.661V30.9731Z" fill="black"/>
<path d="M109.039 30.9731H103.85V36.1353H109.039V30.9731Z" fill="black"/>
<path d="M119.418 30.9731H114.229V36.1353H119.418V30.9731Z" fill="black"/>
<path d="M129.796 30.9731H124.607V36.1353H129.796V30.9731Z" fill="black"/>
<path d="M140.175 30.9731H134.985V36.1353H140.175V30.9731Z" fill="black"/>
<path d="M150.553 30.9731H145.364V36.1353H150.553V30.9731Z" fill="black"/>
<path d="M51.9583 36.1353H46.7691V41.2974H51.9583V36.1353Z" fill="black"/>
<path d="M62.3367 36.1353H57.1475V41.2974H62.3367V36.1353Z" fill="black"/>
<path d="M88.2826 36.1353H83.0934V41.2974H88.2826V36.1353Z" fill="black"/>
<path d="M93.4718 36.1353H88.2826V41.2974H93.4718V36.1353Z" fill="black"/>
<path d="M119.418 36.1353H114.229V41.2974H119.418V36.1353Z" fill="black"/>
<path d="M124.607 36.1353H119.418V41.2974H124.607V36.1353Z" fill="black"/>
<path d="M129.796 36.1353H124.607V41.2974H129.796V36.1353Z" fill="black"/>
<path d="M140.175 36.1353H134.985V41.2974H140.175V36.1353Z" fill="black"/>
<path d="M145.364 36.1353H140.174V41.2974H145.364V36.1353Z" fill="black"/>
<path d="M150.553 36.1353H145.364V41.2974H150.553V36.1353Z" fill="black"/>
<path d="M5.2556 41.2974H0.0664062V46.4595H5.2556V41.2974Z" fill="black"/>
<path d="M15.634 41.2974H10.4448V46.4595H15.634V41.2974Z" fill="black"/>
<path d="M36.3907 41.2974H31.2015V46.4595H36.3907V41.2974Z" fill="black"/>
<path d="M41.5799 41.2974H36.3907V46.4595H41.5799V41.2974Z" fill="black"/>
<path d="M93.4718 41.2974H88.2826V46.4595H93.4718V41.2974Z" fill="black"/>
<path d="M103.85 41.2974H98.661V46.4595H103.85V41.2974Z" fill="black"/>
<path d="M109.039 41.2974H103.85V46.4595H109.039V41.2974Z" fill="black"/>
<path d="M129.796 41.2974H124.607V46.4595H129.796V41.2974Z" fill="black"/>
<path d="M150.553 41.2974H145.364V46.4595H150.553V41.2974Z" fill="black"/>
<path d="M166.12 41.2974H160.931V46.4595H166.12V41.2974Z" fill="black"/>
<path d="M181.688 41.2974H176.499V46.4595H181.688V41.2974Z" fill="black"/>
<path d="M192.066 41.2974H186.877V46.4595H192.066V41.2974Z" fill="black"/>
<path d="M5.2556 46.4595H0.0664062V51.6216H5.2556V46.4595Z" fill="black"/>
<path d="M26.0124 46.4595H20.8232V51.6216H26.0124V46.4595Z" fill="black"/>
<path d="M31.2015 46.4595H26.0123V51.6216H31.2015V46.4595Z" fill="black"/>
<path d="M41.5799 46.4595H36.3907V51.6216H41.5799V46.4595Z" fill="black"/>
<path d="M46.7691 46.4595H41.5799V51.6216H46.7691V46.4595Z" fill="black"/>
<path d="M51.9583 46.4595H46.7691V51.6216H51.9583V46.4595Z" fill="black"/>
<path d="M57.1475 46.4595H51.9583V51.6216H57.1475V46.4595Z" fill="black"/>
<path d="M72.7151 46.4595H67.5259V51.6216H72.7151V46.4595Z" fill="black"/>
<path d="M93.4718 46.4595H88.2826V51.6216H93.4718V46.4595Z" fill="black"/>
<path d="M109.039 46.4595H103.85V51.6216H109.039V46.4595Z" fill="black"/>
<path d="M124.607 46.4595H119.418V51.6216H124.607V46.4595Z" fill="black"/>
<path d="M129.796 46.4595H124.607V51.6216H129.796V46.4595Z" fill="black"/>
<path d="M145.364 46.4595H140.174V51.6216H145.364V46.4595Z" fill="black"/>
<path d="M160.931 46.4595H155.742V51.6216H160.931V46.4595Z" fill="black"/>
<path d="M166.12 46.4595H160.931V51.6216H166.12V46.4595Z" fill="black"/>
<path d="M176.499 46.4595H171.31V51.6216H176.499V46.4595Z" fill="black"/>
<path d="M186.877 46.4595H181.688V51.6216H186.877V46.4595Z" fill="black"/>
<path d="M192.066 46.4595H186.877V51.6216H192.066V46.4595Z" fill="black"/>
<path d="M15.634 51.6216H10.4448V56.7837H15.634V51.6216Z" fill="black"/>
<path d="M20.8232 51.6216H15.634V56.7837H20.8232V51.6216Z" fill="black"/>
<path d="M26.0124 51.6216H20.8232V56.7837H26.0124V51.6216Z" fill="black"/>
<path d="M36.3907 51.6216H31.2015V56.7837H36.3907V51.6216Z" fill="black"/>
<path d="M46.7691 51.6216H41.5799V56.7837H46.7691V51.6216Z" fill="black"/>
<path d="M57.1475 51.6216H51.9583V56.7837H57.1475V51.6216Z" fill="black"/>
<path d="M62.3367 51.6216H57.1475V56.7837H62.3367V51.6216Z" fill="black"/>
<path d="M67.5259 51.6216H62.3367V56.7837H67.5259V51.6216Z" fill="black"/>
<path d="M77.9042 51.6216H72.7151V56.7837H77.9042V51.6216Z" fill="black"/>
<path d="M83.0934 51.6216H77.9042V56.7837H83.0934V51.6216Z" fill="black"/>
<path d="M109.039 51.6216H103.85V56.7837H109.039V51.6216Z" fill="black"/>
<path d="M114.229 51.6216H109.039V56.7837H114.229V51.6216Z" fill="black"/>
<path d="M124.607 51.6216H119.418V56.7837H124.607V51.6216Z" fill="black"/>
<path d="M129.796 51.6216H124.607V56.7837H129.796V51.6216Z" fill="black"/>
<path d="M145.364 51.6216H140.174V56.7837H145.364V51.6216Z" fill="black"/>
<path d="M150.553 51.6216H145.364V56.7837H150.553V51.6216Z" fill="black"/>
<path d="M155.742 51.6216H150.553V56.7837H155.742V51.6216Z" fill="black"/>
<path d="M160.931 51.6216H155.742V56.7837H160.931V51.6216Z" fill="black"/>
<path d="M166.12 51.6216H160.931V56.7837H166.12V51.6216Z" fill="black"/>
<path d="M171.31 51.6216H166.12V56.7837H171.31V51.6216Z" fill="black"/>
<path d="M176.499 51.6216H171.31V56.7837H176.499V51.6216Z" fill="black"/>
<path d="M181.688 51.6216H176.499V56.7837H181.688V51.6216Z" fill="black"/>
<path d="M192.066 51.6216H186.877V56.7837H192.066V51.6216Z" fill="black"/>
<path d="M5.2556 56.7842H0.0664062V61.9463H5.2556V56.7842Z" fill="black"/>
<path d="M10.4448 56.7842H5.25562V61.9463H10.4448V56.7842Z" fill="black"/>
<path d="M15.634 56.7842H10.4448V61.9463H15.634V56.7842Z" fill="black"/>
<path d="M20.8232 56.7842H15.634V61.9463H20.8232V56.7842Z" fill="black"/>
<path d="M26.0124 56.7842H20.8232V61.9463H26.0124V56.7842Z" fill="black"/>
<path d="M31.2015 56.7842H26.0123V61.9463H31.2015V56.7842Z" fill="black"/>
<path d="M57.1475 56.7842H51.9583V61.9463H57.1475V56.7842Z" fill="black"/>
<path d="M67.5259 56.7842H62.3367V61.9463H67.5259V56.7842Z" fill="black"/>
<path d="M72.7151 56.7842H67.5259V61.9463H72.7151V56.7842Z" fill="black"/>
<path d="M77.9042 56.7842H72.7151V61.9463H77.9042V56.7842Z" fill="black"/>
<path d="M98.661 56.7842H93.4718V61.9463H98.661V56.7842Z" fill="black"/>
<path d="M103.85 56.7842H98.661V61.9463H103.85V56.7842Z" fill="black"/>
<path d="M109.039 56.7842H103.85V61.9463H109.039V56.7842Z" fill="black"/>
<path d="M140.175 56.7842H134.985V61.9463H140.175V56.7842Z" fill="black"/>
<path d="M150.553 56.7842H145.364V61.9463H150.553V56.7842Z" fill="black"/>
<path d="M166.12 56.7842H160.931V61.9463H166.12V56.7842Z" fill="black"/>
<path d="M20.8232 61.9463H15.634V67.1085H20.8232V61.9463Z" fill="black"/>
<path d="M26.0124 61.9463H20.8232V67.1085H26.0124V61.9463Z" fill="black"/>
<path d="M36.3907 61.9463H31.2015V67.1085H36.3907V61.9463Z" fill="black"/>
<path d="M41.5799 61.9463H36.3907V67.1085H41.5799V61.9463Z" fill="black"/>
<path d="M46.7691 61.9463H41.5799V67.1085H46.7691V61.9463Z" fill="black"/>
<path d="M51.9583 61.9463H46.7691V67.1085H51.9583V61.9463Z" fill="black"/>
<path d="M62.3367 61.9463H57.1475V67.1085H62.3367V61.9463Z" fill="black"/>
<path d="M67.5259 61.9463H62.3367V67.1085H67.5259V61.9463Z" fill="black"/>
<path d="M72.7151 61.9463H67.5259V67.1085H72.7151V61.9463Z" fill="black"/>
<path d="M83.0934 61.9463H77.9042V67.1085H83.0934V61.9463Z" fill="black"/>
<path d="M129.796 61.9463H124.607V67.1085H129.796V61.9463Z" fill="black"/>
<path d="M145.364 61.9463H140.174V67.1085H145.364V61.9463Z" fill="black"/>
<path d="M150.553 61.9463H145.364V67.1085H150.553V61.9463Z" fill="black"/>
<path d="M160.931 61.9463H155.742V67.1085H160.931V61.9463Z" fill="black"/>
<path d="M192.066 61.9463H186.877V67.1085H192.066V61.9463Z" fill="black"/>
<path d="M5.2556 67.1084H0.0664062V72.2706H5.2556V67.1084Z" fill="black"/>
<path d="M20.8232 67.1084H15.634V72.2706H20.8232V67.1084Z" fill="black"/>
<path d="M26.0124 67.1084H20.8232V72.2706H26.0124V67.1084Z" fill="black"/>
<path d="M31.2015 67.1084H26.0123V72.2706H31.2015V67.1084Z" fill="black"/>
<path d="M41.5799 67.1084H36.3907V72.2706H41.5799V67.1084Z" fill="black"/>
<path d="M51.9583 67.1084H46.7691V72.2706H51.9583V67.1084Z" fill="black"/>
<path d="M57.1475 67.1084H51.9583V72.2706H57.1475V67.1084Z" fill="black"/>
<path d="M62.3367 67.1084H57.1475V72.2706H62.3367V67.1084Z" fill="black"/>
<path d="M67.5259 67.1084H62.3367V72.2706H67.5259V67.1084Z" fill="black"/>
<path d="M77.9042 67.1084H72.7151V72.2706H77.9042V67.1084Z" fill="black"/>
<path d="M83.0934 67.1084H77.9042V72.2706H83.0934V67.1084Z" fill="black"/>
<path d="M88.2826 67.1084H83.0934V72.2706H88.2826V67.1084Z" fill="black"/>
<path d="M103.85 67.1084H98.661V72.2706H103.85V67.1084Z" fill="black"/>
<path d="M109.039 67.1084H103.85V72.2706H109.039V67.1084Z" fill="black"/>
<path d="M124.607 67.1084H119.418V72.2706H124.607V67.1084Z" fill="black"/>
<path d="M134.985 67.1084H129.796V72.2706H134.985V67.1084Z" fill="black"/>
<path d="M145.364 67.1084H140.174V72.2706H145.364V67.1084Z" fill="black"/>
<path d="M150.553 67.1084H145.364V72.2706H150.553V67.1084Z" fill="black"/>
<path d="M160.931 67.1084H155.742V72.2706H160.931V67.1084Z" fill="black"/>
<path d="M166.12 67.1084H160.931V72.2706H166.12V67.1084Z" fill="black"/>
<path d="M176.499 67.1084H171.31V72.2706H176.499V67.1084Z" fill="black"/>
<path d="M192.066 67.1084H186.877V72.2706H192.066V67.1084Z" fill="black"/>
<path d="M10.4448 72.2705H5.25562V77.4327H10.4448V72.2705Z" fill="black"/>
<path d="M15.634 72.2705H10.4448V77.4327H15.634V72.2705Z" fill="black"/>
<path d="M20.8232 72.2705H15.634V77.4327H20.8232V72.2705Z" fill="black"/>
<path d="M26.0124 72.2705H20.8232V77.4327H26.0124V72.2705Z" fill="black"/>
<path d="M31.2015 72.2705H26.0123V77.4327H31.2015V72.2705Z" fill="black"/>
<path d="M36.3907 72.2705H31.2015V77.4327H36.3907V72.2705Z" fill="black"/>
<path d="M41.5799 72.2705H36.3907V77.4327H41.5799V72.2705Z" fill="black"/>
<path d="M51.9583 72.2705H46.7691V77.4327H51.9583V72.2705Z" fill="black"/>
<path d="M57.1475 72.2705H51.9583V77.4327H57.1475V72.2705Z" fill="black"/>
<path d="M67.5259 72.2705H62.3367V77.4327H67.5259V72.2705Z" fill="black"/>
<path d="M72.7151 72.2705H67.5259V77.4327H72.7151V72.2705Z" fill="black"/>
<path d="M77.9042 72.2705H72.7151V77.4327H77.9042V72.2705Z" fill="black"/>
<path d="M83.0934 72.2705H77.9042V77.4327H83.0934V72.2705Z" fill="black"/>
<path d="M88.2826 72.2705H83.0934V77.4327H88.2826V72.2705Z" fill="black"/>
<path d="M93.4718 72.2705H88.2826V77.4327H93.4718V72.2705Z" fill="black"/>
<path d="M98.661 72.2705H93.4718V77.4327H98.661V72.2705Z" fill="black"/>
<path d="M103.85 72.2705H98.661V77.4327H103.85V72.2705Z" fill="black"/>
<path d="M109.039 72.2705H103.85V77.4327H109.039V72.2705Z" fill="black"/>
<path d="M114.229 72.2705H109.039V77.4327H114.229V72.2705Z" fill="black"/>
<path d="M124.607 72.2705H119.418V77.4327H124.607V72.2705Z" fill="black"/>
<path d="M134.985 72.2705H129.796V77.4327H134.985V72.2705Z" fill="black"/>
<path d="M145.364 72.2705H140.174V77.4327H145.364V72.2705Z" fill="black"/>
<path d="M176.499 72.2705H171.31V77.4327H176.499V72.2705Z" fill="black"/>
<path d="M181.688 72.2705H176.499V77.4327H181.688V72.2705Z" fill="black"/>
<path d="M192.066 72.2705H186.877V77.4327H192.066V72.2705Z" fill="black"/>
<path d="M31.2015 77.4326H26.0123V82.5948H31.2015V77.4326Z" fill="black"/>
<path d="M41.5799 77.4326H36.3907V82.5948H41.5799V77.4326Z" fill="black"/>
<path d="M57.1475 77.4326H51.9583V82.5948H57.1475V77.4326Z" fill="black"/>
<path d="M72.7151 77.4326H67.5259V82.5948H72.7151V77.4326Z" fill="black"/>
<path d="M88.2826 77.4326H83.0934V82.5948H88.2826V77.4326Z" fill="black"/>
<path d="M98.661 77.4326H93.4718V82.5948H98.661V77.4326Z" fill="black"/>
<path d="M119.418 77.4326H114.229V82.5948H119.418V77.4326Z" fill="black"/>
<path d="M129.796 77.4326H124.607V82.5948H129.796V77.4326Z" fill="black"/>
<path d="M145.364 77.4326H140.174V82.5948H145.364V77.4326Z" fill="black"/>
<path d="M150.553 77.4326H145.364V82.5948H150.553V77.4326Z" fill="black"/>
<path d="M155.742 77.4326H150.553V82.5948H155.742V77.4326Z" fill="black"/>
<path d="M160.931 77.4326H155.742V82.5948H160.931V77.4326Z" fill="black"/>
<path d="M166.12 77.4326H160.931V82.5948H166.12V77.4326Z" fill="black"/>
<path d="M171.31 77.4326H166.12V82.5948H171.31V77.4326Z" fill="black"/>
<path d="M176.499 77.4326H171.31V82.5948H176.499V77.4326Z" fill="black"/>
<path d="M186.877 77.4326H181.688V82.5948H186.877V77.4326Z" fill="black"/>
<path d="M10.4448 82.5947H5.25562V87.7569H10.4448V82.5947Z" fill="black"/>
<path d="M20.8232 82.5947H15.634V87.7569H20.8232V82.5947Z" fill="black"/>
<path d="M26.0124 82.5947H20.8232V87.7569H26.0124V82.5947Z" fill="black"/>
<path d="M31.2015 82.5947H26.0123V87.7569H31.2015V82.5947Z" fill="black"/>
<path d="M36.3907 82.5947H31.2015V87.7569H36.3907V82.5947Z" fill="black"/>
<path d="M51.9583 82.5947H46.7691V87.7569H51.9583V82.5947Z" fill="black"/>
<path d="M67.5259 82.5947H62.3367V87.7569H67.5259V82.5947Z" fill="black"/>
<path d="M72.7151 82.5947H67.5259V87.7569H72.7151V82.5947Z" fill="black"/>
<path d="M77.9042 82.5947H72.7151V87.7569H77.9042V82.5947Z" fill="black"/>
<path d="M88.2826 82.5947H83.0934V87.7569H88.2826V82.5947Z" fill="black"/>
<path d="M93.4718 82.5947H88.2826V87.7569H93.4718V82.5947Z" fill="black"/>
<path d="M98.661 82.5947H93.4718V87.7569H98.661V82.5947Z" fill="black"/>
<path d="M103.85 82.5947H98.661V87.7569H103.85V82.5947Z" fill="black"/>
<path d="M129.796 82.5947H124.607V87.7569H129.796V82.5947Z" fill="black"/>
<path d="M145.364 82.5947H140.174V87.7569H145.364V82.5947Z" fill="black"/>
<path d="M160.931 82.5947H155.742V87.7569H160.931V82.5947Z" fill="black"/>
<path d="M166.12 82.5947H160.931V87.7569H166.12V82.5947Z" fill="black"/>
<path d="M186.877 82.5947H181.688V87.7569H186.877V82.5947Z" fill="black"/>
<path d="M5.2556 87.7568H0.0664062V92.919H5.2556V87.7568Z" fill="black"/>
<path d="M15.634 87.7568H10.4448V92.919H15.634V87.7568Z" fill="black"/>
<path d="M41.5799 87.7568H36.3907V92.919H41.5799V87.7568Z" fill="black"/>
<path d="M46.7691 87.7568H41.5799V92.919H46.7691V87.7568Z" fill="black"/>
<path d="M67.5259 87.7568H62.3367V92.919H67.5259V87.7568Z" fill="black"/>
<path d="M88.2826 87.7568H83.0934V92.919H88.2826V87.7568Z" fill="black"/>
<path d="M98.661 87.7568H93.4718V92.919H98.661V87.7568Z" fill="black"/>
<path d="M114.229 87.7568H109.039V92.919H114.229V87.7568Z" fill="black"/>
<path d="M124.607 87.7568H119.418V92.919H124.607V87.7568Z" fill="black"/>
<path d="M129.796 87.7568H124.607V92.919H129.796V87.7568Z" fill="black"/>
<path d="M134.985 87.7568H129.796V92.919H134.985V87.7568Z" fill="black"/>
<path d="M145.364 87.7568H140.174V92.919H145.364V87.7568Z" fill="black"/>
<path d="M150.553 87.7568H145.364V92.919H150.553V87.7568Z" fill="black"/>
<path d="M155.742 87.7568H150.553V92.919H155.742V87.7568Z" fill="black"/>
<path d="M160.931 87.7568H155.742V92.919H160.931V87.7568Z" fill="black"/>
<path d="M166.12 87.7568H160.931V92.919H166.12V87.7568Z" fill="black"/>
<path d="M176.499 87.7568H171.31V92.919H176.499V87.7568Z" fill="black"/>
<path d="M181.688 87.7568H176.499V92.919H181.688V87.7568Z" fill="black"/>
<path d="M186.877 87.7568H181.688V92.919H186.877V87.7568Z" fill="black"/>
<path d="M192.066 87.7568H186.877V92.919H192.066V87.7568Z" fill="black"/>
<path d="M15.634 92.9189H10.4448V98.0811H15.634V92.9189Z" fill="black"/>
<path d="M20.8232 92.9189H15.634V98.0811H20.8232V92.9189Z" fill="black"/>
<path d="M31.2015 92.9189H26.0123V98.0811H31.2015V92.9189Z" fill="black"/>
<path d="M36.3907 92.9189H31.2015V98.0811H36.3907V92.9189Z" fill="black"/>
<path d="M51.9583 92.9189H46.7691V98.0811H51.9583V92.9189Z" fill="black"/>
<path d="M57.1475 92.9189H51.9583V98.0811H57.1475V92.9189Z" fill="black"/>
<path d="M62.3367 92.9189H57.1475V98.0811H62.3367V92.9189Z" fill="black"/>
<path d="M77.9042 92.9189H72.7151V98.0811H77.9042V92.9189Z" fill="black"/>
<path d="M88.2826 92.9189H83.0934V98.0811H88.2826V92.9189Z" fill="black"/>
<path d="M93.4718 92.9189H88.2826V98.0811H93.4718V92.9189Z" fill="black"/>
<path d="M103.85 92.9189H98.661V98.0811H103.85V92.9189Z" fill="black"/>
<path d="M124.607 92.9189H119.418V98.0811H124.607V92.9189Z" fill="black"/>
<path d="M129.796 92.9189H124.607V98.0811H129.796V92.9189Z" fill="black"/>
<path d="M134.985 92.9189H129.796V98.0811H134.985V92.9189Z" fill="black"/>
<path d="M145.364 92.9189H140.174V98.0811H145.364V92.9189Z" fill="black"/>
<path d="M166.12 92.9189H160.931V98.0811H166.12V92.9189Z" fill="black"/>
<path d="M181.688 92.9189H176.499V98.0811H181.688V92.9189Z" fill="black"/>
<path d="M192.066 92.9189H186.877V98.0811H192.066V92.9189Z" fill="black"/>
<path d="M5.2556 98.0811H0.0664062V103.243H5.2556V98.0811Z" fill="black"/>
<path d="M10.4448 98.0811H5.25562V103.243H10.4448V98.0811Z" fill="black"/>
<path d="M20.8232 98.0811H15.634V103.243H20.8232V98.0811Z" fill="black"/>
<path d="M31.2015 98.0811H26.0123V103.243H31.2015V98.0811Z" fill="black"/>
<path d="M41.5799 98.0811H36.3907V103.243H41.5799V98.0811Z" fill="black"/>
<path d="M46.7691 98.0811H41.5799V103.243H46.7691V98.0811Z" fill="black"/>
<path d="M67.5259 98.0811H62.3367V103.243H67.5259V98.0811Z" fill="black"/>
<path d="M83.0934 98.0811H77.9042V103.243H83.0934V98.0811Z" fill="black"/>
<path d="M88.2826 98.0811H83.0934V103.243H88.2826V98.0811Z" fill="black"/>
<path d="M119.418 98.0811H114.229V103.243H119.418V98.0811Z" fill="black"/>
<path d="M124.607 98.0811H119.418V103.243H124.607V98.0811Z" fill="black"/>
<path d="M129.796 98.0811H124.607V103.243H129.796V98.0811Z" fill="black"/>
<path d="M166.12 98.0811H160.931V103.243H166.12V98.0811Z" fill="black"/>
<path d="M171.31 98.0811H166.12V103.243H171.31V98.0811Z" fill="black"/>
<path d="M176.499 98.0811H171.31V103.243H176.499V98.0811Z" fill="black"/>
<path d="M20.8232 103.243H15.634V108.405H20.8232V103.243Z" fill="black"/>
<path d="M26.0124 103.243H20.8232V108.405H26.0124V103.243Z" fill="black"/>
<path d="M36.3907 103.243H31.2015V108.405H36.3907V103.243Z" fill="black"/>
<path d="M67.5259 103.243H62.3367V108.405H67.5259V103.243Z" fill="black"/>
<path d="M72.7151 103.243H67.5259V108.405H72.7151V103.243Z" fill="black"/>
<path d="M88.2826 103.243H83.0934V108.405H88.2826V103.243Z" fill="black"/>
<path d="M103.85 103.243H98.661V108.405H103.85V103.243Z" fill="black"/>
<path d="M124.607 103.243H119.418V108.405H124.607V103.243Z" fill="black"/>
<path d="M129.796 103.243H124.607V108.405H129.796V103.243Z" fill="black"/>
<path d="M145.364 103.243H140.174V108.405H145.364V103.243Z" fill="black"/>
<path d="M150.553 103.243H145.364V108.405H150.553V103.243Z" fill="black"/>
<path d="M160.931 103.243H155.742V108.405H160.931V103.243Z" fill="black"/>
<path d="M166.12 103.243H160.931V108.405H166.12V103.243Z" fill="black"/>
<path d="M176.499 103.243H171.31V108.405H176.499V103.243Z" fill="black"/>
<path d="M186.877 103.243H181.688V108.405H186.877V103.243Z" fill="black"/>
<path d="M5.2556 108.405H0.0664062V113.567H5.2556V108.405Z" fill="black"/>
<path d="M20.8232 108.405H15.634V113.567H20.8232V108.405Z" fill="black"/>
<path d="M46.7691 108.405H41.5799V113.567H46.7691V108.405Z" fill="black"/>
<path d="M51.9583 108.405H46.7691V113.567H51.9583V108.405Z" fill="black"/>
<path d="M67.5259 108.405H62.3367V113.567H67.5259V108.405Z" fill="black"/>
<path d="M77.9042 108.405H72.7151V113.567H77.9042V108.405Z" fill="black"/>
<path d="M83.0934 108.405H77.9042V113.567H83.0934V108.405Z" fill="black"/>
<path d="M88.2826 108.405H83.0934V113.567H88.2826V108.405Z" fill="black"/>
<path d="M93.4718 108.405H88.2826V113.567H93.4718V108.405Z" fill="black"/>
<path d="M103.85 108.405H98.661V113.567H103.85V108.405Z" fill="black"/>
<path d="M109.039 108.405H103.85V113.567H109.039V108.405Z" fill="black"/>
<path d="M114.229 108.405H109.039V113.567H114.229V108.405Z" fill="black"/>
<path d="M119.418 108.405H114.229V113.567H119.418V108.405Z" fill="black"/>
<path d="M124.607 108.405H119.418V113.567H124.607V108.405Z" fill="black"/>
<path d="M129.796 108.405H124.607V113.567H129.796V108.405Z" fill="black"/>
<path d="M134.985 108.405H129.796V113.567H134.985V108.405Z" fill="black"/>
<path d="M145.364 108.405H140.174V113.567H145.364V108.405Z" fill="black"/>
<path d="M150.553 108.405H145.364V113.567H150.553V108.405Z" fill="black"/>
<path d="M160.931 108.405H155.742V113.567H160.931V108.405Z" fill="black"/>
<path d="M192.066 108.405H186.877V113.567H192.066V108.405Z" fill="black"/>
<path d="M5.2556 113.567H0.0664062V118.73H5.2556V113.567Z" fill="black"/>
<path d="M10.4448 113.567H5.25562V118.73H10.4448V113.567Z" fill="black"/>
<path d="M20.8232 113.567H15.634V118.73H20.8232V113.567Z" fill="black"/>
<path d="M31.2015 113.567H26.0123V118.73H31.2015V113.567Z" fill="black"/>
<path d="M36.3907 113.567H31.2015V118.73H36.3907V113.567Z" fill="black"/>
<path d="M51.9583 113.567H46.7691V118.73H51.9583V113.567Z" fill="black"/>
<path d="M57.1475 113.567H51.9583V118.73H57.1475V113.567Z" fill="black"/>
<path d="M62.3367 113.567H57.1475V118.73H62.3367V113.567Z" fill="black"/>
<path d="M67.5259 113.567H62.3367V118.73H67.5259V113.567Z" fill="black"/>
<path d="M83.0934 113.567H77.9042V118.73H83.0934V113.567Z" fill="black"/>
<path d="M103.85 113.567H98.661V118.73H103.85V113.567Z" fill="black"/>
<path d="M124.607 113.567H119.418V118.73H124.607V113.567Z" fill="black"/>
<path d="M145.364 113.567H140.174V118.73H145.364V113.567Z" fill="black"/>
<path d="M150.553 113.567H145.364V118.73H150.553V113.567Z" fill="black"/>
<path d="M160.931 113.567H155.742V118.73H160.931V113.567Z" fill="black"/>
<path d="M176.499 113.567H171.31V118.73H176.499V113.567Z" fill="black"/>
<path d="M181.688 113.567H176.499V118.73H181.688V113.567Z" fill="black"/>
<path d="M192.066 113.567H186.877V118.73H192.066V113.567Z" fill="black"/>
<path d="M20.8232 118.729H15.634V123.892H20.8232V118.729Z" fill="black"/>
<path d="M57.1475 118.729H51.9583V123.892H57.1475V118.729Z" fill="black"/>
<path d="M67.5259 118.729H62.3367V123.892H67.5259V118.729Z" fill="black"/>
<path d="M77.9042 118.729H72.7151V123.892H77.9042V118.729Z" fill="black"/>
<path d="M93.4718 118.729H88.2826V123.892H93.4718V118.729Z" fill="black"/>
<path d="M124.607 118.729H119.418V123.892H124.607V118.729Z" fill="black"/>
<path d="M129.796 118.729H124.607V123.892H129.796V118.729Z" fill="black"/>
<path d="M140.175 118.729H134.985V123.892H140.175V118.729Z" fill="black"/>
<path d="M145.364 118.729H140.174V123.892H145.364V118.729Z" fill="black"/>
<path d="M150.553 118.729H145.364V123.892H150.553V118.729Z" fill="black"/>
<path d="M166.12 118.729H160.931V123.892H166.12V118.729Z" fill="black"/>
<path d="M171.31 118.729H166.12V123.892H171.31V118.729Z" fill="black"/>
<path d="M176.499 118.729H171.31V123.892H176.499V118.729Z" fill="black"/>
<path d="M186.877 118.729H181.688V123.892H186.877V118.729Z" fill="black"/>
<path d="M192.066 118.729H186.877V123.892H192.066V118.729Z" fill="black"/>
<path d="M15.634 123.892H10.4448V129.054H15.634V123.892Z" fill="black"/>
<path d="M20.8232 123.892H15.634V129.054H20.8232V123.892Z" fill="black"/>
<path d="M36.3907 123.892H31.2015V129.054H36.3907V123.892Z" fill="black"/>
<path d="M51.9583 123.892H46.7691V129.054H51.9583V123.892Z" fill="black"/>
<path d="M57.1475 123.892H51.9583V129.054H57.1475V123.892Z" fill="black"/>
<path d="M62.3367 123.892H57.1475V129.054H62.3367V123.892Z" fill="black"/>
<path d="M93.4718 123.892H88.2826V129.054H93.4718V123.892Z" fill="black"/>
<path d="M103.85 123.892H98.661V129.054H103.85V123.892Z" fill="black"/>
<path d="M109.039 123.892H103.85V129.054H109.039V123.892Z" fill="black"/>
<path d="M114.229 123.892H109.039V129.054H114.229V123.892Z" fill="black"/>
<path d="M119.418 123.892H114.229V129.054H119.418V123.892Z" fill="black"/>
<path d="M129.796 123.892H124.607V129.054H129.796V123.892Z" fill="black"/>
<path d="M150.553 123.892H145.364V129.054H150.553V123.892Z" fill="black"/>
<path d="M160.931 123.892H155.742V129.054H160.931V123.892Z" fill="black"/>
<path d="M166.12 123.892H160.931V129.054H166.12V123.892Z" fill="black"/>
<path d="M10.4448 129.054H5.25562V134.216H10.4448V129.054Z" fill="black"/>
<path d="M15.634 129.054H10.4448V134.216H15.634V129.054Z" fill="black"/>
<path d="M31.2015 129.054H26.0123V134.216H31.2015V129.054Z" fill="black"/>
<path d="M41.5799 129.054H36.3907V134.216H41.5799V129.054Z" fill="black"/>
<path d="M46.7691 129.054H41.5799V134.216H46.7691V129.054Z" fill="black"/>
<path d="M62.3367 129.054H57.1475V134.216H62.3367V129.054Z" fill="black"/>
<path d="M67.5259 129.054H62.3367V134.216H67.5259V129.054Z" fill="black"/>
<path d="M77.9042 129.054H72.7151V134.216H77.9042V129.054Z" fill="black"/>
<path d="M109.039 129.054H103.85V134.216H109.039V129.054Z" fill="black"/>
<path d="M124.607 129.054H119.418V134.216H124.607V129.054Z" fill="black"/>
<path d="M145.364 129.054H140.174V134.216H145.364V129.054Z" fill="black"/>
<path d="M150.553 129.054H145.364V134.216H150.553V129.054Z" fill="black"/>
<path d="M160.931 129.054H155.742V134.216H160.931V129.054Z" fill="black"/>
<path d="M192.066 129.054H186.877V134.216H192.066V129.054Z" fill="black"/>
<path d="M5.2556 134.216H0.0664062V139.378H5.2556V134.216Z" fill="black"/>
<path d="M10.4448 134.216H5.25562V139.378H10.4448V134.216Z" fill="black"/>
<path d="M15.634 134.216H10.4448V139.378H15.634V134.216Z" fill="black"/>
<path d="M20.8232 134.216H15.634V139.378H20.8232V134.216Z" fill="black"/>
<path d="M26.0124 134.216H20.8232V139.378H26.0124V134.216Z" fill="black"/>
<path d="M31.2015 134.216H26.0123V139.378H31.2015V134.216Z" fill="black"/>
<path d="M36.3907 134.216H31.2015V139.378H36.3907V134.216Z" fill="black"/>
<path d="M57.1475 134.216H51.9583V139.378H57.1475V134.216Z" fill="black"/>
<path d="M62.3367 134.216H57.1475V139.378H62.3367V134.216Z" fill="black"/>
<path d="M77.9042 134.216H72.7151V139.378H77.9042V134.216Z" fill="black"/>
<path d="M83.0934 134.216H77.9042V139.378H83.0934V134.216Z" fill="black"/>
<path d="M93.4718 134.216H88.2826V139.378H93.4718V134.216Z" fill="black"/>
<path d="M109.039 134.216H103.85V139.378H109.039V134.216Z" fill="black"/>
<path d="M119.418 134.216H114.229V139.378H119.418V134.216Z" fill="black"/>
<path d="M124.607 134.216H119.418V139.378H124.607V134.216Z" fill="black"/>
<path d="M134.985 134.216H129.796V139.378H134.985V134.216Z" fill="black"/>
<path d="M145.364 134.216H140.174V139.378H145.364V134.216Z" fill="black"/>
<path d="M150.553 134.216H145.364V139.378H150.553V134.216Z" fill="black"/>
<path d="M155.742 134.216H150.553V139.378H155.742V134.216Z" fill="black"/>
<path d="M160.931 134.216H155.742V139.378H160.931V134.216Z" fill="black"/>
<path d="M171.31 134.216H166.12V139.378H171.31V134.216Z" fill="black"/>
<path d="M192.066 134.216H186.877V139.378H192.066V134.216Z" fill="black"/>
<path d="M15.634 139.378H10.4448V144.54H15.634V139.378Z" fill="black"/>
<path d="M20.8232 139.378H15.634V144.54H20.8232V139.378Z" fill="black"/>
<path d="M31.2015 139.378H26.0123V144.54H31.2015V139.378Z" fill="black"/>
<path d="M41.5799 139.378H36.3907V144.54H41.5799V139.378Z" fill="black"/>
<path d="M46.7691 139.378H41.5799V144.54H46.7691V139.378Z" fill="black"/>
<path d="M67.5259 139.378H62.3367V144.54H67.5259V139.378Z" fill="black"/>
<path d="M72.7151 139.378H67.5259V144.54H72.7151V139.378Z" fill="black"/>
<path d="M98.661 139.378H93.4718V144.54H98.661V139.378Z" fill="black"/>
<path d="M103.85 139.378H98.661V144.54H103.85V139.378Z" fill="black"/>
<path d="M109.039 139.378H103.85V144.54H109.039V139.378Z" fill="black"/>
<path d="M140.175 139.378H134.985V144.54H140.175V139.378Z" fill="black"/>
<path d="M155.742 139.378H150.553V144.54H155.742V139.378Z" fill="black"/>
<path d="M166.12 139.378H160.931V144.54H166.12V139.378Z" fill="black"/>
<path d="M171.31 139.378H166.12V144.54H171.31V139.378Z" fill="black"/>
<path d="M176.499 139.378H171.31V144.54H176.499V139.378Z" fill="black"/>
<path d="M192.066 139.378H186.877V144.54H192.066V139.378Z" fill="black"/>
<path d="M5.2556 144.541H0.0664062V149.703H5.2556V144.541Z" fill="black"/>
<path d="M10.4448 144.541H5.25562V149.703H10.4448V144.541Z" fill="black"/>
<path d="M26.0124 144.541H20.8232V149.703H26.0124V144.541Z" fill="black"/>
<path d="M36.3907 144.541H31.2015V149.703H36.3907V144.541Z" fill="black"/>
<path d="M41.5799 144.541H36.3907V149.703H41.5799V144.541Z" fill="black"/>
<path d="M51.9583 144.541H46.7691V149.703H51.9583V144.541Z" fill="black"/>
<path d="M62.3367 144.541H57.1475V149.703H62.3367V144.541Z" fill="black"/>
<path d="M77.9042 144.541H72.7151V149.703H77.9042V144.541Z" fill="black"/>
<path d="M83.0934 144.541H77.9042V149.703H83.0934V144.541Z" fill="black"/>
<path d="M88.2826 144.541H83.0934V149.703H88.2826V144.541Z" fill="black"/>
<path d="M109.039 144.541H103.85V149.703H109.039V144.541Z" fill="black"/>
<path d="M124.607 144.541H119.418V149.703H124.607V144.541Z" fill="black"/>
<path d="M129.796 144.541H124.607V149.703H129.796V144.541Z" fill="black"/>
<path d="M140.175 144.541H134.985V149.703H140.175V144.541Z" fill="black"/>
<path d="M150.553 144.541H145.364V149.703H150.553V144.541Z" fill="black"/>
<path d="M155.742 144.541H150.553V149.703H155.742V144.541Z" fill="black"/>
<path d="M160.931 144.541H155.742V149.703H160.931V144.541Z" fill="black"/>
<path d="M166.12 144.541H160.931V149.703H166.12V144.541Z" fill="black"/>
<path d="M171.31 144.541H166.12V149.703H171.31V144.541Z" fill="black"/>
<path d="M176.499 144.541H171.31V149.703H176.499V144.541Z" fill="black"/>
<path d="M192.066 144.541H186.877V149.703H192.066V144.541Z" fill="black"/>
<path d="M46.7691 149.703H41.5799V154.865H46.7691V149.703Z" fill="black"/>
<path d="M51.9583 149.703H46.7691V154.865H51.9583V149.703Z" fill="black"/>
<path d="M67.5259 149.703H62.3367V154.865H67.5259V149.703Z" fill="black"/>
<path d="M83.0934 149.703H77.9042V154.865H83.0934V149.703Z" fill="black"/>
<path d="M88.2826 149.703H83.0934V154.865H88.2826V149.703Z" fill="black"/>
<path d="M98.661 149.703H93.4718V154.865H98.661V149.703Z" fill="black"/>
<path d="M103.85 149.703H98.661V154.865H103.85V149.703Z" fill="black"/>
<path d="M109.039 149.703H103.85V154.865H109.039V149.703Z" fill="black"/>
<path d="M114.229 149.703H109.039V154.865H114.229V149.703Z" fill="black"/>
<path d="M124.607 149.703H119.418V154.865H124.607V149.703Z" fill="black"/>
<path d="M129.796 149.703H124.607V154.865H129.796V149.703Z" fill="black"/>
<path d="M134.985 149.703H129.796V154.865H134.985V149.703Z" fill="black"/>
<path d="M150.553 149.703H145.364V154.865H150.553V149.703Z" fill="black"/>
<path d="M171.31 149.703H166.12V154.865H171.31V149.703Z" fill="black"/>
<path d="M186.877 149.703H181.688V154.865H186.877V149.703Z" fill="black"/>
<path d="M192.066 149.703H186.877V154.865H192.066V149.703Z" fill="black"/>
<path d="M46.7691 154.865H41.5799V160.027H46.7691V154.865Z" fill="black"/>
<path d="M51.9583 154.865H46.7691V160.027H51.9583V154.865Z" fill="black"/>
<path d="M57.1475 154.865H51.9583V160.027H57.1475V154.865Z" fill="black"/>
<path d="M62.3367 154.865H57.1475V160.027H62.3367V154.865Z" fill="black"/>
<path d="M67.5259 154.865H62.3367V160.027H67.5259V154.865Z" fill="black"/>
<path d="M77.9042 154.865H72.7151V160.027H77.9042V154.865Z" fill="black"/>
<path d="M83.0934 154.865H77.9042V160.027H83.0934V154.865Z" fill="black"/>
<path d="M93.4718 154.865H88.2826V160.027H93.4718V154.865Z" fill="black"/>
<path d="M98.661 154.865H93.4718V160.027H98.661V154.865Z" fill="black"/>
<path d="M103.85 154.865H98.661V160.027H103.85V154.865Z" fill="black"/>
<path d="M124.607 154.865H119.418V160.027H124.607V154.865Z" fill="black"/>
<path d="M134.985 154.865H129.796V160.027H134.985V154.865Z" fill="black"/>
<path d="M140.175 154.865H134.985V160.027H140.175V154.865Z" fill="black"/>
<path d="M150.553 154.865H145.364V160.027H150.553V154.865Z" fill="black"/>
<path d="M160.931 154.865H155.742V160.027H160.931V154.865Z" fill="black"/>
<path d="M171.31 154.865H166.12V160.027H171.31V154.865Z" fill="black"/>
<path d="M186.877 154.865H181.688V160.027H186.877V154.865Z" fill="black"/>
<path d="M192.066 154.865H186.877V160.027H192.066V154.865Z" fill="black"/>
<path d="M51.9583 160.027H46.7691V165.19H51.9583V160.027Z" fill="black"/>
<path d="M67.5259 160.027H62.3367V165.19H67.5259V160.027Z" fill="black"/>
<path d="M98.661 160.027H93.4718V165.19H98.661V160.027Z" fill="black"/>
<path d="M103.85 160.027H98.661V165.19H103.85V160.027Z" fill="black"/>
<path d="M109.039 160.027H103.85V165.19H109.039V160.027Z" fill="black"/>
<path d="M114.229 160.027H109.039V165.19H114.229V160.027Z" fill="black"/>
<path d="M124.607 160.027H119.418V165.19H124.607V160.027Z" fill="black"/>
<path d="M150.553 160.027H145.364V165.19H150.553V160.027Z" fill="black"/>
<path d="M171.31 160.027H166.12V165.19H171.31V160.027Z" fill="black"/>
<path d="M186.877 160.027H181.688V165.19H186.877V160.027Z" fill="black"/>
<path d="M192.066 160.027H186.877V165.19H192.066V160.027Z" fill="black"/>
<path d="M77.9042 165.189H72.7151V170.352H77.9042V165.189Z" fill="black"/>
<path d="M83.0934 165.189H77.9042V170.352H83.0934V165.189Z" fill="black"/>
<path d="M88.2826 165.189H83.0934V170.352H88.2826V165.189Z" fill="black"/>
<path d="M93.4718 165.189H88.2826V170.352H93.4718V165.189Z" fill="black"/>
<path d="M98.661 165.189H93.4718V170.352H98.661V165.189Z" fill="black"/>
<path d="M114.229 165.189H109.039V170.352H114.229V165.189Z" fill="black"/>
<path d="M124.607 165.189H119.418V170.352H124.607V165.189Z" fill="black"/>
<path d="M129.796 165.189H124.607V170.352H129.796V165.189Z" fill="black"/>
<path d="M145.364 165.189H140.174V170.352H145.364V165.189Z" fill="black"/>
<path d="M150.553 165.189H145.364V170.352H150.553V165.189Z" fill="black"/>
<path d="M155.742 165.189H150.553V170.352H155.742V165.189Z" fill="black"/>
<path d="M160.931 165.189H155.742V170.352H160.931V165.189Z" fill="black"/>
<path d="M166.12 165.189H160.931V170.352H166.12V165.189Z" fill="black"/>
<path d="M171.31 165.189H166.12V170.352H171.31V165.189Z" fill="black"/>
<path d="M186.877 165.189H181.688V170.352H186.877V165.189Z" fill="black"/>
<path d="M192.066 165.189H186.877V170.352H192.066V165.189Z" fill="black"/>
<path d="M57.1475 170.352H51.9583V175.514H57.1475V170.352Z" fill="black"/>
<path d="M62.3367 170.352H57.1475V175.514H62.3367V170.352Z" fill="black"/>
<path d="M67.5259 170.352H62.3367V175.514H67.5259V170.352Z" fill="black"/>
<path d="M72.7151 170.352H67.5259V175.514H72.7151V170.352Z" fill="black"/>
<path d="M77.9042 170.352H72.7151V175.514H77.9042V170.352Z" fill="black"/>
<path d="M88.2826 170.352H83.0934V175.514H88.2826V170.352Z" fill="black"/>
<path d="M98.661 170.352H93.4718V175.514H98.661V170.352Z" fill="black"/>
<path d="M124.607 170.352H119.418V175.514H124.607V170.352Z" fill="black"/>
<path d="M129.796 170.352H124.607V175.514H129.796V170.352Z" fill="black"/>
<path d="M134.985 170.352H129.796V175.514H134.985V170.352Z" fill="black"/>
<path d="M145.364 170.352H140.174V175.514H145.364V170.352Z" fill="black"/>
<path d="M155.742 170.352H150.553V175.514H155.742V170.352Z" fill="black"/>
<path d="M171.31 170.352H166.12V175.514H171.31V170.352Z" fill="black"/>
<path d="M176.499 170.352H171.31V175.514H176.499V170.352Z" fill="black"/>
<path d="M181.688 170.352H176.499V175.514H181.688V170.352Z" fill="black"/>
<path d="M46.7691 175.514H41.5799V180.676H46.7691V175.514Z" fill="black"/>
<path d="M51.9583 175.514H46.7691V180.676H51.9583V175.514Z" fill="black"/>
<path d="M57.1475 175.514H51.9583V180.676H57.1475V175.514Z" fill="black"/>
<path d="M72.7151 175.514H67.5259V180.676H72.7151V175.514Z" fill="black"/>
<path d="M77.9042 175.514H72.7151V180.676H77.9042V175.514Z" fill="black"/>
<path d="M88.2826 175.514H83.0934V180.676H88.2826V175.514Z" fill="black"/>
<path d="M93.4718 175.514H88.2826V180.676H93.4718V175.514Z" fill="black"/>
<path d="M103.85 175.514H98.661V180.676H103.85V175.514Z" fill="black"/>
<path d="M114.229 175.514H109.039V180.676H114.229V175.514Z" fill="black"/>
<path d="M124.607 175.514H119.418V180.676H124.607V175.514Z" fill="black"/>
<path d="M145.364 175.514H140.174V180.676H145.364V175.514Z" fill="black"/>
<path d="M166.12 175.514H160.931V180.676H166.12V175.514Z" fill="black"/>
<path d="M171.31 175.514H166.12V180.676H171.31V175.514Z" fill="black"/>
<path d="M192.066 175.514H186.877V180.676H192.066V175.514Z" fill="black"/>
<path d="M57.1475 180.676H51.9583V185.838H57.1475V180.676Z" fill="black"/>
<path d="M62.3367 180.676H57.1475V185.838H62.3367V180.676Z" fill="black"/>
<path d="M67.5259 180.676H62.3367V185.838H67.5259V180.676Z" fill="black"/>
<path d="M77.9042 180.676H72.7151V185.838H77.9042V180.676Z" fill="black"/>
<path d="M83.0934 180.676H77.9042V185.838H83.0934V180.676Z" fill="black"/>
<path d="M88.2826 180.676H83.0934V185.838H88.2826V180.676Z" fill="black"/>
<path d="M119.418 180.676H114.229V185.838H119.418V180.676Z" fill="black"/>
<path d="M150.553 180.676H145.364V185.838H150.553V180.676Z" fill="black"/>
<path d="M171.31 180.676H166.12V185.838H171.31V180.676Z" fill="black"/>
<path d="M176.499 180.676H171.31V185.838H176.499V180.676Z" fill="black"/>
<path d="M46.7691 185.838H41.5799V191H46.7691V185.838Z" fill="black"/>
<path d="M51.9583 185.838H46.7691V191H51.9583V185.838Z" fill="black"/>
<path d="M57.1475 185.838H51.9583V191H57.1475V185.838Z" fill="black"/>
<path d="M67.5259 185.838H62.3367V191H67.5259V185.838Z" fill="black"/>
<path d="M88.2826 185.838H83.0934V191H88.2826V185.838Z" fill="black"/>
<path d="M103.85 185.838H98.661V191H103.85V185.838Z" fill="black"/>
<path d="M109.039 185.838H103.85V191H109.039V185.838Z" fill="black"/>
<path d="M119.418 185.838H114.229V191H119.418V185.838Z" fill="black"/>
<path d="M124.607 185.838H119.418V191H124.607V185.838Z" fill="black"/>
<path d="M129.796 185.838H124.607V191H129.796V185.838Z" fill="black"/>
<path d="M150.553 185.838H145.364V191H150.553V185.838Z" fill="black"/>
<path d="M166.12 185.838H160.931V191H166.12V185.838Z" fill="black"/>
<path d="M176.499 185.838H171.31V191H176.499V185.838Z" fill="black"/>
<path d="M192.066 185.838H186.877V191H192.066V185.838Z" fill="black"/>
<path d="M30.9421 0H0.0664062V36.1351H36.3907V0H30.9421ZM30.9421 30.7149H5.51505V5.42027H30.9421V30.7149Z" fill="black"/>
<path d="M186.618 0H155.742V36.1351H192.066V0H186.618ZM186.618 30.7149H161.191V5.42027H186.618V30.7149Z" fill="black"/>
<path d="M30.9421 154.865H0.0664062V191H36.3907V154.865H30.9421ZM30.9421 185.58H5.51505V160.286H30.9421V185.58Z" fill="black"/>
<path d="M26.0123 10.3242H10.4448V25.8107H26.0123V10.3242Z" fill="black"/>
<path d="M181.688 10.3242H166.12V25.8107H181.688V10.3242Z" fill="black"/>
<path d="M26.0123 165.189H10.4448V180.676H26.0123V165.189Z" fill="black"/>
</g>
<defs>
<clipPath id="clip0_824_2096">
<rect width="192" height="191" fill="white" transform="translate(0.0664062)"/>
</clipPath>
</defs>
</svg>
