<svg width="25" height="25" viewBox="0 0 25 25" fill="none" xmlns="http://www.w3.org/2000/svg">
<path d="M0.545806 23.0425C0.545806 23.0247 0.568542 23.012 0.588752 22.9942C0.611488 22.9739 0.634224 22.9536 0.65696 22.9333C0.699906 22.8926 0.745378 22.8545 0.788324 22.8138C0.874215 22.7351 0.960107 22.6538 1.04347 22.5725C1.12684 22.4912 1.20768 22.4048 1.28599 22.3184C1.31378 22.2879 1.34157 22.2549 1.36683 22.2244C1.59166 21.9551 1.8746 21.5968 1.96302 21.2487C2.20553 20.644 2.24343 19.9885 2.14743 19.3483C1.99838 18.3421 1.57398 17.4198 1.23041 16.4721C-0.939612 10.8545 1.81902 4.4493 7.29334 1.66972C12.6515 -1.05143 19.1388 0.584817 22.5896 5.52912C25.8131 10.1507 25.5983 15.9411 22.0414 20.3696C18.6816 24.5492 13.0127 25.8932 7.92743 23.9013C6.65169 23.4008 5.16879 23.4033 3.77179 23.2661C2.93309 23.1848 2.08933 23.228 1.25062 23.2458C1.19252 23.2458 1.13189 23.2508 1.07379 23.2534C1.01568 23.2559 0.957581 23.2483 0.902004 23.2356C0.828743 23.2204 0.760535 23.195 0.692327 23.1645C0.662013 23.1518 0.631698 23.1365 0.606436 23.1136C0.593805 23.1035 0.581173 23.0908 0.573595 23.0781C0.566016 23.0679 0.550859 23.0527 0.550859 23.04L0.545806 23.0425ZM12.7702 4.12408C7.90216 4.11392 4.23914 7.74719 4.23156 12.5924C4.22399 17.3614 7.99816 21.1623 12.7399 21.1649C17.3957 21.1649 21.1901 17.3817 21.2305 12.6889C21.2735 7.88693 17.565 4.13425 12.7702 4.12154V4.12408ZM9.72357 13.0675C9.72357 13.8094 9.12486 14.4116 8.3872 14.4116C7.64954 14.4116 7.05083 13.8094 7.05083 13.0675C7.05083 12.3256 7.64954 11.7235 8.3872 11.7235C9.12486 11.7235 9.72357 12.3256 9.72357 13.0675ZM14.0131 13.0675C14.0131 13.8094 13.4144 14.4116 12.6767 14.4116C11.9391 14.4116 11.3404 13.8094 11.3404 13.0675C11.3404 12.3256 11.9391 11.7235 12.6767 11.7235C13.4144 11.7235 14.0131 12.3256 14.0131 13.0675ZM18.3026 13.0675C18.3026 13.8094 17.7039 14.4116 16.9662 14.4116C16.2286 14.4116 15.6299 13.8094 15.6299 13.0675C15.6299 12.3256 16.2286 11.7235 16.9662 11.7235C17.7039 11.7235 18.3026 12.3256 18.3026 13.0675Z" fill="#0561E9"/>
</svg>
