<svg width="26" height="25" viewBox="0 0 26 25" fill="none" xmlns="http://www.w3.org/2000/svg">
<path d="M23.509 5.53653C19.9174 0.598203 13.1587 -1.03646 7.57537 1.6832C1.87632 4.45726 -0.996955 10.8556 1.25892 16.4667C1.61808 17.4114 2.06035 18.3332 2.2147 19.3381C2.31562 19.9794 2.27406 20.6349 2.02176 21.239C1.96833 21.3678 1.92678 21.4938 1.85554 21.6169C1.83179 21.6169 1.70713 21.8373 1.68635 21.8659C1.63292 21.9375 1.57652 22.0062 1.52013 22.0778C1.39249 22.2324 1.25892 22.3755 1.11644 22.5158C1.01849 22.6103 0.91757 22.7019 0.810712 22.7906C0.736506 22.8536 0.579189 22.9309 0.570284 23.034C0.570284 23.0626 0.579189 23.0969 0.611839 23.1284C0.6623 23.18 0.736506 23.1943 0.807744 23.2029C1.82882 23.3374 2.87365 23.1628 3.90364 23.2544C5.35808 23.3918 6.90751 23.389 8.23432 23.8871C13.5297 25.8796 19.4365 24.5341 22.9361 20.363C26.6434 15.9399 26.8661 10.1542 23.509 5.5394V5.53653ZM13.2507 21.156C8.31149 21.156 4.38152 17.3542 4.38746 12.5933C4.39637 7.75234 8.21354 4.12231 13.2833 4.13376C18.2789 4.14235 22.1406 7.89262 22.0961 12.6907C22.0516 17.3771 18.1008 21.1588 13.2507 21.1588V21.156ZM12.1287 15.9142C11.9031 15.9142 11.6805 15.8312 11.5083 15.6651L8.95264 13.2002C8.61129 12.871 8.61129 12.3357 8.95264 12.0036C9.29399 11.6744 9.84905 11.6744 10.1934 12.0036L12.1791 13.9188L17.2608 9.79352C17.6318 9.49292 18.1839 9.53873 18.4956 9.89658C18.8072 10.2544 18.7598 10.7869 18.3887 11.0875L12.6926 15.7109C12.5294 15.8426 12.3275 15.9085 12.1287 15.9085V15.9142Z" fill="#0561E9"/>
</svg>
