<svg width="743" height="601" viewBox="0 0 743 601" fill="none" xmlns="http://www.w3.org/2000/svg">
<path d="M41.4241 891.337L41.2974 890.952C41.1669 890.556 41.3192 890.163 41.5098 889.818C41.6078 889.64 41.7264 889.458 41.8451 889.276L41.8656 889.245C41.979 889.072 42.093 888.897 42.1996 888.716L41.4241 891.337ZM41.4241 891.337L41.6216 891.14C41.7374 891.28 41.8821 891.4 42.0161 891.498C42.1361 891.587 42.2618 891.669 42.376 891.742L42.4341 891.779C42.5225 891.836 42.6007 891.886 42.6678 891.932C43.0799 892.287 43.6502 892.574 44.1781 892.773C45.2819 893.261 46.4625 893.435 47.5919 893.524C50.1489 893.787 52.6609 893.884 55.2333 893.593C57.1945 893.409 59.1913 893.031 61.0827 892.316C61.6989 892.083 62.3177 891.839 62.9377 891.595C64.208 891.095 65.4831 890.592 66.7508 890.175L66.7558 890.173C71.3407 888.556 75.9216 886.913 80.5049 885.27C103.051 877.185 125.656 869.08 149.069 863.811C159.402 861.499 169.798 858.922 180.226 856.338C181.653 855.984 183.08 855.63 184.508 855.277C196.373 852.342 208.274 849.442 220.173 846.952C243.97 841.973 267.745 838.638 291.174 839.949C478.28 850.313 648.628 745.691 713.298 573.414C781.714 390.921 726.59 199.888 571.946 83.8409L571.819 84.0105L571.946 83.8409C406.427 -40.286 177.428 -24.0157 31.9835 122.162C-116.612 271.481 -137.816 509.843 -6.80961 669.669C-1.94477 675.863 3.03995 681.966 8.02228 688.066C24.9257 708.762 41.8012 729.424 53.8712 753.478L53.8714 753.479C63.8483 773.275 69.6281 794.989 68.2156 817.233L68.2145 817.249L68.2157 817.266C69.0633 829.487 63.7134 844.137 59.2739 855.329L59.2736 855.33C58.7779 856.594 58.2287 857.963 57.6529 859.248L57.6526 859.249C56.0289 862.9 54.3243 866.576 52.4839 870.111C50.6414 873.652 48.7166 877.219 46.7646 880.703L46.7627 880.706C46.2833 881.595 45.7763 882.47 45.2671 883.349L45.2662 883.35C44.7585 884.227 44.2486 885.107 43.7658 886.001C43.7652 886.002 43.7646 886.003 43.7641 886.005L42.9836 887.357L42.2006 888.714L41.4241 891.337ZM236.955 143.798L237.193 143.721L237.166 143.638C393.278 92.8454 554.035 175.243 604.057 331.911C653.016 485.075 570.053 648.849 418.529 698.727C264.179 749.443 100.627 666.173 49.7815 510.88C-1.88008 353.105 78.4075 195.621 236.955 143.798ZM204.492 525.894C228.652 517.941 241.767 491.765 233.77 467.469C225.772 443.173 199.673 429.905 175.512 437.858C151.352 445.811 138.237 471.987 146.234 496.283C154.232 520.579 180.331 533.847 204.492 525.894ZM344.217 479.9C368.377 471.947 381.492 445.771 373.495 421.475C365.497 397.179 339.398 383.911 315.238 391.864C291.077 399.817 277.962 425.993 285.959 450.289C293.957 474.585 320.056 487.853 344.217 479.9ZM483.942 433.907C508.102 425.954 521.217 399.778 513.22 375.481C505.222 351.185 479.123 337.918 454.963 345.871C430.802 353.823 417.687 380 425.684 404.296C433.682 428.592 459.781 441.86 483.942 433.907Z" stroke="#A8C2E4" stroke-width="0.5"/>
</svg>
