<svg width="380" height="592" viewBox="0 0 380 592" fill="none" xmlns="http://www.w3.org/2000/svg">
<path d="M1.78006 548.618V548.213C1.78006 547.886 1.98979 547.638 2.19534 547.447C2.30232 547.348 2.42385 547.25 2.54292 547.155L2.56522 547.137C2.67862 547.047 2.79109 546.957 2.90001 546.861L1.78006 548.618ZM1.78006 548.618L1.9927 548.511C2.04 548.611 2.09927 548.702 2.15397 548.779C2.21622 548.867 2.28354 548.951 2.34393 549.025L2.37599 549.064C2.42123 549.12 2.4603 549.168 2.49317 549.211C2.69665 549.547 3.01988 549.869 3.3307 550.12C3.97 550.697 4.72931 551.076 5.46654 551.386C7.1205 552.125 8.7833 552.745 10.5738 553.118C11.9296 553.427 13.3545 553.615 14.7846 553.553C15.2502 553.532 15.7188 553.505 16.1877 553.479C17.1456 553.424 18.1048 553.369 19.0419 553.369L19.0472 553.369C22.4694 553.296 25.8942 553.206 29.3205 553.116C46.1728 552.673 63.0629 552.229 79.8699 553.858C87.2897 554.587 94.8097 555.152 102.351 555.719C103.382 555.797 104.412 555.874 105.443 555.952C114.021 556.601 122.614 557.281 131.115 558.235C148.118 560.143 164.739 563.144 180.106 569.173L180.197 568.941L180.106 569.173C302.942 617.289 439.887 584.826 521.056 483.855C606.977 376.88 612.165 236.999 534.298 125.356C450.936 5.91619 294.218 -33.6119 164.779 32.1239C32.5458 99.2653 -34.106 253.994 18.32 389.714C20.2103 394.928 22.2004 400.107 24.1893 405.283C30.9349 422.837 37.6661 440.354 40.4405 459.083L40.4406 459.083C42.7526 474.504 41.8381 490.279 36.0047 504.824L35.9985 504.84L35.9944 504.856C33.8765 513.193 27.0876 521.798 21.6548 528.306L21.6542 528.307C21.045 529.042 20.3774 529.835 19.7108 530.567L19.7103 530.567C17.8217 532.651 15.8744 534.731 13.8675 536.689C11.8571 538.649 9.78582 540.61 7.71462 542.509L7.71175 542.512C7.19667 543 6.66599 543.472 6.13199 543.948L6.1274 543.952C5.59675 544.425 5.06287 544.9 4.5437 545.392C4.54283 545.393 4.54195 545.393 4.54108 545.394L3.72316 546.125L2.90147 546.86L1.78006 548.618ZM297.085 91.8367L297.335 91.8373V91.7762C412.804 92.2125 502.073 182.629 501.038 298.311C500.064 411.443 408.591 502.644 296.354 502.644C182.044 502.582 91.059 410.954 91.2417 295.983C91.4244 179.176 179.724 91.5917 297.085 91.8367ZM191.295 340.142C209.239 340.142 223.8 325.494 223.8 307.451C223.8 289.407 209.239 274.76 191.295 274.76C173.351 274.76 158.789 289.407 158.789 307.451C158.789 325.494 173.351 340.142 191.295 340.142ZM294.829 340.142C312.773 340.142 327.335 325.494 327.335 307.451C327.335 289.407 312.773 274.76 294.829 274.76C276.885 274.76 262.324 289.407 262.324 307.451C262.324 325.494 276.885 340.142 294.829 340.142ZM398.364 340.142C416.308 340.142 430.869 325.494 430.869 307.451C430.869 289.407 416.308 274.76 398.364 274.76C380.42 274.76 365.858 289.407 365.858 307.451C365.858 325.494 380.42 340.142 398.364 340.142Z" stroke="#A8C2E4" stroke-width="0.5"/>
</svg>
