<svg width="743" height="601" viewBox="0 0 743 601" fill="none" xmlns="http://www.w3.org/2000/svg">
<path d="M41.4244 891.337L41.2976 890.952C41.1671 890.556 41.3194 890.163 41.51 889.818C41.6081 889.64 41.7266 889.458 41.8454 889.276L41.8683 889.241C41.9809 889.069 42.0941 888.896 42.1998 888.716L41.4244 891.337ZM41.4244 891.337L41.6219 891.14C41.7376 891.28 41.8823 891.4 42.0164 891.498C42.1363 891.587 42.262 891.669 42.3763 891.742L42.4344 891.779C42.5227 891.836 42.6008 891.886 42.6679 891.932C43.0799 892.286 43.65 892.573 44.1778 892.772C45.2826 893.261 46.4643 893.435 47.5947 893.525C50.1508 893.787 52.662 893.884 55.2337 893.593C57.1948 893.409 59.1916 893.031 61.0829 892.316C61.6992 892.083 62.318 891.839 62.938 891.595C64.2083 891.095 65.4834 890.592 66.7511 890.175L66.7561 890.173C71.3409 888.556 75.9217 886.913 80.505 885.27C103.052 877.185 125.656 869.08 149.069 863.811C159.401 861.499 169.796 858.923 180.222 856.339C181.65 855.985 183.079 855.631 184.509 855.277C196.374 852.342 208.275 849.442 220.173 846.952C243.97 841.973 267.745 838.638 291.175 839.949L291.189 839.699L291.175 839.949C478.28 850.313 648.628 745.691 713.298 573.414C781.714 390.921 726.59 199.888 571.946 83.8409L571.796 84.0409L571.946 83.8409C406.427 -40.286 177.428 -24.0157 31.9837 122.162C-116.612 271.481 -137.816 509.843 -6.80931 669.67C-1.94455 675.863 3.04013 681.966 8.02239 688.066C24.9258 708.762 41.8013 729.424 53.8714 753.478L54.0949 753.366L53.8716 753.479C63.8485 773.275 69.6283 794.989 68.2158 817.233L68.2148 817.249L68.2159 817.266C69.0635 829.487 63.7136 844.137 59.2742 855.329L59.2738 855.33C58.7782 856.594 58.2289 857.963 57.6532 859.248L57.6529 859.249C56.0292 862.9 54.3245 866.576 52.4842 870.111C50.6416 873.652 48.7168 877.219 46.7648 880.703L46.7629 880.706C46.284 881.594 45.7775 882.468 45.2687 883.346L45.2673 883.349L45.2665 883.35C44.7588 884.227 44.2488 885.107 43.766 886.001C43.7654 886.002 43.7649 886.004 43.7643 886.005L42.2008 888.714L41.4244 891.337ZM66.6729 889.938C71.2552 888.321 75.8345 886.679 80.4168 885.036C102.963 876.951 125.585 868.84 149.014 863.567L66.6729 889.938ZM66.6729 889.938C65.3984 890.357 64.1113 890.864 62.8369 891.366C62.2188 891.609 61.6037 891.851 60.9945 892.082C59.1291 892.788 57.1547 893.162 55.2082 893.344L66.6729 889.938ZM236.955 143.798L237.194 143.721L237.166 143.638C393.278 92.8455 554.035 175.243 604.057 331.911C653.016 485.075 570.054 648.849 418.529 698.727C264.179 749.443 100.627 666.173 49.7818 510.88C-1.87983 353.105 78.4077 195.621 236.955 143.798ZM204.492 525.894C228.652 517.941 241.768 491.765 233.77 467.469C225.772 443.173 199.673 429.905 175.513 437.858C151.352 445.811 138.237 471.987 146.234 496.283C154.232 520.579 180.331 533.847 204.492 525.894ZM344.217 479.9C368.377 471.947 381.493 445.771 373.495 421.475C365.497 397.179 339.398 383.911 315.238 391.864C291.077 399.817 277.962 425.993 285.959 450.289C293.957 474.585 320.056 487.853 344.217 479.9ZM483.942 433.907C508.102 425.954 521.218 399.778 513.22 375.481C505.222 351.185 479.123 337.918 454.963 345.871C430.802 353.823 417.687 380 425.684 404.296C433.682 428.592 459.781 441.86 483.942 433.907Z" stroke="#DBDBDB" stroke-width="0.5"/>
</svg>
