<svg width="192" height="46" viewBox="0 0 192 46" fill="none" xmlns="http://www.w3.org/2000/svg">
<g clip-path="url(#clip0_572_77)">
<path d="M24.2358 0.120178C11.2334 0.120178 0.696289 10.2545 0.696289 22.7598C0.696289 35.2652 11.2334 45.3995 24.2358 45.3995C37.2381 45.3995 47.7721 35.2652 47.7721 22.7598C47.7721 10.2545 37.2381 0.120178 24.2358 0.120178ZM24.4222 35.3837C17.9558 35.405 11.2271 30.0977 11.1955 21.5713C11.1734 15.9327 14.3402 10.5068 18.3793 7.28475C22.3237 4.15082 27.725 2.13246 32.6206 2.11422C33.2527 2.11422 33.9164 2.16589 34.3178 2.29964C30.0353 3.15076 26.6283 6.98686 26.6409 11.3336C26.6409 11.4795 26.6536 11.6315 26.6694 11.7045C33.8374 13.3824 37.0896 17.5437 37.1117 23.2948C37.1275 29.052 32.4057 35.3594 24.4222 35.3837Z" fill="#FF1010"/>
<path d="M62.9753 32.1342L55.7788 15.6165H60.4785L64.9664 26.5867L69.3184 15.6165H73.8064L66.8216 32.1342H62.9721H62.9753Z" fill="#FF1010"/>
<path d="M86.3349 23.7903C86.3349 23.1034 86.2528 22.4498 86.0853 21.8297C85.9209 21.2096 85.6712 20.6777 85.3362 20.2339C85.0044 19.784 84.5998 19.4314 84.1257 19.17C83.6485 18.9025 83.0923 18.7718 82.4507 18.7718C81.8091 18.7718 81.2497 18.9055 80.7756 19.17C80.2984 19.4314 79.8938 19.7871 79.5651 20.2339C79.2333 20.6777 78.9804 21.2127 78.8161 21.8297C78.6486 22.4498 78.5664 23.1034 78.5664 23.7903C78.5664 24.4773 78.6486 25.1643 78.8161 25.7692C78.9804 26.3771 79.2238 26.9091 79.543 27.365C79.8622 27.824 80.2699 28.1857 80.7598 28.4502C81.2434 28.7116 81.8123 28.8454 82.4507 28.8454C83.0891 28.8454 83.6485 28.7116 84.1257 28.4502C84.603 28.1827 85.0044 27.821 85.3362 27.365C85.6681 26.9091 85.9209 26.3741 86.0853 25.7692C86.2528 25.1612 86.3349 24.5016 86.3349 23.7903ZM90.6806 23.8086C90.6806 24.8846 90.5068 25.9424 90.1655 26.982C89.821 28.0216 89.309 28.9487 88.6295 29.7725C87.9563 30.5962 87.0998 31.2589 86.0663 31.7604C85.0328 32.265 83.8255 32.5143 82.4507 32.5143C81.0759 32.5143 79.8654 32.265 78.835 31.7604C77.8016 31.2558 76.9451 30.5962 76.2656 29.7725C75.5924 28.9487 75.0804 28.0216 74.7359 26.982C74.3945 25.9424 74.2207 24.8846 74.2207 23.8086C74.2207 22.7325 74.3945 21.6869 74.7359 20.6564C75.0804 19.629 75.5924 18.711 76.2656 17.8994C76.9451 17.0878 77.8016 16.4404 78.835 15.9479C79.8654 15.4585 81.0695 15.2062 82.4507 15.2062C83.8318 15.2062 85.0296 15.4555 86.0505 15.9479C87.0713 16.4373 87.9278 17.0878 88.6137 17.8994C89.3058 18.711 89.821 19.629 90.1655 20.6564C90.5068 21.6869 90.6806 22.7356 90.6806 23.8086Z" fill="#FF1010"/>
<path d="M103.955 19.252C103.102 18.9329 102.311 18.7687 101.575 18.7687C100.839 18.7687 100.169 18.9116 99.6282 19.1852C99.0846 19.4587 98.6326 19.8296 98.2786 20.3007C97.9247 20.7719 97.6592 21.2978 97.4822 21.8844C97.3052 22.468 97.2135 23.0699 97.2135 23.69C97.2135 24.377 97.2925 25.0335 97.4474 25.6658C97.5991 26.295 97.8362 26.8482 98.1554 27.3164C98.4714 27.7875 98.8728 28.1644 99.3564 28.4532C99.8399 28.7359 100.415 28.8818 101.079 28.8818C101.622 28.8818 102.179 28.7359 102.744 28.4532C103.31 28.1675 103.715 27.824 103.952 27.438V19.252H103.955ZM104.309 32.1343L104.132 30.8698C103.731 31.3014 103.196 31.6844 102.533 32.0127C101.872 32.344 101.088 32.5112 100.188 32.5112C99.0055 32.5112 97.9594 32.2711 97.065 31.7908C96.1611 31.3136 95.4057 30.6722 94.7894 29.8727C94.1763 29.0733 93.7054 28.1462 93.383 27.0945C93.067 26.0458 92.9058 24.9484 92.9058 23.8055C92.9058 22.7325 93.0701 21.6808 93.3988 20.6533C93.7307 19.6259 94.2332 18.7079 94.9095 17.8963C95.589 17.0847 96.4329 16.4373 97.4537 15.9449C98.4714 15.4555 99.6693 15.2032 101.038 15.2032C101.939 15.2032 102.912 15.3643 103.952 15.6804V9.27576H108.367V32.1343H104.306H104.309Z" fill="#FF1010"/>
<path d="M120.811 24.3891C120.334 24.4134 119.841 24.456 119.341 24.5107C118.839 24.5684 118.365 24.6444 117.91 24.7356C116.949 24.918 116.288 25.2311 115.915 25.6749C115.549 26.1248 115.362 26.6081 115.362 27.1339C115.362 27.6598 115.571 28.1188 115.988 28.4532C116.408 28.7815 116.996 28.9486 117.761 28.9486C118.336 28.9486 118.896 28.8362 119.43 28.6082C119.967 28.3802 120.429 28.0914 120.811 27.751V24.3891ZM121.165 32.1221L120.991 30.888C120.511 31.3956 119.907 31.7938 119.167 32.0826C118.428 32.3683 117.619 32.5142 116.737 32.5142C115.997 32.5142 115.283 32.3926 114.61 32.1525C113.927 31.9154 113.327 31.5689 112.802 31.1251C112.278 30.6813 111.854 30.1341 111.535 29.4806C111.209 28.827 111.051 28.0914 111.051 27.2677C111.051 26.4439 111.216 25.7205 111.554 25.0913C111.886 24.462 112.338 23.9362 112.913 23.4985C113.485 23.0668 114.142 22.7112 114.882 22.4376C115.618 22.164 116.396 21.9543 117.205 21.8175C117.777 21.705 118.403 21.623 119.082 21.5622C119.762 21.5044 120.327 21.4527 120.782 21.4071V21.167C120.782 20.2521 120.539 19.6016 120.046 19.2125C119.556 18.8264 118.883 18.6289 118.027 18.6289C117.524 18.6289 117.044 18.6866 116.592 18.8052C116.137 18.9176 115.735 19.0605 115.375 19.2307C115.015 19.407 114.702 19.5773 114.424 19.7475C114.152 19.9177 113.93 20.0727 113.763 20.2095L112.3 17.2306C112.489 17.0695 112.78 16.878 113.172 16.647C113.567 16.419 114.038 16.1941 114.601 15.9782C115.16 15.7624 115.786 15.58 116.487 15.4281C117.189 15.2761 117.944 15.2031 118.75 15.2031C119.702 15.2031 120.571 15.3247 121.355 15.5648C122.138 15.805 122.818 16.1819 123.387 16.6956C123.952 17.2063 124.398 17.8568 124.724 18.6471C125.043 19.4344 125.204 20.3858 125.204 21.5044V32.119H121.174L121.165 32.1221Z" fill="#FF1010"/>
<path d="M138.842 13.048C138.699 12.9811 138.421 12.8808 138.007 12.7562C137.587 12.6315 137.037 12.5677 136.348 12.5677C135.735 12.5677 135.213 12.747 134.799 13.0996C134.385 13.4523 134.177 14.0328 134.177 14.8292V15.6165H137.884V19.0453H134.212V32.1342H129.79V19.0453H127.511V15.6165H129.79V14.7259C129.79 13.6529 129.932 12.747 130.217 12.0023C130.501 11.2606 130.899 10.6557 131.411 10.1876C131.92 9.71646 132.524 9.37298 133.21 9.15716C133.902 8.94134 134.651 8.83191 135.46 8.83191C136.528 8.83191 137.41 8.92614 138.112 9.12372C138.813 9.31826 139.224 9.44897 139.341 9.51888L138.845 13.0449L138.842 13.048Z" fill="#FF1010"/>
<path d="M150.888 23.7902C150.888 23.1033 150.803 22.4497 150.639 21.8296C150.474 21.2095 150.225 20.6776 149.89 20.2338C149.558 19.7839 149.153 19.4313 148.679 19.1699C148.202 18.9024 147.646 18.7717 147.004 18.7717C146.363 18.7717 145.803 18.9054 145.329 19.1699C144.852 19.4313 144.447 19.7869 144.112 20.2338C143.784 20.6776 143.534 21.2126 143.363 21.8296C143.199 22.4497 143.117 23.1033 143.117 23.7902C143.117 24.4772 143.199 25.1642 143.363 25.7691C143.531 26.377 143.774 26.9089 144.093 27.3649C144.413 27.8239 144.82 28.1856 145.304 28.4501C145.794 28.7115 146.359 28.8452 146.998 28.8452C147.636 28.8452 148.196 28.7115 148.673 28.4501C149.15 28.1826 149.552 27.8209 149.883 27.3649C150.215 26.9089 150.468 26.374 150.632 25.7691C150.797 25.1611 150.882 24.5015 150.882 23.7902M155.234 23.8085C155.234 24.8845 155.06 25.9423 154.716 26.9819C154.374 28.0215 153.862 28.9486 153.186 29.7723C152.513 30.5961 151.656 31.2588 150.623 31.7603C149.589 32.2649 148.382 32.5142 147.007 32.5142C145.632 32.5142 144.422 32.2649 143.392 31.7603C142.358 31.2557 141.502 30.5961 140.822 29.7723C140.149 28.9486 139.637 28.0215 139.292 26.9819C138.948 25.9423 138.777 24.8845 138.777 23.8085C138.777 22.7324 138.945 21.6867 139.292 20.6563C139.637 19.6289 140.149 18.7109 140.822 17.8993C141.502 17.0877 142.358 16.4402 143.392 15.9478C144.422 15.4584 145.626 15.2061 147.007 15.2061C148.388 15.2061 149.586 15.4554 150.607 15.9478C151.628 16.4372 152.484 17.0877 153.17 17.8993C153.862 18.7109 154.378 19.6289 154.719 20.6563C155.063 21.6867 155.237 22.7354 155.237 23.8085" fill="#FF1010"/>
<path d="M168.953 32.1342V22.7142C168.953 21.4588 168.681 20.4861 168.135 19.7991C167.585 19.1182 166.829 18.7717 165.85 18.7717C165.161 18.7717 164.525 18.9419 163.947 19.2885C163.362 19.6289 162.857 20.0089 162.43 20.4192V32.1373H158.015V15.6195H162.041L162.253 16.9205C162.945 16.3764 163.719 15.9509 164.589 15.656C165.454 15.3551 166.327 15.2122 167.205 15.2122C168.084 15.2122 168.941 15.3399 169.702 15.6043C170.464 15.8718 171.115 16.2852 171.662 16.8567C172.212 17.4251 172.632 18.1698 172.929 19.0818C173.223 19.9967 173.375 21.094 173.375 22.3707V32.1373H168.953V32.1342Z" fill="#FF1010"/>
<path d="M187.114 21.8904C187.066 21.322 186.94 20.8204 186.738 20.401C186.535 19.9754 186.282 19.635 185.985 19.3735C185.688 19.106 185.366 18.9145 185.021 18.7869C184.671 18.6623 184.32 18.5984 183.963 18.5984C183.198 18.5984 182.471 18.872 181.779 19.4222C181.087 19.9724 180.679 20.79 180.559 21.8874H187.117L187.114 21.8904ZM180.455 24.9392C180.549 26.3314 180.998 27.3406 181.814 27.9546C182.623 28.5717 183.672 28.8817 184.958 28.8817C185.556 28.8817 186.118 28.827 186.64 28.7267C187.164 28.6233 187.629 28.4926 188.037 28.3315C188.444 28.1735 188.789 28.0124 189.073 27.8543C189.358 27.6932 189.569 27.5412 189.718 27.4044L190.894 30.8697C190.726 30.9821 190.458 31.1372 190.088 31.3317C189.721 31.5263 189.263 31.7056 188.716 31.8819C188.172 32.0521 187.528 32.198 186.791 32.3257C186.055 32.4503 185.246 32.5142 184.37 32.5142C183.252 32.5142 182.19 32.3439 181.178 32.0035C180.17 31.657 179.285 31.125 178.527 30.4076C177.765 29.6872 177.161 28.7936 176.709 27.7206C176.254 26.6475 176.03 25.3648 176.03 23.8814C176.03 22.4892 176.238 21.2521 176.652 20.1791C177.066 19.106 177.638 18.2033 178.362 17.4707C179.089 16.7442 179.933 16.1819 180.894 15.7897C181.858 15.4037 182.882 15.2061 183.978 15.2061C185.075 15.2061 186.08 15.3824 187.009 15.7229C187.935 16.0633 188.735 16.5953 189.415 17.3157C190.088 18.0361 190.625 18.9662 191.014 20.1122C191.409 21.2521 191.602 22.6108 191.602 24.1884V24.9423H180.451L180.455 24.9392Z" fill="#FF1010"/>
</g>
<defs>
<clipPath id="clip0_572_77">
<rect width="190.907" height="45.2793" fill="white" transform="translate(0.103027 0.120178)"/>
</clipPath>
</defs>
</svg>
