<svg width="147" height="36" viewBox="0 0 147 36" fill="none" xmlns="http://www.w3.org/2000/svg">
<g clip-path="url(#clip0_380_271)">
<path d="M19.2286 0.786194C9.29466 0.786194 1.24414 8.52898 1.24414 18.0832C1.24414 27.6374 9.29466 35.3802 19.2286 35.3802C29.1626 35.3802 37.2107 27.6374 37.2107 18.0832C37.2107 8.52898 29.1626 0.786194 19.2286 0.786194ZM19.3711 27.728C14.4307 27.7443 9.28983 23.6894 9.26569 17.1752C9.24878 12.8672 11.6683 8.72173 14.7542 6.26002C17.7678 3.86566 21.8944 2.3236 25.6348 2.30967C26.1177 2.30967 26.6248 2.34915 26.9314 2.45133C23.6596 3.1016 21.0565 6.03243 21.0662 9.35342C21.0662 9.46489 21.0759 9.58101 21.0879 9.63675C26.5644 10.9187 29.0491 14.098 29.066 18.4919C29.0781 22.8905 25.4706 27.7094 19.3711 27.728Z" fill="#FF1010"/>
<path d="M48.8263 25.2454L43.3281 12.6256H46.9187L50.3476 21.007L53.6726 12.6256H57.1014L51.765 25.2454H48.8239H48.8263Z" fill="#FF1010"/>
<path d="M66.6734 18.8705C66.6734 18.3457 66.6106 17.8463 66.4827 17.3726C66.3571 16.8988 66.1663 16.4924 65.9104 16.1533C65.6568 15.8096 65.3478 15.5402 64.9856 15.3405C64.6209 15.1361 64.196 15.0363 63.7058 15.0363C63.2156 15.0363 62.7882 15.1385 62.426 15.3405C62.0614 15.5402 61.7523 15.8119 61.5012 16.1533C61.2476 16.4924 61.0545 16.9011 60.9289 17.3726C60.8009 17.8463 60.7381 18.3457 60.7381 18.8705C60.7381 19.3954 60.8009 19.9202 60.9289 20.3824C61.0545 20.8468 61.2404 21.2533 61.4843 21.6016C61.7282 21.9523 62.0397 22.2287 62.4139 22.4307C62.7834 22.6304 63.218 22.7326 63.7058 22.7326C64.1935 22.7326 64.6209 22.6304 64.9856 22.4307C65.3502 22.2263 65.6568 21.95 65.9104 21.6016C66.1639 21.2533 66.3571 20.8445 66.4827 20.3824C66.6106 19.9179 66.6734 19.4139 66.6734 18.8705ZM69.9936 18.8844C69.9936 19.7066 69.8608 20.5147 69.6 21.309C69.3368 22.1032 68.9456 22.8116 68.4265 23.4409C67.9121 24.0703 67.2578 24.5766 66.4682 24.9598C65.6786 25.3453 64.7562 25.5357 63.7058 25.5357C62.6554 25.5357 61.7306 25.3453 60.9434 24.9598C60.1538 24.5742 59.4994 24.0703 58.9803 23.4409C58.4659 22.8116 58.0748 22.1032 57.8116 21.309C57.5508 20.5147 57.418 19.7066 57.418 18.8844C57.418 18.0623 57.5508 17.2634 57.8116 16.4761C58.0748 15.6912 58.4659 14.9898 58.9803 14.3698C59.4994 13.7497 60.1538 13.255 60.9434 12.8788C61.7306 12.5049 62.6506 12.3121 63.7058 12.3121C64.761 12.3121 65.6762 12.5026 66.4561 12.8788C67.236 13.2527 67.8904 13.7497 68.4144 14.3698C68.9432 14.9898 69.3368 15.6912 69.6 16.4761C69.8608 17.2634 69.9936 18.0646 69.9936 18.8844Z" fill="#FF1010"/>
<path d="M80.1351 15.4032C79.4831 15.1594 78.8794 15.034 78.3168 15.034C77.7542 15.034 77.2423 15.1431 76.8294 15.3521C76.414 15.5611 76.0687 15.8445 75.7983 16.2044C75.5279 16.5644 75.325 16.9662 75.1898 17.4144C75.0546 17.8603 74.9846 18.3201 74.9846 18.7939C74.9846 19.3187 75.0449 19.8204 75.1632 20.3034C75.2791 20.7841 75.4602 21.2068 75.7041 21.5645C75.9456 21.9244 76.2523 22.2124 76.6217 22.433C76.9912 22.649 77.4306 22.7605 77.9377 22.7605C78.353 22.7605 78.778 22.649 79.2102 22.433C79.6425 22.2147 79.9515 21.9523 80.1326 21.6574V15.4032H80.1351ZM80.4055 25.2454L80.2703 24.2793C79.9636 24.6091 79.5555 24.9017 79.0485 25.1525C78.5438 25.4057 77.945 25.5334 77.2568 25.5334C76.3537 25.5334 75.5544 25.3499 74.8711 24.983C74.1805 24.6184 73.6034 24.1284 73.1325 23.5176C72.6641 22.9068 72.3043 22.1985 72.058 21.3949C71.8165 20.5937 71.6934 19.7553 71.6934 18.8821C71.6934 18.0623 71.8189 17.2588 72.07 16.4738C72.3236 15.6889 72.7075 14.9875 73.2243 14.3674C73.7434 13.7474 74.3881 13.2527 75.1681 12.8765C75.9456 12.5026 76.8608 12.3098 77.9063 12.3098C78.5945 12.3098 79.3382 12.4329 80.1326 12.6744V7.78119H83.5059V25.2454H80.4031H80.4055Z" fill="#FF1010"/>
<path d="M93.0132 19.328C92.6485 19.3465 92.2719 19.379 91.8903 19.4209C91.5064 19.465 91.1442 19.523 90.7965 19.5927C90.0624 19.7321 89.5578 19.9713 89.2728 20.3103C88.9927 20.654 88.8503 21.0233 88.8503 21.4251C88.8503 21.8268 89.0096 22.1775 89.3284 22.433C89.6495 22.6838 90.0986 22.8115 90.683 22.8115C91.1225 22.8115 91.5499 22.7256 91.9579 22.5514C92.3684 22.3772 92.721 22.1566 93.0132 21.8965V19.328ZM93.2836 25.2361L93.1508 24.2932C92.7838 24.681 92.3226 24.9853 91.7575 25.2059C91.1925 25.4242 90.5743 25.5357 89.9006 25.5357C89.3356 25.5357 88.7899 25.4428 88.2756 25.2593C87.754 25.0781 87.2952 24.8134 86.8944 24.4743C86.4935 24.1353 86.17 23.7172 85.9261 23.2179C85.6774 22.7186 85.5566 22.1566 85.5566 21.5272C85.5566 20.8979 85.6822 20.3452 85.9406 19.8644C86.1941 19.3837 86.5394 18.9819 86.9789 18.6475C87.4159 18.3177 87.9182 18.046 88.4832 17.837C89.0458 17.628 89.6399 17.4677 90.258 17.3632C90.6951 17.2773 91.1732 17.2146 91.6923 17.1682C92.2115 17.124 92.6437 17.0845 92.9914 17.0497V16.8662C92.9914 16.1672 92.8055 15.6702 92.4288 15.373C92.0545 15.078 91.5402 14.9271 90.8858 14.9271C90.5019 14.9271 90.1349 14.9712 89.7896 15.0618C89.4418 15.1477 89.1352 15.2568 88.8599 15.3869C88.5846 15.5216 88.3456 15.6516 88.1331 15.7817C87.9254 15.9118 87.7564 16.0302 87.6284 16.1347L86.5104 13.8588C86.6553 13.7357 86.8775 13.5894 87.1769 13.4129C87.4787 13.2387 87.8385 13.0668 88.2683 12.902C88.6957 12.7371 89.1738 12.5977 89.7099 12.4816C90.2459 12.3655 90.823 12.3098 91.4388 12.3098C92.1656 12.3098 92.8296 12.4026 93.4285 12.5861C94.0273 12.7696 94.5465 13.0576 94.9811 13.45C95.4133 13.8402 95.7538 14.3372 96.0025 14.941C96.2464 15.5425 96.3695 16.2694 96.3695 17.124V25.2337H93.2908L93.2836 25.2361Z" fill="#FF1010"/>
<path d="M106.789 10.6632C106.681 10.6121 106.468 10.5355 106.152 10.4403C105.831 10.345 105.411 10.2963 104.884 10.2963C104.416 10.2963 104.017 10.4333 103.701 10.7027C103.385 10.9721 103.225 11.4157 103.225 12.0241V12.6256H106.058V15.2452H103.252V25.2454H99.8738V15.2452H98.1328V12.6256H99.8738V11.9452C99.8738 11.1254 99.9825 10.4333 100.2 9.86431C100.417 9.29765 100.721 8.8355 101.113 8.47785C101.501 8.11789 101.962 7.85546 102.486 7.69057C103.015 7.52568 103.588 7.44208 104.206 7.44208C105.022 7.44208 105.696 7.51407 106.232 7.66503C106.768 7.81366 107.082 7.91352 107.171 7.96693L106.792 10.6609L106.789 10.6632Z" fill="#FF1010"/>
<path d="M115.993 18.8704C115.993 18.3456 115.928 17.8463 115.803 17.3725C115.677 16.8988 115.486 16.4923 115.23 16.1533C114.977 15.8096 114.668 15.5402 114.305 15.3404C113.941 15.1361 113.516 15.0362 113.026 15.0362C112.535 15.0362 112.108 15.1384 111.746 15.3404C111.381 15.5402 111.072 15.8119 110.816 16.1533C110.565 16.4923 110.374 16.9011 110.244 17.3725C110.118 17.8463 110.056 18.3456 110.056 18.8704C110.056 19.3953 110.118 19.9202 110.244 20.3823C110.372 20.8468 110.558 21.2532 110.802 21.6016C111.046 21.9522 111.357 22.2286 111.727 22.4306C112.101 22.6304 112.533 22.7325 113.021 22.7325C113.509 22.7325 113.936 22.6304 114.301 22.4306C114.665 22.2263 114.972 21.9499 115.225 21.6016C115.479 21.2532 115.672 20.8445 115.798 20.3823C115.923 19.9178 115.988 19.4139 115.988 18.8704M119.313 18.8844C119.313 19.7065 119.181 20.5147 118.917 21.3089C118.657 22.1032 118.265 22.8115 117.749 23.4409C117.234 24.0702 116.58 24.5765 115.79 24.9597C115.001 25.3452 114.078 25.5357 113.028 25.5357C111.978 25.5357 111.053 25.3452 110.266 24.9597C109.476 24.5742 108.822 24.0702 108.303 23.4409C107.788 22.8115 107.397 22.1032 107.134 21.3089C106.871 20.5147 106.74 19.7065 106.74 18.8844C106.74 18.0623 106.868 17.2634 107.134 16.4761C107.397 15.6911 107.788 14.9898 108.303 14.3697C108.822 13.7496 109.476 13.255 110.266 12.8787C111.053 12.5048 111.973 12.3121 113.028 12.3121C114.083 12.3121 114.998 12.5025 115.778 12.8787C116.558 13.2526 117.213 13.7496 117.737 14.3697C118.265 14.9898 118.659 15.6911 118.92 16.4761C119.183 17.2634 119.316 18.0646 119.316 18.8844" fill="#FF1010"/>
<path d="M129.795 25.2453V18.0483C129.795 17.0892 129.587 16.346 129.169 15.8212C128.749 15.301 128.172 15.0362 127.423 15.0362C126.897 15.0362 126.412 15.1663 125.97 15.431C125.523 15.6911 125.137 15.9814 124.811 16.2949V25.2477H121.438V12.6279H124.514L124.676 13.6219C125.204 13.2062 125.796 12.881 126.46 12.6558C127.122 12.4259 127.788 12.3167 128.459 12.3167C129.131 12.3167 129.785 12.4143 130.367 12.6163C130.949 12.8207 131.446 13.1365 131.864 13.5731C132.284 14.0074 132.605 14.5764 132.832 15.2731C133.057 15.9721 133.173 16.8105 133.173 17.7859V25.2477H129.795V25.2453Z" fill="#FF1010"/>
<path d="M143.669 17.419C143.633 16.9847 143.537 16.6015 143.382 16.281C143.228 15.9559 143.034 15.6958 142.807 15.496C142.58 15.2917 142.334 15.1454 142.071 15.0478C141.803 14.9526 141.535 14.9038 141.262 14.9038C140.678 14.9038 140.122 15.1129 139.593 15.5332C139.065 15.9535 138.753 16.5783 138.661 17.4166H143.672L143.669 17.419ZM138.582 19.7483C138.654 20.8119 138.997 21.583 139.62 22.0521C140.238 22.5235 141.04 22.7604 142.023 22.7604C142.479 22.7604 142.909 22.7186 143.307 22.642C143.708 22.563 144.063 22.4632 144.375 22.3401C144.686 22.2193 144.949 22.0962 145.167 21.9755C145.384 21.8524 145.546 21.7363 145.659 21.6317L146.557 24.2792C146.429 24.3652 146.224 24.4836 145.942 24.6322C145.662 24.7809 145.311 24.9179 144.894 25.0526C144.478 25.1826 143.986 25.2941 143.423 25.3917C142.861 25.4869 142.242 25.5357 141.573 25.5357C140.719 25.5357 139.907 25.4056 139.135 25.1455C138.364 24.8807 137.688 24.4743 137.109 23.9262C136.527 23.3758 136.066 22.6931 135.72 21.8733C135.373 21.0535 135.201 20.0734 135.201 18.9401C135.201 17.8765 135.361 16.9313 135.677 16.1115C135.993 15.2917 136.43 14.6019 136.983 14.0422C137.539 13.4872 138.183 13.0576 138.917 12.758C139.654 12.463 140.436 12.3121 141.274 12.3121C142.112 12.3121 142.88 12.4468 143.59 12.7069C144.297 12.967 144.908 13.3734 145.427 13.9238C145.942 14.4742 146.352 15.1848 146.649 16.0604C146.951 16.9313 147.098 17.9694 147.098 19.1747V19.7506H138.579L138.582 19.7483Z" fill="#FF1010"/>
</g>
<defs>
<clipPath id="clip0_380_271">
<rect width="145.856" height="34.594" fill="white" transform="translate(0.791016 0.786194)"/>
</clipPath>
</defs>
</svg>
