<svg width="61" height="53" viewBox="0 0 61 53" fill="none" xmlns="http://www.w3.org/2000/svg">
<path d="M38.6035 19.097C38.6035 29.6434 30.0569 38.1938 19.5104 38.1938C8.96398 38.1938 0.413574 29.6434 0.413574 19.097C0.413574 8.55053 8.96398 0.00012207 19.5104 0.00012207C30.0569 0.00012207 38.6035 8.55053 38.6035 19.097Z" fill="#EE3023"/>
<path d="M19.6605 29.7467C14.4158 29.7639 8.95578 25.2875 8.93099 18.0945C8.91384 13.3398 11.4818 8.76247 14.759 6.04578C17.958 3.39964 22.3409 1.69909 26.312 1.68384C26.8249 1.68384 27.3606 1.72578 27.6866 1.83826C24.2131 2.55699 21.4487 5.79223 21.4582 9.45832C21.4582 9.58033 21.4678 9.70997 21.483 9.77098C27.2958 11.1894 29.9343 14.6972 29.9534 19.5491C29.9667 24.4048 26.1367 29.7238 19.6586 29.7448" fill="white"/>
<path d="M40.6447 53.0002C29.9915 53.004 21.3664 44.4148 21.2529 33.8297C21.1356 23.044 29.7494 14.436 40.202 14.2127C51.0879 13.98 59.7906 22.6259 60.0271 33.0673C60.1501 38.5026 58.3112 43.2078 54.5444 47.124C50.825 50.9929 45.7736 53.0096 40.6428 52.9983L40.6447 53.0002ZM48.1082 34.49H53.0858C53.3998 34.49 53.5777 34.3178 53.5796 34.0056C53.5796 33.4324 53.5909 32.8592 53.5796 32.2859C53.555 31.094 53.0215 30.1916 51.996 29.5881C51.5269 29.3119 51.0104 29.1965 50.4674 29.1946C48.4393 29.1946 46.4131 29.1946 44.385 29.1946C44.1353 29.1946 43.8893 29.2192 43.6434 29.2702C42.3512 29.5446 41.3447 30.6967 41.2463 32.0154C41.2199 32.3673 41.235 32.7173 41.235 33.0692C41.235 33.7427 41.2123 34.4162 41.2426 35.0878C41.3163 36.7281 42.6728 38.0164 44.3131 38.0164C46.3374 38.0164 48.3617 38.0164 50.3861 38.0164C50.5771 38.0164 50.7682 38.0108 50.9574 37.9786C52.0963 37.7818 52.889 37.1424 53.3506 36.0886C53.4604 35.837 53.2636 35.6081 52.9628 35.6705C52.6052 35.7462 52.2382 35.7424 51.8806 35.6705C51.7141 35.6383 51.595 35.6648 51.5004 35.7727C51.2185 36.1018 50.8552 36.2513 50.4258 36.2494C49.7806 36.2494 49.1355 36.2494 48.4904 36.2494C47.1112 36.2494 45.732 36.2494 44.3528 36.2494C43.7399 36.2494 43.229 35.8729 43.055 35.2978C42.9869 35.0708 43.0077 34.8381 42.9982 34.6073C42.9944 34.5089 43.0247 34.4843 43.1231 34.4843C44.7861 34.4881 46.4471 34.4862 48.1101 34.4862L48.1082 34.49ZM40.0601 32.6075V29.6883C40.0601 29.3705 39.8861 29.1946 39.5682 29.1927C39.3053 29.1927 39.0423 29.1927 38.7793 29.1927C38.4747 29.1927 38.2969 29.3743 38.2969 29.677C38.2969 31.5575 38.2969 33.4381 38.2969 35.3186C38.2969 35.8843 37.8939 36.2721 37.3188 36.2513C36.7947 36.2324 36.2688 36.2286 35.7447 36.2513C35.181 36.2759 34.7742 35.8862 34.7742 35.33V29.677C34.7742 29.3838 34.5945 29.1965 34.2993 29.1927C34.0231 29.1889 33.7469 29.1889 33.4707 29.1927C33.3704 29.1927 33.272 29.2078 33.1869 29.2778C33.0564 29.3838 33.0072 29.5162 33.0091 29.6808C33.011 31.5575 33.0091 33.4362 33.0091 35.3129C33.0091 35.8824 32.6099 36.2664 32.031 36.2494C31.5069 36.2343 30.9829 36.2267 30.4607 36.2494C29.8931 36.274 29.4864 35.8843 29.4864 35.33C29.4864 33.4456 29.4864 31.5613 29.4864 29.677C29.4864 29.3819 29.3067 29.1946 29.0115 29.1927C28.7391 29.1889 28.4648 29.1889 28.1923 29.1927C27.8896 29.1965 27.7156 29.38 27.7156 29.6846C27.7156 31.5575 27.7156 33.4324 27.7156 35.3054C27.7156 35.4037 27.7194 35.504 27.7288 35.6024C27.8404 36.9532 28.9945 38.0145 30.3491 38.0145C30.9431 38.0145 31.5372 38.0183 32.1312 38.0145C32.7575 38.0108 33.3156 37.8102 33.8018 37.4148C33.868 37.3618 33.9058 37.3505 33.9777 37.411C34.4753 37.8235 35.0523 38.0164 35.6974 38.0164C36.2631 38.0164 36.8307 38.0164 37.3964 38.0164C37.5874 38.0164 37.7766 37.9956 37.9639 37.9559C39.1955 37.6929 40.0601 36.6221 40.0601 35.3621C40.0601 34.4445 40.0601 33.5251 40.0601 32.6075Z" fill="#5B2C91"/>
<path d="M48.108 34.4894C46.445 34.4894 44.7839 34.4894 43.121 34.4875C43.0226 34.4875 42.9923 34.5121 42.9961 34.6104C43.0037 34.8412 42.9828 35.0758 43.0528 35.301C43.2269 35.8761 43.7377 36.2526 44.3507 36.2526C45.7299 36.2526 47.109 36.2526 48.4882 36.2526C49.1334 36.2526 49.7785 36.2526 50.4236 36.2526C50.855 36.2526 51.2163 36.1031 51.4982 35.7758C51.5909 35.668 51.712 35.6396 51.8785 35.6737C52.2361 35.7437 52.6031 35.7475 52.9607 35.6737C53.2596 35.6112 53.4582 35.8402 53.3485 36.0918C52.8869 37.1456 52.0942 37.785 50.9553 37.9818C50.7661 38.0139 50.575 38.0196 50.3839 38.0196C48.3596 38.0196 46.3353 38.0196 44.311 38.0196C42.6688 38.0196 41.3142 36.7312 41.2404 35.091C41.2101 34.4194 41.231 33.7458 41.2329 33.0723C41.2329 32.7204 41.2177 32.3686 41.2442 32.0186C41.3426 30.6999 42.3491 29.5478 43.6412 29.2734C43.8853 29.2205 44.1331 29.1978 44.3828 29.1978C46.4109 29.1978 48.4372 29.1978 50.4653 29.1978C51.0063 29.1978 51.5247 29.3132 51.9939 29.5913C53.0193 30.1948 53.5528 31.0991 53.5774 32.2891C53.5888 32.8623 53.5812 33.4356 53.5774 34.0088C53.5774 34.3191 53.3977 34.4931 53.0836 34.4931C51.4244 34.4931 49.7653 34.4931 48.1061 34.4931L48.108 34.4894ZM47.4042 32.7242H50.4861C50.8947 32.7242 51.3052 32.7223 51.7139 32.7242C51.799 32.7242 51.818 32.6959 51.8085 32.6013C51.8009 32.5237 51.799 32.4461 51.8047 32.3667C51.8596 31.6156 51.2523 30.9629 50.5126 30.961C48.4372 30.9591 46.3636 30.961 44.2882 30.961C43.7661 30.961 43.2761 31.3129 43.0869 31.801C42.9847 32.0677 42.9999 32.3421 42.9942 32.6164C42.9923 32.7053 43.0226 32.7204 43.1039 32.7204C44.538 32.7186 45.9701 32.7204 47.4042 32.7204V32.7242Z" fill="#FDFDFD"/>
<path d="M40.0594 32.6082C40.0594 33.5257 40.0594 34.4452 40.0594 35.3628C40.0594 36.6228 39.1948 37.6936 37.9632 37.9565C37.7759 37.9963 37.5867 38.0171 37.3956 38.0171C36.83 38.0171 36.2624 38.0171 35.6967 38.0171C35.0516 38.0171 34.4746 37.8241 33.977 37.4117C33.9051 37.353 33.8673 37.3625 33.801 37.4155C33.3148 37.809 32.7567 38.0095 32.1305 38.0152C31.5365 38.019 30.9424 38.0152 30.3484 38.0152C28.9938 38.0152 27.8416 36.9538 27.7281 35.603C27.7205 35.5047 27.7167 35.4063 27.7148 35.306C27.7148 33.433 27.7148 31.5582 27.7148 29.6852C27.7148 29.3806 27.8908 29.1971 28.1916 29.1933C28.464 29.1895 28.7384 29.1895 29.0108 29.1933C29.3059 29.1971 29.4857 29.3825 29.4857 29.6777C29.4857 31.562 29.4857 33.4463 29.4857 35.3306C29.4857 35.8849 29.8924 36.2728 30.46 36.2501C30.984 36.2274 31.5062 36.2349 32.0302 36.2501C32.6092 36.2671 33.0083 35.883 33.0083 35.3136C33.0083 33.4368 33.0083 31.5582 33.0083 29.6814C33.0083 29.5168 33.0575 29.3844 33.1862 29.2785C33.2713 29.2104 33.3697 29.1952 33.47 29.1933C33.7462 29.1895 34.0224 29.1895 34.2986 29.1933C34.5937 29.1971 34.7735 29.3825 34.7735 29.6777V35.3306C34.7735 35.8849 35.1783 36.2747 35.744 36.252C36.2681 36.2293 36.794 36.233 37.3181 36.252C37.8951 36.2728 38.2962 35.8868 38.2962 35.3193C38.2962 33.4387 38.2962 31.5582 38.2962 29.6777C38.2962 29.375 38.4759 29.1952 38.7786 29.1933C39.0416 29.1933 39.3045 29.1933 39.5675 29.1933C39.8853 29.1933 40.0594 29.3712 40.0594 29.689C40.0594 30.6614 40.0594 31.6339 40.0594 32.6082Z" fill="#FDFDFD"/>
<path d="M47.4042 32.725C45.9702 32.725 44.538 32.725 43.104 32.725C43.0226 32.725 42.9923 32.708 42.9942 32.6209C43.0018 32.3466 42.9848 32.0704 43.0869 31.8055C43.2761 31.3193 43.7661 30.9655 44.2883 30.9655C46.3637 30.9655 48.4372 30.9618 50.5126 30.9655C51.2523 30.9655 51.8596 31.6182 51.8047 32.3712C51.7991 32.4488 51.8009 32.5264 51.8085 32.6058C51.818 32.7004 51.7991 32.7288 51.7139 32.7288C51.3053 32.725 50.8947 32.7288 50.4861 32.7288H47.4042V32.725Z" fill="#5B2C91"/>
</svg>
