<svg width="46" height="45" viewBox="0 0 46 45" fill="none" xmlns="http://www.w3.org/2000/svg">
<mask id="mask0_1032_118" style="mask-type:luminance" maskUnits="userSpaceOnUse" x="0" y="0" width="46" height="45">
<path d="M45.3098 0H0.0498047V44.41H45.3098V0Z" fill="white"/>
</mask>
<g mask="url(#mask0_1032_118)">
<path d="M23.0697 44.4103C10.6397 44.4103 0.579724 34.5803 0.439724 22.4703C0.309724 10.1203 10.3597 0.270278 22.5597 0.0102781C35.2697 -0.259722 45.4197 9.64028 45.6897 21.5903C45.8397 27.8103 43.6897 33.2003 39.2897 37.6803C34.9497 42.1103 29.0597 44.4203 23.0597 44.4103H23.0697ZM31.7897 23.2203H37.5997C37.9597 23.2203 38.1697 23.0203 38.1697 22.6703C38.1697 22.0103 38.1697 21.3603 38.1697 20.7003C38.1397 19.3403 37.5197 18.3003 36.3197 17.6103C35.7697 17.2903 35.1797 17.1603 34.5397 17.1603C32.1697 17.1603 29.7997 17.1603 27.4397 17.1603C27.1497 17.1603 26.8597 17.1903 26.5797 17.2503C25.0797 17.5603 23.8997 18.8803 23.7797 20.3903C23.7497 20.7903 23.7797 21.1903 23.7797 21.6003C23.7797 22.3703 23.7497 23.1403 23.7797 23.9103C23.8697 25.7903 25.4497 27.2603 27.3697 27.2603C29.7297 27.2603 32.0897 27.2603 34.4497 27.2603C34.6797 27.2603 34.8997 27.2603 35.1197 27.2203C36.4497 26.9903 37.3697 26.2603 37.9197 25.0603C38.0497 24.7703 37.8197 24.5103 37.4697 24.5803C37.0497 24.6703 36.6197 24.6603 36.2097 24.5803C36.0097 24.5403 35.8797 24.5803 35.7697 24.7003C35.4397 25.0803 35.0197 25.2503 34.5097 25.2503C33.7597 25.2503 33.0097 25.2503 32.2497 25.2503C30.6397 25.2503 29.0397 25.2503 27.4297 25.2503C26.7097 25.2503 26.1197 24.8203 25.9197 24.1603C25.8297 23.9003 25.8597 23.6303 25.8497 23.3703C25.8497 23.2603 25.8797 23.2303 25.9997 23.2303C27.9397 23.2303 29.8797 23.2303 31.8197 23.2303L31.7897 23.2203ZM22.3897 21.0603V17.7203C22.3897 17.3603 22.1897 17.1603 21.8097 17.1503C21.4997 17.1503 21.1997 17.1503 20.8997 17.1503C20.5397 17.1503 20.3397 17.3603 20.3397 17.7003C20.3397 19.8503 20.3397 22.0103 20.3397 24.1603C20.3397 24.8103 19.8797 25.2503 19.1997 25.2303C18.5897 25.2103 17.9697 25.2003 17.3597 25.2303C16.6997 25.2603 16.2197 24.8103 16.2197 24.1803V17.7103C16.2197 17.3703 16.0197 17.1603 15.6597 17.1603C15.3397 17.1603 15.0197 17.1603 14.6997 17.1603C14.5797 17.1603 14.4697 17.1803 14.3697 17.2603C14.2197 17.3803 14.1697 17.5303 14.1697 17.7203V24.1703C14.1697 24.8203 13.6997 25.2603 13.0297 25.2403C12.4197 25.2203 11.8097 25.2103 11.1997 25.2403C10.5297 25.2703 10.0597 24.8203 10.0597 24.1903V17.7203C10.0597 17.3803 9.84973 17.1703 9.50973 17.1603C9.18973 17.1603 8.86971 17.1603 8.54971 17.1603C8.18971 17.1603 7.98971 17.3703 7.98971 17.7203V24.1603C7.98971 24.2703 7.98971 24.3903 7.98971 24.5003C8.12971 26.0503 9.46971 27.2603 11.0497 27.2603C11.7397 27.2603 12.4397 27.2603 13.1297 27.2603C13.8597 27.2603 14.5097 27.0203 15.0797 26.5703C15.1597 26.5103 15.1997 26.5003 15.2797 26.5703C15.8597 27.0403 16.5397 27.2603 17.2897 27.2603C17.9597 27.2603 18.6097 27.2603 19.2797 27.2603C19.4997 27.2603 19.7197 27.2403 19.9397 27.1903C21.3697 26.8903 22.3897 25.6603 22.3897 24.2203V21.0703V21.0603Z" fill="#815AA6"/>
<path d="M30.9596 21.2004C29.2896 21.2004 27.6196 21.2004 25.9496 21.2004C25.8596 21.2004 25.8096 21.1804 25.8196 21.0804C25.8196 20.7704 25.7996 20.4504 25.9296 20.1504C26.1396 19.5904 26.7196 19.1904 27.3296 19.1904C29.7496 19.1904 32.1696 19.1904 34.5896 19.1904C35.4496 19.1904 36.1596 19.9404 36.0996 20.8004C36.0996 20.8904 36.0996 20.9804 36.0996 21.0704C36.1196 21.1804 36.0996 21.2104 35.9896 21.2104C35.5096 21.2104 35.0296 21.2104 34.5596 21.2104H30.9596V21.2004Z" fill="#815AA6"/>
</g>
</svg>
